<svg width="852" height="909" viewBox="0 0 852 909" fill="none" xmlns="http://www.w3.org/2000/svg">
<path d="M582.124 707.403C582.369 714.599 582.859 724.992 583.839 737.556C585.187 756.63 588.864 800.26 607.859 891.974C621.339 956.962 635.309 1011.78 649.28 1066.49C651.363 1074.6 653.079 1081.23 654.304 1085.8C667.539 1083.51 680.775 1081.11 694.01 1078.83C692.172 1066.49 689.598 1047.99 686.534 1025.6C674.77 938.687 667.417 883.408 664.108 817.849C662.76 790.551 661.78 751.947 663.25 705.119C636.167 705.804 609.084 706.604 582.124 707.403Z" fill="white"/>
<path opacity="0.11" d="M626.485 719.282C627.71 727.505 629.549 739.955 631.754 754.917C640.21 811.338 646.828 852.912 648.176 861.821C653.936 897.913 663.249 961.416 679.18 1081.11C683.96 1080.66 688.862 1080.31 693.641 1079.86C691.558 1067.41 688.494 1048.1 685.063 1024.58C676.975 968.612 666.313 894.144 662.636 800.945C661.901 782.328 661.166 755.488 661.288 722.937C649.769 721.794 638.127 720.538 626.485 719.282Z" fill="#606060"/>
<path d="M579.917 709.231C588.372 814.308 610.676 917.786 636.043 1020.35C643.274 1049.7 650.749 1078.94 658.347 1108.3C658.837 1110.47 662.391 1109.55 661.901 1107.38C635.798 1005.5 609.573 903.395 594.132 799.575C589.598 769.536 586.167 739.498 583.716 709.231C583.471 707.061 579.794 707.061 579.917 709.231Z" fill="#161616"/>
<path d="M659.941 725.906C659.818 835.209 669.009 944.512 687.391 1052.44C692.661 1083.28 698.666 1113.89 705.406 1144.5C705.896 1146.67 709.45 1145.76 708.96 1143.59C685.431 1036.45 670.97 927.608 665.823 818.305C664.352 787.467 663.74 756.744 663.74 725.906C663.617 723.736 659.941 723.736 659.941 725.906Z" fill="#161616"/>
<path d="M689.72 718.938C692.171 735.842 695.97 758.799 701.485 785.754C705.651 806.084 715.21 850.17 732.857 907.506C746.705 952.506 751.117 958.56 777.097 1036.57C785.675 1062.27 792.415 1083.28 796.704 1096.99C809.449 1093.68 822.194 1090.25 834.939 1086.94C832.366 1074.14 828.567 1055.07 824.155 1032C808.959 952.392 794.989 879.752 784.94 793.178C781.386 762.911 777.097 720.651 774.156 669.598C745.97 685.93 717.784 702.377 689.72 718.938Z" fill="white"/>
<path d="M688.618 723.964C703.569 827.785 737.024 928.179 771.46 1027.55C781.509 1056.33 791.558 1085.11 801.607 1113.89C802.342 1115.95 805.896 1115.03 805.161 1112.98C770.235 1012.93 732.98 912.989 708.716 810.082C701.976 781.3 696.338 752.289 692.049 723.05C691.804 720.88 688.373 721.794 688.618 723.964Z" fill="#161616"/>
<path d="M772.808 688.215C782.121 808.14 799.278 927.494 824.155 1045.59C831.263 1079.06 838.861 1112.41 847.194 1145.64C847.684 1147.81 851.238 1146.9 850.748 1144.73C821.582 1027.89 800.013 909.448 786.288 790.208C782.366 756.286 779.18 722.365 776.484 688.329C776.362 685.931 772.685 685.931 772.808 688.215Z" fill="#161616"/>
<path opacity="0.1" d="M750.259 735.156C751.852 745.207 756.141 772.733 757.734 783.012C781.631 936.516 788.126 981.06 804.915 1043.99C808.224 1056.33 812.881 1073 819.008 1092.65C824.523 1091.05 830.037 1089.56 835.552 1087.96C833.346 1076.77 830.282 1060.1 826.483 1040.11C809.694 951.478 801.239 907.277 796.704 879.523C790.209 840.576 782.489 785.525 777.709 717.339C768.518 723.278 759.327 729.217 750.259 735.156Z" fill="#606060"/>
<path d="M595.603 513.467C589.108 531.742 583.103 551.958 578.447 574.001C565.579 633.963 566.069 687.301 570.726 728.99C580.898 733.216 595.481 738.584 613.495 743.038C633.838 747.949 669.622 756.401 713.985 749.548C730.774 746.921 757.366 740.868 786.778 724.764C785.92 694.954 782.734 660.347 775.258 622.085C767.048 580.397 755.406 544.305 743.764 514.381C694.377 514.153 644.99 513.81 595.603 513.467Z" fill="#7F7F7F"/>
<path opacity="0.11" d="M712.269 517.122C716.313 527.173 719.989 537.681 723.298 548.759C745.847 624.712 739.842 694.725 727.832 747.721C738.371 745.208 750.503 741.439 763.616 735.728C771.827 732.188 779.18 728.304 785.552 724.649C785.797 708.545 785.307 691.413 783.714 673.481C778.077 610.093 760.798 556.412 742.538 514.724C732.489 515.409 722.44 516.323 712.269 517.122Z" fill="#606060"/>
<path d="M619.377 268.364C616.191 270.534 611.902 273.618 607.245 277.729C592.294 290.864 584.574 303.999 582.49 307.653C576.118 319.075 573.667 328.783 569.868 344.43C565.456 362.248 566.192 368.415 559.329 376.753C552.711 384.862 544.256 388.746 540.334 390.459C528.814 395.713 518.52 395.827 512.393 395.827C498.668 395.941 487.638 392.4 480.776 389.431C479.428 391.03 477.957 392.743 476.609 394.342C472.688 392.515 466.683 389.774 459.207 387.032C444.502 381.55 437.026 378.809 428.203 379.723C426.365 379.951 410.678 381.664 407.124 391.03C405.899 394.342 406.022 399.139 408.718 401.309C411.904 403.822 418.031 402.451 423.423 401.309C427.958 400.395 430.163 399.253 432.86 400.281C434.82 401.081 436.046 402.68 437.026 404.736C440.825 412.045 438.374 417.756 439.6 429.749C440.212 436.259 440.703 439.685 443.276 441.513C444.134 442.198 447.198 444.025 460.678 440.485C465.58 439.228 472.565 437.058 480.653 433.175C480.163 436.259 479.55 439.343 479.06 442.541C487.393 444.482 499.526 446.766 514.354 447.909C536.045 449.622 550.873 450.764 568.52 444.939C588.128 438.429 600.873 426.893 606.877 420.383C618.765 407.705 623.421 395.142 625.872 388.517C643.152 342.26 622.564 278.186 619.377 268.364Z" fill="white"/>
<path opacity="0.1" d="M625.137 284.468C624.157 292.235 622.441 303.656 619.867 317.362C614.23 346.601 611.534 361.22 603.568 376.182C599.034 384.634 589.108 403.48 568.275 415.929C532.368 437.401 489.722 424.723 482.001 422.325C469.379 428.264 456.756 434.089 444.134 440.028C447.443 440.599 451.487 440.942 456.266 440.485C467.173 439.571 475.261 435.345 479.428 432.604C479.428 436.145 479.428 439.8 479.428 443.34C487.761 445.168 499.893 447.338 514.721 448.252C535.677 449.508 551.118 450.422 568.887 444.368C599.769 433.746 614.965 409.533 617.784 404.622C626.362 390.231 627.955 377.781 629.916 360.535C631.877 343.174 632.612 316.791 625.137 284.468Z" fill="#606060"/>
<path d="M618.397 266.422C599.279 279.214 584.328 296.917 575.873 317.476C566.314 340.89 566.436 367.159 552.343 388.974C551.118 390.916 554.304 392.629 555.53 390.687C568.397 370.7 569.623 347.172 576.853 325.357C584.328 302.857 599.647 283.212 620.235 269.392C622.196 268.135 620.358 265.166 618.397 266.422Z" fill="#161616"/>
<path d="M479.305 390.002C480.285 406.563 479.795 423.124 477.834 439.571C477.589 441.741 481.266 441.741 481.511 439.571C483.594 423.124 484.084 406.563 482.982 390.002C482.859 387.718 479.183 387.718 479.305 390.002Z" fill="#161616"/>
<path d="M479.55 391.601C497.197 396.855 516.928 400.51 535.065 394.913C548.79 390.687 560.555 381.664 565.579 368.758C566.437 366.702 562.883 365.789 562.025 367.844C557.001 380.636 544.501 389.202 530.653 392.515C513.986 396.512 496.585 393.086 480.653 388.289C478.325 387.603 477.345 390.916 479.55 391.601Z" fill="#161616"/>
<path d="M479.183 443.227C507.491 450.194 541.192 454.305 569.868 446.425C595.848 439.229 612.392 418.556 624.77 397.312C625.873 395.371 622.686 393.658 621.583 395.599C609.206 416.729 592.907 437.173 566.805 443.683C539.231 450.536 507.369 446.653 480.163 440.029C477.957 439.343 476.977 442.655 479.183 443.227Z" fill="#161616"/>
<path d="M478.814 391.715C471.339 391.829 463.863 387.032 457.123 384.177C451.976 382.007 446.584 379.951 441.07 378.809C431.266 376.753 420.727 377.438 412.639 383.492C407.614 387.261 401.364 395.941 406.634 401.652C409.085 404.164 413.006 405.307 416.56 405.421C421.094 405.535 433.104 398.682 435.31 403.936C436.168 405.992 439.722 405.078 438.864 403.022C436.658 397.654 431.021 397.654 425.874 399.482C420.849 401.195 407.982 405.649 408.594 395.027C408.84 390.459 414.599 386.004 418.521 383.949C429.428 378.466 442.663 382.007 453.202 386.347C461.167 389.659 469.868 395.37 478.814 395.256C481.265 395.142 481.265 391.715 478.814 391.715Z" fill="#161616"/>
<path d="M444.747 442.426C456.879 444.71 469.011 442.312 478.938 435.345C480.776 434.089 478.938 431.119 477.1 432.375C467.908 438.771 457.002 441.17 445.727 439.114C443.399 438.657 442.418 441.969 444.747 442.426Z" fill="#161616"/>
<path d="M666.313 246.092C659.941 246.092 653.691 246.092 647.318 246.092C647.318 249.633 647.318 253.173 647.318 256.714C642.661 257.399 636.166 258.77 628.936 261.968C623.176 264.595 618.765 267.678 615.701 270.191C611.412 291.663 607 308.91 603.691 320.902C598.789 338.377 596.093 345.687 595.481 359.164C594.99 369.329 596.338 370.586 596.706 390.345C596.829 398.911 597.074 409.533 596.093 422.21C595.358 431.348 594.378 438.086 591.069 456.932C585.187 490.282 584.329 492.224 582.858 501.704C580.775 515.181 579.059 534.597 581.02 558.925C583.961 560.752 588.74 563.608 594.99 566.577C606.387 572.174 612.147 573.43 621.583 577.77C626.73 580.169 634.083 584.052 642.416 590.105C644.99 572.402 647.441 554.699 650.014 537.11C653.446 555.955 656.754 574.801 660.186 593.646C665.823 594.103 674.156 594.331 684.205 593.646C697.318 592.732 722.195 590.562 744.866 575.372C756.631 567.491 761.9 560.067 763.248 558.24C769.008 550.016 771.214 542.021 772.072 536.996C770.111 526.602 767.783 512.097 765.699 494.508C763.248 472.579 762.146 452.591 761.9 419.698C761.655 392.629 761.9 357.337 763.739 315.42C767.783 303.199 771.704 291.092 775.748 278.871C767.66 273.96 757.979 268.821 746.705 264.138C731.999 257.97 718.273 254.201 706.876 251.803C707.122 247.463 707.244 243.122 707.489 238.782C703.323 241.638 693.641 247.348 680.284 247.577C674.646 247.919 669.99 247.12 666.313 246.092Z" fill="white"/>
<path opacity="0.09" d="M763.126 333.923C760.307 342.375 756.141 355.966 751.729 372.87C735.553 435.345 738.249 463.442 727.709 502.503C721.705 524.547 709.817 556.755 682.857 593.875C699.401 592.39 712.268 588.621 720.847 585.651C735.675 580.397 750.503 575.143 761.288 561.438C768.886 551.958 771.582 542.135 772.684 536.082C769.008 516.437 765.944 495.65 763.861 473.607C758.592 421.868 759.449 374.926 763.126 333.923Z" fill="#606060"/>
<path opacity="0.12" d="M678.323 251.346C676.975 251.803 678.69 256.257 676.484 263.11C675.136 266.993 673.053 269.963 671.46 271.904C678.69 274.646 685.798 274.417 688.494 271.333C693.641 265.508 681.141 250.432 678.323 251.346Z" fill="#606060"/>
<path opacity="0.12" d="M646.705 534.825C644.254 541.678 641.926 549.216 639.72 557.211C637.147 566.805 635.308 575.942 634.083 584.28C637.514 585.993 640.823 587.821 644.254 589.534C645.112 571.374 645.97 553.099 646.705 534.825Z" fill="#606060"/>
<path d="M664.842 244.722C658.837 244.722 652.955 245.064 646.95 245.75C646.092 245.864 644.989 246.435 645.112 247.463C645.725 252.602 646.337 257.742 646.95 262.996C647.195 265.166 650.872 265.166 650.627 262.996C650.014 257.856 649.401 252.717 648.788 247.463C648.176 248.034 647.563 248.605 646.95 249.176C652.832 248.491 658.837 248.034 664.842 248.148C667.293 248.148 667.293 244.722 664.842 244.722Z" fill="#161616"/>
<path d="M647.197 249.404C651.854 253.173 654.673 258.085 655.653 263.795C656.021 265.965 659.574 265.052 659.207 262.882C658.104 256.714 654.795 251.117 649.771 247.006C648.055 245.521 645.481 247.919 647.197 249.404Z" fill="#161616"/>
<path d="M617.049 271.562C626.363 265.051 636.657 260.254 647.931 257.399C650.26 256.828 649.279 253.516 646.951 254.087C635.431 257.056 624.77 261.968 615.211 268.592C613.25 269.963 615.088 272.932 617.049 271.562Z" fill="#161616"/>
<path d="M714.108 253.059C735.921 258.656 756.142 267.907 774.156 280.699C775.994 282.07 777.833 279.1 775.994 277.73C757.735 264.823 737.147 255.458 715.088 249.747C712.76 249.176 711.779 252.488 714.108 253.059Z" fill="#161616"/>
<path d="M607.368 309.71C582.859 358.822 600.75 413.416 597.932 465.155C597.809 467.325 601.486 467.325 601.608 465.155C604.304 414.216 586.412 359.85 610.554 311.423C611.535 309.481 608.348 307.768 607.368 309.71Z" fill="#161616"/>
<path d="M595.236 408.39C596.339 434.203 588.373 459.102 583.716 484.343C579.304 508.899 578.324 533.798 579.304 558.696C579.427 560.867 583.103 560.867 582.981 558.696C582 532.656 582.981 506.615 588.005 481.031C592.785 456.931 599.892 433.175 598.79 408.505C598.79 406.22 595.113 406.22 595.236 408.39Z" fill="#161616"/>
<path d="M580.407 560.182C589.721 565.892 599.647 570.803 609.941 574.801C621.706 579.255 631.51 584.167 641.681 591.362C643.519 592.733 645.357 589.763 643.519 588.393C634.573 581.997 625.627 576.971 615.088 573.088C603.569 568.862 592.539 563.608 582.123 557.326C580.285 555.956 578.446 558.925 580.407 560.182Z" fill="#161616"/>
<path d="M645.48 589.877C647.441 570.803 649.279 551.729 651.24 532.77C651.485 530.6 647.809 530.6 647.563 532.77C645.603 551.843 643.764 570.917 641.804 589.877C641.559 592.047 645.235 592.047 645.48 589.877Z" fill="#161616"/>
<path d="M647.931 533.569C649.892 554.013 653.323 574.229 657.98 594.331C658.47 596.501 662.024 595.587 661.534 593.417C656.877 573.658 653.568 553.671 651.608 533.569C651.362 531.399 647.686 531.285 647.931 533.569Z" fill="#161616"/>
<path d="M660.799 596.388C682.735 597.187 704.549 593.647 724.892 585.994C741.19 579.827 759.94 571.032 766.435 554.7C767.293 552.644 763.739 551.73 762.881 553.786C756.264 570.461 734.573 579.256 717.906 584.852C699.524 591.02 680.162 593.647 660.799 593.076C658.471 592.961 658.471 596.388 660.799 596.388Z" fill="#161616"/>
<path d="M761.656 332.667C756.999 401.195 759.572 469.952 769.131 537.91C769.499 540.08 773.175 540.08 772.808 537.91C763.126 469.838 760.553 401.081 765.332 332.667C765.455 330.497 761.778 330.497 761.656 332.667Z" fill="#161616"/>
<path d="M769.498 535.282C768.028 544.648 764.596 553.328 759.082 561.323C757.856 563.151 761.043 564.864 762.268 563.036C767.905 554.813 771.582 545.904 773.052 536.196C773.42 534.026 769.866 533.112 769.498 535.282Z" fill="#161616"/>
<path d="M656.877 268.592C659.94 272.018 664.475 273.96 669.254 274.074C671.583 274.074 671.583 270.648 669.254 270.648C665.333 270.534 661.901 268.935 659.45 266.193C657.857 264.48 655.284 266.879 656.877 268.592Z" fill="#161616"/>
<path d="M667.784 279.785C644.132 354.595 663.74 433.289 651.73 509.47C651.363 511.64 654.916 512.553 655.284 510.383C667.294 434.202 647.809 355.509 671.338 280.698C672.073 278.528 668.519 277.729 667.784 279.785Z" fill="#161616"/>
<path d="M658.593 290.179C658.47 290.065 658.47 290.065 658.593 290.179C658.47 290.179 658.47 290.179 658.715 290.293C658.592 290.179 658.592 290.179 658.715 290.407C658.715 290.293 658.715 290.179 658.593 290.179C658.838 290.407 658.715 290.407 658.593 290.179C658.715 290.065 658.715 290.065 658.715 290.293C658.715 290.179 658.715 290.179 658.593 290.179C658.715 290.407 658.715 290.293 658.593 290.179C658.715 290.065 658.715 289.95 658.593 290.179C658.715 290.065 658.715 290.179 658.593 290.293C658.715 290.179 658.715 290.179 658.47 290.293C658.593 290.179 658.593 290.179 658.347 290.293C658.225 290.293 658.102 290.293 657.857 290.293C657.98 290.293 658.102 290.293 657.857 290.293C657.98 290.407 657.98 290.407 657.857 290.293C657.98 290.407 657.98 290.407 658.102 290.522C658.102 290.75 658.102 290.636 658.102 290.407C658.102 290.636 658.102 290.522 658.102 290.293C658.102 290.179 658.225 290.065 658.347 289.951C658.225 290.065 658.225 290.065 658.347 289.951C658.47 289.836 658.593 289.836 658.838 289.836C658.593 289.836 658.715 289.836 658.96 289.836C658.715 289.722 658.838 289.836 659.083 289.836C658.96 289.836 658.96 289.722 658.838 289.722C659.083 289.836 659.083 289.836 658.96 289.722C659.083 289.95 659.083 289.95 658.96 289.836C658.838 289.722 658.838 289.722 658.96 289.951C658.96 289.722 658.96 289.836 658.96 290.065C658.96 290.293 658.838 290.407 658.96 290.179C658.838 290.407 658.838 290.407 658.96 290.293C659.573 289.494 659.083 288.351 658.347 287.895C657.367 287.438 656.387 287.78 655.774 288.466C654.303 290.407 656.264 293.034 658.593 293.148C659.695 293.263 660.798 292.692 661.411 291.778C662.024 290.75 661.901 289.494 661.289 288.58C660.063 286.638 656.877 286.41 655.651 288.466C654.548 290.293 655.529 292.92 657.857 293.377C658.838 293.605 659.818 293.034 660.063 292.235C660.186 291.435 659.573 290.407 658.593 290.179Z" fill="#161616"/>
<path d="M653.568 327.413C653.568 326.727 653.446 326.042 653.446 325.357C652.956 325.928 652.588 326.499 652.098 326.956C652.343 326.956 652.343 326.842 652.22 326.956C652.098 326.956 652.098 326.956 652.343 326.956C651.975 326.842 652.588 326.956 652.22 326.956C652.22 326.956 652.343 326.956 652.343 327.07C652.22 326.956 652.22 326.956 652.343 327.07V327.184C652.22 327.07 652.343 327.07 652.343 326.956C652.22 327.184 652.343 327.184 652.343 326.956C652.22 327.07 652.22 327.07 652.098 327.184C652.22 327.184 652.466 327.184 652.098 327.07C652.588 327.184 652.956 327.413 653.446 327.527C653.446 327.527 653.323 327.298 653.323 327.184C653.323 327.07 653.323 326.956 653.323 326.842C653.936 324.672 650.382 323.758 649.769 325.928C649.402 327.298 649.647 329.012 650.872 330.04C652.22 331.296 654.671 330.154 655.529 328.897C657.367 326.271 654.304 322.844 651.24 323.872C650.505 324.1 649.769 324.786 649.892 325.471C649.892 326.156 650.015 326.842 650.015 327.527C650.137 328.441 650.75 329.24 651.853 329.24C652.588 329.126 653.568 328.326 653.568 327.413Z" fill="#161616"/>
<path d="M651.117 360.42C650.872 360.077 651.117 360.534 650.995 360.191C650.995 360.306 650.995 360.306 650.995 360.077C650.995 360.191 650.995 360.191 650.995 360.077C650.995 360.077 650.995 359.963 651.117 359.963C650.995 360.077 651.117 359.963 651.24 359.849L651.117 359.963C650.627 359.849 650.137 359.849 649.647 359.735C649.279 359.506 649.769 359.963 649.524 359.62C649.647 359.735 649.647 359.735 649.524 359.62C649.524 359.735 649.524 359.735 649.524 359.849C649.524 359.506 649.524 359.963 649.524 359.963C649.401 360.306 649.647 359.849 649.401 360.077C649.156 360.306 649.647 359.963 649.279 360.191C649.401 360.191 649.524 360.077 649.279 360.191C649.034 360.191 649.892 360.077 649.401 360.191C650.014 360.763 650.627 361.334 651.24 361.905C651.24 361.219 651.117 360.534 651.117 359.849C651.117 358.935 650.259 358.136 649.279 358.136C648.299 358.136 647.441 358.935 647.441 359.849C647.441 360.534 647.563 361.219 647.563 361.905C647.563 362.818 648.421 363.618 649.401 363.618C652.343 363.504 654.303 360.191 652.71 357.793C652.22 357.108 651.485 356.422 650.627 356.422C649.769 356.422 648.911 356.993 648.421 357.565C647.318 358.707 647.073 360.534 647.931 361.905C649.156 364.075 652.343 362.247 651.117 360.42Z" fill="#161616"/>
<path d="M650.382 390.458C650.504 390.687 650.627 390.801 650.627 391.029C650.627 390.801 650.627 391.029 650.627 391.144C650.504 391.486 650.749 390.801 650.627 391.144C650.504 391.372 650.749 390.915 650.627 391.144C650.627 391.029 650.994 390.915 650.627 391.144C650.382 391.258 650.872 391.029 650.627 391.144C650.749 391.144 650.259 391.144 650.137 391.144C649.891 390.915 650.504 391.144 650.137 391.144C649.891 390.915 649.646 390.687 649.524 390.573C649.769 391.029 649.769 391.6 649.524 392.286C649.891 391.943 650.382 391.486 650.749 391.144C650.504 391.258 650.504 391.258 650.749 391.144C650.994 391.144 650.994 391.144 650.749 391.144H650.872C650.994 391.258 650.994 391.258 650.872 391.144C650.994 391.258 650.994 391.258 650.872 391.258C650.749 391.144 650.872 391.144 650.872 391.372C651.24 390.458 650.504 389.545 649.646 389.316C648.543 389.088 647.808 389.659 647.441 390.458C646.705 392.172 648.176 394.113 650.014 394.456C650.504 394.57 651.117 394.57 651.607 394.342C652.465 394.113 652.833 393.542 652.955 392.743C653.2 391.715 653.2 390.687 652.833 389.659C652.465 388.631 651.73 387.831 650.504 387.717C649.524 387.603 648.666 387.946 647.931 388.517C646.46 389.659 646.338 391.486 647.563 392.857C648.176 393.542 649.524 393.428 650.137 392.857C651.117 392.172 651.117 391.144 650.382 390.458Z" fill="#161616"/>
<path d="M650.505 417.299C650.382 417.071 650.382 417.185 650.505 417.299C650.505 417.299 650.505 417.299 650.382 417.071C650.382 417.299 650.505 416.842 650.382 417.185C649.892 417.413 649.279 417.756 648.789 417.984C649.279 417.984 648.544 417.984 648.912 417.984C648.667 417.87 648.667 417.87 648.789 417.984C648.912 418.099 648.912 417.984 648.667 417.87C648.912 418.213 648.544 417.528 648.789 417.984C648.912 418.099 648.912 418.441 648.789 418.099C648.789 418.213 648.912 418.556 648.789 418.213C648.789 418.327 648.789 418.784 648.789 418.327C648.789 418.441 648.544 418.67 648.789 418.441C648.789 418.327 648.912 418.327 648.912 418.213C648.789 418.327 648.789 418.327 648.912 418.213C649.279 418.099 649.525 418.099 649.892 417.984C649.525 417.984 650.137 418.099 650.137 418.099L650.26 418.213C650.137 418.099 650.137 418.099 650.137 418.099C650.26 418.327 650.26 418.441 650.137 418.67C650.627 417.87 650.382 416.842 649.525 416.271C648.667 415.814 647.441 416.043 646.951 416.842C646.216 418.213 646.583 419.812 647.931 420.611C648.667 421.068 649.647 421.297 650.505 421.068C651.24 420.84 651.73 420.155 651.975 419.583C652.956 417.299 651.363 414.444 648.544 414.444C647.931 414.444 647.196 414.786 646.951 415.243C646.216 416.728 646.338 418.327 647.686 419.469C649.647 421.297 652.221 418.784 650.505 417.299Z" fill="#161616"/>
<path d="M649.77 444.597C650.015 444.711 650.015 444.711 650.137 444.825C650.137 444.825 650.137 444.711 650.015 444.711C650.137 444.825 650.137 444.939 650.015 444.825C650.015 444.711 650.015 444.711 650.015 444.825C650.015 444.939 650.015 444.939 650.015 444.711C650.015 444.939 650.015 445.053 649.77 445.168C649.157 445.282 648.544 445.51 647.932 445.624C647.686 445.51 648.299 445.739 647.932 445.624C647.686 445.51 647.687 445.396 647.809 445.624L647.686 445.51C647.686 445.624 647.809 445.624 647.809 445.739C647.809 445.624 647.809 445.624 647.686 445.51C647.686 445.624 647.687 445.624 647.809 445.739C647.809 445.51 647.809 445.396 647.809 445.624C647.809 445.624 647.809 446.081 647.809 445.853C647.809 445.739 647.809 445.739 647.809 445.853C647.809 445.967 647.809 445.967 647.809 445.853C647.809 445.739 647.932 445.739 647.809 445.853C647.932 445.624 648.054 445.624 647.932 445.739C647.809 445.853 647.932 445.853 648.054 445.624C647.932 445.739 647.932 445.739 648.177 445.624C648.912 445.853 649.525 446.196 650.26 446.424C650.26 446.538 650.26 446.652 650.26 446.424C650.26 446.538 650.26 446.652 650.26 446.652C650.26 446.424 650.383 446.424 650.26 446.652C650.26 446.767 650.137 446.767 650.015 446.881C650.873 446.31 651.24 445.396 650.628 444.482C650.137 443.683 648.912 443.34 648.054 443.911C646.584 444.825 645.971 446.652 646.951 448.137C647.319 448.708 648.299 449.165 649.035 448.937C650.505 448.48 651.485 447.109 651.363 445.624C651.24 444.14 650.383 442.769 648.789 442.426C648.177 442.312 647.441 442.426 646.951 442.883C645.358 444.597 646.093 447.223 648.422 448.023C649.402 448.366 650.383 447.68 650.628 446.881C651.24 445.739 650.628 444.939 649.77 444.597Z" fill="#161616"/>
<path d="M647.687 477.489C647.687 477.718 647.687 477.832 647.564 478.06L647.442 478.175C647.564 478.06 647.564 478.06 647.442 478.175C647.319 478.289 647.074 478.289 647.319 478.289C647.074 478.289 646.339 478.06 646.706 478.289C646.461 477.946 646.094 477.604 645.848 477.261C645.848 477.375 645.971 477.489 645.971 477.604C645.971 477.718 645.971 477.832 645.971 477.604C645.971 477.718 645.971 477.832 645.971 477.946C645.971 477.718 645.971 477.946 645.848 478.06C645.726 478.289 645.971 477.832 645.848 478.175C645.848 478.175 645.603 478.403 645.726 478.403C645.603 478.517 645.481 478.517 645.358 478.631C646.216 478.86 647.074 479.088 647.932 479.203C647.809 479.088 647.687 478.86 647.564 478.631C647.442 478.403 647.564 478.403 647.442 478.631C647.319 478.86 647.319 479.203 647.074 479.317C646.461 479.774 645.603 479.088 645.358 478.517C645.603 479.431 646.706 480.002 647.564 479.659C648.545 479.431 649.157 478.403 648.79 477.604C648.299 476.005 646.216 475.548 644.746 476.461C643.152 477.604 643.643 479.431 644.623 480.802C645.236 481.601 646.216 481.944 647.197 481.373C648.299 480.802 649.035 479.888 649.402 478.746C649.77 477.604 649.647 476.005 648.667 475.319C646.461 473.606 643.152 476.005 643.888 478.403C644.746 480.573 648.299 479.659 647.687 477.489Z" fill="#161616"/>
<path d="M645.358 512.783C645.603 512.212 645.848 511.64 646.216 511.069C645.848 511.298 645.48 511.64 645.113 511.869C644.868 511.983 644.745 511.869 644.5 511.755C644.377 511.64 644.377 511.64 644.5 511.755C644.377 511.526 644.255 511.298 644.377 510.955C644.5 510.727 644.622 510.612 644.868 510.612C644.622 510.612 644.745 510.612 644.99 510.612C645.113 510.612 645.235 510.613 645.358 510.727C644.5 510.27 643.397 510.498 642.784 511.298C642.294 512.097 642.539 513.239 643.397 513.696C645.725 514.838 648.789 512.783 647.686 510.384C647.196 509.356 646.093 508.557 644.868 508.557C644.01 508.557 643.274 508.899 642.907 509.699C642.662 510.156 642.417 510.612 642.294 511.184C641.926 511.983 642.049 513.011 642.907 513.582C643.642 513.811 644.99 513.582 645.358 512.783Z" fill="#161616"/>
<path d="M694.376 241.066C690.209 242.322 686.165 243.578 681.999 244.835C680.038 245.406 676.852 245.863 675.749 247.69C674.768 249.289 675.626 250.66 675.994 252.259C677.097 256.827 675.871 261.282 673.175 265.279C671.827 267.106 675.013 268.82 676.362 266.992C679.303 262.881 680.651 258.083 679.915 253.058C679.915 252.83 678.935 250.203 679.18 249.86C679.793 248.604 683.592 247.918 684.817 247.576C688.371 246.434 691.803 245.406 695.356 244.264C697.562 243.578 696.582 240.266 694.376 241.066Z" fill="#161616"/>
<path d="M677.465 250.318C681.142 254.087 683.593 258.427 684.573 263.452C685.063 265.622 688.617 264.709 688.127 262.539C687.024 256.942 684.205 252.031 680.039 247.919C678.446 246.206 675.872 248.719 677.465 250.318Z" fill="#161616"/>
<path d="M692.293 245.863C697.318 243.693 702.465 242.208 707.857 241.294C707.122 240.723 706.264 240.152 705.529 239.695C706.019 244.264 705.284 248.718 703.2 252.83C702.22 254.772 705.406 256.599 706.386 254.543C708.837 249.861 709.818 244.835 709.205 239.695C709.082 238.553 708.102 237.868 706.877 238.097C701.117 239.01 695.725 240.723 690.455 243.008C688.249 243.807 690.088 246.777 692.293 245.863Z" fill="#161616"/>
<path d="M707.857 252.145C710.43 252.716 713.004 252.945 715.577 252.83C717.906 252.83 717.906 249.404 715.577 249.404C713.249 249.404 711.043 249.29 708.837 248.833C706.509 248.262 705.528 251.574 707.857 252.145Z" fill="#161616"/>
<path d="M775.748 279.1C780.773 279.1 783.469 288.58 789.719 302.628C803.076 333.123 809.694 348.314 812.513 358.022C817.414 375.154 822.562 399.482 822.684 429.292C818.885 436.944 813.125 447.338 804.302 458.759C796.459 468.924 782.121 487.198 756.263 501.818C748.052 506.501 735.798 512.326 719.621 516.552C718.764 510.841 717.906 505.13 717.048 499.419C714.352 500.676 710.43 502.732 705.651 505.359C698.053 509.585 696.337 511.069 693.028 512.44C688.739 514.153 682.122 515.638 672.195 513.582C667.171 499.991 663.004 488.798 659.573 480.003C658.47 477.033 656.264 471.665 658.96 466.983C660.431 464.47 662.882 463.099 664.597 462.3C662.514 458.645 661.779 455.561 661.411 453.505C661.044 450.878 660.798 449.051 662.024 447.566C664.107 445.168 668.519 445.739 669.009 445.853C668.151 440.485 667.293 434.888 666.436 429.406C664.23 413.759 662.514 398.682 661.411 384.063C666.681 381.093 671.95 378.124 677.22 375.269C703.323 360.763 729.303 347.058 755.038 334.037C755.16 331.068 755.528 326.956 756.263 322.273C757.243 315.649 758.592 310.281 759.449 307.539C759.94 305.027 767.415 279.1 775.748 279.1Z" fill="white"/>
<path opacity="0.07" d="M773.911 277.958C778.445 288.009 784.082 302.286 789.106 319.76C796.827 347.058 804.548 373.213 799.891 405.764C797.44 422.553 794.621 442.541 778.445 461.729C758.102 485.828 729.793 493.138 719.009 495.308C715.088 493.48 708.47 491.196 700.014 491.196C682.367 491.196 670.48 501.59 667.784 504.217C669.255 507.415 670.725 510.498 672.196 513.696C680.284 514.61 686.044 513.354 689.843 511.983C696.828 509.47 700.014 505.587 710.063 501.932C713.495 500.676 716.313 499.991 718.274 499.534C718.519 504.216 718.642 509.014 718.887 513.696C732.367 512.097 742.416 508.671 748.666 506.044C776.116 494.508 791.803 473.607 808.101 451.792C815.087 442.541 820.111 434.546 823.297 429.406C823.175 419.584 822.44 406.678 820.111 391.715C815.577 362.02 807.489 340.547 805.528 335.75C799.523 320.446 789.964 300.001 773.911 277.958Z" fill="#606060"/>
<path opacity="0.1" d="M745.357 339.178C746.46 347.858 747.072 357.566 746.582 368.074C744.866 406.45 729.793 436.374 718.151 454.762C724.646 450.993 731.754 446.311 738.984 440.6C752.097 430.206 761.778 419.584 768.763 410.561C769.621 398.797 769.008 388.861 768.15 381.665C766.68 368.531 763.861 358.137 761.165 348.657C759.327 341.804 757.489 336.208 756.141 332.21C752.587 334.495 749.033 336.893 745.357 339.178Z" fill="#606060"/>
<path opacity="0.1" d="M818.15 382.807C815.821 382.807 816.067 402.452 806.14 429.978C802.709 439.343 797.93 452.364 788.493 465.955C781.753 475.549 767.783 492.224 741.68 506.044C750.994 502.846 762.023 498.049 773.297 490.74C803.567 470.866 817.415 444.254 823.297 430.663C821.581 391.259 819.62 382.807 818.15 382.807Z" fill="#606060"/>
<path d="M760.43 343.632C764.719 366.018 768.763 388.518 766.067 411.361C765.822 413.531 769.498 413.531 769.744 411.361C772.562 388.289 768.396 365.447 763.984 342.718C763.616 340.548 760.062 341.462 760.43 343.632Z" fill="#161616"/>
<path d="M766.802 409.761C758.714 421.182 749.033 431.462 737.759 440.37C732.121 444.825 726.117 448.822 719.744 452.477C715.455 454.99 709.45 456.589 707.734 461.386C706.999 463.442 710.553 464.355 711.288 462.3C712.269 459.216 717.171 457.845 719.867 456.36C722.93 454.647 725.994 452.82 728.935 450.878C734.205 447.452 739.229 443.797 744.008 439.799C753.935 431.462 762.513 421.982 769.866 411.588C771.214 409.647 768.028 407.934 766.802 409.761Z" fill="#161616"/>
<path d="M707.612 462.756C712.759 479.546 715.822 496.792 716.925 514.153C717.048 516.323 720.724 516.323 720.602 514.153C719.499 496.449 716.313 478.86 711.166 461.842C710.553 459.787 706.999 460.7 707.612 462.756Z" fill="#161616"/>
<path d="M773.175 278.758C804.302 323.187 820.846 375.611 820.356 428.721C820.356 430.891 824.033 430.891 824.033 428.721C824.523 375.04 807.856 321.931 776.362 277.044C775.013 275.217 771.827 276.93 773.175 278.758Z" fill="#161616"/>
<path d="M719.254 516.78C769.744 508.557 802.464 468.696 825.503 429.292C826.606 427.35 823.42 425.637 822.317 427.579C799.645 466.297 767.783 505.473 718.274 513.468C715.945 513.81 716.926 517.123 719.254 516.78Z" fill="#161616"/>
<path d="M706.753 461.728C699.646 457.845 692.538 453.619 685.185 450.078C679.67 447.337 672.44 444.025 665.945 444.482C655.161 445.282 658.47 458.759 663.862 463.442C665.577 464.926 668.151 462.528 666.435 461.043C663.004 458.074 658.96 448.936 666.68 447.908C671.215 447.337 677.464 450.421 681.386 452.134C689.474 455.789 697.195 460.472 704.915 464.698C706.999 465.84 708.837 462.871 706.753 461.728Z" fill="#161616"/>
<path d="M664.721 460.701C657 463.213 655.652 470.523 657.245 477.262C658.593 483.087 660.922 488.797 662.76 494.622C664.598 500.105 665.824 506.158 668.275 511.412C671.706 518.493 681.755 515.866 688.25 514.496C692.784 513.468 697.809 512.211 701.485 509.47C706.019 506.044 708.47 502.503 714.72 501.132C717.049 500.676 716.068 497.363 713.74 497.82C707.857 499.077 704.671 501.818 700.505 505.701C697.441 508.442 693.519 509.699 689.598 510.727C686.412 511.526 679.671 513.582 676.485 512.668C670.725 510.841 669.99 505.016 668.52 500.333C667.417 497.021 666.436 493.823 665.333 490.511C663.128 483.772 654.794 467.553 665.824 464.127C667.907 463.328 666.926 460.015 664.721 460.701Z" fill="#161616"/>
<path d="M704.915 462.643C708.837 475.092 711.656 487.656 713.616 500.562C713.984 502.732 717.538 501.818 717.17 499.648C715.209 486.856 712.268 474.179 708.469 461.729C707.857 459.673 704.303 460.587 704.915 462.643Z" fill="#161616"/>
<path d="M671.46 444.597C668.151 431.119 665.823 417.414 664.597 403.594C664.352 400.281 664.107 396.969 663.862 393.657C663.74 390.916 662.637 386.347 664.475 383.949C666.313 381.665 671.583 379.494 674.156 378.01C677.097 376.296 680.039 374.469 682.98 372.756C706.999 358.822 731.999 346.372 756.876 333.923C756.018 333.58 755.038 333.238 754.18 332.895C758.959 348.885 762.881 364.989 765.944 381.436C766.312 383.606 769.866 382.692 769.498 380.522C766.435 364.19 762.513 347.971 757.734 331.981C757.366 330.839 756.018 330.382 755.038 330.953C727.71 344.545 700.381 358.251 674.279 373.784C670.97 375.725 667.784 377.667 664.597 379.723C663.127 380.637 660.676 381.55 659.941 383.149C658.838 385.319 660.063 390.002 660.186 392.401C660.308 395.713 660.553 399.025 660.921 402.337C662.147 416.843 664.597 431.119 668.029 445.282C668.519 447.68 672.073 446.767 671.46 444.597Z" fill="#161616"/>
<path d="M625.26 99.2125C615.211 104.809 608.594 108.692 603.569 116.459C596.706 126.967 597.197 137.931 597.687 143.071C593.275 154.264 588.863 165.457 584.452 176.65C589.354 176.65 594.378 176.65 599.28 176.65C599.28 181.218 599.77 188.414 602.956 196.409C604.917 201.32 610.922 215.483 627.343 223.592C641.681 230.559 655.407 228.846 660.186 228.046C661.412 234.671 662.637 241.181 663.863 247.805C669.377 247.577 677.343 246.549 686.166 242.894C712.269 232.044 721.583 207.259 724.279 199.949C733.837 174.365 726.73 152.322 724.279 145.127C718.641 128.337 709.083 117.715 703.078 111.091C690.946 97.7277 680.652 86.4205 664.966 84.9357C652.833 83.7936 643.275 89.1616 625.26 99.2125Z" fill="white"/>
<path d="M596.951 143.185C601.975 133.134 606.142 125.596 606.632 124.682C613.863 112.119 644.5 91.6745 647.441 89.7328C651.117 84.479 654.181 78.4256 651.73 74.9992C647.073 68.489 622.931 72.7149 606.632 84.0221C604.549 85.3927 577.834 104.695 583.593 128.68C585.677 137.36 591.314 143.414 595.113 146.84C595.603 145.926 596.216 144.67 596.951 143.185Z" fill="#1C1C1C"/>
<path d="M632.367 83.337C628.323 91.1036 630.652 99.327 633.103 107.893C633.593 109.492 640.701 133.134 664.843 145.241C671.828 148.668 681.509 153.579 690.455 150.267C695.112 148.553 696.583 145.584 700.504 145.926C706.999 146.383 712.759 154.036 713.862 161.345C713.984 162.145 715.332 172.767 708.102 177.107C703.445 179.962 697.318 178.82 696.828 178.706C693.274 178.021 692.661 176.536 690.088 176.422C688.862 176.307 685.431 176.993 678.568 183.846C666.803 195.495 663.617 212.399 662.759 219.138C664.843 215.94 666.803 212.628 668.887 209.43C667.294 214.455 665.578 223.021 667.049 233.3C667.661 237.069 670.235 254.887 685.186 266.765C705.651 282.869 740.21 281.042 758.837 264.252C771.459 252.945 773.42 237.983 774.155 232.158C777.097 210.686 765.209 208.744 757.121 168.427C754.793 156.663 752.342 145.241 746.95 127.309C745.602 122.741 743.518 117.487 740.087 110.977C732.367 96.0148 725.014 82.1948 709.082 73.6288C682.857 59.4662 642.049 64.4916 632.367 83.337Z" fill="#1C1C1C"/>
<path d="M612.514 214.797C610.554 219.023 608.103 225.876 607.735 234.556C607.367 242.78 606.877 252.374 613.617 259.798C621.338 268.364 638.004 272.932 650.749 265.28C659.818 259.798 664.597 249.29 662.882 238.668C662.146 235.356 661.411 232.044 660.798 228.846C655.651 229.417 648.421 229.531 640.088 227.818C626.607 224.848 617.294 218.566 612.514 214.797Z" fill="#1C1C1C"/>
<path opacity="0.06" d="M647.196 132.563C653.078 141.7 657.49 149.924 660.799 156.548C667.539 170.254 670.97 177.335 670.725 184.759C670.48 191.726 668.274 193.211 663.985 209.658C662.024 217.31 660.676 223.592 659.941 227.818C662.392 225.42 664.72 223.021 667.171 220.623C666.558 225.077 666.068 232.387 668.519 240.838C669.009 242.552 675.995 264.938 699.279 274.532C720.357 283.212 746.95 278.187 748.543 271.219C749.278 267.565 743.028 265.395 735.43 258.542C715.7 241.067 703.69 208.173 713.739 185.33C719.867 171.51 729.67 171.168 731.754 157.919C734.327 142.157 722.563 128.452 718.151 123.426C692.784 93.7305 646.093 95.3295 638.127 95.6721C635.676 97.728 633.348 99.8981 630.897 101.954C632.245 106.294 634.206 111.091 636.779 116.231C640.088 122.741 643.764 128.223 647.196 132.563Z" fill="#606060"/>
<path opacity="0.13" d="M585.432 176.193C591.559 174.594 596.583 174.023 600.137 173.68C605.897 173.223 607.613 173.795 608.103 174.708C608.716 175.85 607.735 177.449 605.775 180.305C604.427 182.475 603.079 184.074 601.976 185.216C601.363 182.932 600.75 180.762 600.137 178.477C595.235 177.792 590.334 176.993 585.432 176.193Z" fill="#606060"/>
<path d="M597.441 141.928C592.661 153.807 587.882 165.571 582.857 177.335C582.49 178.249 583.47 179.619 584.573 179.505C589.598 178.934 594.499 178.705 599.524 178.591C601.852 178.591 601.852 175.165 599.524 175.165C594.499 175.165 589.475 175.507 584.573 176.078C585.186 176.764 585.799 177.563 586.289 178.249C591.191 166.484 596.093 154.72 600.872 142.842C601.852 140.786 598.298 139.873 597.441 141.928Z" fill="#161616"/>
<path d="M598.912 177.677C599.893 192.639 605.285 210.228 617.907 220.279C629.549 229.531 645.725 231.472 660.431 230.559C662.76 230.444 662.76 227.018 660.431 227.132C646.706 227.932 631.387 226.447 620.481 217.881C608.471 208.515 603.446 191.726 602.589 177.677C602.466 175.507 598.79 175.507 598.912 177.677Z" fill="#161616"/>
<path d="M658.838 230.217C661.657 235.47 662.759 241.181 662.514 247.006C662.392 249.176 666.068 249.176 666.191 247.006C666.558 240.496 665.088 234.328 662.024 228.503C661.044 226.447 657.858 228.275 658.838 230.217Z" fill="#161616"/>
<path d="M691.804 151.408C700.015 140.558 712.269 155.977 712.147 163.972C712.024 173.908 701.118 181.104 691.681 175.165C689.721 173.908 687.882 176.878 689.843 178.134C702.833 186.472 717.662 174.365 715.578 161.116C713.863 150.038 698.054 137.246 688.618 149.695C687.27 151.522 690.456 153.236 691.804 151.408Z" fill="#161616"/>
<path d="M619.745 136.903C619.622 139.074 619.745 141.358 620.112 143.528C620.357 145.355 620.603 147.64 621.583 149.239C622.931 151.294 626.362 150.495 625.75 147.982C625.137 145.812 621.705 146.726 622.196 148.896C622.196 149.01 622.196 149.01 622.196 149.124C622.318 148.553 622.563 147.982 622.686 147.411C622.808 147.297 622.931 147.297 623.053 147.183C623.666 147.297 624.279 147.525 624.892 147.64C624.279 147.183 623.911 143.985 623.789 142.843C623.544 140.901 623.421 138.845 623.544 136.903C623.421 134.733 619.745 134.733 619.745 136.903Z" fill="#161616"/>
<path d="M620.726 138.159C622.319 141.472 622.809 145.126 622.564 148.781C622.441 150.951 626.118 150.951 626.24 148.781C626.608 144.441 625.75 140.444 623.912 136.446C623.054 134.39 619.868 136.103 620.726 138.159Z" fill="#161616"/>
<path d="M615.21 127.31C620.602 119.315 630.406 125.254 633.592 131.536C634.573 133.478 637.759 131.764 636.779 129.823C632.367 121.028 618.764 115.546 612.147 125.597C610.799 127.539 613.985 129.252 615.21 127.31Z" fill="#161616"/>
<path d="M604.181 194.238C611.534 196.523 619.622 193.553 623.421 187.271C624.524 185.33 621.461 183.617 620.235 185.558C617.172 190.584 610.922 192.754 605.162 190.926C602.833 190.241 601.853 193.553 604.181 194.238Z" fill="#161616"/>
<path d="M618.152 186.7C620.48 186.472 622.808 188.185 622.931 190.469C623.054 192.64 626.73 192.64 626.607 190.469C626.362 186.472 622.563 182.931 618.152 183.274C615.823 183.388 615.823 186.815 618.152 186.7Z" fill="#161616"/>
<path d="M626.975 160.888C629.303 160.888 629.303 157.462 626.975 157.462C624.524 157.462 624.524 160.888 626.975 160.888Z" fill="#161616"/>
<path d="M636.656 154.035C638.985 154.035 638.985 150.609 636.656 150.609C634.328 150.609 634.328 154.035 636.656 154.035Z" fill="#161616"/>
<path d="M633.348 159.632C633.348 159.746 633.348 159.974 633.348 160.089C633.348 161.002 634.205 161.802 635.186 161.802C636.166 161.802 637.024 161.002 637.024 160.089C637.024 159.974 637.024 159.746 637.024 159.632C637.024 158.718 636.166 157.918 635.186 157.918C634.205 157.918 633.348 158.604 633.348 159.632Z" fill="#161616"/>
<path d="M290.092 560.638C290.092 570.346 290.092 584.965 290.092 602.783C290.215 672.568 291.072 703.291 291.195 729.218C291.685 824.244 282.372 902.367 277.225 944.284C272.445 983.345 267.298 1015.67 263.254 1038.28C259.088 1042.28 251.735 1048.1 241.196 1051.87C236.171 1053.7 232.127 1054.39 229.308 1054.96C224.897 1055.76 207.74 1058.38 186.784 1052.44C181.392 1050.96 174.039 1048.33 165.951 1043.76C171.956 1012.13 179.186 970.553 185.681 921.669C190.951 881.58 199.529 808.254 203.083 715.284C204.799 668.228 205.534 611.349 203.083 546.704C232.127 551.272 261.171 555.955 290.092 560.638Z" fill="white"/>
<path opacity="0.09" d="M206.637 658.977C212.764 644.7 220.607 628.824 225.142 629.852C231.882 631.337 227.838 668.685 225.142 696.896C219.014 760.856 218.157 825.159 213.5 889.233C210.681 929.094 207.495 985.63 206.514 1054.5C193.034 1051.3 179.431 1047.99 165.951 1044.79C179.677 972.038 191.073 893.002 198.426 808.141C202.961 756.287 205.534 706.49 206.637 658.977Z" fill="#606060"/>
<path d="M287.274 573.544C292.789 694.269 288.867 815.336 275.632 935.489C271.833 969.64 267.299 1003.79 262.029 1037.83C261.661 1040 265.215 1040.91 265.583 1038.74C284.088 919.043 293.524 798.09 293.279 677.137C293.279 642.644 292.421 608.151 290.828 573.659C290.828 571.374 287.151 571.26 287.274 573.544Z" fill="#161616"/>
<path d="M205.412 660.005C201.368 759.828 192.545 859.537 178.942 958.561C175.02 987.457 170.609 1016.35 165.829 1045.14C165.462 1047.31 169.016 1048.22 169.383 1046.05C185.927 946.454 197.692 846.174 204.554 745.551C206.515 717.112 207.986 688.558 209.211 660.005C209.211 657.834 205.535 657.834 205.412 660.005Z" fill="#161616"/>
<path d="M119.75 566.007C119.137 568.519 118.157 577.086 116.319 594.103C113.378 620.601 111.785 640.246 111.662 641.617C105.535 716.77 94.2602 782.1 94.2602 782.1C81.7603 854.398 64.481 911.048 52.4713 949.538C43.6479 978.092 35.4372 1001.85 29.3098 1018.64C39.4813 1030.52 49.8979 1037.94 57.1282 1042.39C68.1575 1049.13 81.2701 1057.24 98.917 1056.44C105.902 1056.1 111.417 1054.5 115.093 1053.24C120.363 1038.97 129.431 1014.18 139.48 983.003C157.985 925.553 173.304 860.337 203.205 732.303C204.553 726.592 221.71 652.924 222.935 648.013C233.72 636.134 244.626 624.256 255.411 612.378C273.67 572.631 273.057 532.199 251.979 515.181C216.685 486.742 129.676 527.06 119.75 566.007Z" fill="white"/>
<path opacity="0.11" d="M118.525 588.735C119.995 598.672 121.833 613.634 123.181 631.908C129.064 716.541 114.603 776.389 101.123 843.662C91.8092 890.033 79.1868 958.561 67.5447 1045.71C54.7998 1036.68 42.0548 1027.66 29.3098 1018.75C35.8048 1000.82 45.1185 974.437 54.7997 942C86.172 837.38 98.4268 751.833 107.005 690.272C110.436 664.916 114.848 630.309 118.525 588.735Z" fill="#606060"/>
<path d="M114.481 573.659C110.314 691.186 91.6868 808.255 58.9665 921.784C49.7754 953.878 39.3588 985.63 27.8393 1017.15C27.104 1019.21 30.6579 1020.12 31.3932 1018.07C71.9566 906.365 98.7945 790.438 111.172 673.14C114.603 640.017 116.932 606.895 118.157 573.659C118.28 571.375 114.603 571.375 114.481 573.659Z" fill="#161616"/>
<path d="M249.282 615.803C240.091 626.539 230.9 637.275 221.709 648.011C220.238 649.724 222.812 652.123 224.282 650.41C233.473 639.674 242.664 628.937 251.855 618.201C253.326 616.488 250.752 614.09 249.282 615.803Z" fill="#161616"/>
<path d="M222.078 646.299C199.774 753.203 175.877 859.88 143.402 964.614C134.211 994.31 124.284 1023.78 113.623 1053.02C112.887 1055.07 116.441 1055.99 117.177 1053.93C154.799 950.794 182.25 844.803 206.024 738.127C212.764 707.86 219.259 677.479 225.509 647.213C225.999 645.157 222.445 644.129 222.078 646.299Z" fill="#161616"/>
<path d="M261.783 209.429C268.033 208.173 276.366 217.995 280.9 223.249C287.886 231.358 290.949 239.468 292.91 245.635C299.405 265.737 300.753 285.724 300.631 300.915C301.734 307.768 304.43 318.39 311.17 329.925C313.498 333.809 324.405 351.512 347.934 364.19C362.64 372.07 376.61 374.926 386.046 376.068C384.208 377.781 382.37 379.494 380.532 381.208C385.801 381.664 389.846 382.692 392.664 383.492C398.914 385.319 402.223 386.233 403.326 386.69C405.409 387.489 407.125 388.289 408.228 388.86C407.492 389.659 405.899 391.829 405.899 394.913C405.899 398.34 407.86 401.766 410.924 403.365C413.865 404.964 418.154 404.165 426.487 402.566C428.08 402.223 429.428 401.995 430.409 401.766C432.37 401.538 435.556 401.538 438.742 402.908C443.767 405.078 445.727 409.533 448.423 415.129C450.384 419.241 453.08 424.837 451.855 431.804C451.487 433.86 450.752 437.744 447.443 440.827C446.708 441.513 446.217 441.855 440.213 444.939C433.227 448.48 431.879 448.937 430.531 449.508C426.12 450.992 423.914 451.792 421.34 450.878C418.889 450.079 416.438 447.794 416.438 445.51C416.561 442.769 420.237 442.312 420.36 440.142C420.482 437.401 415.213 436.83 409.208 431.576C405.041 427.921 405.777 426.779 401.488 423.467C399.894 422.21 396.953 420.04 392.787 418.556C390.826 417.756 389.6 417.642 386.537 416.271C382.493 414.558 381.512 413.644 380.9 412.845C379.674 411.132 380.409 410.218 379.306 409.076C377.836 407.705 375.507 408.162 372.689 408.162C370.238 408.162 366.929 407.705 362.885 405.878C361.292 416.386 359.699 426.893 357.983 437.515C351.733 436.145 342.665 433.632 332.861 428.492C319.503 421.411 305.41 409.875 286.905 377.096C273.18 352.882 255.778 321.93 251.612 277.387C248.793 249.747 250.631 211.714 261.783 209.429Z" fill="white"/>
<path opacity="0.09" d="M263.008 210.458C263.253 217.539 263.988 226.676 265.459 237.412C266.194 242.552 267.665 251.689 270.974 265.509C276.733 288.923 283.719 308.453 288.253 320.56C303.449 360.535 311.169 380.979 326.733 394.114C338.375 403.937 350.385 409.419 358.473 412.388C358.595 420.269 358.718 428.15 358.84 436.031C355.287 436.259 349.894 436.145 343.89 434.318C334.576 431.576 328.816 426.323 325.017 422.668C308.841 407.363 300.753 399.711 292.91 387.718C260.68 338.72 256.145 283.326 256.145 283.326C254.92 266.308 255.042 240.839 263.008 210.458Z" fill="#606060"/>
<path opacity="0.08" d="M382.614 382.121C383.35 382.692 380.286 385.89 378.325 390.801C375.629 397.426 376.242 403.822 377.222 408.39C372.566 407.476 367.909 406.563 363.252 405.763C364.232 401.88 366.316 395.827 371.463 390.116C375.874 385.205 381.757 381.321 382.614 382.121Z" fill="#606060"/>
<path opacity="0.09" d="M422.934 429.634C427.836 426.779 428.326 426.094 430.41 424.951C433.596 423.238 439.968 420.726 451.12 421.982C451.61 425.18 452.1 431.69 448.669 436.944C447.444 438.886 445.36 441.056 445.115 441.284C444.012 442.54 441.806 444.596 438.743 446.652C436.414 448.137 432.738 450.421 427.713 450.65C424.405 450.764 419.135 450.193 418.4 448.023C417.787 445.967 421.709 444.368 421.218 441.741C420.728 438.543 414.478 438.2 414.478 435.802C414.356 434.089 416.929 433.175 422.934 429.634Z" fill="#606060"/>
<path d="M257.127 209.543C265.705 214.111 274.528 218.68 281.391 225.533C289.357 233.414 292.175 243.464 293.891 253.858C297.69 276.472 299.406 299.429 299.773 322.387C299.773 324.557 303.45 324.557 303.45 322.387C303.082 298.059 301.489 273.274 296.832 249.289C294.994 239.81 291.685 231.015 284.7 223.82C277.592 216.51 268.156 211.485 259.087 206.688C256.882 205.545 255.043 208.515 257.127 209.543Z" fill="#161616"/>
<path d="M299.16 280.128C295.974 323.415 325.875 363.047 370.605 375.04C372.934 375.611 373.914 372.298 371.586 371.727C328.326 360.078 299.773 321.93 302.836 280.128C303.081 277.957 299.405 277.957 299.16 280.128Z" fill="#161616"/>
<path d="M369.502 374.925C375.139 375.382 380.286 376.524 385.556 378.58C385.433 377.552 385.311 376.524 385.066 375.496C362.272 387.603 355.777 410.332 357.983 433.403C358.228 435.573 361.904 435.573 361.659 433.403C359.576 411.474 365.213 390.001 386.904 378.466C388.375 377.666 387.884 375.839 386.414 375.382C380.899 373.212 375.262 371.956 369.38 371.499C367.174 371.27 367.174 374.697 369.502 374.925Z" fill="#161616"/>
<path d="M287.273 382.578C294.994 396.17 305.165 408.39 317.42 418.67C329.062 428.378 343.155 438.315 359.576 437.744C361.905 437.629 361.905 434.203 359.576 434.317C343.155 434.888 328.449 423.695 317.175 413.759C306.391 404.279 297.445 393.086 290.459 380.865C289.356 378.923 286.17 380.636 287.273 382.578Z" fill="#161616"/>
<path d="M381.758 381.778C391.071 384.177 400.385 386.575 409.576 388.973C411.904 389.545 412.885 386.232 410.556 385.661C401.243 383.263 391.929 380.864 382.738 378.466C380.41 377.895 379.429 381.207 381.758 381.778Z" fill="#161616"/>
<path d="M431.267 402.222C439.355 402.907 444.992 408.961 447.32 415.928C448.423 419.24 448.791 422.781 448.914 426.207C448.914 427.349 448.791 441.398 445.237 438.999C443.276 437.743 441.438 440.712 443.399 441.969C454.428 449.164 452.713 424.38 452.222 420.725C450.752 409.989 443.644 399.709 431.267 398.682C428.816 398.567 428.938 401.994 431.267 402.222Z" fill="#161616"/>
<path d="M440.703 424.494C442.051 431.689 443.277 439.913 436.292 444.824C434.453 446.195 437.027 448.593 438.865 447.222C446.831 441.398 445.728 431.804 444.257 423.466C443.89 421.41 440.336 422.324 440.703 424.494Z" fill="#161616"/>
<path d="M431.511 429.749C432.859 435.803 434.33 443.683 427.712 447.567C425.752 448.709 427.59 451.678 429.551 450.536C437.761 445.739 436.781 436.488 435.065 428.836C434.575 426.78 431.021 427.693 431.511 429.749Z" fill="#161616"/>
<path d="M423.423 431.233C425.507 437.629 424.894 444.025 421.585 449.85C420.482 451.792 423.668 453.505 424.771 451.563C428.57 444.939 429.306 437.515 426.977 430.319C426.365 428.264 422.811 429.177 423.423 431.233Z" fill="#161616"/>
<path d="M362.64 408.047C367.787 409.189 373.057 410.331 378.204 411.473C380.532 411.93 381.513 408.618 379.184 408.161C374.037 407.019 368.768 405.877 363.621 404.735C361.415 404.164 360.435 407.476 362.64 408.047Z" fill="#161616"/>
<path d="M360.556 437.515C367.419 429.52 372.076 420.611 374.404 410.675C374.894 408.504 371.34 407.591 370.85 409.761C368.644 419.126 364.355 427.578 357.983 435.116C356.512 436.715 359.085 439.228 360.556 437.515Z" fill="#161616"/>
<path d="M360.31 408.162C361.046 415.244 360.801 422.211 359.453 429.178C358.962 431.348 362.271 432.261 363.006 430.091C365.335 423.01 367.908 415.929 370.604 408.848C371.34 407.134 368.766 406.221 367.541 407.134C366.805 407.134 366.07 407.02 365.335 407.02C365.212 408.048 365.09 409.076 364.845 410.104C365.948 409.875 368.521 409.99 368.889 411.36C369.134 412.046 367.051 414.558 366.805 415.129C365.58 417.414 364.232 419.584 363.006 421.868C361.904 423.81 364.845 425.294 366.193 423.581C369.869 419.013 371.462 413.759 371.217 408.048C371.095 406.335 368.766 405.764 367.786 407.134C364.109 412.388 361.781 418.099 360.801 424.381C362.026 424.495 363.252 424.723 364.355 424.838C364.355 420.269 365.212 415.929 367.173 411.703C365.948 411.589 364.722 411.36 363.619 411.246C363.129 415.129 362.271 419.013 361.291 422.782C360.801 424.952 364.232 425.866 364.845 423.695C365.948 419.584 366.683 415.358 367.296 411.246C367.541 409.19 364.355 409.19 363.742 410.789C361.658 415.358 360.801 419.926 360.801 424.838C360.801 426.665 364.109 427.236 364.355 425.294C365.212 419.355 367.418 413.987 370.972 408.962C369.869 408.619 368.644 408.391 367.541 408.048C367.786 413.188 366.193 417.756 363.006 421.868C364.109 422.439 365.09 423.01 366.193 423.581C367.908 420.612 369.624 417.642 371.217 414.558C372.075 412.959 373.178 411.589 372.81 409.761C371.952 405.764 367.173 405.992 363.864 406.792C362.149 407.249 362.271 409.076 363.374 409.876C365.58 411.475 368.031 411.132 370.114 409.419C369.134 408.848 368.031 408.277 367.051 407.705C364.354 414.673 361.781 421.754 359.453 428.949C360.678 429.292 361.781 429.52 363.006 429.863C364.477 422.553 364.845 415.244 363.987 407.934C363.742 405.992 360.065 405.992 360.31 408.162Z" fill="#161616"/>
<path d="M129.187 216.511C138.378 251.575 146.098 291.778 150.02 336.55C158.23 429.635 146.833 509.357 132.618 568.862C146.588 574.801 172.691 583.824 206.392 583.139C249.651 582.225 280.901 565.779 294.136 557.784C290.704 508.443 285.067 455.904 276.734 400.739C265.582 327.185 250.999 259.227 234.945 197.552C229.676 194.696 203.941 181.79 172.323 189.785C147.936 195.953 133.843 210.915 129.187 216.511Z" fill="#7F7F7F"/>
<path d="M162.642 180.077C160.804 180.191 158.108 180.419 154.922 181.333C146.588 183.732 141.686 188.871 138.868 191.727C133.476 197.095 125.755 204.062 113.746 213.199C107.863 255.115 107.128 286.639 107.496 307.997C107.618 316.791 108.231 332.096 108.231 356.081C108.231 371.5 108.231 388.518 107.496 403.48C106.148 432.49 101.981 454.191 93.5252 496.336C89.7262 515.296 84.3341 540.765 76.8586 571.032C90.0938 577.999 101.736 582.454 110.314 585.309C126.736 590.677 141.686 595.474 160.436 593.076C166.686 592.276 171.833 590.905 175.019 589.878C177.348 578.228 180.534 560.753 183.353 539.281C192.421 470.752 190.583 416.729 188.867 375.726C188.01 354.253 186.784 325.015 181.882 286.182C176.858 243.922 169.382 208.059 162.642 180.077Z" fill="white"/>
<path d="M198.793 187.272C202.96 189.784 208.842 193.896 214.112 200.292C226.244 215.14 226.489 232.272 226.612 239.239C227.592 275.445 237.274 310.966 240.582 346.943C242.666 369.444 241.563 354.938 248.303 423.581C254.185 482.973 255.288 496.792 256.023 505.358C257.739 526.374 259.455 552.643 260.925 583.253C267.053 583.71 274.16 583.938 281.758 583.253C291.807 582.453 301.734 581.654 312.395 576.057C319.381 572.402 324.405 567.948 327.714 564.407C326.856 550.93 325.14 529.8 322.199 504.102C318.89 475.891 312.395 428.835 282.494 297.717C277.469 275.788 270.484 245.293 261.66 208.744C247.69 201.206 237.028 194.696 229.676 189.899C221.22 184.416 213.867 179.277 206.637 181.447C202.715 182.475 200.264 185.102 198.793 187.272Z" fill="white"/>
<path opacity="0.08" d="M107.618 300.801C108.966 308.568 111.172 321.017 113.133 336.55C122.569 407.592 118.157 445.511 122.936 527.973C123.794 542.364 125.265 563.951 127.838 590.334C121.343 588.279 114.603 585.88 107.618 583.139C95.9758 578.57 85.5592 573.659 76.2456 568.862C79.7995 556.641 84.3338 539.966 88.7455 520.207C100.51 467.783 104.677 426.209 106.147 407.249C108.598 377.439 109.824 341.576 107.618 300.801Z" fill="#606060"/>
<path opacity="0.1" d="M200.877 189.214C194.995 191.498 213.622 234.329 223.181 297.603C225.387 312.451 227.103 328.099 228.696 364.419C232.25 443.798 231.392 526.146 230.044 580.512C239.848 578.342 249.529 576.172 259.333 574.002C259.088 564.522 258.72 550.588 257.985 533.798C253.941 442.541 244.627 371.5 237.152 314.393C233.72 288.809 228.941 255.001 222.568 215.141C208.108 192.298 202.961 188.415 200.877 189.214Z" fill="#606060"/>
<path opacity="0.14" d="M246.833 214.455C247.568 219.481 248.548 226.562 249.651 235.242C252.837 261.512 254.185 281.613 255.166 298.174C256.514 320.903 257.127 338.492 257.249 343.289C257.249 343.632 257.249 344.088 257.249 344.203C258.72 395.256 266.073 583.253 263.131 583.482C261.661 583.596 256.636 533.913 244.014 369.558C244.259 357.68 244.504 345.802 244.749 333.809C244.259 288.352 244.382 256.6 245.852 246.778C246.22 244.379 247.2 238.783 244.382 232.958C242.176 228.275 239.97 228.504 237.642 223.364C235.068 217.539 235.436 211.6 235.558 208.859C235.803 204.519 236.539 203.948 236.294 200.978C235.803 196.295 233.352 192.755 231.392 190.47C236.048 193.211 240.828 195.953 245.485 198.694C245.975 204.062 246.465 209.316 246.833 214.455Z" fill="#606060"/>
<path d="M165.339 184.188C162.888 174.709 148.55 182.361 144.138 185.673C132.741 194.239 121.834 203.605 111.172 212.856C109.457 214.341 112.03 216.739 113.746 215.255C120.609 209.201 127.594 203.376 134.824 197.551C137.643 195.267 159.701 176.422 161.907 185.102C162.397 187.272 165.829 186.358 165.339 184.188Z" fill="#161616"/>
<path d="M105.29 304.342C107.864 350.256 106.761 396.284 101.736 442.084C101.491 444.254 105.167 444.254 105.413 442.084C110.314 396.284 111.54 350.256 108.966 304.342C108.844 302.172 105.167 302.172 105.29 304.342Z" fill="#161616"/>
<path d="M160.436 178.706C149.162 181.904 141.809 192.754 143.157 203.719C144.015 210.458 148.917 214.683 152.471 220.28C157.74 228.275 152.593 238.897 152.225 247.806C151.613 266.423 157.495 284.583 162.887 302.286C168.524 320.56 174.529 338.606 179.309 357.109C184.946 378.695 188.745 400.739 188.377 423.01C188.377 425.18 192.054 425.18 192.054 423.01C192.666 377.896 176.49 335.065 163.622 292.121C160.191 280.814 157.127 269.278 156.147 257.514C155.657 251.232 155.657 244.95 156.76 238.783C157.495 234.328 159.456 229.874 158.598 225.305C157.005 216.739 147.691 211.828 146.588 203.148C145.485 194.011 151.735 184.874 161.171 182.132C163.745 181.333 162.765 178.021 160.436 178.706Z" fill="#161616"/>
<path d="M160.804 183.16C183.23 285.04 192.789 389.431 185.681 493.252C183.598 523.062 180.289 552.758 175.387 582.339C175.02 584.509 178.574 585.423 178.941 583.253C195.853 479.318 195.24 373.441 180.289 269.392C176.123 240.153 170.731 211.029 164.358 182.132C163.868 180.077 160.314 180.99 160.804 183.16Z" fill="#161616"/>
<path d="M202.838 183.503C207.862 179.848 217.911 184.873 222.323 187.729C228.083 191.384 232.372 196.523 235.068 202.577C235.926 204.633 239.48 203.719 238.622 201.663C235.19 194.011 229.553 187.729 221.955 183.503C215.828 180.191 206.514 176.536 200.264 181.104C198.304 182.475 201 184.873 202.838 183.503Z" fill="#161616"/>
<path d="M198.794 190.698C223.793 202.919 224.161 234.785 227.347 257.514C231.024 283.554 234.455 309.709 237.641 335.864C243.891 388.175 249.161 440.485 253.45 493.023C255.901 522.947 257.984 552.986 259.7 583.024C259.822 585.194 263.499 585.194 263.376 583.024C257.004 473.036 246.097 363.39 230.656 254.201C227.347 230.902 226.244 200.178 200.754 187.843C198.549 186.701 196.71 189.67 198.794 190.698Z" fill="#161616"/>
<path d="M234.823 201.092C236.171 207.373 232.372 213.541 233.965 219.823C235.436 225.648 240.95 229.645 243.156 235.242C245.73 241.866 245.117 249.29 244.994 256.143C244.872 264.138 244.749 272.019 244.627 280.014C244.014 310.623 242.788 341.232 241.073 371.842C240.95 374.012 244.627 374.012 244.749 371.842C246.587 340.433 247.813 309.138 248.426 277.729C248.548 270.191 248.671 262.653 248.793 255.001C248.916 248.719 249.161 242.209 247.323 236.041C245.607 230.445 241.318 226.79 238.622 221.65C235.19 214.911 239.847 207.259 238.377 200.178C237.887 198.008 234.333 198.921 234.823 201.092Z" fill="#161616"/>
<path d="M229.92 193.211C240.826 197.894 250.753 204.061 259.576 211.599C261.292 213.084 263.865 210.686 262.15 209.201C253.081 201.434 242.91 195.038 231.758 190.241C229.552 189.328 227.714 192.297 229.92 193.211Z" fill="#161616"/>
<path d="M287.029 324.785C305.779 403.936 318.769 484.114 325.754 564.864C325.999 567.034 329.675 567.034 329.43 564.864C322.445 483.772 309.455 403.251 290.583 323.872C289.97 321.816 286.416 322.73 287.029 324.785Z" fill="#161616"/>
<path d="M261.538 584.509C274.651 587.936 287.886 585.537 300.509 581.54C310.68 578.342 322.445 575.372 328.94 566.806C330.288 564.979 327.102 563.265 325.753 565.093C319.626 573.088 307.004 576.057 297.445 578.913C286.048 582.339 274.283 584.167 262.519 581.197C260.19 580.626 259.21 583.938 261.538 584.509Z" fill="#161616"/>
<path d="M102.716 429.864C95.731 475.892 86.5399 521.692 75.143 566.921C74.6528 569.091 78.2067 570.005 78.6968 567.835C90.0938 522.606 99.2849 476.806 106.27 430.778C106.638 428.608 103.084 427.694 102.716 429.864Z" fill="#161616"/>
<path d="M76.0012 571.032C86.2952 576.171 96.7117 580.854 107.496 584.966C118.035 588.964 129.064 593.304 140.339 594.788C149.53 596.045 160.682 595.931 169.873 593.989C178.329 592.276 176.981 584.852 180.902 579.141C182.128 577.314 178.941 575.6 177.716 577.428C176.123 579.826 175.51 582.339 174.652 585.08C172.569 591.134 168.035 590.791 162.275 591.362C152.103 592.161 142.299 592.276 132.373 589.649C113.501 584.623 95.1186 576.743 77.9619 568.062C75.7561 567.034 73.9179 570.004 76.0012 571.032Z" fill="#161616"/>
<path d="M121.466 208.173C113.746 212.97 103.329 220.165 91.932 229.988C84.8242 236.041 78.9419 241.866 69.7509 251.803C48.4275 274.76 37.5208 286.524 25.5111 304.57C11.6632 325.242 4.8005 335.636 2.10444 351.512C-1.0818 370.7 3.32992 387.375 5.78088 396.741C9.33476 410.104 13.9916 419.469 18.6484 428.835C24.2856 440.028 33.7218 453.048 52.4716 478.746C68.7705 501.132 75.2655 509.013 87.5203 515.98C94.5055 519.864 100.878 522.148 105.412 523.404C108.108 516.894 110.682 510.384 113.378 503.874C115.339 505.815 117.912 508.442 120.731 511.869C125.633 517.808 126.858 520.549 128.696 520.435C131.637 520.32 133.476 513.696 135.436 506.729C144.628 473.378 144.505 468.353 141.564 466.64C139.481 465.383 137.887 467.211 132.373 466.64C126.245 466.069 121.466 463.328 118.28 460.929C120.976 453.391 119.75 448.822 118.28 446.081C115.339 440.713 110.314 440.827 102.961 434.089C101.368 432.604 100.633 431.69 93.1575 420.954C85.1919 409.533 81.2704 403.822 80.29 401.994C77.4714 396.969 73.7949 389.317 71.0989 379.037C73.5498 371.042 77.1037 362.019 82.1282 352.654C96.5888 325.814 116.564 308.453 130.657 298.174C133.231 287.552 135.682 271.562 133.721 252.374C131.76 233.3 126.123 218.109 121.466 208.173Z" fill="white"/>
<path opacity="0.08" d="M116.564 212.17C112.397 216.511 106.392 223.021 99.407 231.13C74.2847 260.026 56.025 280.927 44.6281 307.882C42.2997 313.478 32.3733 337.92 32.9861 370.928C33.8439 425.408 62.3975 463.556 73.5494 478.061C86.9071 495.422 100.755 507.643 110.436 515.295C108.843 517.922 107.127 520.663 105.534 523.29C100.387 520.777 92.6668 516.666 83.966 510.727C54.3094 490.054 40.0938 464.584 26.7361 440.256C12.1529 413.644 4.92259 400.281 2.71673 382.35C-0.224414 357.679 4.67751 327.869 20.6087 309.595C21.8342 308.11 22.9371 307.082 26.7361 302.742C41.932 285.496 51.7359 272.247 53.8192 269.506C61.5397 259.341 77.9611 242.323 116.564 212.17Z" fill="#606060"/>
<path d="M114.113 209.315C92.6672 227.247 72.5693 246.549 54.1872 267.222C37.0305 286.524 19.261 306.969 8.35428 330.04C-2.79757 353.568 -2.18482 377.325 6.63862 401.424C15.217 424.952 27.8394 447.452 42.6677 468.125C50.8784 479.661 60.0695 490.625 69.8733 500.904C79.0644 510.498 88.8682 519.75 102.103 524.204C104.309 524.889 105.29 521.577 103.084 520.892C90.4613 516.666 81.1477 507.643 72.4468 498.506C63.7459 489.369 55.6577 479.661 48.1823 469.61C33.7217 450.079 21.5894 428.835 12.5209 406.563C7.61899 394.457 3.69749 381.665 3.2073 368.644C2.83966 355.852 6.02588 343.403 11.5405 331.753C21.8345 309.824 38.5011 290.407 54.6774 272.019C73.6723 250.432 94.5054 230.331 116.809 211.714C118.525 210.229 115.829 207.831 114.113 209.315Z" fill="#161616"/>
<path d="M125.632 301.828C97.8136 320.902 77.8383 348.427 69.505 379.722C68.8923 381.892 72.4462 382.806 73.059 380.636C81.1471 350.255 100.387 323.3 127.47 304.798C129.431 303.427 127.593 300.457 125.632 301.828Z" fill="#161616"/>
<path d="M66.0747 371.727C73.7952 401.766 91.9323 428.834 117.422 448.594C119.26 449.964 121.834 447.566 119.996 446.195C94.8734 426.779 77.2265 400.395 69.506 370.814C69.0158 368.644 65.4619 369.557 66.0747 371.727Z" fill="#161616"/>
<path d="M117.177 446.309C117.789 459.33 117.054 472.35 114.971 485.142C113.99 491.081 112.765 497.02 111.172 502.96C110.436 505.701 109.701 508.442 108.843 511.183C108.353 512.782 106.515 521.348 104.432 521.691C105.167 521.919 105.78 522.262 106.515 522.49C106.392 522.262 106.27 522.148 106.147 521.919C104.922 520.092 101.735 521.805 102.961 523.632C103.083 523.861 103.206 523.975 103.329 524.203C103.819 524.889 104.554 525.117 105.412 525.003C109.946 524.318 110.681 517.465 111.784 514.153C114.235 506.614 116.074 499.076 117.544 491.31C120.363 476.462 121.343 461.386 120.73 446.309C120.73 444.139 117.054 444.025 117.177 446.309Z" fill="#161616"/>
<path d="M118.279 461.5C124.039 465.84 130.779 468.125 138.255 468.239C140.583 468.239 140.583 464.812 138.255 464.812C131.882 464.698 125.877 462.871 120.853 459.102C119.015 457.731 116.441 460.13 118.279 461.5Z" fill="#161616"/>
<path d="M113.133 507.642C117.054 508.099 119.137 512.439 121.221 515.181C123.181 517.922 125.51 520.434 128.941 521.462C131.147 522.148 132.127 518.835 129.922 518.15C125.877 516.894 123.917 512.668 121.588 509.584C119.382 506.729 116.932 504.673 113.133 504.216C110.804 503.988 110.804 507.414 113.133 507.642Z" fill="#161616"/>
<path d="M135.927 452.934C141.931 465.955 139.726 480.117 136.907 493.481C134.211 506.501 131.025 518.608 122.569 529.572C121.221 531.4 124.407 533.113 125.755 531.286C135.069 519.065 138.378 505.016 141.196 490.397C143.77 477.148 144.873 463.785 138.99 451.107C138.255 449.165 135.069 450.879 135.927 452.934Z" fill="#161616"/>
<path d="M151.858 89.5039C149.897 89.047 145.118 88.1333 139.848 89.9607C138.623 90.4176 129.677 93.5014 128.451 101.611C127.348 108.235 132.128 114.174 137.275 116.687C139.48 117.715 141.564 118.057 143.034 118.172C143.892 120.799 144.873 124.91 145.608 129.822C146.833 138.273 145.485 138.616 146.588 143.413C149.407 154.606 159.211 161.573 159.578 161.802C163.745 164.657 165.216 164.2 166.809 166.599C169.505 170.482 168.402 175.507 166.809 183.045C165.951 187.043 164.97 190.241 164.235 192.297C165.706 194.01 170.117 198.579 177.715 200.52C185.313 202.462 191.686 200.749 193.892 200.063C195.975 192.183 198.058 184.188 200.142 176.307C204.676 175.507 211.294 173.68 218.401 170.025C220.852 168.769 225.754 166.142 230.411 161.802C233.475 158.946 237.764 153.921 242.421 140.9C244.627 134.619 249.283 121.37 249.651 103.095C249.896 94.0725 248.793 89.6181 250.264 79.2246C251.122 72.486 252.592 67.0037 253.573 63.2346C255.043 60.0366 254.798 57.8665 254.308 56.2675C251.857 48.8436 237.886 46.7877 229.676 45.5314C223.793 44.6177 219.137 44.6177 213.377 44.6177C204.308 44.6177 199.774 44.6177 195.362 45.7598C185.436 48.3867 178.818 54.3259 174.774 57.9807C169.872 62.4351 170.853 63.0062 164.97 68.26C159.456 73.057 156.515 74.4276 154.186 78.5393C151.858 82.7652 151.735 86.7627 151.858 89.5039Z" fill="white"/>
<path d="M149.652 118.4C149.775 122.17 149.652 126.281 149.162 130.85C148.549 136.789 147.324 142.157 146.098 146.611C144.383 148.553 140.951 151.751 135.682 153.693C124.652 157.576 114.604 152.551 113.01 151.637C112.52 146.84 111.662 139.759 109.824 131.307C105.78 112.461 100.511 102.068 98.6723 95.5576C95.1184 83.2225 97.5694 63.8061 125.388 32.9682C117.422 32.7398 115.584 31.5976 115.216 30.4555C114.236 26.9149 129.309 19.9478 141.319 16.0645C157.373 10.8106 170.24 10.3538 170.118 8.64058C169.995 6.81315 155.78 6.81315 155.657 5.21415C155.534 3.38672 171.711 -0.953426 189.235 0.188717C193.402 0.53136 214.112 2.24458 234.088 16.6356C240.583 21.3184 251.98 29.7702 257.004 43.9328C258.597 48.3871 262.396 59.1233 256.514 65.8619C254.921 67.6893 253.083 68.7173 251.735 69.2883C251.98 67.0041 251.98 62.8924 249.651 58.8949C246.465 53.7552 241.073 51.6994 235.803 49.9861C233.23 49.0724 225.142 46.5597 212.887 47.0166C205.902 47.245 193.402 47.7018 181.392 55.0116C180.657 55.4684 181.515 54.8974 167.544 66.8899C157.985 75.1133 153.696 78.6539 153.696 83.7936C153.696 86.5347 155.044 88.5906 153.696 89.7327C151.858 91.4459 148.059 88.3621 143.035 88.7048C136.785 89.1616 129.187 94.7581 128.574 102.182C127.961 110.405 136.785 115.545 137.643 116.116C142.544 118.857 147.691 118.629 149.652 118.4Z" fill="#1C1C1C"/>
<path opacity="0.12" d="M190.338 50.2148C187.396 54.7834 183.597 61.5221 180.044 69.8597C175.142 81.2811 167.299 99.327 168.279 122.284C169.382 145.812 179.308 163.858 186.048 173.909C183.23 182.932 180.411 191.955 177.593 200.978C170.362 199.607 167.544 197.094 166.318 194.81C164.357 191.269 166.196 187.843 166.808 180.419C167.299 174.708 166.808 170.026 166.318 166.828C161.171 162.716 155.657 157.348 150.387 150.609C148.671 148.325 147.078 146.155 145.73 144.099C145.24 145.584 144.137 147.754 141.931 149.81C138.132 153.465 133.353 154.15 130.167 154.607C122.569 155.749 116.196 153.807 112.765 152.437C112.275 147.183 111.539 141.472 110.436 135.419C108.598 125.71 106.025 117.03 103.451 109.606C105.044 114.974 109.824 118.858 115.706 119.657C121.711 120.457 127.716 117.715 130.779 112.69C126.123 105.951 127.593 97.2711 133.598 92.5884C138.5 88.7051 145.853 88.2482 151.858 91.332C151.98 87.7913 152.47 84.8218 153.206 82.1948C159.578 60.951 185.068 51.9281 190.338 50.2148Z" fill="#606060"/>
<path d="M248.67 68.2602C248.915 85.0497 248.547 101.953 246.341 118.629C244.258 133.933 239.479 149.581 227.837 161.002C216.072 172.538 198.67 176.535 182.249 172.081C166.93 167.969 155.166 156.891 148.303 143.756C147.323 141.814 144.136 143.527 145.117 145.469C159.332 172.652 197.077 188.528 225.018 167.969C238.498 158.033 245.361 142.728 248.547 127.309C252.469 108.007 252.714 87.9051 252.346 68.3745C252.346 65.976 248.67 65.9759 248.67 68.2602Z" fill="#161616"/>
<path d="M219.504 73.628C220.607 82.0798 222.077 90.4175 223.915 98.7551C224.896 102.753 227.347 108.235 226.734 112.347C226.121 117.372 219.871 120.456 214.969 122.055C212.764 122.854 213.744 126.167 215.95 125.367C222.077 123.311 231.513 118.514 230.778 111.319C230.165 105.722 227.837 100.011 226.734 94.5292C225.263 87.5621 224.038 80.595 223.18 73.5138C222.935 71.4579 219.259 71.4579 219.504 73.628Z" fill="#161616"/>
<path d="M202.96 82.5377C202.592 86.3068 201.612 89.9616 200.141 93.5023C199.284 95.5581 202.837 96.4718 203.695 94.416C205.288 90.5327 206.146 86.6494 206.636 82.5377C206.881 80.3676 203.205 80.3676 202.96 82.5377Z" fill="#161616"/>
<path d="M202.102 81.5089C200.387 85.7348 199.651 90.1892 199.651 94.6435C199.651 96.8136 203.328 96.8136 203.328 94.6435C203.328 90.4176 204.063 86.4201 205.656 82.4226C206.514 80.2525 202.96 79.453 202.102 81.5089Z" fill="#161616"/>
<path d="M191.318 72.0298C196.587 67.4613 204.675 67.347 209.945 71.9156C211.661 73.4004 214.234 71.0019 212.518 69.5171C205.778 63.6922 195.362 63.6922 188.622 69.6313C187.028 71.1161 189.602 73.5146 191.318 72.0298Z" fill="#161616"/>
<path d="M231.023 71.5722C235.19 68.6026 241.44 70.3158 243.768 74.5418C244.871 76.4834 248.057 74.7702 246.955 72.8285C243.523 66.4325 234.332 64.9478 228.45 69.1737C226.489 70.43 229.185 72.8285 231.023 71.5722Z" fill="#161616"/>
<path d="M222.813 136.789C214.112 141.586 203.328 138.502 199.406 129.593C198.548 127.538 194.994 128.451 195.852 130.507C200.632 141.357 213.622 145.698 224.651 139.644C226.734 138.616 224.774 135.647 222.813 136.789Z" fill="#161616"/>
<path d="M153.573 90.5328C144.995 80.1393 128.574 90.7612 126.368 100.812C123.549 113.604 137.519 123.998 150.142 117.83C152.225 116.802 150.387 113.832 148.304 114.86C137.765 120 127.225 110.292 130.412 100.127C132.618 92.9313 144.627 85.2789 151 92.9313C152.47 94.6445 155.044 92.246 153.573 90.5328Z" fill="#161616"/>
<path d="M238.989 85.3922C238.622 89.1613 237.641 92.8161 236.171 96.3568C235.313 98.4126 238.867 99.3263 239.725 97.2705C241.318 93.3872 242.175 89.5039 242.666 85.3922C242.911 83.2221 239.234 83.2221 238.989 85.3922Z" fill="#161616"/>
<path d="M238.131 84.2506C236.415 88.4766 235.68 92.9309 235.68 97.3853C235.68 99.5554 239.357 99.5554 239.357 97.3853C239.357 93.1594 240.092 89.1619 241.685 85.1644C242.42 83.1085 238.866 82.1948 238.131 84.2506Z" fill="#161616"/>
<path d="M201.858 174.251C198.794 180.304 196.588 186.7 195.363 193.325C194.995 195.495 198.549 196.409 198.916 194.239C200.019 187.843 202.103 181.789 205.044 175.964C206.024 174.023 202.838 172.309 201.858 174.251Z" fill="#161616"/>
<path d="M166.563 169.226C166.563 173.909 166.196 178.591 165.093 183.16C164.48 185.787 162.765 188.756 163.377 191.498C164.358 195.952 170.117 199.607 174.284 201.206C182.004 204.29 197.813 203.947 198.916 193.782C199.161 191.612 195.485 191.612 195.24 193.782C194.749 198.35 187.029 199.607 183.23 199.493C178.573 199.378 173.794 197.779 170.362 194.81C165.583 190.698 168.402 185.901 169.382 180.876C170.117 176.992 170.362 173.109 170.362 169.112C170.117 166.942 166.441 166.942 166.563 169.226Z" fill="#161616"/>
<path d="M175.999 173.338C183.23 177.45 191.073 180.419 199.161 182.475C201.489 183.046 202.47 179.734 200.141 179.163C192.176 177.221 184.823 174.251 177.838 170.368C175.877 169.226 174.039 172.196 175.999 173.338Z" fill="#161616"/>
<path d="M191.808 178.249C194.627 179.163 197.445 179.734 200.386 180.077C202.715 180.419 203.695 177.107 201.367 176.764C198.426 176.422 195.607 175.737 192.788 174.937C190.46 174.252 189.479 177.564 191.808 178.249Z" fill="#161616"/>
<path d="M376.855 413.987C374.159 415.129 374.159 419.013 374.037 423.924C373.914 428.378 373.792 432.833 376.855 434.546C378.939 435.688 381.635 435.003 382.983 434.546C383.105 435.117 383.473 438.201 386.537 440.256C390.458 442.769 394.87 441.056 395.115 440.942C395.85 442.198 397.689 444.597 400.875 446.31C401.733 446.767 407.002 449.622 412.639 447.68C416.316 446.424 420.36 443.112 419.747 440.713C419.012 437.972 413.007 439.457 409.453 435.345C405.899 431.348 408.595 426.437 405.164 424.038C402.958 422.553 399.894 423.01 397.321 423.695C397.321 419.812 394.625 416.728 391.561 416.386C388.988 416.043 387.027 417.642 386.537 418.099C383.35 414.672 379.429 412.959 376.855 413.987Z" fill="white"/>
<path d="M379.184 432.489C374.65 433.86 375.017 418.327 376.733 416.499C378.816 416.385 380.777 416.271 382.86 416.157C383.473 417.185 383.718 418.213 383.718 419.355C383.841 420.611 383.841 421.982 383.718 423.238C383.596 424.951 383.596 426.664 383.473 428.378C383.473 428.949 383.351 429.52 383.351 430.091C383.473 431.576 382.738 432.718 380.9 433.403C380.287 431.233 376.733 432.147 377.346 434.317C377.959 436.373 379.919 437.629 382.248 437.286C384.944 436.944 386.292 434.774 386.782 432.375C387.762 428.263 387.762 423.124 387.395 418.898C387.15 415.814 385.679 412.616 382.615 411.131C375.017 407.591 372.934 415.814 372.321 420.954C371.709 425.294 372.076 438.086 380.164 435.573C382.37 435.116 381.39 431.804 379.184 432.489Z" fill="#161616"/>
<path d="M388.498 439.685C387.028 435.231 386.17 430.662 386.17 425.979C386.17 424.495 385.802 421.868 386.783 420.497C390.949 417.87 393.523 418.555 394.258 422.439C394.626 423.809 394.748 425.18 394.871 426.55C395.116 428.72 398.792 428.72 398.547 426.55C398.179 422.781 397.567 418.67 394.135 416.157C391.684 414.444 388.131 413.987 385.68 415.928C379.062 420.954 382.861 434.431 384.822 440.599C385.68 442.769 389.233 441.855 388.498 439.685Z" fill="#161616"/>
<path d="M384.332 440.826C387.763 443.567 391.685 444.481 396.096 443.339C397.077 443.11 397.689 442.082 397.322 441.283C396.587 438.884 396.219 436.372 396.341 433.859C396.464 432.146 396.954 427.12 398.547 425.864C402.714 422.666 407.126 434.087 408.351 436.257C409.454 438.199 412.64 436.486 411.537 434.544C409.454 430.775 404.92 418.554 397.812 421.866C391.194 424.95 392.175 436.828 393.645 442.196C394.013 441.511 394.503 440.826 394.871 440.141C391.807 440.94 389.111 440.483 386.66 438.542C385.067 436.943 382.494 439.341 384.332 440.826Z" fill="#161616"/>
<path d="M407.738 447.451C405.899 446.88 403.816 446.423 402.346 445.167C399.282 442.654 401.61 439.228 405.042 438.2C409.576 436.829 414.6 438.2 418.032 441.169C419.747 442.654 422.321 440.256 420.605 438.771C415.091 433.974 404.919 432.032 399.159 437.629C392.787 443.796 400.752 449.164 406.757 450.878C408.963 451.334 409.944 448.022 407.738 447.451Z" fill="#161616"/>
<path d="M403.817 448.366C409.209 452.934 416.807 450.079 420.728 445.168C426.12 438.315 414.969 433.975 409.576 431.919C407.371 431.119 405.532 433.975 407.738 434.888C410.189 435.916 419.748 439.114 418.155 442.769C416.562 446.538 409.822 448.823 406.513 446.081C404.675 444.368 402.101 446.767 403.817 448.366Z" fill="#161616"/>
</svg>
