<svg width="1154" height="441" viewBox="0 0 1154 441" fill="none" xmlns="http://www.w3.org/2000/svg">
<path d="M89.71 93.5H96.08L109.45 112.33L122.82 93.5H128.98L113.3 114.92L131.08 139H124.57L109.24 117.72L94.19 139H88.1L105.53 114.85L89.71 93.5ZM137.718 155.1V105.33C142.665 103.977 147.821 103.3 153.188 103.3C159.395 103.3 164.155 104.84 167.468 107.92C170.828 111 172.508 115.433 172.508 121.22C172.508 126.587 170.921 131.02 167.748 134.52C164.575 137.973 160.165 139.7 154.518 139.7C152.045 139.7 149.921 139.443 148.148 138.93C146.421 138.37 144.625 137.343 142.758 135.85V155.1H137.718ZM142.758 109.04V130.53C146.211 133.61 150.131 135.15 154.518 135.15C158.345 135.15 161.448 133.913 163.828 131.44C166.208 128.92 167.398 125.513 167.398 121.22C167.398 116.693 166.115 113.287 163.548 111C160.981 108.713 157.458 107.57 152.978 107.57C149.478 107.57 146.071 108.06 142.758 109.04ZM182.022 110.37L180.692 106.17C185.172 104.257 189.955 103.3 195.042 103.3C200.129 103.3 203.862 104.257 206.242 106.17C208.622 108.083 209.812 111.117 209.812 115.27V130.46C209.812 132.327 210.139 133.61 210.792 134.31C211.445 135.01 212.682 135.383 214.502 135.43V139C213.242 139.467 211.959 139.7 210.652 139.7C209.205 139.7 208.085 139.257 207.292 138.37C206.545 137.437 206.079 135.873 205.892 133.68C202.159 137.693 196.979 139.7 190.352 139.7C186.292 139.7 183.259 138.79 181.252 136.97C179.245 135.15 178.242 132.583 178.242 129.27C178.242 126.19 179.245 123.483 181.252 121.15C187.085 119.377 194.949 118.35 204.842 118.07V115.48C204.842 112.727 204.095 110.743 202.602 109.53C201.109 108.317 198.472 107.71 194.692 107.71C190.492 107.71 186.269 108.597 182.022 110.37ZM204.842 129.9V121.78C196.955 121.92 190.422 122.667 185.242 124.02C184.029 125.42 183.422 127.03 183.422 128.85C183.422 133.143 185.895 135.29 190.842 135.29C196.535 135.29 201.202 133.493 204.842 129.9ZM220.228 104H225.268V118.56H246.968V104H252.008V139H246.968V122.9H225.268V139H220.228V104ZM293.517 122.62H264.117C264.35 126.82 265.82 129.993 268.527 132.14C271.28 134.24 274.687 135.29 278.747 135.29C283.6 135.29 287.66 134.427 290.927 132.7L292.397 137.11C288.617 138.837 283.973 139.7 278.467 139.7C272.26 139.7 267.453 138.09 264.047 134.87C260.687 131.603 259.007 127.17 259.007 121.57C259.007 116.157 260.803 111.77 264.397 108.41C267.99 105.003 272.517 103.3 277.977 103.3C283.297 103.3 287.31 104.607 290.017 107.22C292.723 109.833 294.077 113.31 294.077 117.65C294.077 119.47 293.89 121.127 293.517 122.62ZM264.187 118.35H289.247C289.247 114.523 288.29 111.793 286.377 110.16C284.51 108.48 281.523 107.64 277.417 107.64C274.057 107.64 271.093 108.597 268.527 110.51C266.007 112.377 264.56 114.99 264.187 118.35ZM301.097 104H306.137V118.56H327.837V104H332.877V139H327.837V122.9H306.137V139H301.097V104ZM341.976 104H346.946V121.78L346.736 132.7L369.486 104H374.596V139H369.626V125.35L369.836 110.65L347.226 139H341.976V104ZM416.085 122.62H386.685C386.918 126.82 388.388 129.993 391.095 132.14C393.848 134.24 397.255 135.29 401.315 135.29C406.168 135.29 410.228 134.427 413.495 132.7L414.965 137.11C411.185 138.837 406.542 139.7 401.035 139.7C394.828 139.7 390.022 138.09 386.615 134.87C383.255 131.603 381.575 127.17 381.575 121.57C381.575 116.157 383.372 111.77 386.965 108.41C390.558 105.003 395.085 103.3 400.545 103.3C405.865 103.3 409.878 104.607 412.585 107.22C415.292 109.833 416.645 113.31 416.645 117.65C416.645 119.47 416.458 121.127 416.085 122.62ZM386.755 118.35H411.815C411.815 114.523 410.858 111.793 408.945 110.16C407.078 108.48 404.092 107.64 399.985 107.64C396.625 107.64 393.662 108.597 391.095 110.51C388.575 112.377 387.128 114.99 386.755 118.35ZM450.68 104H476.86V134.66H481.41L480.64 147.82H477.07L476.3 139H446.06L444.87 147.82H441.16V134.66C444.613 132.653 447.063 129.877 448.51 126.33C449.956 122.737 450.68 118.28 450.68 112.96V104ZM455.44 108.34V115.2C455.44 123.507 452.85 129.993 447.67 134.66H471.82V108.34H455.44ZM490.596 110.37L489.266 106.17C493.746 104.257 498.53 103.3 503.616 103.3C508.703 103.3 512.436 104.257 514.816 106.17C517.196 108.083 518.386 111.117 518.386 115.27V130.46C518.386 132.327 518.713 133.61 519.366 134.31C520.02 135.01 521.256 135.383 523.076 135.43V139C521.816 139.467 520.533 139.7 519.226 139.7C517.78 139.7 516.66 139.257 515.866 138.37C515.12 137.437 514.653 135.873 514.466 133.68C510.733 137.693 505.553 139.7 498.926 139.7C494.866 139.7 491.833 138.79 489.826 136.97C487.82 135.15 486.816 132.583 486.816 129.27C486.816 126.19 487.82 123.483 489.826 121.15C495.66 119.377 503.523 118.35 513.416 118.07V115.48C513.416 112.727 512.67 110.743 511.176 109.53C509.683 108.317 507.046 107.71 503.266 107.71C499.066 107.71 494.843 108.597 490.596 110.37ZM513.416 129.9V121.78C505.53 121.92 498.996 122.667 493.816 124.02C492.603 125.42 491.996 127.03 491.996 128.85C491.996 133.143 494.47 135.29 499.416 135.29C505.11 135.29 509.776 133.493 513.416 129.9ZM528.802 104H533.842V118.56H555.542V104H560.582V139H555.542V122.9H533.842V139H528.802V104ZM569.681 104H574.721V118.56H596.421V104H601.461V139H596.421V122.9H574.721V139H569.681V104ZM645.77 104H650.95V139H645.77V104ZM610.56 104H615.6V116.81C618.726 115.317 622.18 114.57 625.96 114.57C630.44 114.57 633.986 115.597 636.6 117.65C639.26 119.657 640.59 122.667 640.59 126.68C640.59 130.74 639.236 133.82 636.53 135.92C633.823 137.973 630.253 139 625.82 139H610.56V104ZM615.6 134.66H625.12C632.073 134.66 635.55 132 635.55 126.68C635.55 124.207 634.733 122.293 633.1 120.94C631.513 119.587 629.32 118.91 626.52 118.91C622.226 118.91 618.586 119.61 615.6 121.01V134.66ZM658.372 104H664.182L674.542 118.77H674.962L685.392 104H691.412L679.232 120.59L692.462 139H686.442L674.962 122.9H674.542L663.062 139H657.252L670.482 120.8L658.372 104ZM719.388 104H724.428V118.56H746.128V104H751.168V139H746.128V122.9H724.428V139H719.388V104ZM763.487 110.37L762.157 106.17C766.637 104.257 771.42 103.3 776.507 103.3C781.593 103.3 785.327 104.257 787.707 106.17C790.087 108.083 791.277 111.117 791.277 115.27V130.46C791.277 132.327 791.603 133.61 792.257 134.31C792.91 135.01 794.147 135.383 795.967 135.43V139C794.707 139.467 793.423 139.7 792.117 139.7C790.67 139.7 789.55 139.257 788.757 138.37C788.01 137.437 787.543 135.873 787.357 133.68C783.623 137.693 778.443 139.7 771.817 139.7C767.757 139.7 764.723 138.79 762.717 136.97C760.71 135.15 759.707 132.583 759.707 129.27C759.707 126.19 760.71 123.483 762.717 121.15C768.55 119.377 776.413 118.35 786.307 118.07V115.48C786.307 112.727 785.56 110.743 784.067 109.53C782.573 108.317 779.937 107.71 776.157 107.71C771.957 107.71 767.733 108.597 763.487 110.37ZM786.307 129.9V121.78C778.42 121.92 771.887 122.667 766.707 124.02C765.493 125.42 764.887 127.03 764.887 128.85C764.887 133.143 767.36 135.29 772.307 135.29C778 135.29 782.667 133.493 786.307 129.9ZM830.581 104H856.761V139H851.721V108.34H835.411V114.57C835.411 120.263 835.107 124.813 834.501 128.22C833.941 131.58 832.681 134.31 830.721 136.41C828.761 138.51 826.241 139.56 823.161 139.56C821.667 139.56 820.337 139.303 819.171 138.79L819.801 134.94C820.407 135.08 821.014 135.15 821.621 135.15C823.907 135.15 825.681 134.52 826.941 133.26C828.387 131.813 829.344 129.573 829.811 126.54C830.324 123.46 830.581 119.213 830.581 113.8V104ZM865.882 104H870.852V121.78L870.642 132.7L893.392 104H898.502V139H893.532V125.35L893.742 110.65L871.132 139H865.882V104ZM906.531 104H911.571V114.22C911.571 120.94 915.071 124.3 922.071 124.3C925.991 124.3 929.655 123.11 933.061 120.73V104H938.101V139H933.061V125.21C929.515 127.543 925.641 128.71 921.441 128.71C916.728 128.71 913.065 127.52 910.451 125.14C907.838 122.713 906.531 119.213 906.531 114.64V104ZM947.23 104H952.27V118.56H973.97V104H979.01V139H973.97V122.9H952.27V139H947.23V104ZM1019.26 108.34C1022.95 111.653 1024.79 116.04 1024.79 121.5C1024.79 126.96 1022.95 131.37 1019.26 134.73C1015.57 138.043 1010.95 139.7 1005.4 139.7C999.845 139.7 995.225 138.043 991.539 134.73C987.852 131.37 986.009 126.96 986.009 121.5C986.009 116.04 987.852 111.653 991.539 108.34C995.225 104.98 999.845 103.3 1005.4 103.3C1010.95 103.3 1015.57 104.98 1019.26 108.34ZM995.039 111.35C992.425 113.917 991.119 117.3 991.119 121.5C991.119 125.7 992.425 129.083 995.039 131.65C997.699 134.217 1001.15 135.5 1005.4 135.5C1009.65 135.5 1013.08 134.217 1015.69 131.65C1018.35 129.083 1019.68 125.7 1019.68 121.5C1019.68 117.3 1018.35 113.917 1015.69 111.35C1013.08 108.783 1009.65 107.5 1005.4 107.5C1001.15 107.5 997.699 108.783 995.039 111.35ZM1031.79 104H1037.74L1051.39 126.54L1064.97 104H1070.99V139H1066.02V123.25L1066.23 110.93H1065.81L1053.28 131.79H1049.43L1036.83 110.93H1036.48L1036.69 121.29V139H1031.79V104ZM123.8 164.5V210H118.55V191.52H106.58L94.19 210H88.1L101.61 190.89C98.2033 190.237 95.45 188.743 93.35 186.41C91.25 184.077 90.2 181.3 90.2 178.08C90.2 173.927 91.74 170.637 94.82 168.21C97.9467 165.737 102.007 164.5 107 164.5H123.8ZM118.55 168.91H107.28C103.687 168.91 100.793 169.657 98.6 171.15C96.4533 172.643 95.38 174.953 95.38 178.08C95.38 181.16 96.4533 183.447 98.6 184.94C100.793 186.387 103.733 187.11 107.42 187.11H118.55V168.91ZM132.933 175H137.973V189.56H159.673V175H164.713V210H159.673V193.9H137.973V210H132.933V175ZM180.182 175H206.362V205.66H210.912L210.142 218.82H206.572L205.802 210H175.562L174.372 218.82H170.662V205.66C174.115 203.653 176.565 200.877 178.012 197.33C179.458 193.737 180.182 189.28 180.182 183.96V175ZM184.942 179.34V186.2C184.942 194.507 182.352 200.993 177.172 205.66H201.322V179.34H184.942ZM248.605 193.62H219.205C219.438 197.82 220.908 200.993 223.615 203.14C226.368 205.24 229.775 206.29 233.835 206.29C238.688 206.29 242.748 205.427 246.015 203.7L247.485 208.11C243.705 209.837 239.061 210.7 233.555 210.7C227.348 210.7 222.541 209.09 219.135 205.87C215.775 202.603 214.095 198.17 214.095 192.57C214.095 187.157 215.891 182.77 219.485 179.41C223.078 176.003 227.605 174.3 233.065 174.3C238.385 174.3 242.398 175.607 245.105 178.22C247.811 180.833 249.165 184.31 249.165 188.65C249.165 190.47 248.978 192.127 248.605 193.62ZM219.275 189.35H244.335C244.335 185.523 243.378 182.793 241.465 181.16C239.598 179.48 236.611 178.64 232.505 178.64C229.145 178.64 226.181 179.597 223.615 181.51C221.095 183.377 219.648 185.99 219.275 189.35ZM256.185 175H261.225V188.3H271.235L276.415 179.27C278.235 176.05 281.105 174.44 285.025 174.44C286.145 174.44 287.171 174.603 288.105 174.93L287.195 179.34C286.588 179.153 285.818 179.06 284.885 179.06C282.971 179.06 281.338 180.203 279.985 182.49L275.435 190.54L288.315 210H282.365L271.165 192.64H261.225V210H256.185V175ZM322.032 176.61L319.792 180.6C317.132 179.293 313.912 178.64 310.132 178.64C305.418 178.64 301.732 179.853 299.072 182.28C296.458 184.66 295.152 188.09 295.152 192.57C295.152 196.63 296.482 199.92 299.142 202.44C301.802 204.96 305.115 206.22 309.082 206.22C313.562 206.22 317.482 205.38 320.842 203.7L322.522 207.83C318.648 209.743 314.052 210.7 308.732 210.7C303.038 210.7 298.488 209.02 295.082 205.66C291.722 202.253 290.042 197.937 290.042 192.71C290.042 187.297 291.908 182.887 295.642 179.48C299.375 176.027 304.065 174.3 309.712 174.3C314.705 174.3 318.812 175.07 322.032 176.61ZM329.946 203.63C330.693 202.837 331.696 202.44 332.956 202.44C334.216 202.44 335.22 202.837 335.966 203.63C336.713 204.377 337.086 205.333 337.086 206.5C337.086 207.667 336.713 208.647 335.966 209.44C335.22 210.187 334.216 210.56 332.956 210.56C331.696 210.56 330.693 210.187 329.946 209.44C329.2 208.647 328.826 207.667 328.826 206.5C328.826 205.333 329.2 204.377 329.946 203.63ZM353.59 164.5H384.18V205.45H389.22L388.66 220.15H384.53L383.69 210H347.78L346.66 220.15H342.67V205.45C344.91 204.75 346.8 203.42 348.34 201.46C351.84 196.933 353.59 189.397 353.59 178.85V164.5ZM379 168.98H358.7V178.78C358.7 191.567 356.11 200.457 350.93 205.45H379V168.98ZM395.843 175H400.813V192.78L400.603 203.7L423.353 175H428.463V210H423.493V196.35L423.703 181.65L401.093 210H395.843V175ZM467.432 176.61L465.192 180.6C462.532 179.293 459.312 178.64 455.532 178.64C450.819 178.64 447.132 179.853 444.472 182.28C441.859 184.66 440.552 188.09 440.552 192.57C440.552 196.63 441.882 199.92 444.542 202.44C447.202 204.96 450.516 206.22 454.482 206.22C458.962 206.22 462.882 205.38 466.242 203.7L467.922 207.83C464.049 209.743 459.452 210.7 454.132 210.7C448.439 210.7 443.889 209.02 440.482 205.66C437.122 202.253 435.442 197.937 435.442 192.71C435.442 187.297 437.309 182.887 441.042 179.48C444.776 176.027 449.466 174.3 455.112 174.3C460.106 174.3 464.212 175.07 467.432 176.61ZM475.277 175H480.317V188.3H490.327L495.507 179.27C497.327 176.05 500.197 174.44 504.117 174.44C505.237 174.44 506.263 174.603 507.197 174.93L506.287 179.34C505.68 179.153 504.91 179.06 503.977 179.06C502.063 179.06 500.43 180.203 499.077 182.49L494.527 190.54L507.407 210H501.457L490.257 192.64H480.317V210H475.277V175ZM543.644 193.62H514.244C514.477 197.82 515.947 200.993 518.654 203.14C521.407 205.24 524.814 206.29 528.874 206.29C533.727 206.29 537.787 205.427 541.054 203.7L542.524 208.11C538.744 209.837 534.1 210.7 528.594 210.7C522.387 210.7 517.58 209.09 514.174 205.87C510.814 202.603 509.134 198.17 509.134 192.57C509.134 187.157 510.93 182.77 514.524 179.41C518.117 176.003 522.644 174.3 528.104 174.3C533.424 174.3 537.437 175.607 540.144 178.22C542.85 180.833 544.204 184.31 544.204 188.65C544.204 190.47 544.017 192.127 543.644 193.62ZM514.314 189.35H539.374C539.374 185.523 538.417 182.793 536.504 181.16C534.637 179.48 531.65 178.64 527.544 178.64C524.184 178.64 521.22 179.597 518.654 181.51C516.134 183.377 514.687 185.99 514.314 189.35ZM573.618 188.79H619.258V193.27H573.618V188.79ZM657.335 189.35H676.515C675.348 182.21 670.775 178.64 662.795 178.64C658.875 178.64 655.142 179.48 651.595 181.16L649.705 177.24C653.765 175.28 658.292 174.3 663.285 174.3C669.352 174.3 673.948 175.933 677.075 179.2C680.248 182.467 681.835 186.783 681.835 192.15C681.835 197.703 680.038 202.183 676.445 205.59C672.852 208.997 668.045 210.7 662.025 210.7C657.125 210.7 652.785 209.883 649.005 208.25L650.335 203.77C653.882 205.403 657.615 206.22 661.535 206.22C666.015 206.22 669.562 205.17 672.175 203.07C674.835 200.923 676.328 197.797 676.655 193.69H657.335V189.35ZM697.902 179.34H685.022V175H715.822V179.34H702.942V210H697.902V179.34ZM752.589 179.34C756.275 182.653 758.119 187.04 758.119 192.5C758.119 197.96 756.275 202.37 752.589 205.73C748.902 209.043 744.282 210.7 738.729 210.7C733.175 210.7 728.555 209.043 724.869 205.73C721.182 202.37 719.339 197.96 719.339 192.5C719.339 187.04 721.182 182.653 724.869 179.34C728.555 175.98 733.175 174.3 738.729 174.3C744.282 174.3 748.902 175.98 752.589 179.34ZM728.369 182.35C725.755 184.917 724.449 188.3 724.449 192.5C724.449 196.7 725.755 200.083 728.369 202.65C731.029 205.217 734.482 206.5 738.729 206.5C742.975 206.5 746.405 205.217 749.019 202.65C751.679 200.083 753.009 196.7 753.009 192.5C753.009 188.3 751.679 184.917 749.019 182.35C746.405 179.783 742.975 178.5 738.729 178.5C734.482 178.5 731.029 179.783 728.369 182.35ZM793.815 164.43L797.665 164.5V210H792.485V170.45L784.785 174.44L783.315 170.52L793.815 164.43ZM849.801 187.25C849.801 194.25 847.701 199.943 843.501 204.33C839.301 208.717 833.935 210.91 827.401 210.91C820.868 210.91 815.501 208.717 811.301 204.33C807.101 199.943 805.001 194.25 805.001 187.25C805.001 180.203 807.101 174.51 811.301 170.17C815.501 165.783 820.868 163.59 827.401 163.59C833.981 163.59 839.348 165.807 843.501 170.24C847.701 174.673 849.801 180.343 849.801 187.25ZM815.081 173.25C811.908 176.61 810.321 181.277 810.321 187.25C810.321 193.223 811.908 197.89 815.081 201.25C818.301 204.61 822.408 206.29 827.401 206.29C832.395 206.29 836.478 204.61 839.651 201.25C842.871 197.89 844.481 193.223 844.481 187.25C844.481 181.417 842.871 176.773 839.651 173.32C836.478 169.867 832.395 168.14 827.401 168.14C822.361 168.14 818.255 169.843 815.081 173.25ZM900.182 187.25C900.182 194.25 898.082 199.943 893.882 204.33C889.682 208.717 884.315 210.91 877.782 210.91C871.249 210.91 865.882 208.717 861.682 204.33C857.482 199.943 855.382 194.25 855.382 187.25C855.382 180.203 857.482 174.51 861.682 170.17C865.882 165.783 871.249 163.59 877.782 163.59C884.362 163.59 889.729 165.807 893.882 170.24C898.082 174.673 900.182 180.343 900.182 187.25ZM865.462 173.25C862.289 176.61 860.702 181.277 860.702 187.25C860.702 193.223 862.289 197.89 865.462 201.25C868.682 204.61 872.789 206.29 877.782 206.29C882.775 206.29 886.859 204.61 890.032 201.25C893.252 197.89 894.862 193.223 894.862 187.25C894.862 181.417 893.252 176.773 890.032 173.32C886.859 169.867 882.775 168.14 877.782 168.14C872.742 168.14 868.635 169.843 865.462 173.25ZM938.383 174.23L941.673 176.47L917.313 211.26L913.953 209.09L938.383 174.23ZM922.563 190.75C920.603 192.57 918.176 193.48 915.283 193.48C912.39 193.48 909.963 192.57 908.003 190.75C906.043 188.883 905.063 186.597 905.063 183.89C905.063 181.183 906.043 178.92 908.003 177.1C909.963 175.233 912.39 174.3 915.283 174.3C918.176 174.3 920.603 175.233 922.563 177.1C924.523 178.92 925.503 181.183 925.503 183.89C925.503 186.597 924.523 188.883 922.563 190.75ZM910.873 188.09C911.993 189.117 913.463 189.63 915.283 189.63C917.103 189.63 918.55 189.117 919.623 188.09C920.743 187.017 921.303 185.617 921.303 183.89C921.303 182.163 920.743 180.787 919.623 179.76C918.55 178.687 917.103 178.15 915.283 178.15C913.463 178.15 911.993 178.687 910.873 179.76C909.8 180.787 909.263 182.163 909.263 183.89C909.263 185.617 909.8 187.017 910.873 188.09ZM948.463 207.97C946.503 209.79 944.076 210.7 941.183 210.7C938.29 210.7 935.863 209.79 933.903 207.97C931.943 206.103 930.963 203.817 930.963 201.11C930.963 198.403 931.943 196.14 933.903 194.32C935.863 192.453 938.29 191.52 941.183 191.52C944.076 191.52 946.503 192.453 948.463 194.32C950.423 196.14 951.403 198.403 951.403 201.11C951.403 203.817 950.423 206.103 948.463 207.97ZM936.773 205.31C937.893 206.337 939.363 206.85 941.183 206.85C943.003 206.85 944.45 206.337 945.523 205.31C946.643 204.237 947.203 202.837 947.203 201.11C947.203 199.383 946.643 198.007 945.523 196.98C944.45 195.907 943.003 195.37 941.183 195.37C939.363 195.37 937.893 195.907 936.773 196.98C935.7 198.007 935.163 199.383 935.163 201.11C935.163 202.837 935.7 204.237 936.773 205.31ZM120.44 247.61L118.2 251.6C115.54 250.293 112.32 249.64 108.54 249.64C103.827 249.64 100.14 250.853 97.48 253.28C94.8667 255.66 93.56 259.09 93.56 263.57C93.56 267.63 94.89 270.92 97.55 273.44C100.21 275.96 103.523 277.22 107.49 277.22C111.97 277.22 115.89 276.38 119.25 274.7L120.93 278.83C117.057 280.743 112.46 281.7 107.14 281.7C101.447 281.7 96.8967 280.02 93.49 276.66C90.13 273.253 88.45 268.937 88.45 263.71C88.45 258.297 90.3167 253.887 94.05 250.48C97.7833 247.027 102.473 245.3 108.12 245.3C113.113 245.3 117.22 246.07 120.44 247.61ZM158.067 250.34C161.754 253.653 163.597 258.04 163.597 263.5C163.597 268.96 161.754 273.37 158.067 276.73C154.381 280.043 149.761 281.7 144.207 281.7C138.654 281.7 134.034 280.043 130.347 276.73C126.661 273.37 124.817 268.96 124.817 263.5C124.817 258.04 126.661 253.653 130.347 250.34C134.034 246.98 138.654 245.3 144.207 245.3C149.761 245.3 154.381 246.98 158.067 250.34ZM133.847 253.35C131.234 255.917 129.927 259.3 129.927 263.5C129.927 267.7 131.234 271.083 133.847 273.65C136.507 276.217 139.961 277.5 144.207 277.5C148.454 277.5 151.884 276.217 154.497 273.65C157.157 271.083 158.487 267.7 158.487 263.5C158.487 259.3 157.157 255.917 154.497 253.35C151.884 250.783 148.454 249.5 144.207 249.5C139.961 249.5 136.507 250.783 133.847 253.35ZM201.749 250.34C205.435 253.653 207.279 258.04 207.279 263.5C207.279 268.96 205.435 273.37 201.749 276.73C198.062 280.043 193.442 281.7 187.889 281.7C182.335 281.7 177.715 280.043 174.029 276.73C170.342 273.37 168.499 268.96 168.499 263.5C168.499 258.04 170.342 253.653 174.029 250.34C177.715 246.98 182.335 245.3 187.889 245.3C193.442 245.3 198.062 246.98 201.749 250.34ZM177.529 253.35C174.915 255.917 173.609 259.3 173.609 263.5C173.609 267.7 174.915 271.083 177.529 273.65C180.189 276.217 183.642 277.5 187.889 277.5C192.135 277.5 195.565 276.217 198.179 273.65C200.839 271.083 202.169 267.7 202.169 263.5C202.169 259.3 200.839 255.917 198.179 253.35C195.565 250.783 192.135 249.5 187.889 249.5C183.642 249.5 180.189 250.783 177.529 253.35ZM223.693 250.34H210.813V246H241.613V250.34H228.733V281H223.693V250.34ZM248.597 246H265.257C268.664 246 271.487 246.793 273.727 248.38C275.967 249.92 277.087 252.16 277.087 255.1C277.087 258.367 275.71 260.653 272.957 261.96V262.24C274.87 262.847 276.41 263.897 277.577 265.39C278.744 266.883 279.327 268.633 279.327 270.64C279.327 273.813 278.16 276.333 275.827 278.2C273.54 280.067 270.6 281 267.007 281H248.597V246ZM253.567 265.04V276.8H266.307C271.58 276.8 274.217 274.793 274.217 270.78C274.217 266.953 271.744 265.04 266.797 265.04H253.567ZM253.567 250.2V260.84H266.027C270.04 260.84 272.047 259.02 272.047 255.38C272.047 251.927 269.947 250.2 265.747 250.2H253.567ZM317.716 264.62H288.316C288.549 268.82 290.019 271.993 292.726 274.14C295.479 276.24 298.886 277.29 302.946 277.29C307.799 277.29 311.859 276.427 315.126 274.7L316.596 279.11C312.816 280.837 308.173 281.7 302.666 281.7C296.459 281.7 291.653 280.09 288.246 276.87C284.886 273.603 283.206 269.17 283.206 263.57C283.206 258.157 285.003 253.77 288.596 250.41C292.189 247.003 296.716 245.3 302.176 245.3C307.496 245.3 311.509 246.607 314.216 249.22C316.923 251.833 318.276 255.31 318.276 259.65C318.276 261.47 318.089 263.127 317.716 264.62ZM288.386 260.35H313.446C313.446 256.523 312.489 253.793 310.576 252.16C308.709 250.48 305.723 249.64 301.616 249.64C298.256 249.64 295.293 250.597 292.726 252.51C290.206 254.377 288.759 256.99 288.386 260.35ZM333.957 250.34H321.077V246H351.877V250.34H338.997V281H333.957V250.34ZM387.383 247.61L385.143 251.6C382.483 250.293 379.263 249.64 375.483 249.64C370.77 249.64 367.083 250.853 364.423 253.28C361.81 255.66 360.503 259.09 360.503 263.57C360.503 267.63 361.833 270.92 364.493 273.44C367.153 275.96 370.467 277.22 374.433 277.22C378.913 277.22 382.833 276.38 386.193 274.7L387.873 278.83C384 280.743 379.403 281.7 374.083 281.7C368.39 281.7 363.84 280.02 360.433 276.66C357.073 273.253 355.393 268.937 355.393 263.71C355.393 258.297 357.26 253.887 360.993 250.48C364.727 247.027 369.417 245.3 375.063 245.3C380.057 245.3 384.163 246.07 387.383 247.61ZM406.008 250.34H393.128V246H423.928V250.34H411.048V281H406.008V250.34ZM430.911 246H447.571C450.978 246 453.801 246.793 456.041 248.38C458.281 249.92 459.401 252.16 459.401 255.1C459.401 258.367 458.025 260.653 455.271 261.96V262.24C457.185 262.847 458.725 263.897 459.891 265.39C461.058 266.883 461.641 268.633 461.641 270.64C461.641 273.813 460.475 276.333 458.141 278.2C455.855 280.067 452.915 281 449.321 281H430.911V246ZM435.881 265.04V276.8H448.621C453.895 276.8 456.531 274.793 456.531 270.78C456.531 266.953 454.058 265.04 449.111 265.04H435.881ZM435.881 250.2V260.84H448.341C452.355 260.84 454.361 259.02 454.361 255.38C454.361 251.927 452.261 250.2 448.061 250.2H435.881ZM468.988 246H473.958V263.78L473.748 274.7L496.498 246H501.608V281H496.638V267.35L496.848 252.65L474.238 281H468.988V246ZM543.097 264.62H513.697C513.93 268.82 515.4 271.993 518.107 274.14C520.86 276.24 524.267 277.29 528.327 277.29C533.18 277.29 537.24 276.427 540.507 274.7L541.977 279.11C538.197 280.837 533.553 281.7 528.047 281.7C521.84 281.7 517.033 280.09 513.627 276.87C510.267 273.603 508.587 269.17 508.587 263.57C508.587 258.157 510.383 253.77 513.977 250.41C517.57 247.003 522.097 245.3 527.557 245.3C532.877 245.3 536.89 246.607 539.597 249.22C542.303 251.833 543.657 255.31 543.657 259.65C543.657 261.47 543.47 263.127 543.097 264.62ZM513.767 260.35H538.827C538.827 256.523 537.87 253.793 535.957 252.16C534.09 250.48 531.103 249.64 526.997 249.64C523.637 249.64 520.673 250.597 518.107 252.51C515.587 254.377 514.14 256.99 513.767 260.35ZM571.951 252.16L570.341 248.24C574.261 246.28 578.811 245.3 583.991 245.3C587.911 245.3 591.155 246.07 593.721 247.61C596.288 249.103 597.571 251.483 597.571 254.75C597.571 257.737 596.311 259.93 593.791 261.33V261.75C597.851 263.29 599.881 266.137 599.881 270.29C599.881 273.697 598.505 276.45 595.751 278.55C592.998 280.65 588.775 281.7 583.081 281.7C577.248 281.7 572.395 280.627 568.521 278.48L570.411 274.42C573.865 276.38 578.065 277.36 583.011 277.36C586.791 277.36 589.685 276.73 591.691 275.47C593.745 274.21 594.771 272.46 594.771 270.22C594.771 266.113 592.041 264.06 586.581 264.06H576.571V259.93H585.951C590.385 259.93 592.601 258.25 592.601 254.89C592.601 253.163 591.761 251.833 590.081 250.9C588.448 249.967 586.138 249.5 583.151 249.5C579.231 249.5 575.498 250.387 571.951 252.16ZM608.721 252.37L607.391 248.17C611.871 246.257 616.655 245.3 621.741 245.3C626.828 245.3 630.561 246.257 632.941 248.17C635.321 250.083 636.511 253.117 636.511 257.27V272.46C636.511 274.327 636.838 275.61 637.491 276.31C638.145 277.01 639.381 277.383 641.201 277.43V281C639.941 281.467 638.658 281.7 637.351 281.7C635.905 281.7 634.785 281.257 633.991 280.37C633.245 279.437 632.778 277.873 632.591 275.68C628.858 279.693 623.678 281.7 617.051 281.7C612.991 281.7 609.958 280.79 607.951 278.97C605.945 277.15 604.941 274.583 604.941 271.27C604.941 268.19 605.945 265.483 607.951 263.15C613.785 261.377 621.648 260.35 631.541 260.07V257.48C631.541 254.727 630.795 252.743 629.301 251.53C627.808 250.317 625.171 249.71 621.391 249.71C617.191 249.71 612.968 250.597 608.721 252.37ZM631.541 271.9V263.78C623.655 263.92 617.121 264.667 611.941 266.02C610.728 267.42 610.121 269.03 610.121 270.85C610.121 275.143 612.595 277.29 617.541 277.29C623.235 277.29 627.901 275.493 631.541 271.9ZM646.927 246H651.967V259.3H661.977L667.157 250.27C668.977 247.05 671.847 245.44 675.767 245.44C676.887 245.44 677.914 245.603 678.847 245.93L677.937 250.34C677.33 250.153 676.56 250.06 675.627 250.06C673.714 250.06 672.08 251.203 670.727 253.49L666.177 261.54L679.057 281H673.107L661.907 263.64H651.967V281H646.927V246ZM714.034 250.34C717.721 253.653 719.564 258.04 719.564 263.5C719.564 268.96 717.721 273.37 714.034 276.73C710.347 280.043 705.727 281.7 700.174 281.7C694.621 281.7 690.001 280.043 686.314 276.73C682.627 273.37 680.784 268.96 680.784 263.5C680.784 258.04 682.627 253.653 686.314 250.34C690.001 246.98 694.621 245.3 700.174 245.3C705.727 245.3 710.347 246.98 714.034 250.34ZM689.814 253.35C687.201 255.917 685.894 259.3 685.894 263.5C685.894 267.7 687.201 271.083 689.814 273.65C692.474 276.217 695.927 277.5 700.174 277.5C704.421 277.5 707.851 276.217 710.464 273.65C713.124 271.083 714.454 267.7 714.454 263.5C714.454 259.3 713.124 255.917 710.464 253.35C707.851 250.783 704.421 249.5 700.174 249.5C695.927 249.5 692.474 250.783 689.814 253.35ZM726.566 246H731.606V260.56H753.306V246H758.346V281H753.306V264.9H731.606V281H726.566V246ZM797.685 246H803.425L787.745 286.95C786.671 289.703 785.178 291.757 783.265 293.11C781.351 294.51 779.181 295.21 776.755 295.21C775.635 295.21 774.631 295.093 773.745 294.86L774.305 290.59C777.011 290.59 778.995 290.193 780.255 289.4C781.561 288.653 782.658 287.207 783.545 285.06L785.155 281H779.765L765.065 246H770.945L783.195 276.66H786.765L797.685 246ZM138.15 338.49H154.53V342.48H138.15V338.49ZM153.2 318.19C155.02 319.917 155.93 322.11 155.93 324.77C155.93 327.43 155.02 329.623 153.2 331.35C151.427 333.077 149.14 333.94 146.34 333.94C143.54 333.94 141.23 333.077 139.41 331.35C137.637 329.623 136.75 327.43 136.75 324.77C136.75 322.11 137.637 319.917 139.41 318.19C141.23 316.463 143.54 315.6 146.34 315.6C149.14 315.6 151.427 316.463 153.2 318.19ZM142.28 320.85C141.3 321.83 140.81 323.137 140.81 324.77C140.81 326.403 141.3 327.71 142.28 328.69C143.26 329.67 144.613 330.16 146.34 330.16C148.067 330.16 149.42 329.67 150.4 328.69C151.38 327.71 151.87 326.403 151.87 324.77C151.87 323.137 151.38 321.83 150.4 320.85C149.42 319.87 148.067 319.38 146.34 319.38C144.613 319.38 143.26 319.87 142.28 320.85ZM90.55 306.5H96.15L127.65 345.77L127.37 331.84V306.5H132.34V352H126.53L95.03 312.45L95.52 328.55V352H90.55V306.5ZM180.631 306.43L184.481 306.5V352H179.301V312.45L171.601 316.44L170.131 312.52L180.631 306.43ZM194.828 306.5H221.148V311.12H199.868V324.14C202.621 323.533 205.328 323.23 207.988 323.23C212.654 323.23 216.434 324.537 219.328 327.15C222.221 329.763 223.668 333.31 223.668 337.79C223.668 342.13 222.104 345.747 218.978 348.64C215.851 351.487 211.511 352.91 205.958 352.91C202.924 352.91 200.288 352.56 198.048 351.86C195.854 351.16 193.661 349.993 191.468 348.36L194.058 344.23C197.651 346.937 201.548 348.29 205.748 348.29C209.761 348.29 212.864 347.333 215.058 345.42C217.298 343.46 218.418 340.917 218.418 337.79C218.418 331.117 214.311 327.78 206.098 327.78C203.998 327.78 202.248 327.943 200.848 328.27C199.494 328.597 197.838 329.203 195.878 330.09L194.828 329.67V306.5ZM230.767 352V347.31L246.727 331.84C249.387 329.227 251.347 326.893 252.607 324.84C253.913 322.787 254.567 320.687 254.567 318.54C254.567 315.833 253.657 313.757 251.837 312.31C250.063 310.863 247.707 310.14 244.767 310.14C240.193 310.14 236.087 311.517 232.447 314.27L229.927 310.14C232.26 308.46 234.593 307.293 236.927 306.64C239.26 305.94 242.013 305.59 245.187 305.59C249.667 305.59 253.237 306.733 255.897 309.02C258.603 311.307 259.957 314.457 259.957 318.47C259.957 323.603 257.087 328.877 251.347 334.29L238.257 346.75V347.17H260.027V352H230.767ZM267.013 335.97V330.51H283.953V335.97H267.013ZM313.371 305.59H318.551V312.31C320.931 311.89 323.078 311.68 324.991 311.68C330.451 311.68 334.721 313.313 337.801 316.58C340.881 319.8 342.421 323.93 342.421 328.97C342.421 333.963 340.905 338.093 337.871 341.36C334.885 344.58 330.661 346.19 325.201 346.19C323.195 346.19 320.978 345.98 318.551 345.56V352H313.371V345.56C311.038 345.98 308.845 346.19 306.791 346.19C301.331 346.19 297.085 344.58 294.051 341.36C291.065 338.093 289.571 333.963 289.571 328.97C289.571 323.93 291.088 319.8 294.121 316.58C297.201 313.313 301.471 311.68 306.931 311.68C308.891 311.68 311.038 311.89 313.371 312.31V305.59ZM313.371 341.15V316.58C311.085 316.207 308.891 316.02 306.791 316.02C303.105 316.02 300.165 317.163 297.971 319.45C295.825 321.737 294.751 324.91 294.751 328.97C294.751 333.03 295.825 336.18 297.971 338.42C300.118 340.66 303.058 341.78 306.791 341.78C308.938 341.78 311.131 341.57 313.371 341.15ZM318.551 316.58V341.15C320.791 341.57 323.008 341.78 325.201 341.78C328.888 341.78 331.805 340.66 333.951 338.42C336.145 336.18 337.241 333.03 337.241 328.97C337.241 324.91 336.145 321.737 333.951 319.45C331.805 317.163 328.888 316.02 325.201 316.02C323.055 316.02 320.838 316.207 318.551 316.58ZM353.686 324.7H361.806C364.466 324.7 366.543 324.093 368.036 322.88C369.529 321.62 370.276 319.87 370.276 317.63C370.276 312.543 366.986 310 360.406 310C357.886 310 355.716 310.28 353.896 310.84C352.123 311.4 350.303 312.38 348.436 313.78L346.336 310.14C350.116 307.107 354.876 305.59 360.616 305.59C365.096 305.59 368.689 306.64 371.396 308.74C374.103 310.84 375.456 313.71 375.456 317.35C375.456 319.263 374.966 321.013 373.986 322.6C373.053 324.14 371.699 325.33 369.926 326.17V326.45C372.493 327.337 374.476 328.83 375.876 330.93C377.323 333.03 378.046 335.457 378.046 338.21C378.046 342.55 376.389 346.097 373.076 348.85C369.809 351.557 365.633 352.91 360.546 352.91C357.233 352.91 354.386 352.607 352.006 352C349.673 351.393 347.293 350.32 344.866 348.78L346.616 344.3C350.629 347.007 355.249 348.36 360.476 348.36C364.069 348.36 367.009 347.497 369.296 345.77C371.629 343.997 372.796 341.523 372.796 338.35C372.796 332.143 369.436 329.04 362.716 329.04H353.686V324.7ZM416.59 323.3L418.69 326.45L410.29 333.87L418.69 341.57L416.59 344.93L404.62 335.2V332.82L416.59 323.3ZM428.63 322.53L430.73 325.75L422.33 333.87L430.73 342.34L428.63 345.63L416.59 334.99V332.68L428.63 322.53ZM446.777 315.32C443.091 318.82 441.247 323.463 441.247 329.25C441.247 335.037 443.091 339.68 446.777 343.18C450.511 346.68 455.037 348.43 460.357 348.43C465.677 348.43 470.181 346.68 473.867 343.18C477.601 339.68 479.467 335.037 479.467 329.25C479.467 323.463 477.601 318.82 473.867 315.32C470.181 311.82 465.677 310.07 460.357 310.07C455.037 310.07 450.511 311.82 446.777 315.32ZM484.717 329.25C484.717 336.203 482.384 341.897 477.717 346.33C473.097 350.717 467.311 352.91 460.357 352.91C453.357 352.91 447.547 350.717 442.927 346.33C438.307 341.943 435.997 336.25 435.997 329.25C435.997 322.297 438.307 316.627 442.927 312.24C447.594 307.807 453.404 305.59 460.357 305.59C467.357 305.59 473.167 307.783 477.787 312.17C482.407 316.557 484.717 322.25 484.717 329.25ZM512.738 317H544.028V352H538.988V321.34H517.778V352H512.738V317ZM585.548 335.62H556.148C556.381 339.82 557.851 342.993 560.558 345.14C563.311 347.24 566.718 348.29 570.778 348.29C575.631 348.29 579.691 347.427 582.958 345.7L584.428 350.11C580.648 351.837 576.005 352.7 570.498 352.7C564.291 352.7 559.485 351.09 556.078 347.87C552.718 344.603 551.038 340.17 551.038 334.57C551.038 329.157 552.835 324.77 556.428 321.41C560.021 318.003 564.548 316.3 570.008 316.3C575.328 316.3 579.341 317.607 582.048 320.22C584.755 322.833 586.108 326.31 586.108 330.65C586.108 332.47 585.921 334.127 585.548 335.62ZM556.218 331.35H581.278C581.278 327.523 580.321 324.793 578.408 323.16C576.541 321.48 573.555 320.64 569.448 320.64C566.088 320.64 563.125 321.597 560.558 323.51C558.038 325.377 556.591 327.99 556.218 331.35ZM593.128 368.1V318.33C598.075 316.977 603.231 316.3 608.598 316.3C614.805 316.3 619.565 317.84 622.878 320.92C626.238 324 627.918 328.433 627.918 334.22C627.918 339.587 626.331 344.02 623.158 347.52C619.985 350.973 615.575 352.7 609.928 352.7C607.455 352.7 605.331 352.443 603.558 351.93C601.831 351.37 600.035 350.343 598.168 348.85V368.1H593.128ZM598.168 322.04V343.53C601.621 346.61 605.541 348.15 609.928 348.15C613.755 348.15 616.858 346.913 619.238 344.44C621.618 341.92 622.808 338.513 622.808 334.22C622.808 329.693 621.525 326.287 618.958 324C616.391 321.713 612.868 320.57 608.388 320.57C604.888 320.57 601.481 321.06 598.168 322.04ZM664.786 318.61L662.546 322.6C659.886 321.293 656.666 320.64 652.886 320.64C648.172 320.64 644.486 321.853 641.826 324.28C639.212 326.66 637.906 330.09 637.906 334.57C637.906 338.63 639.236 341.92 641.896 344.44C644.556 346.96 647.869 348.22 651.836 348.22C656.316 348.22 660.236 347.38 663.596 345.7L665.276 349.83C661.402 351.743 656.806 352.7 651.486 352.7C645.792 352.7 641.242 351.02 637.836 347.66C634.476 344.253 632.796 339.937 632.796 334.71C632.796 329.297 634.662 324.887 638.396 321.48C642.129 318.027 646.819 316.3 652.466 316.3C657.459 316.3 661.566 317.07 664.786 318.61ZM702.413 321.34C706.1 324.653 707.943 329.04 707.943 334.5C707.943 339.96 706.1 344.37 702.413 347.73C698.726 351.043 694.106 352.7 688.553 352.7C683 352.7 678.38 351.043 674.693 347.73C671.006 344.37 669.163 339.96 669.163 334.5C669.163 329.04 671.006 324.653 674.693 321.34C678.38 317.98 683 316.3 688.553 316.3C694.106 316.3 698.726 317.98 702.413 321.34ZM678.193 324.35C675.58 326.917 674.273 330.3 674.273 334.5C674.273 338.7 675.58 342.083 678.193 344.65C680.853 347.217 684.306 348.5 688.553 348.5C692.8 348.5 696.23 347.217 698.843 344.65C701.503 342.083 702.833 338.7 702.833 334.5C702.833 330.3 701.503 326.917 698.843 324.35C696.23 321.783 692.8 320.5 688.553 320.5C684.306 320.5 680.853 321.783 678.193 324.35ZM714.945 317H719.985V331.56H741.685V317H746.725V352H741.685V335.9H719.985V352H714.945V317ZM759.043 323.37L757.713 319.17C762.193 317.257 766.977 316.3 772.063 316.3C777.15 316.3 780.883 317.257 783.263 319.17C785.643 321.083 786.833 324.117 786.833 328.27V343.46C786.833 345.327 787.16 346.61 787.813 347.31C788.467 348.01 789.703 348.383 791.523 348.43V352C790.263 352.467 788.98 352.7 787.673 352.7C786.227 352.7 785.107 352.257 784.313 351.37C783.567 350.437 783.1 348.873 782.913 346.68C779.18 350.693 774 352.7 767.373 352.7C763.313 352.7 760.28 351.79 758.273 349.97C756.267 348.15 755.263 345.583 755.263 342.27C755.263 339.19 756.267 336.483 758.273 334.15C764.107 332.377 771.97 331.35 781.863 331.07V328.48C781.863 325.727 781.117 323.743 779.623 322.53C778.13 321.317 775.493 320.71 771.713 320.71C767.513 320.71 763.29 321.597 759.043 323.37ZM781.863 342.9V334.78C773.977 334.92 767.443 335.667 762.263 337.02C761.05 338.42 760.443 340.03 760.443 341.85C760.443 346.143 762.917 348.29 767.863 348.29C773.557 348.29 778.223 346.493 781.863 342.9ZM805.493 317H831.673V352H826.633V321.34H810.323V327.57C810.323 333.263 810.019 337.813 809.413 341.22C808.853 344.58 807.593 347.31 805.633 349.41C803.673 351.51 801.153 352.56 798.073 352.56C796.579 352.56 795.249 352.303 794.083 351.79L794.713 347.94C795.319 348.08 795.926 348.15 796.533 348.15C798.819 348.15 800.593 347.52 801.853 346.26C803.299 344.813 804.256 342.573 804.723 339.54C805.236 336.46 805.493 332.213 805.493 326.8V317ZM840.794 317H845.834V329.81C848.961 328.317 852.414 327.57 856.194 327.57C860.674 327.57 864.221 328.597 866.834 330.65C869.494 332.657 870.824 335.667 870.824 339.68C870.824 343.74 869.471 346.82 866.764 348.92C864.057 350.973 860.487 352 856.054 352H840.794V317ZM845.834 347.66H855.354C862.307 347.66 865.784 345 865.784 339.68C865.784 337.207 864.967 335.293 863.334 333.94C861.747 332.587 859.554 331.91 856.754 331.91C852.461 331.91 848.821 332.61 845.834 334.01V347.66ZM877.845 317H882.885V331.56H904.585V317H909.625V352H904.585V335.9H882.885V352H877.845V317ZM953.934 317H959.114V352H953.934V317ZM918.724 317H923.764V329.81C926.89 328.317 930.344 327.57 934.124 327.57C938.604 327.57 942.15 328.597 944.764 330.65C947.424 332.657 948.754 335.667 948.754 339.68C948.754 343.74 947.4 346.82 944.694 348.92C941.987 350.973 938.417 352 933.984 352H918.724V317ZM923.764 347.66H933.284C940.237 347.66 943.714 345 943.714 339.68C943.714 337.207 942.897 335.293 941.264 333.94C939.677 332.587 937.484 331.91 934.684 331.91C930.39 331.91 926.75 332.61 923.764 334.01V347.66ZM966.536 317H972.346L982.706 331.77H983.126L993.556 317H999.576L987.396 333.59L1000.63 352H994.606L983.126 335.9H982.706L971.226 352H965.416L978.646 333.8L966.536 317ZM96.92 388H123.1V418.66H127.65L126.88 431.82H123.31L122.54 423H92.3L91.11 431.82H87.4V418.66C90.8533 416.653 93.3033 413.877 94.75 410.33C96.1967 406.737 96.92 402.28 96.92 396.96V388ZM101.68 392.34V399.2C101.68 407.507 99.09 413.993 93.91 418.66H118.06V392.34H101.68ZM136.836 394.37L135.506 390.17C139.986 388.257 144.77 387.3 149.856 387.3C154.943 387.3 158.676 388.257 161.056 390.17C163.436 392.083 164.626 395.117 164.626 399.27V414.46C164.626 416.327 164.953 417.61 165.606 418.31C166.26 419.01 167.496 419.383 169.316 419.43V423C168.056 423.467 166.773 423.7 165.466 423.7C164.02 423.7 162.9 423.257 162.106 422.37C161.36 421.437 160.893 419.873 160.706 417.68C156.973 421.693 151.793 423.7 145.166 423.7C141.106 423.7 138.073 422.79 136.066 420.97C134.06 419.15 133.056 416.583 133.056 413.27C133.056 410.19 134.06 407.483 136.066 405.15C141.9 403.377 149.763 402.35 159.656 402.07V399.48C159.656 396.727 158.91 394.743 157.416 393.53C155.923 392.317 153.286 391.71 149.506 391.71C145.306 391.71 141.083 392.597 136.836 394.37ZM159.656 413.9V405.78C151.77 405.92 145.236 406.667 140.056 408.02C138.843 409.42 138.236 411.03 138.236 412.85C138.236 417.143 140.71 419.29 145.656 419.29C151.35 419.29 156.016 417.493 159.656 413.9ZM175.042 388H180.082V402.56H201.782V388H206.822V423H201.782V406.9H180.082V423H175.042V388ZM215.921 388H220.961V402.56H242.661V388H247.701V423H242.661V406.9H220.961V423H215.921V388ZM292.01 388H297.19V423H292.01V388ZM256.8 388H261.84V400.81C264.967 399.317 268.42 398.57 272.2 398.57C276.68 398.57 280.227 399.597 282.84 401.65C285.5 403.657 286.83 406.667 286.83 410.68C286.83 414.74 285.477 417.82 282.77 419.92C280.063 421.973 276.493 423 272.06 423H256.8V388ZM261.84 418.66H271.36C278.313 418.66 281.79 416 281.79 410.68C281.79 408.207 280.973 406.293 279.34 404.94C277.753 403.587 275.56 402.91 272.76 402.91C268.467 402.91 264.827 403.61 261.84 405.01V418.66ZM304.612 388H310.422L320.782 402.77H321.202L331.632 388H337.652L325.472 404.59L338.702 423H332.682L321.202 406.9H320.782L309.302 423H303.492L316.722 404.8L304.612 388ZM355.656 394.3L367.626 403.82V406.2L355.656 415.93L353.556 412.57L361.956 404.87L353.556 397.45L355.656 394.3ZM343.616 393.53L355.656 403.68V405.99L343.616 416.63L341.516 413.34L349.916 404.87L341.516 396.75L343.616 393.53ZM426.788 392.34C430.475 395.653 432.318 400.04 432.318 405.5C432.318 410.96 430.475 415.37 426.788 418.73C423.101 422.043 418.481 423.7 412.928 423.7C407.375 423.7 402.755 422.043 399.068 418.73C395.381 415.37 393.538 410.96 393.538 405.5C393.538 400.04 395.381 395.653 399.068 392.34C402.755 388.98 407.375 387.3 412.928 387.3C418.481 387.3 423.101 388.98 426.788 392.34ZM402.568 395.35C399.955 397.917 398.648 401.3 398.648 405.5C398.648 409.7 399.955 413.083 402.568 415.65C405.228 418.217 408.681 419.5 412.928 419.5C417.175 419.5 420.605 418.217 423.218 415.65C425.878 413.083 427.208 409.7 427.208 405.5C427.208 401.3 425.878 397.917 423.218 395.35C420.605 392.783 417.175 391.5 412.928 391.5C408.681 391.5 405.228 392.783 402.568 395.35ZM448.732 392.34H435.852V388H466.652V392.34H453.772V423H448.732V392.34ZM494.77 423V418.31L510.73 402.84C513.39 400.227 515.35 397.893 516.61 395.84C517.917 393.787 518.57 391.687 518.57 389.54C518.57 386.833 517.66 384.757 515.84 383.31C514.067 381.863 511.71 381.14 508.77 381.14C504.197 381.14 500.09 382.517 496.45 385.27L493.93 381.14C496.264 379.46 498.597 378.293 500.93 377.64C503.264 376.94 506.017 376.59 509.19 376.59C513.67 376.59 517.24 377.733 519.9 380.02C522.607 382.307 523.96 385.457 523.96 389.47C523.96 394.603 521.09 399.877 515.35 405.29L502.26 417.75V418.17H524.03V423H494.77ZM575.817 400.25C575.817 407.25 573.717 412.943 569.517 417.33C565.317 421.717 559.95 423.91 553.417 423.91C546.883 423.91 541.517 421.717 537.317 417.33C533.117 412.943 531.017 407.25 531.017 400.25C531.017 393.203 533.117 387.51 537.317 383.17C541.517 378.783 546.883 376.59 553.417 376.59C559.997 376.59 565.363 378.807 569.517 383.24C573.717 387.673 575.817 393.343 575.817 400.25ZM541.097 386.25C537.923 389.61 536.337 394.277 536.337 400.25C536.337 406.223 537.923 410.89 541.097 414.25C544.317 417.61 548.423 419.29 553.417 419.29C558.41 419.29 562.493 417.61 565.667 414.25C568.887 410.89 570.497 406.223 570.497 400.25C570.497 394.417 568.887 389.773 565.667 386.32C562.493 382.867 558.41 381.14 553.417 381.14C548.377 381.14 544.27 382.843 541.097 386.25ZM581.519 423V418.31L597.479 402.84C600.139 400.227 602.099 397.893 603.359 395.84C604.665 393.787 605.319 391.687 605.319 389.54C605.319 386.833 604.409 384.757 602.589 383.31C600.815 381.863 598.459 381.14 595.519 381.14C590.945 381.14 586.839 382.517 583.199 385.27L580.679 381.14C583.012 379.46 585.345 378.293 587.679 377.64C590.012 376.94 592.765 376.59 595.939 376.59C600.419 376.59 603.989 377.733 606.649 380.02C609.355 382.307 610.709 385.457 610.709 389.47C610.709 394.603 607.839 399.877 602.099 405.29L589.009 417.75V418.17H610.779V423H581.519ZM620.775 377.5H647.095V382.12H625.815V395.14C628.568 394.533 631.275 394.23 633.935 394.23C638.602 394.23 642.382 395.537 645.275 398.15C648.168 400.763 649.615 404.31 649.615 408.79C649.615 413.13 648.052 416.747 644.925 419.64C641.798 422.487 637.458 423.91 631.905 423.91C628.872 423.91 626.235 423.56 623.995 422.86C621.802 422.16 619.608 420.993 617.415 419.36L620.005 415.23C623.598 417.937 627.495 419.29 631.695 419.29C635.708 419.29 638.812 418.333 641.005 416.42C643.245 414.46 644.365 411.917 644.365 408.79C644.365 402.117 640.258 398.78 632.045 398.78C629.945 398.78 628.195 398.943 626.795 399.27C625.442 399.597 623.785 400.203 621.825 401.09L620.775 400.67V377.5ZM678.988 388H704.538V392.34H684.028V423H678.988V388ZM740.899 392.34C744.586 395.653 746.429 400.04 746.429 405.5C746.429 410.96 744.586 415.37 740.899 418.73C737.213 422.043 732.593 423.7 727.039 423.7C721.486 423.7 716.866 422.043 713.179 418.73C709.493 415.37 707.649 410.96 707.649 405.5C707.649 400.04 709.493 395.653 713.179 392.34C716.866 388.98 721.486 387.3 727.039 387.3C732.593 387.3 737.213 388.98 740.899 392.34ZM716.679 395.35C714.066 397.917 712.759 401.3 712.759 405.5C712.759 409.7 714.066 413.083 716.679 415.65C719.339 418.217 722.793 419.5 727.039 419.5C731.286 419.5 734.716 418.217 737.329 415.65C739.989 413.083 741.319 409.7 741.319 405.5C741.319 401.3 739.989 397.917 737.329 395.35C734.716 392.783 731.286 391.5 727.039 391.5C722.793 391.5 719.339 392.783 716.679 395.35ZM758.434 388H784.614V418.66H789.164L788.394 431.82H784.824L784.054 423H753.814L752.624 431.82H748.914V418.66C752.367 416.653 754.817 413.877 756.264 410.33C757.71 406.737 758.434 402.28 758.434 396.96V388ZM763.194 392.34V399.2C763.194 407.507 760.604 413.993 755.424 418.66H779.574V392.34H763.194ZM798.35 394.37L797.02 390.17C801.5 388.257 806.283 387.3 811.37 387.3C816.457 387.3 820.19 388.257 822.57 390.17C824.95 392.083 826.14 395.117 826.14 399.27V414.46C826.14 416.327 826.467 417.61 827.12 418.31C827.773 419.01 829.01 419.383 830.83 419.43V423C829.57 423.467 828.287 423.7 826.98 423.7C825.533 423.7 824.413 423.257 823.62 422.37C822.873 421.437 822.407 419.873 822.22 417.68C818.487 421.693 813.307 423.7 806.68 423.7C802.62 423.7 799.587 422.79 797.58 420.97C795.573 419.15 794.57 416.583 794.57 413.27C794.57 410.19 795.573 407.483 797.58 405.15C803.413 403.377 811.277 402.35 821.17 402.07V399.48C821.17 396.727 820.423 394.743 818.93 393.53C817.437 392.317 814.8 391.71 811.02 391.71C806.82 391.71 802.597 392.597 798.35 394.37ZM821.17 413.9V405.78C813.283 405.92 806.75 406.667 801.57 408.02C800.357 409.42 799.75 411.03 799.75 412.85C799.75 417.143 802.223 419.29 807.17 419.29C812.863 419.29 817.53 417.493 821.17 413.9Z" fill="black"/>
<path d="M488.85 36.75V32.25H503.35V36.75H488.85ZM492.5 20.9C495.367 20.9 497.9 21.5 500.1 22.7C502.3 23.8667 504.033 25.4833 505.3 27.55C506.567 29.5833 507.2 31.95 507.2 34.65C507.2 37.3167 506.567 39.7 505.3 41.8C504.033 43.8667 502.3 45.5 500.1 46.7C497.9 47.8667 495.367 48.45 492.5 48.45C490.1 48.45 487.9 48.05 485.9 47.25C483.9 46.45 482.233 45.3 480.9 43.8L484.5 40.3C485.567 41.3333 486.733 42.1167 488 42.65C489.3 43.1833 490.717 43.45 492.25 43.45C494.05 43.45 495.633 43.0833 497 42.35C498.367 41.5833 499.45 40.5333 500.25 39.2C501.05 37.8667 501.45 36.35 501.45 34.65C501.45 32.9167 501.05 31.4 500.25 30.1C499.45 28.7667 498.367 27.7333 497 27C495.633 26.2333 494.05 25.85 492.25 25.85C490.717 25.85 489.3 26.1167 488 26.65C486.733 27.1833 485.567 27.9833 484.5 29.05L480.9 25.55C482.233 24.05 483.9 22.9 485.9 22.1C487.9 21.3 490.1 20.9 492.5 20.9ZM517.826 48V25.1L519.276 26.6H508.426V21.3H533.426V26.6H522.626L524.076 25.1V48H517.826ZM548.688 48.35C545.955 48.35 543.521 47.7667 541.388 46.6C539.255 45.4 537.571 43.7667 536.338 41.7C535.105 39.6333 534.488 37.2833 534.488 34.65C534.488 31.9833 535.105 29.6333 536.338 27.6C537.571 25.5333 539.255 23.9167 541.388 22.75C543.521 21.5833 545.955 21 548.688 21C551.455 21 553.905 21.5833 556.038 22.75C558.205 23.9167 559.888 25.5167 561.088 27.55C562.321 29.5833 562.938 31.95 562.938 34.65C562.938 37.2833 562.321 39.6333 561.088 41.7C559.888 43.7667 558.205 45.4 556.038 46.6C553.905 47.7667 551.455 48.35 548.688 48.35ZM548.688 43C550.221 43 551.588 42.6667 552.788 42C553.988 41.3333 554.921 40.3667 555.588 39.1C556.288 37.8333 556.638 36.35 556.638 34.65C556.638 32.9167 556.288 31.4333 555.588 30.2C554.921 28.9333 553.988 27.9667 552.788 27.3C551.588 26.6333 550.238 26.3 548.738 26.3C547.205 26.3 545.838 26.6333 544.638 27.3C543.471 27.9667 542.538 28.9333 541.838 30.2C541.138 31.4333 540.788 32.9167 540.788 34.65C540.788 36.35 541.138 37.8333 541.838 39.1C542.538 40.3667 543.471 41.3333 544.638 42C545.838 42.6667 547.188 43 548.688 43Z" fill="#DD4F62"/>
<path d="M583.95 48.5C581.75 48.5 579.783 48.1667 578.05 47.5C576.317 46.8333 574.817 45.8167 573.55 44.45C572.317 43.05 571.367 41.2833 570.7 39.15C570.033 37.0167 569.7 34.4833 569.7 31.55C569.7 29.4167 569.883 27.4667 570.25 25.7C570.617 23.9333 571.167 22.35 571.9 20.95C572.633 19.5167 573.55 18.25 574.65 17.15C575.783 16.05 577.1 15.1333 578.6 14.4C580.1 13.6667 581.8 13.1 583.7 12.7L596.1 10.05L597 15.65L585.75 17.95C585.117 18.0833 584.35 18.2833 583.45 18.55C582.583 18.7833 581.683 19.15 580.75 19.65C579.85 20.1167 579 20.8 578.2 21.7C577.433 22.5667 576.8 23.7 576.3 25.1C575.833 26.4667 575.6 28.1833 575.6 30.25C575.6 30.8833 575.617 31.3667 575.65 31.7C575.717 32 575.767 32.3333 575.8 32.7C575.867 33.0333 575.9 33.5333 575.9 34.2L573.55 31.75C574.217 30.05 575.133 28.6 576.3 27.4C577.5 26.1667 578.883 25.2333 580.45 24.6C582.05 23.9333 583.783 23.6 585.65 23.6C588.15 23.6 590.367 24.1167 592.3 25.15C594.233 26.1833 595.75 27.6333 596.85 29.5C597.95 31.3667 598.5 33.4833 598.5 35.85C598.5 38.3167 597.9 40.5 596.7 42.4C595.5 44.3 593.8 45.8 591.6 46.9C589.433 47.9667 586.883 48.5 583.95 48.5ZM584.45 43.45C585.95 43.45 587.267 43.1333 588.4 42.5C589.567 41.8333 590.467 40.9333 591.1 39.8C591.767 38.6667 592.1 37.4 592.1 36C592.1 34.6 591.767 33.3833 591.1 32.35C590.467 31.2833 589.567 30.4333 588.4 29.8C587.267 29.1667 585.917 28.85 584.35 28.85C582.85 28.85 581.5 29.15 580.3 29.75C579.133 30.35 578.217 31.1833 577.55 32.25C576.917 33.2833 576.6 34.4833 576.6 35.85C576.6 37.25 576.933 38.5333 577.6 39.7C578.267 40.8667 579.183 41.7833 580.35 42.45C581.55 43.1167 582.917 43.45 584.45 43.45ZM620.408 48V42.6L620.058 41.45V32C620.058 30.1667 619.508 28.75 618.408 27.75C617.308 26.7167 615.641 26.2 613.408 26.2C611.908 26.2 610.424 26.4333 608.958 26.9C607.524 27.3667 606.308 28.0167 605.308 28.85L602.858 24.3C604.291 23.2 605.991 22.3833 607.958 21.85C609.958 21.2833 612.024 21 614.158 21C618.024 21 621.008 21.9333 623.108 23.8C625.241 25.6333 626.308 28.4833 626.308 32.35V48H620.408ZM612.008 48.35C610.008 48.35 608.258 48.0167 606.758 47.35C605.258 46.65 604.091 45.7 603.258 44.5C602.458 43.2667 602.058 41.8833 602.058 40.35C602.058 38.85 602.408 37.5 603.108 36.3C603.841 35.1 605.024 34.15 606.658 33.45C608.291 32.75 610.458 32.4 613.158 32.4H620.908V36.55H613.608C611.474 36.55 610.041 36.9 609.308 37.6C608.574 38.2667 608.208 39.1 608.208 40.1C608.208 41.2333 608.658 42.1333 609.558 42.8C610.458 43.4667 611.708 43.8 613.308 43.8C614.841 43.8 616.208 43.45 617.408 42.75C618.641 42.05 619.524 41.0167 620.058 39.65L621.108 43.4C620.508 44.9667 619.424 46.1833 617.858 47.05C616.324 47.9167 614.374 48.35 612.008 48.35ZM642.15 48.45C640.117 48.45 638.1 48.2167 636.1 47.75C634.133 47.25 632.35 46.55 630.75 45.65L632.5 41C633.8 41.7333 635.267 42.3 636.9 42.7C638.533 43.1 640.167 43.3 641.8 43.3C643.2 43.3 644.4 43.1667 645.4 42.9C646.4 42.6 647.167 42.1667 647.7 41.6C648.267 41.0333 648.55 40.3833 648.55 39.65C648.55 38.5833 648.083 37.7833 647.15 37.25C646.25 36.6833 644.95 36.4 643.25 36.4H638.1V32.2H642.75C643.817 32.2 644.717 32.0833 645.45 31.85C646.217 31.6167 646.8 31.2667 647.2 30.8C647.6 30.3333 647.8 29.7833 647.8 29.15C647.8 28.5167 647.55 27.9667 647.05 27.5C646.583 27 645.9 26.6333 645 26.4C644.1 26.1333 643.017 26 641.75 26C640.417 26 639.033 26.1667 637.6 26.5C636.2 26.8333 634.767 27.3167 633.3 27.95L631.7 23.35C633.4 22.5833 635.05 22 636.65 21.6C638.283 21.1667 639.9 20.9333 641.5 20.9C643.933 20.8 646.1 21.05 648 21.65C649.9 22.25 651.4 23.1167 652.5 24.25C653.6 25.3833 654.15 26.7167 654.15 28.25C654.15 29.5167 653.75 30.6667 652.95 31.7C652.183 32.7 651.117 33.4833 649.75 34.05C648.417 34.6167 646.883 34.9 645.15 34.9L645.35 33.55C648.317 33.55 650.65 34.15 652.35 35.35C654.05 36.5167 654.9 38.1167 654.9 40.15C654.9 41.7833 654.35 43.2333 653.25 44.5C652.15 45.7333 650.633 46.7 648.7 47.4C646.8 48.1 644.617 48.45 642.15 48.45ZM677.537 48V42.6L677.187 41.45V32C677.187 30.1667 676.637 28.75 675.537 27.75C674.437 26.7167 672.77 26.2 670.537 26.2C669.037 26.2 667.553 26.4333 666.087 26.9C664.653 27.3667 663.437 28.0167 662.437 28.85L659.987 24.3C661.42 23.2 663.12 22.3833 665.087 21.85C667.087 21.2833 669.153 21 671.287 21C675.153 21 678.137 21.9333 680.237 23.8C682.37 25.6333 683.437 28.4833 683.437 32.35V48H677.537ZM669.137 48.35C667.137 48.35 665.387 48.0167 663.887 47.35C662.387 46.65 661.22 45.7 660.387 44.5C659.587 43.2667 659.187 41.8833 659.187 40.35C659.187 38.85 659.537 37.5 660.237 36.3C660.97 35.1 662.153 34.15 663.787 33.45C665.42 32.75 667.587 32.4 670.287 32.4H678.037V36.55H670.737C668.603 36.55 667.17 36.9 666.437 37.6C665.703 38.2667 665.337 39.1 665.337 40.1C665.337 41.2333 665.787 42.1333 666.687 42.8C667.587 43.4667 668.837 43.8 670.437 43.8C671.97 43.8 673.337 43.45 674.537 42.75C675.77 42.05 676.653 41.0167 677.187 39.65L678.237 43.4C677.637 44.9667 676.553 46.1833 674.987 47.05C673.453 47.9167 671.503 48.35 669.137 48.35Z" fill="#355ACF"/>
<circle cx="11" cy="411" r="11" fill="#83B5FA"/>
<path d="M15.9475 434.768L11.1968 413.179L21.4983 413.371L15.9475 434.768Z" fill="#83B5FA"/>
<circle cx="11" cy="11" r="11" transform="matrix(1 0 0 -1 1099 120.879)" fill="#83B5FA"/>
<path d="M1114.95 86.1107L1110.2 107.7L1120.5 107.508L1114.95 86.1107Z" fill="#83B5FA"/>
<circle cx="43" cy="411" r="11" fill="#83B5FA"/>
<path d="M47.9475 434.768L43.1968 413.179L53.4983 413.371L47.9475 434.768Z" fill="#83B5FA"/>
<circle cx="11" cy="11" r="11" transform="matrix(1 0 0 -1 1131 120.879)" fill="#83B5FA"/>
<path d="M1146.95 86.1107L1142.2 107.7L1152.5 107.508L1146.95 86.1107Z" fill="#83B5FA"/>
</svg>
