<svg width="594" height="714" viewBox="0 0 594 714" fill="none" xmlns="http://www.w3.org/2000/svg">
<path d="M283.878 394.647C457.29 407.167 630.702 419.618 804.045 432.138C808.749 306.385 813.452 180.632 818.087 54.8787C643.914 52.5269 469.741 50.1751 295.568 47.8232C291.694 163.408 287.821 278.993 283.878 394.647Z" fill="white" stroke="#161616" stroke-width="3.5" stroke-miterlimit="10"/>
<path d="M670.753 116.095C637.135 116.095 603.449 116.095 569.832 116.095C568.518 116.095 568.518 114.02 569.832 114.02C603.449 114.02 637.135 114.02 670.753 114.02C672.067 114.02 672.067 116.095 670.753 116.095Z" fill="#161616"/>
<path d="M632.985 124.603C598.33 124.603 563.675 124.603 529.021 124.603C527.706 124.603 527.706 122.528 529.021 122.528C563.675 122.528 598.33 122.528 632.985 122.528C634.368 122.528 634.368 124.603 632.985 124.603Z" fill="#161616"/>
<path d="M587.54 309.567C578.409 309.567 569.279 309.567 560.079 309.567C558.764 309.567 558.764 307.492 560.079 307.492C569.209 307.492 578.34 307.492 587.54 307.492C588.854 307.492 588.854 309.567 587.54 309.567Z" fill="#161616"/>
<path d="M616.107 317.383C603.034 317.383 589.96 317.383 576.887 317.383C575.573 317.383 575.573 315.308 576.887 315.308C589.96 315.308 603.034 315.308 616.107 315.308C617.421 315.308 617.421 317.383 616.107 317.383Z" fill="#161616"/>
<path d="M546.659 391.327C524.663 391.327 502.597 391.327 480.601 391.327C479.287 391.327 479.287 389.252 480.601 389.252C502.597 389.252 524.663 389.252 546.659 389.252C547.974 389.252 547.974 391.327 546.659 391.327Z" fill="#161616"/>
<path d="M492.36 396.93C480.808 396.93 469.188 396.93 457.636 396.93C456.322 396.93 456.322 394.855 457.636 394.855C469.188 394.855 480.808 394.855 492.36 394.855C493.674 394.855 493.674 396.93 492.36 396.93Z" fill="#161616"/>
<path d="M462.132 388.491C450.719 388.491 439.375 388.491 427.962 388.491C426.648 388.491 426.648 386.416 427.962 386.416C439.375 386.416 450.719 386.416 462.132 386.416C463.447 386.416 463.447 388.491 462.132 388.491Z" fill="#161616"/>
<path d="M403.89 200.968C382.793 200.968 361.696 200.968 340.599 200.968C339.284 200.968 339.284 198.893 340.599 198.893C361.696 198.893 382.793 198.893 403.89 198.893C405.205 198.893 405.205 200.968 403.89 200.968Z" fill="#161616"/>
<path d="M423.466 204.288C416.756 204.288 410.047 204.288 403.337 204.288C402.023 204.288 402.023 202.213 403.337 202.213C410.047 202.213 416.756 202.213 423.466 202.213C424.849 202.213 424.849 204.288 423.466 204.288Z" fill="#161616"/>
<path d="M419.592 209.891C397.043 209.891 374.424 209.891 351.874 209.891C350.56 209.891 350.56 207.816 351.874 207.816C374.424 207.816 397.043 207.816 419.592 207.816C420.907 207.816 420.907 209.891 419.592 209.891Z" fill="#161616"/>
<path d="M336.103 204.842C331.814 204.842 327.525 204.842 323.237 204.842C321.922 204.842 321.922 202.767 323.237 202.767C327.525 202.767 331.814 202.767 336.103 202.767C337.486 202.767 337.486 204.842 336.103 204.842Z" fill="#161616"/>
<path d="M352.911 289.369C346.547 289.369 340.253 289.369 333.889 289.369C332.575 289.369 332.575 287.293 333.889 287.293C340.253 287.293 346.547 287.293 352.911 287.293C354.295 287.293 354.295 289.369 352.911 289.369Z" fill="#161616"/>
<path d="M365.224 294.972C358.307 294.972 351.389 294.972 344.542 294.972C343.227 294.972 343.227 292.897 344.542 292.897C351.459 292.897 358.376 292.897 365.224 292.897C366.607 292.897 366.607 294.972 365.224 294.972Z" fill="#161616"/>
<path d="M355.194 300.575C341.567 300.575 327.941 300.575 314.314 300.575C313 300.575 313 298.5 314.314 298.5C327.941 298.5 341.567 298.5 355.194 298.5C356.508 298.5 356.508 300.575 355.194 300.575Z" fill="#161616"/>
<path d="M329.393 293.865C325.312 293.865 321.161 293.865 317.08 293.865C315.766 293.865 315.766 291.79 317.08 291.79C321.161 291.79 325.312 291.79 329.393 291.79C330.776 291.79 330.776 293.865 329.393 293.865Z" fill="#161616"/>
<path d="M614.309 207.609C604.625 207.609 595.01 207.609 585.326 207.609C584.012 207.609 584.012 205.533 585.326 205.533C595.01 205.533 604.625 205.533 614.309 205.533C615.623 205.533 615.623 207.609 614.309 207.609Z" fill="#161616"/>
<path d="M593.212 213.557C578.963 213.557 564.644 213.557 550.395 213.557C549.081 213.557 549.081 211.482 550.395 211.482C564.644 211.482 578.963 211.482 593.212 211.482C594.526 211.482 594.595 213.557 593.212 213.557Z" fill="#161616"/>
<path d="M555.652 205.603C547.559 205.603 539.397 205.603 531.304 205.603C529.99 205.603 529.99 203.528 531.304 203.528C539.397 203.528 547.559 203.528 555.652 203.528C556.966 203.528 556.966 205.603 555.652 205.603Z" fill="#161616"/>
<path d="M300.411 266.819C299.373 301.543 298.336 336.198 297.298 370.922C297.229 372.236 295.154 372.236 295.223 370.922C296.26 336.198 297.298 301.543 298.336 266.819C298.336 265.505 300.411 265.505 300.411 266.819Z" fill="#161616"/>
<path d="M443.664 250.91C443.249 255.129 442.834 259.418 442.488 263.637C438.476 262.6 434.533 261.493 430.521 260.455C431.074 256.236 431.559 251.947 432.112 247.728C435.986 248.765 439.79 249.872 443.664 250.91Z" fill="#939393"/>
<path d="M446.084 283.213C441.934 282.659 437.853 282.175 433.703 281.622C433.149 286.671 432.665 291.721 432.112 296.77C435.847 296.908 439.582 297.047 443.248 297.185C444.217 292.481 445.116 287.847 446.084 283.213Z" fill="#939393"/>
<path d="M430.936 313.855C429.622 318.213 428.308 322.64 426.924 326.998C423.189 325.269 419.454 323.539 415.788 321.81C416.963 317.937 418.209 314.132 419.384 310.259C423.189 311.504 427.062 312.68 430.936 313.855Z" fill="#939393"/>
<path d="M411.983 82.0628C409.271 82.0628 407.072 80.2357 407.072 77.9817C407.072 75.7278 409.271 73.9006 411.983 73.9006C414.695 73.9006 416.894 75.7278 416.894 77.9817C416.894 80.2357 414.695 82.0628 411.983 82.0628Z" fill="#444444"/>
<path opacity="0.14" d="M425.264 218.538C424.572 234.309 422.912 247.382 421.46 256.789C418.07 278.371 415.58 293.312 406.726 310.12C401.193 320.565 394.967 328.243 390.471 333.223C398.287 339.933 408.801 347.542 422.29 353.629C456.184 369.054 488.002 365.941 502.874 363.451C503.635 360.062 504.396 356.672 505.157 353.214C503.289 353.352 500.384 353.491 496.856 353.56C485.097 353.836 460.611 354.251 432.527 344.844C424.642 342.216 413.574 337.789 401.123 330.457C406.035 323.885 410.876 316.069 415.096 307.007C431.766 271.246 428.446 236.522 425.264 218.538Z" fill="#6D6C6C"/>
<path opacity="0.18" d="M372.279 63.3865C370.896 69.8194 368.89 79.6417 366.884 91.885C363.148 115.542 363.425 124.119 359.067 138.091C356.785 145.354 352.704 155.661 345.026 167.42C351.459 172.677 359.482 178.141 369.374 182.707C401.746 197.717 432.735 193.497 446.984 190.523C446.846 187.756 446.707 184.989 446.569 182.292C444.77 182.776 442.073 183.398 438.753 183.952C434.395 184.644 418.278 186.995 387.981 179.386C379.611 177.311 368.336 173.991 355.401 168.665C357.891 164.238 361.558 157.321 364.878 148.467C374.562 122.804 374.493 100.531 374.354 89.049C374.285 82.7544 373.87 73.9697 372.279 63.3865Z" fill="#6D6C6C"/>
<path d="M452.518 68.4358C460.057 105.442 460.818 143.486 454.8 180.77C454.593 182.084 452.587 181.531 452.794 180.216C458.743 143.348 457.913 105.581 450.512 68.9892C450.235 67.6749 452.241 67.1216 452.518 68.4358Z" fill="#161616"/>
<path d="M450.166 68.9203C425.057 63.1791 399.117 62.0032 373.524 65.4618C372.21 65.6693 371.656 63.6633 372.971 63.4558C398.91 59.9281 425.195 61.104 450.719 66.9143C451.964 67.2602 451.411 69.2662 450.166 68.9203Z" fill="#161616"/>
<path d="M374.146 63.5941C374.907 99.2172 374.423 136.846 356.369 168.734C355.678 169.91 353.948 168.873 354.571 167.697C372.417 136.155 372.832 98.8714 372.071 63.5941C372.002 62.2798 374.077 62.2798 374.146 63.5941Z" fill="#161616"/>
<path d="M453.209 181.877C445.462 184.229 437.161 184.367 429.138 184.436C420.491 184.505 411.845 183.952 403.198 182.776C386.666 180.562 370.55 176.066 355.124 169.564C353.879 169.08 354.986 167.282 356.162 167.766C371.587 174.268 387.842 178.695 404.443 180.839C412.191 181.808 420.007 182.361 427.823 182.292C436.055 182.292 444.701 182.223 452.587 179.802C453.97 179.525 454.454 181.531 453.209 181.877Z" fill="#161616"/>
<path d="M410.876 71.1336C413.228 71.9636 414.266 74.6613 413.436 76.944C412.467 79.5033 409.493 80.1258 407.279 78.6041C405.135 77.0823 404.443 74.0388 406.519 72.102C408.317 70.4419 411.43 70.3727 413.09 72.1711C413.989 73.1395 412.536 74.5921 411.637 73.6237C409.562 71.4103 405.481 74.523 408.317 76.7364C409.424 77.5665 411.015 77.5665 411.499 76.1139C411.845 75.0072 411.499 73.4854 410.323 73.0704C409.078 72.6553 409.631 70.6494 410.876 71.1336Z" fill="#161616"/>
<path d="M451.48 100.601C432.596 101.085 413.782 100.739 394.967 99.4938C393.653 99.4246 393.653 97.3495 394.967 97.4187C413.782 98.6638 432.665 99.0788 451.48 98.5254C452.863 98.5254 452.863 100.601 451.48 100.601Z" fill="#161616"/>
<path d="M449.612 111.115C442.557 111.391 435.501 111.668 428.515 111.945C427.201 112.014 427.201 109.939 428.515 109.87C435.571 109.593 442.626 109.316 449.612 109.04C450.996 108.97 450.996 111.045 449.612 111.115Z" fill="#161616"/>
<path d="M451.549 125.779C433.772 126.747 415.787 127.578 398.287 123.704C396.973 123.427 397.526 121.421 398.841 121.698C416.203 125.502 433.98 124.672 451.549 123.704C452.863 123.635 452.863 125.71 451.549 125.779Z" fill="#161616"/>
<path d="M519.475 232.925C530.473 272.076 529.09 313.994 515.601 352.384C515.186 353.629 513.18 353.075 513.595 351.83C526.945 313.786 528.329 272.283 517.469 233.478C517.123 232.164 519.129 231.611 519.475 232.925Z" fill="#161616"/>
<path d="M518.091 233.617C487.31 233.479 456.667 229.467 426.855 221.65C425.54 221.305 426.094 219.299 427.408 219.644C457.013 227.392 487.449 231.403 518.091 231.542C519.475 231.542 519.475 233.617 518.091 233.617Z" fill="#161616"/>
<path d="M427.408 220.405C428.653 239.635 427.823 259.003 424.365 278.025C422.636 287.639 420.56 297.254 416.756 306.247C412.952 315.17 407.695 323.263 401.538 330.664C400.708 331.702 399.187 330.249 400.086 329.211C406.38 321.672 411.707 313.302 415.442 304.171C418.97 295.456 420.906 286.118 422.497 276.918C425.817 258.311 426.578 239.289 425.402 220.405C425.264 219.091 427.339 219.091 427.408 220.405Z" fill="#161616"/>
<path d="M515.325 353.49C476.174 356.257 435.294 351.83 400.985 331.632C399.809 330.941 400.847 329.142 402.023 329.834C436.124 349.893 476.589 354.113 515.325 351.415C516.639 351.277 516.639 353.352 515.325 353.49Z" fill="#161616"/>
<path d="M473.684 239.842C474.86 237.836 472.508 235.346 470.502 236.937C468.358 238.666 470.64 241.433 472.923 240.534C474.168 240.05 474.721 242.056 473.476 242.54C471.609 243.301 469.326 242.471 468.219 240.811C466.974 238.943 467.528 236.591 469.257 235.277C472.992 232.303 477.696 236.937 475.482 240.88C474.791 242.056 472.992 241.018 473.684 239.842Z" fill="#161616"/>
<path d="M517.4 263.706C496.717 263.36 476.035 261.908 455.422 259.417C454.108 259.279 454.108 257.204 455.422 257.342C475.966 259.902 496.648 261.285 517.4 261.631C518.714 261.7 518.714 263.775 517.4 263.706Z" fill="#161616"/>
<path d="M448.021 249.803C447.399 252.985 446.776 256.236 446.153 259.418C445.877 260.732 443.871 260.179 444.148 258.864C444.77 255.682 445.393 252.431 446.015 249.25C446.223 247.935 448.229 248.489 448.021 249.803Z" fill="#161616"/>
<path d="M446.638 249.526C442.833 248.973 439.029 248.419 435.155 247.797C433.841 247.589 434.394 245.583 435.709 245.791C439.513 246.344 443.317 246.898 447.191 247.52C448.505 247.728 447.952 249.734 446.638 249.526Z" fill="#161616"/>
<path d="M435.778 247.174C435.225 250.149 434.741 253.123 434.187 256.028C433.98 257.343 431.974 256.789 432.182 255.475C432.735 252.501 433.219 249.526 433.772 246.621C433.98 245.376 435.986 245.929 435.778 247.174Z" fill="#161616"/>
<path d="M444.424 261.009C440.343 260.179 436.469 259.072 432.596 257.55C431.351 257.066 431.904 255.06 433.149 255.544C437.023 256.997 440.966 258.173 444.978 259.003C446.292 259.279 445.738 261.285 444.424 261.009Z" fill="#161616"/>
<path d="M444.079 251.878C443.318 253.607 442.28 254.991 440.758 256.167C440.205 256.582 439.167 256.582 439.029 255.683C438.476 251.947 437.161 248.627 434.948 245.514C434.187 244.408 435.986 243.37 436.746 244.477C439.029 247.659 440.482 251.256 441.035 255.129C440.482 254.991 439.859 254.852 439.306 254.645C440.62 253.607 441.588 252.362 442.28 250.771C442.834 249.595 444.632 250.633 444.079 251.878Z" fill="#161616"/>
<path d="M443.318 281.553C444.425 286.533 443.941 291.375 441.935 296.009C441.381 297.254 439.652 296.148 440.136 294.972C441.935 290.891 442.28 286.464 441.312 282.106C441.035 280.792 443.041 280.238 443.318 281.553Z" fill="#161616"/>
<path d="M441.934 282.244C437.784 281.553 433.633 280.93 429.483 280.238C429.898 279.823 430.313 279.408 430.728 278.993C431.42 283.42 430.936 287.64 429.206 291.79C428.722 293.035 426.716 292.482 427.201 291.236C428.791 287.501 429.345 283.558 428.722 279.547C428.584 278.716 429.137 278.163 429.967 278.301C434.118 278.924 438.268 279.616 442.418 280.307C443.802 280.446 443.248 282.452 441.934 282.244Z" fill="#161616"/>
<path d="M441.035 296.078C436.47 295.94 432.112 295.041 427.823 293.519C426.578 293.035 427.131 291.029 428.376 291.513C432.458 293.035 436.677 293.865 441.035 294.003C442.349 294.003 442.349 296.078 441.035 296.078Z" fill="#161616"/>
<path d="M440.412 286.464C439.79 288.262 438.752 289.507 437.092 290.476C436.331 290.891 435.639 290.337 435.501 289.576C435.086 285.91 434.118 282.383 432.596 278.993C432.042 277.817 433.841 276.711 434.394 277.956C436.054 281.691 437.092 285.564 437.576 289.576C437.023 289.3 436.539 288.954 435.985 288.677C437.161 287.985 437.853 287.155 438.337 285.841C438.821 284.665 440.827 285.219 440.412 286.464Z" fill="#161616"/>
<path d="M439.029 313.648C438.544 318.282 437.299 322.64 435.224 326.79C434.671 327.966 432.872 326.929 433.426 325.753C435.293 321.948 436.469 317.867 436.884 313.648C437.092 312.334 439.167 312.334 439.029 313.648Z" fill="#161616"/>
<path d="M438.06 313.44C432.734 313.924 427.754 312.956 422.981 310.604C423.465 310.397 424.018 310.189 424.503 309.982C423.603 314.201 421.736 317.867 418.831 321.118C417.931 322.087 416.479 320.634 417.378 319.666C420.007 316.691 421.667 313.371 422.497 309.497C422.635 308.806 423.465 308.598 424.018 308.875C428.445 311.019 433.149 311.849 438.06 311.434C439.374 311.296 439.374 313.371 438.06 313.44Z" fill="#161616"/>
<path d="M433.357 327.551C427.961 325.545 422.635 323.401 417.447 321.049C416.202 320.496 417.309 318.697 418.485 319.251C423.534 321.533 428.722 323.608 433.91 325.545C435.155 326.029 434.602 328.035 433.357 327.551Z" fill="#161616"/>
<path d="M434.464 317.106C432.804 318.559 428.999 323.539 427.063 319.873C426.163 318.213 426.371 315.93 425.817 314.063C424.987 311.434 423.604 309.013 421.805 306.938C420.975 305.901 422.428 304.448 423.258 305.486C425.195 307.768 426.717 310.258 427.616 313.164C428.031 314.478 428.377 315.861 428.584 317.245C428.861 318.974 429.345 318.559 430.659 317.729C431.489 317.176 432.25 316.345 433.011 315.654C433.98 314.755 435.432 316.207 434.464 317.106Z" fill="#161616"/>
<path d="M515.532 297.531C496.164 297.323 476.865 295.732 457.774 292.689C456.46 292.481 457.013 290.475 458.327 290.683C477.28 293.657 496.371 295.248 515.532 295.387C516.846 295.456 516.846 297.531 515.532 297.531Z" fill="#161616"/>
<path d="M517.746 269.448C505.226 269.793 492.775 269.378 480.324 268.341C479.01 268.202 479.01 266.127 480.324 266.266C492.775 267.303 505.295 267.649 517.746 267.372C519.06 267.303 519.06 269.378 517.746 269.448Z" fill="#161616"/>
<path d="M514.771 301.612C501.629 302.235 488.486 301.75 475.482 300.09C474.168 299.952 474.168 297.877 475.482 298.015C488.555 299.606 501.698 300.159 514.771 299.537C516.085 299.468 516.085 301.543 514.771 301.612Z" fill="#161616"/>
<path d="M471.055 299.122C467.32 299.191 463.654 298.707 460.057 297.531C458.812 297.116 459.365 295.11 460.61 295.525C463.999 296.632 467.458 297.116 471.055 297.047C472.369 297.047 472.369 299.122 471.055 299.122Z" fill="#161616"/>
<path d="M507.716 327.621C491.945 326.652 476.243 325.2 460.61 323.055C459.296 322.848 459.296 320.773 460.61 320.98C476.243 323.055 491.945 324.577 507.716 325.545C509.099 325.615 509.099 327.69 507.716 327.621Z" fill="#161616"/>
<path d="M505.918 332.462C500.73 332.462 495.542 332.462 490.355 332.462C489.04 332.462 489.04 330.387 490.355 330.387C495.542 330.387 500.73 330.387 505.918 330.387C507.232 330.387 507.232 332.462 505.918 332.462Z" fill="#161616"/>
<path d="M501.422 337.097C493.329 336.613 485.236 335.852 477.143 334.884C470.64 334.053 463.654 333.708 458.051 329.903C456.945 329.142 457.982 327.344 459.089 328.105C464.968 332.117 472.854 332.324 479.702 333.085C486.896 333.915 494.159 334.538 501.352 335.022C502.736 335.091 502.805 337.166 501.422 337.097Z" fill="#161616"/>
<path d="M422.428 281.207C409.839 280.584 397.319 278.924 384.937 276.295C385.352 276.088 385.767 275.811 386.182 275.604C380.372 292.897 371.795 309.013 360.796 323.609C360.036 324.646 358.168 323.609 358.998 322.571C369.858 308.183 378.366 292.205 384.176 275.12C384.384 274.566 384.868 274.289 385.421 274.428C397.596 277.056 409.908 278.647 422.359 279.27C423.811 279.201 423.811 281.276 422.428 281.207Z" fill="#161616"/>
<path d="M420.283 339.587C418.416 342.216 416.894 344.982 415.58 347.957C415.441 348.372 414.819 348.579 414.404 348.441C404.236 345.052 394.206 341.316 384.384 337.097C379.403 334.953 374.492 332.739 369.581 330.387C367.229 329.281 364.877 328.105 362.595 326.929C361.211 326.237 359.62 325.822 359.136 324.3C358.998 323.885 359.205 323.332 359.62 323.124C360.243 322.779 360.589 322.779 361.211 323.124C361.626 323.332 361.834 323.885 361.695 324.3C361.695 324.369 361.626 324.439 361.626 324.508C361.28 325.822 359.274 325.269 359.62 323.954C359.62 323.885 359.689 323.816 359.689 323.747C359.828 324.162 360.035 324.508 360.174 324.923C360.312 324.923 360.52 324.923 360.658 324.923C360.796 324.508 361.004 324.162 361.142 323.747C361.557 324.992 365.915 326.306 367.091 326.929C369.028 327.897 370.964 328.796 372.97 329.765C377.605 331.978 382.308 334.053 387.081 336.059C396.212 339.933 405.55 343.392 414.957 346.504C414.542 346.643 414.196 346.85 413.781 346.988C415.026 344.014 416.617 341.247 418.485 338.619C419.246 337.443 421.044 338.48 420.283 339.587Z" fill="#161616"/>
<path d="M408.248 286.602C408.386 285.703 406.726 284.873 406.104 285.495C405.274 286.325 406.657 287.847 407.625 287.501C408.871 287.017 409.424 289.023 408.179 289.507C405.204 290.614 402.299 286.325 404.582 284.043C405.619 283.005 407.21 283.074 408.455 283.697C409.77 284.388 410.461 285.703 410.185 287.155C410.046 288.469 408.04 287.847 408.248 286.602Z" fill="#161616"/>
<path d="M447.468 150.127C448.644 157.736 449.612 165.967 444.84 172.608C444.079 173.715 442.28 172.677 443.041 171.57C447.468 165.414 446.5 157.736 445.462 150.681C445.255 149.366 447.261 148.813 447.468 150.127Z" fill="#161616"/>
<path d="M446.846 150.058C430.383 150.68 413.92 149.089 397.872 145.285C398.287 145.078 398.702 144.801 399.117 144.593C397.665 151.718 394.898 158.358 391.024 164.445C390.333 165.552 388.534 164.515 389.226 163.408C393.03 157.459 395.659 150.957 397.112 144.04C397.25 143.487 397.872 143.21 398.357 143.348C414.197 147.083 430.452 148.674 446.776 148.052C448.16 147.914 448.16 149.989 446.846 150.058Z" fill="#161616"/>
<path d="M443.11 172.539C425.264 171.985 407.625 169.357 390.471 164.653C389.156 164.307 389.71 162.301 391.024 162.647C408.04 167.351 425.471 169.979 443.11 170.463C444.493 170.533 444.493 172.608 443.11 172.539Z" fill="#161616"/>
<path d="M199.213 655.699C199.213 663.516 199.213 671.263 199.213 679.079C254.55 701.006 265.825 708.823 264.995 711.659C264.787 712.35 263.335 714.426 234.283 711.036C205.507 707.647 182.197 702.736 166.011 698.724C168.847 682.745 171.752 666.767 174.588 650.788C182.819 652.448 191.051 654.108 199.213 655.699Z" fill="#161616"/>
<path d="M174.38 324.854C175.971 327.828 176.524 330.249 176.663 330.803C186.554 372.859 199.489 397.691 207.928 446.457C224.045 540.391 210.141 647.122 208.827 657.152C204.4 659.089 195.892 661.994 185.032 661.579C175.487 661.164 168.085 658.328 163.866 656.322C165.457 625.679 163.866 587.842 153.283 546.132C140.348 495.015 123.954 478.068 109.221 418.304C98.2917 374.034 85.6334 322.502 107.491 307.215C124.231 295.318 163.451 304.033 174.38 324.854Z" fill="#4F4F4F"/>
<path opacity="0.2" d="M136.129 346.919C147.196 397.414 157.502 451.229 166.218 508.157C174.449 561.696 180.606 612.952 185.171 661.648C178.185 660.195 171.268 658.743 164.281 657.29C165.18 635.778 164.212 617.448 162.829 603.406C161.168 585.975 156.949 545.371 140.002 504.837C137.789 499.649 134.953 493.355 130.318 481.526C122.502 461.951 116.83 445.212 114.27 437.326C102.235 399.697 96.2168 356.05 94.3492 341.662C108.322 343.322 122.225 345.121 136.129 346.919Z" fill="#6D6C6C"/>
<path opacity="0.19" d="M113.302 434.836C140.417 470.182 153.075 502.209 159.439 523.721C165.249 543.296 167.808 560.589 171.129 583.001C175.832 614.819 177.631 641.658 178.392 660.749C173.826 659.642 169.33 658.466 164.765 657.36C165.526 630.59 163.658 607.695 161.376 589.849C158.609 568.682 155.427 544.126 144.359 514.59C140.348 503.869 138.411 500.825 129.28 477.653C122.225 459.53 116.829 444.658 113.302 434.836Z" fill="#6D6C6C"/>
<path d="M49.8034 647.745C45.9298 657.359 41.987 666.974 38.1134 676.658C70.6239 697.34 85.9799 709.376 84.2506 712.904C82.1063 717.262 54.0228 708.615 0.000167847 687.103C5.74137 668.427 11.4825 649.82 17.2237 631.144C28.0836 636.677 38.9435 642.211 49.8034 647.745Z" fill="#161616"/>
<path d="M76.5035 325.684C59.5566 341.178 60.1099 362.898 57.9656 398.867C57.9656 398.867 52.7086 487.337 35.07 558.445C30.643 576.222 22.6192 603.821 7.74736 636.885C10.2375 640.067 17.0163 647.814 28.9137 651.895C41.0878 656.045 51.4636 653.832 55.3371 652.794C76.5035 616.687 91.5136 585.906 101.198 564.601C146.09 466.239 149.687 414.43 149.687 387.384C149.687 359.578 149.202 326.237 128.52 315.101C112.957 306.731 90.1302 313.233 76.5035 325.684Z" fill="#4F4F4F"/>
<path opacity="0.15" d="M124.508 336.267C116.83 365.803 108.53 395.823 99.6758 426.259C76.5727 505.252 51.4635 579.888 25.1093 649.889C22.55 648.575 19.4373 646.776 16.2555 644.355C13.0044 641.865 10.445 639.375 8.50823 637.162C12.1051 628.792 17.0855 616.687 22.3425 601.815C30.2971 579.058 43.2322 537.209 49.9418 481.457C56.3747 427.919 59.6257 401.15 59.349 384.272C59.1415 370.368 57.8965 342.077 75.881 326.86C79.6162 323.747 83.2823 321.879 85.8416 320.773C98.7766 325.961 111.642 331.148 124.508 336.267Z" fill="#6D6C6C"/>
<path opacity="0.22" d="M58.5187 402.256C61.7006 434.421 62.7382 477.515 54.991 527.318C47.1746 577.398 32.9945 618.278 20.1979 648.021C16.2551 644.77 12.3124 641.519 8.36961 638.199C13.0732 627.063 19.2295 611.568 25.3857 592.615C37.214 556.162 42.3326 527.733 46.7596 502.209C51.2557 476.062 55.9594 442.237 58.5187 402.256Z" fill="#6D6C6C"/>
<path d="M382.378 73.0012C385.145 74.3846 388.949 76.8056 391.924 80.9559C393.515 83.1002 395.451 85.9362 395.728 89.9482C395.797 91.5391 396.005 94.9977 393.791 97.2803C393.169 97.972 391.509 99.2863 383.346 99.0096C376.083 98.7329 372.417 98.5945 370.55 96.6578C366.953 92.9225 368.267 85.8671 370.55 81.6476C374.147 74.938 381.202 73.2779 382.378 73.0012Z" fill="white" stroke="#161616" stroke-width="2" stroke-miterlimit="10"/>
<path d="M340.598 90.3634C330.845 101.5 315.213 108.14 286.507 119.969C250.33 134.91 232.207 142.38 210.764 145.009C187.592 147.845 175.21 144.87 170.922 152.41C165.319 162.163 178.461 180.424 192.019 195.711C202.118 193.498 212.563 190.731 223.353 187.134C282.495 167.558 325.242 133.111 353.326 104.474C356.854 105.235 362.871 105.996 369.719 103.921C375.599 102.192 383.899 97.7647 383.415 94.237C382.793 89.9484 367.783 89.1875 366.883 89.1183C371.449 87.2507 378.02 84.0688 385.145 78.881C387.22 77.3592 399.117 68.5745 397.665 65.8076C396.419 63.3867 385.629 66.7069 375.461 69.8196C366.192 72.6556 359.759 74.6616 352.703 79.5035C345.925 84.0688 341.982 88.7725 340.598 90.3634Z" fill="white" stroke="#161616" stroke-width="2" stroke-miterlimit="10"/>
<path d="M388.465 73.7621C386.805 75.6297 386.459 78.1199 385.007 80.0566C383.761 81.7859 381.963 83.031 380.095 84.0686C374.493 87.1813 368.544 89.7406 362.803 92.5766C361.834 93.0608 360.589 91.7466 361.558 90.9165C364.532 88.3572 367.714 86.0745 371.034 83.9994C372.141 83.3077 373.247 85.1061 372.072 85.7979C368.89 87.8038 365.846 89.9481 363.01 92.3691C362.595 91.8157 362.18 91.2624 361.765 90.709C367.23 88.0805 372.694 85.5212 378.089 82.6852C380.649 81.3709 382.931 79.8491 384.246 77.2206C385.145 75.4222 385.629 73.6929 387.012 72.1711C387.912 71.3411 389.364 72.7937 388.465 73.7621Z" fill="white"/>
<path d="M383.069 81.0253C379.887 82.4087 376.844 84.2071 374.077 86.3514C373.039 87.1815 371.587 85.7289 372.624 84.8988C375.53 82.6162 378.642 80.7486 382.032 79.2268C383.277 78.6734 384.314 80.4719 383.069 81.0253Z" fill="white"/>
<path d="M391.232 72.5172C388.603 76.7367 385.145 80.1952 381.063 82.9621C379.957 83.7229 378.919 81.9245 380.026 81.1636C383.83 78.6043 387.012 75.3532 389.433 71.4105C390.125 70.3729 391.923 71.4105 391.232 72.5172Z" fill="white"/>
<path d="M388.119 78.1894C386.736 80.057 385.214 81.7863 383.485 83.3081C382.24 84.4148 376.775 88.3576 379.611 90.3635C380.165 90.7094 379.611 91.6086 379.058 91.2627C377.121 89.9485 377.882 87.5967 379.058 86.0057C379.957 84.8298 381.202 83.9306 382.378 82.893C384.176 81.3021 385.767 79.5728 387.22 77.7052C387.635 77.0827 388.534 77.636 388.119 78.1894Z" fill="#161616"/>
<path d="M389.572 85.3829C387.497 88.2189 383.554 92.2308 379.68 91.0549C379.058 90.8474 379.335 89.879 379.957 90.0865C383.277 91.1241 386.943 87.3196 388.673 84.8987C389.088 84.3453 389.987 84.8295 389.572 85.3829Z" fill="#161616"/>
<path d="M392.615 90.225C390.332 93.3377 387.012 95.1361 383.138 95.3436C382.447 95.4128 382.447 94.3752 383.138 94.3061C386.597 94.0985 389.64 92.4384 391.716 89.6716C392.131 89.1182 393.03 89.6716 392.615 90.225Z" fill="#161616"/>
<path d="M394.828 96.4504C391.577 99.8398 386.182 99.9089 382.931 96.4504C382.447 95.9662 383.208 95.2053 383.692 95.6895C386.528 98.733 391.231 98.6639 394.067 95.6895C394.552 95.2053 395.313 95.9662 394.828 96.4504Z" fill="#161616"/>
<path d="M394.137 72.3789C386.459 77.4284 380.925 85.9365 371.311 87.5966C370.688 87.7349 370.342 86.6974 371.034 86.6282C380.51 85.0373 386.044 76.5292 393.584 71.5489C394.206 71.0647 394.69 71.9639 394.137 72.3789Z" fill="#161616"/>
<path opacity="0.2" d="M394.967 94.9979C397.457 91.6085 395.382 84.3455 389.364 77.4976C382.586 81.4403 375.876 85.4522 369.097 89.395C370.342 89.395 381.271 89.5333 382.032 92.9227C382.171 93.4761 382.032 94.3061 380.995 95.4821C377.536 97.1422 371.726 99.3556 364.255 99.5632C360.382 99.6323 356.992 99.1481 354.364 98.5256C340.253 112.775 315.421 134.287 278.898 149.92C246.803 163.616 218.028 167.558 199.005 168.665C199.628 176.827 200.251 184.92 200.873 193.083C232.208 184.782 274.679 169.011 316.873 137.331C331.261 126.54 343.573 115.403 354.087 104.682C363.771 106.273 369.789 104.613 373.593 102.676C376.845 101.016 378.92 98.9406 383.208 98.5948C386.044 98.3872 388.465 99.079 391.578 97.5572C391.924 97.4188 393.93 96.3813 394.967 94.9979Z" fill="#6D6C6C"/>
<path opacity="0.14" d="M305.875 143.833C296.191 149.021 284.985 154.278 272.188 158.774C244.312 168.665 219.065 171.778 199.766 172.47C200.043 179.525 200.25 186.65 200.527 193.705C220.586 189.002 245.765 180.77 272.465 165.829C285.261 158.705 296.329 151.165 305.875 143.833Z" fill="#6D6C6C"/>
<path d="M196.515 163.546C200.458 172.469 200.665 179.871 201.011 193.151C201.288 203.181 200.596 213.972 195.201 242.332C188.629 276.641 185.517 282.175 184.479 300.367C183.649 314.616 184.756 326.306 185.793 334.053C177.078 338.826 162.483 345.328 143.392 346.781C109.636 349.34 84.6653 334.468 76.0881 328.796C75.0505 307.076 74.0128 285.287 72.9061 263.568C76.7105 245.03 81.2067 230.504 84.4577 220.958C94.6951 190.869 104.241 176.62 98.1536 161.54C94.7642 153.171 88.0546 148.052 83.4202 145.216C86.6712 142.726 120.773 117.478 157.987 130.552C161.86 131.866 186.347 140.512 196.515 163.546Z" fill="white" stroke="#161616" stroke-width="2" stroke-miterlimit="10"/>
<path opacity="0.19" d="M158.125 130.482C147.749 147.083 141.939 161.748 138.619 171.985C138.619 171.985 122.364 221.373 134.261 287.639C136.82 301.75 141.386 321.81 150.378 344.775C146.919 345.535 142.769 346.158 138.065 346.366C138.065 346.366 130.802 346.711 122.64 345.674C112.68 344.36 95.5943 339.033 75.4655 328.796C75.1196 305.624 74.7738 282.521 74.4279 259.348C79.5466 239.773 84.7344 224.071 88.608 213.073C97.9461 186.857 104.517 174.544 99.122 161.54C95.5942 153.032 88.4005 147.775 82.7976 144.732C90.1297 139.89 103.687 132.35 122.225 129.445C137.512 127.093 150.101 128.753 158.125 130.482Z" fill="#6D6C6C"/>
<path opacity="0.11" d="M148.648 128.892C137.512 142.588 124.508 162.578 116.484 188.932C93.7265 264.191 131.148 330.18 139.795 344.637C132.532 344.568 124.024 343.945 114.755 342.146C98.2227 338.965 85.011 333.293 75.5346 328.243C75.1887 306.662 74.8429 285.08 74.497 263.568C80.3765 243.578 85.9103 224.625 93.4499 198.893C98.5686 181.254 102.58 166.798 95.0408 155.246C91.3747 149.643 86.2561 146.53 82.3825 144.732C104.448 139.406 126.583 134.149 148.648 128.892Z" fill="#6D6C6C"/>
<path d="M153.767 270.208C153.974 255.406 154.113 240.672 154.32 225.87C118.836 224.071 83.3507 222.273 47.7967 220.474C46.5517 234.17 45.3066 247.866 43.9923 261.562C80.5839 264.467 117.175 267.303 153.767 270.208Z" fill="white" stroke="#161616" stroke-width="2" stroke-miterlimit="10"/>
<path d="M164.559 265.366C164.559 259.971 164.559 254.576 164.559 249.18C118.975 245.791 73.3911 242.332 27.8073 238.943C27.4614 245.583 27.1156 252.293 26.7005 258.933C72.6302 261.008 118.629 263.222 164.559 265.366Z" fill="white" stroke="#161616" stroke-width="2" stroke-miterlimit="10"/>
<path d="M160.754 241.018C160.201 248.973 159.647 256.858 159.163 264.813C116.969 261.424 74.8434 257.965 32.649 254.576C32.3031 247.382 31.9573 240.188 31.5423 232.925C74.6359 235.623 117.729 238.32 160.754 241.018Z" fill="white" stroke="#161616" stroke-width="2" stroke-miterlimit="10"/>
<path d="M171.061 258.864C169.815 290.406 168.57 321.948 167.256 353.49C120.22 348.233 73.1834 343.046 26.147 337.789C24.6944 306.8 23.2419 275.811 21.7893 244.823C71.5925 249.526 121.326 254.161 171.061 258.864Z" fill="white" stroke="#161616" stroke-width="2" stroke-miterlimit="10"/>
<path d="M163.036 271.177C141.663 268.341 120.289 266.335 98.7764 265.089C97.808 265.02 97.808 263.499 98.7764 263.499C120.289 264.744 141.732 266.75 163.036 269.586C164.005 269.724 164.005 271.315 163.036 271.177Z" fill="#161616"/>
<path d="M139.172 275.396C122.779 273.321 106.385 271.177 89.9223 269.102C88.9539 268.963 88.9539 267.441 89.9223 267.511C106.316 269.586 122.709 271.73 139.172 273.805C140.141 274.013 140.141 275.534 139.172 275.396Z" fill="#161616"/>
<path d="M60.3863 319.666C60.6629 324.024 60.663 328.45 60.2479 332.808C60.1788 333.777 58.5878 333.777 58.657 332.808C59.072 328.45 59.1412 324.024 58.7954 319.666C58.7262 318.697 60.3171 318.697 60.3863 319.666Z" fill="#161616"/>
<path d="M59.6946 319.804C51.1174 320.011 42.6093 319.527 34.1013 318.42C34.378 318.144 34.6546 317.867 34.8621 317.66C35.0005 321.672 34.8622 325.614 34.5855 329.557C34.5164 330.525 32.9254 330.525 32.9946 329.557C33.3404 325.614 33.4096 321.602 33.2713 317.66C33.2713 317.245 33.6171 316.83 34.0321 316.899C42.5402 318.005 51.0482 318.42 59.6255 318.282C60.7322 318.213 60.7322 319.735 59.6946 319.804Z" fill="#161616"/>
<path d="M59.072 334.053C50.564 334.192 42.1944 333.293 33.8938 331.425C32.9254 331.217 33.3404 329.696 34.3088 329.903C42.471 331.702 50.7023 332.601 59.072 332.463C60.0404 332.463 60.0404 333.984 59.072 334.053Z" fill="#161616"/>
<path d="M55.8211 324.646C50.5641 324.992 45.3763 324.715 40.1192 323.885C39.1509 323.747 39.5659 322.225 40.5343 322.363C45.5838 323.193 50.7024 323.401 55.8211 323.055C56.7895 322.986 56.7895 324.577 55.8211 324.646Z" fill="#161616"/>
<path d="M52.5005 329.004C47.0359 328.865 41.7789 327.828 36.5911 325.96C35.6919 325.614 36.0378 324.093 37.0062 324.438C41.9865 326.306 47.1743 327.274 52.5005 327.482C53.4689 327.413 53.538 329.004 52.5005 329.004Z" fill="#161616"/>
<path opacity="0.2" d="M148.718 349.893C147.473 320.703 146.228 291.513 145.052 262.254C104.656 259.002 64.1911 255.821 23.7951 252.57C24.6943 280.238 25.6627 307.906 26.5619 335.575C67.3038 340.348 107.976 345.121 148.718 349.893Z" fill="#6D6C6C"/>
<path opacity="0.2" d="M39.0121 233.686C38.8045 241.71 39.2196 251.256 41.2947 261.839C46.4134 287.847 58.7259 306.592 67.0956 317.176C61.4236 324.715 55.7515 332.255 50.0103 339.795C67.3722 341.801 84.7342 343.806 102.096 345.812C99.3293 314.132 96.5625 282.452 93.7957 250.84C94.6949 246.69 95.6633 242.54 96.5625 238.39C77.4021 236.73 58.1725 235.208 39.0121 233.686Z" fill="#6D6C6C"/>
<path d="M87.155 143.348C72.6982 141.412 55.4746 174.614 48.6266 198.478C40.7411 225.939 44.1997 249.664 47.0357 262.184C52.5694 286.74 64.0518 304.033 71.2456 313.371C70.1389 317.037 67.5795 326.998 71.7989 337.927C78.0243 353.905 94.9021 361.583 96.2164 360.131C96.6314 359.647 95.8014 357.641 89.2301 350.101C90.6135 351.553 100.574 361.445 111.78 359.093C113.717 358.678 116.138 358.194 117.521 356.257C120.772 351.554 115.377 340.901 103.894 329.073C116.414 332.186 119.735 331.356 120.357 329.972C121.948 326.652 109.151 317.245 104.517 313.786C97.669 308.737 91.5127 305.278 87.2933 303.134C75.465 278.578 76.0876 259.418 77.1252 250.425C78.6469 237.144 83.6272 222.688 84.5956 219.921C87.3625 211.966 88.6767 210.168 94.2104 195.849C103.133 172.884 103.134 168.942 102.788 165.898C101.543 156.768 95.3864 144.455 87.155 143.348Z" fill="white" stroke="#161616" stroke-width="2" stroke-miterlimit="10"/>
<path d="M117.245 354.32C109.567 349.963 102.857 344.36 97.2545 337.581C96.4244 336.543 97.877 335.091 98.7071 336.128C104.172 342.769 110.743 348.303 118.283 352.591C119.458 353.145 118.421 354.943 117.245 354.32Z" fill="#161616"/>
<path d="M110.466 358.955C102.857 355.012 96.3547 349.548 91.0977 342.769C90.2677 341.732 92.0661 340.694 92.8962 341.732C97.8765 348.234 104.24 353.421 111.503 357.157C112.679 357.779 111.642 359.578 110.466 358.955Z" fill="#161616"/>
<path opacity="0.17" d="M92.9661 146.669C106.731 158.636 50.5642 211.136 60.179 270.762C66.7503 311.642 94.0037 338.342 94.0037 338.342C101.612 345.951 115.931 355.289 114.202 358.54C112.957 360.892 104.31 358.748 101.197 357.779C95.3179 355.981 91.2369 352.937 88.9542 350.931C92.4128 354.805 96.3555 359.578 95.5255 360.546C94.3496 361.791 84.5272 356.673 78.371 349.479C67.7186 337.028 69.2404 319.735 70.278 312.68C67.7878 309.429 64.5368 304.863 61.2166 299.053C58.1731 293.865 49.3883 277.679 45.5838 255.683C38.8742 216.739 52.6394 186.027 58.173 173.992C63.1534 163.27 71.5923 145.493 84.3889 144.732C86.049 144.525 90.2684 144.317 92.9661 146.669Z" fill="#6D6C6C"/>
<path opacity="0.22" d="M46.3449 254.576C50.0801 265.436 54.507 276.849 59.764 288.816C63.4992 297.324 67.3037 305.278 71.1772 312.818C73.114 319.043 76.7802 328.382 84.0431 337.996C91.652 348.095 100.022 354.252 105.625 357.779C104.034 357.848 102.097 357.71 99.9525 357.157C94.5572 355.912 90.9602 352.937 89.1617 351.139C91.2369 353.767 93.3813 356.327 95.4564 358.955C93.7963 358.678 91.1678 358.194 88.2626 356.88C73.0449 350.032 69.863 331.425 69.6555 330.18C69.1021 326.791 68.7563 320.98 70.8314 313.786C65.8511 307.907 59.5565 299.122 54.507 287.294C48.9042 274.29 47.0366 262.6 46.3449 254.576Z" fill="#6D6C6C"/>
<path d="M212.424 97.8338C223.561 110.561 215.883 128.338 214.845 130.759C210.972 139.751 200.942 152.548 188.215 151.511C178.946 150.681 173.066 142.864 171.614 140.789C161.376 126.056 164.766 97.9029 182.058 90.6399C191.604 86.628 204.746 88.9798 212.424 97.8338Z" fill="#262626"/>
<path d="M184.341 109.178C183.857 114.643 178.115 115.819 174.242 124.811C171.475 131.313 171.475 137.677 171.959 142.242C167.463 142.657 159.162 142.865 149.755 139.268C142.354 136.432 137.166 132.351 134.053 129.515C135.506 126.264 137.65 121.491 140.21 115.819C151.277 91.678 153.075 89.6029 155.773 88.5653C166.564 84.4842 185.24 99.0101 184.341 109.178Z" fill="white" stroke="#161616" stroke-width="2" stroke-miterlimit="10"/>
<path d="M224.184 37.7241C226.535 41.0444 227.988 45.1255 228.195 62.6258C228.334 77.5667 227.504 91.1934 226.12 103.298C223.008 101.5 219.895 99.7015 216.782 97.903C215.399 101.292 213.047 105.927 209.035 110.423C201.08 119.346 191.396 122.39 187.108 123.496C182.612 122.39 171.406 118.931 162.898 108.348C157.295 101.292 155.497 94.3061 155.082 92.7152C152.522 82.2704 155.012 73.624 156.327 70.0271C154.667 69.2662 152.107 67.8136 150.17 65.1851C146.089 59.6514 144.983 49.7599 150.032 46.4397C153.767 43.9495 160.408 45.4021 165.388 50.5208C166.495 47.9615 168.224 44.4337 170.991 40.7677C171.683 39.8684 176.87 33.0897 183.234 29.5619C195.478 22.5065 215.745 25.8267 224.184 37.7241Z" fill="white" stroke="#161616" stroke-width="2" stroke-miterlimit="10"/>
<path d="M229.233 59.444C232 58.9598 237.119 57.5072 239.54 53.2877C243.69 46.1631 237.603 35.3032 236.081 32.6055C234.836 30.3229 231.516 24.8584 217.405 14.9669C206.683 7.42725 201.288 3.692 195.478 1.89355C174.865 -4.26268 155.981 6.38968 152.453 8.39564C145.052 12.6151 140.348 17.1804 136.613 20.7773C130.872 26.311 124.439 32.6747 117.245 40.0069C98.7764 63.9401 92.2743 85.7982 89.6458 98.8715C86.6714 113.674 83.6279 128.753 92.4818 137.607C101.336 146.461 117.522 144.663 127.413 140.443C141.178 134.564 147.058 122.113 151.623 112.498C159.37 96.0355 159.855 80.2645 159.094 70.0271C152.177 68.0212 148.649 61.5191 150.24 56.6079C151.485 52.7343 156.119 48.8608 160.892 50.2442C164.558 51.2818 167.187 55.0862 166.979 59.5131C170.299 59.4439 179.153 58.6831 187.592 52.3193C193.748 47.6849 196.861 42.1512 198.314 39.1076C202.118 39.5918 209.727 40.9752 217.405 46.5089C223.838 50.9359 227.435 56.2621 229.233 59.444Z" fill="#262626"/>
<path opacity="0.24" d="M183.442 72.6559C175.142 82.6857 172.513 93.2689 172.513 93.2689C169.815 105.166 173.689 115.265 175.418 119.346C171.06 116.026 166.633 112.706 162.276 109.386C159.232 119.485 156.258 129.515 153.214 139.614C150.932 139.406 146.228 138.576 141.524 135.256C137.927 132.696 135.783 129.722 134.607 127.854C140.21 122.667 150.932 111.184 155.843 93.1305C158.195 84.415 158.54 76.6678 158.264 70.8574C151.969 68.2981 148.718 62.1418 150.032 57.0232C151.001 53.2879 154.805 48.7918 159.716 49.4835C163.797 50.1061 167.187 54.118 167.118 59.0291C170.23 59.0291 177.562 58.6833 185.24 54.0488C193.195 49.276 197 42.6356 198.452 39.7996C198.106 53.0804 194.025 60.7584 190.359 65.3237C187.938 68.4364 186.831 68.5748 183.442 72.6559Z" fill="#6D6C6C"/>
<path d="M215.606 69.7506C216.367 72.5174 216.298 75.3534 215.26 78.0511C214.914 79.0195 213.6 79.0887 213.254 78.0511C212.424 75.5609 212.424 72.9324 213.185 70.4423C213.6 69.1972 215.606 69.6814 215.191 70.9956C214.499 73.2091 214.569 75.3534 215.26 77.5669C214.569 77.5669 213.946 77.5669 213.254 77.5669C214.154 75.2151 214.292 72.7941 213.6 70.3731C213.254 68.9897 215.191 68.4363 215.606 69.7506Z" fill="#161616"/>
<path d="M218.097 65.4619C216.298 64.3551 214.085 64.5627 212.563 66.0152C211.595 66.9145 210.142 65.4619 211.11 64.5627C213.255 62.4875 216.575 62.0725 219.134 63.6634C220.241 64.3551 219.203 66.1536 218.097 65.4619Z" fill="#161616"/>
<path d="M210.626 83.0314C209.312 83.0314 209.312 80.9563 210.626 80.9563C212.01 80.9563 212.01 83.0314 210.626 83.0314Z" fill="#161616"/>
<path d="M206.061 77.0134C206.061 77.0826 206.061 77.1517 206.061 77.2209C206.061 77.7743 205.576 78.2585 205.023 78.2585C204.47 78.2585 203.985 77.7743 203.985 77.2209C203.985 77.1517 203.985 77.0826 203.985 77.0134C203.985 76.46 204.47 75.9758 205.023 75.9758C205.576 75.9758 206.061 76.3909 206.061 77.0134Z" fill="#161616"/>
<path d="M205.854 82.2011C204.539 82.2011 204.539 80.126 205.854 80.126C207.168 80.126 207.168 82.2011 205.854 82.2011Z" fill="#161616"/>
<path d="M234.352 72.9321C235.182 75.699 235.113 78.535 234.144 81.2327C233.798 82.2011 232.484 82.2011 232.138 81.2327C231.308 78.7425 231.239 76.114 231.931 73.6239C232.276 72.3096 234.282 72.863 233.937 74.1772C233.314 76.3907 233.383 78.535 234.144 80.6793C233.452 80.6793 232.83 80.6793 232.138 80.6793C232.968 78.3275 233.106 75.9065 232.346 73.4855C232 72.1713 234.006 71.6179 234.352 72.9321Z" fill="#161616"/>
<path d="M235.527 67.7442C234.075 66.9834 232.069 67.3292 231.1 68.7126C230.339 69.7502 228.541 68.7126 229.302 67.6751C231.031 65.3924 234.005 64.6315 236.565 65.9458C237.741 66.5683 236.703 68.3668 235.527 67.7442Z" fill="#161616"/>
<path d="M212.217 105.374C206.891 104.405 202.256 101.569 198.798 97.3498C198.175 96.5889 199.282 95.4822 199.904 96.2431C203.156 100.255 207.513 102.883 212.632 103.852C213.6 104.059 213.185 105.581 212.217 105.374Z" fill="#161616"/>
<path d="M201.426 96.3814C200.181 96.7964 199.144 97.419 198.244 98.3182C197.553 99.0099 196.446 97.9032 197.138 97.2115C198.245 96.1047 199.559 95.3438 201.011 94.8596C201.98 94.583 202.395 96.1047 201.426 96.3814Z" fill="#161616"/>
<path opacity="0.45" d="M158.333 5.90552C149.548 18.0796 138.273 35.3033 127.551 57.2997C116.207 80.5412 107.907 98.0415 114.34 104.959C122.848 114.158 152.245 99.5633 156.949 97.1423C155.981 103.437 153.56 113.467 146.435 123.496C142.838 128.546 136.544 137.469 124.923 141.619C117.937 144.109 111.711 143.971 109.29 143.764C106.039 143.556 102.304 143.279 98.2229 141.066C98.2229 141.066 92.8967 138.23 89.2998 132.42C83.8352 123.566 86.7404 111.599 90.614 96.5889C95.2485 78.6044 101.474 66.6378 107.561 54.8095C109.083 51.9043 110.881 48.5149 113.786 44.5722C116.692 40.5603 118.836 38.416 127.828 29.7696C141.178 16.8346 143.253 14.9669 147.265 12.2693C151.692 9.22574 155.635 7.21977 158.333 5.90552Z" fill="#1C1C1C"/>
<path opacity="0.43" d="M175.003 123.565C174.45 125.156 173.205 129.652 175.003 134.633C177.701 142.034 185.171 144.524 186.347 144.87C194.855 147.637 205.577 143.279 212.771 133.803C211.802 136.293 209.658 140.72 205.231 144.593C203.017 146.53 197 151.718 188.491 151.096C187.039 150.957 177.701 150.266 173.412 142.172C170.299 136.431 170.991 129.237 175.003 123.565Z" fill="#1C1C1C"/>
</svg>
