<svg width="896" height="922" viewBox="0 0 896 922" fill="none" xmlns="http://www.w3.org/2000/svg">
<path d="M188.069 362.749C193.285 371.956 193.379 382.877 188.348 392.174C187.51 393.708 189.932 395.062 190.77 393.528C196.266 383.328 196.173 371.414 190.491 361.396C189.559 359.771 187.231 361.215 188.069 362.749Z" fill="#161616"/>
<path d="M191.515 363.201C194.682 361.667 198.408 359.771 202.041 360.584C207.444 361.667 207.63 365.909 208.003 370.241C208.375 376.018 208.096 382.156 204.184 386.849C203.066 388.203 205.022 390.098 206.14 388.744C211.542 382.336 212.194 372.317 210.145 364.465C207.537 354.988 196.918 357.605 190.211 360.854C188.534 361.577 189.932 363.923 191.515 363.201Z" fill="#161616"/>
<path d="M191.515 394.069C196.732 394.701 201.948 392.715 205.395 388.834C206.512 387.48 204.556 385.585 203.438 386.939C200.458 390.369 196.173 391.993 191.515 391.452C189.746 391.181 189.746 393.889 191.515 394.069Z" fill="#161616"/>
<path d="M190.677 243.879C191.888 241.622 195.241 235.485 198.967 241.171C199.619 242.074 199.619 244.601 199.805 245.504C200.178 247.399 200.83 249.385 202.227 250.829C206.885 255.522 210.145 247.85 214.989 250.378C221.137 253.537 213.126 260.216 218.156 263.916C219.367 264.819 220.764 264.819 222.161 264.277C223.093 263.916 223.838 263.104 224.769 262.653C228.216 261.209 229.427 264.187 229.706 266.805C229.799 267.617 230.265 268.068 231.104 268.159C232.128 268.249 233.06 268.339 234.084 268.429C235.854 268.61 235.854 265.902 234.084 265.722C233.06 265.631 232.128 265.541 231.104 265.451C231.569 265.902 232.035 266.353 232.501 266.805C232.221 264.368 231.756 261.209 229.427 259.764C226.912 258.14 225.235 259.584 222.906 260.667C221.789 261.209 220.857 263.014 219.274 260.848C218.715 260.035 219.926 257.508 220.112 256.605C220.484 255.161 220.671 253.898 220.205 252.454C219.46 250.197 217.411 248.302 215.082 247.58C212.194 246.587 210.797 247.76 208.189 248.482C205.86 249.114 203.531 248.933 202.693 246.496C202.414 245.594 202.32 244.511 202.227 243.608C201.948 242.164 201.761 240.63 201.016 239.276C197.197 232.506 190.584 238.193 188.255 242.796C187.417 244.059 189.838 245.413 190.677 243.879Z" fill="#161616"/>
<path d="M208.748 235.485C210.983 233.409 213.033 232.506 215.454 234.492C217.411 236.117 217.038 236.658 217.597 238.824C217.969 240.088 218.342 241.261 219.46 242.164C220.857 243.337 222.441 243.337 224.21 243.157C225.887 242.976 227.843 241.893 229.241 243.608C229.893 244.42 229.799 246.226 229.799 247.218C229.893 249.926 229.893 253.175 233.06 254.168C233.991 254.439 235.016 253.988 235.854 254.259C236.972 253.807 237.438 254.078 237.531 255.251C237.903 255.973 238.09 256.696 237.997 257.598C238.462 259.674 239.301 261.209 240.977 262.653C242.281 263.826 244.238 261.931 242.933 260.757C240.139 258.23 242.095 254.71 239.766 252.453C237.345 250.107 233.525 253.537 232.687 249.204C232.035 245.865 233.339 241.352 228.775 240.178C225.515 239.366 222.068 242.525 220.298 238.193C219.553 236.387 219.832 234.402 218.528 232.687C215.454 228.806 209.772 230.791 206.698 233.589C205.394 234.763 207.444 236.748 208.748 235.485Z" fill="#161616"/>
<path d="M551.91 403.276C549.116 403.005 553.307 397.68 554.146 397.228C556.381 396.055 558.989 396.687 560.666 398.402C564.299 402.193 561.225 407.789 556.288 408.33C554.518 408.511 554.518 411.219 556.288 411.038C560.387 410.587 564.019 407.969 564.951 403.998C565.882 400.117 563.461 395.965 559.735 394.43C556.102 392.986 552.096 394.34 549.954 397.499C548.091 400.207 547.625 405.622 552.003 405.984C553.68 406.164 553.68 403.456 551.91 403.276Z" fill="#161616"/>
<path d="M533.094 397.77C531.137 396.055 533.466 392.625 535.702 394.52C538.031 396.416 534.863 399.033 532.721 397.499C531.324 396.416 529.927 398.763 531.324 399.846C533.28 401.29 536.261 400.838 538.031 399.124C540.08 397.138 539.614 394.069 537.472 392.354C535.329 390.639 532.255 390.73 530.579 392.986C529.088 394.972 529.274 397.86 531.137 399.575C532.442 400.838 534.491 398.943 533.094 397.77Z" fill="#161616"/>
<path d="M856.228 281.787C857.16 298.575 848.497 314.732 833.873 323.757C832.382 324.66 833.779 327.007 835.27 326.104C850.733 316.627 859.954 299.568 859.023 281.787C858.93 280.072 856.135 280.072 856.228 281.787Z" fill="#161616"/>
<path d="M858.091 283.773C867.033 290.091 863.401 301.554 858.464 309.046C853.806 316.176 846.261 324.66 836.574 323.216C834.804 322.945 834.059 325.563 835.828 325.834C847.472 327.458 856.321 317.981 861.724 309.136C867.127 300.381 869.176 288.286 859.488 281.426C857.998 280.434 856.601 282.78 858.091 283.773Z" fill="#161616"/>
<path d="M73.9609 203.443C79.8294 212.83 83.369 223.21 84.2074 234.131C84.3937 235.846 87.1881 235.846 87.0019 234.131C86.0704 222.669 82.5307 211.928 76.3828 202.09C75.3582 200.555 72.9363 201.909 73.9609 203.443Z" fill="#E8E8E8"/>
<path d="M85.3247 200.464C90.1685 208.949 92.8698 218.155 93.5219 227.813C93.615 229.528 96.4095 229.528 96.3163 227.813C95.6643 217.704 92.7766 208.046 87.7466 199.111C86.9082 197.576 84.4864 198.93 85.3247 200.464Z" fill="#E8E8E8"/>
<path d="M73.2151 220.773C81.3191 215.628 90.4477 212.921 100.228 212.74C101.998 212.74 101.998 210.032 100.228 210.032C90.0751 210.213 80.3876 213.101 71.8178 218.517C70.3274 219.419 71.7247 221.766 73.2151 220.773Z" fill="#E8E8E8"/>
<path d="M72.9368 231.785C83.09 225.827 94.1748 222.037 105.912 220.322C107.681 220.051 106.936 217.433 105.166 217.704C93.1502 219.419 81.8791 223.39 71.5395 229.438C70.0491 230.34 71.4464 232.687 72.9368 231.785Z" fill="#E8E8E8"/>
<path d="M619.909 276.282C615.624 278.358 613.947 283.774 617.58 287.294C619.536 289.189 621.213 288.647 623.541 289.37C625.032 289.821 626.709 290.723 626.429 292.168C626.243 293.16 625.218 293.973 624.659 294.785C623.728 295.958 622.61 297.312 622.237 298.756C621.865 300.471 622.331 302.186 623.728 303.36C625.777 305.075 628.478 303.991 630.714 305.075C635.371 307.241 626.895 316.718 634.067 318.523C635.837 318.974 636.582 316.357 634.813 315.906C631.832 315.184 635.558 309.678 635.837 307.963C636.024 306.428 635.744 304.894 634.533 303.811C631.366 300.832 622.051 303.991 626.802 296.41C628.292 294.063 630.993 291.175 629.224 288.106C628.665 287.113 627.733 286.572 626.615 286.301C625.498 286.12 623.728 286.301 622.61 286.211C617.673 285.94 617.114 280.614 621.306 278.539C622.889 277.907 621.492 275.56 619.909 276.282Z" fill="#E8E8E8"/>
<path d="M640.588 291.446C637.514 292.619 637.421 295.868 639.284 298.305C640.495 300.02 642.451 300.381 644.035 301.555C647.947 304.353 644.5 306.699 643.848 309.949C642.731 315.545 648.879 313.649 650.648 317.26C652.139 320.238 651.58 323.578 655.399 324.932C657.076 325.563 657.821 322.946 656.144 322.314C653.443 321.412 653.815 316.447 652.325 314.462C651.859 313.74 651.207 313.288 650.555 312.747C650.183 312.476 649.624 312.566 649.344 312.386C648.692 312.295 648.226 311.844 648.04 310.942C646.736 310.129 646.55 309.317 647.668 308.414C648.506 305.887 650.183 304.353 648.413 301.735C647.761 300.742 646.55 300.02 645.525 299.388C644.687 298.847 638.632 295.237 641.427 294.153C643.01 293.431 642.265 290.814 640.588 291.446Z" fill="#E8E8E8"/>
<path d="M820.552 473.678C813.752 468.984 814.87 459.146 822.229 455.536C827.818 452.828 835.456 455.355 838.344 460.681C841.231 466.006 838.716 473.497 833.221 476.295C827.445 479.184 820.273 476.656 817.013 471.512C816.081 470.067 813.659 471.421 814.591 472.865C818.782 479.635 828.47 482.613 835.642 478.1C842.442 473.768 844.585 463.749 839.555 457.431C834.618 451.294 824.744 449.85 818.503 454.814C811.237 460.5 811.796 470.88 819.248 476.115C820.645 477.017 822.043 474.671 820.552 473.678Z" fill="#E8E8E8"/>
<path d="M177.636 499.672C178.66 496.423 180.151 495.52 181.921 497.054C182.386 497.235 182.852 497.506 183.225 497.686C183.877 497.867 184.715 498.047 185.367 497.957C186.764 497.777 187.882 496.964 188.534 495.881C190.863 492.271 188.255 488.751 185.926 485.953C184.715 484.599 182.479 482.794 182.759 480.718C183.132 476.746 185.553 478.371 187.603 478.1C189.093 477.92 190.397 477.378 191.142 476.024C191.888 474.851 191.701 473.316 191.515 472.053C191.422 471.331 191.142 470.518 191.142 469.796C190.49 467.901 191.422 466.727 193.937 466.276C195.148 467.089 196.172 468.081 197.011 469.345C198.035 470.789 200.457 469.435 199.433 467.991C196.918 464.561 189.466 459.868 188.255 466.998C187.696 470.609 191.142 474.399 185.647 475.302C182.945 475.753 181.082 475.753 180.244 478.822C179.499 481.349 180.523 483.786 182.107 485.772C182.852 486.675 183.69 487.487 184.436 488.299C185.367 489.202 186.019 490.195 186.485 491.368C185.367 492.451 184.342 493.534 183.225 494.617C182.386 494.798 180.244 493.083 179.033 492.993C173.63 492.632 170.743 499.672 176.145 501.928C177.915 502.65 179.312 500.304 177.636 499.672Z" fill="#E8E8E8"/>
<path d="M200.364 495.791C198.874 493.444 196.545 489.834 197.57 486.856C198.315 484.599 201.482 483.606 202.879 481.801C205.022 479.003 204.742 475.302 202.786 472.504C202.414 473.226 201.948 473.858 201.575 474.58C206.885 474.941 211.356 471.873 212.939 466.908C213.498 465.193 210.797 464.562 210.238 466.186C209.027 469.977 205.674 472.143 201.575 471.873C200.551 471.782 199.805 473.046 200.364 473.948C201.575 475.663 202.041 478.1 200.83 479.996C199.712 481.62 198.222 481.711 197.011 482.884C195.893 483.967 195.148 485.05 194.868 486.675C194.123 490.376 196.173 494.076 198.036 497.145C198.874 498.679 201.296 497.325 200.364 495.791Z" fill="#E8E8E8"/>
<path d="M484.841 29.4242C489.778 34.93 492.852 41.3384 494.156 48.4688C494.436 50.1837 497.137 49.4617 496.858 47.7468C495.461 40.165 492.014 33.3054 486.798 27.4385C485.587 26.1749 483.631 28.0704 484.841 29.4242Z" fill="#E8E8E8"/>
<path d="M487.265 29.6953C490.432 26.8973 503.101 15.8857 507.758 19.0447C510.087 20.6694 512.136 24.37 513.626 26.807C515.489 29.8758 516.98 33.1251 518.191 36.4647C518.75 38.0893 521.451 37.3673 520.892 35.7426C519.308 31.5005 517.352 27.3486 514.837 23.5577C513.254 21.1207 510.832 16.9688 507.944 15.7954C504.684 14.4416 500.679 17.2396 497.977 18.774C493.413 21.3012 489.221 24.37 485.309 27.7998C484.005 28.9732 485.961 30.8686 487.265 29.6953Z" fill="#E8E8E8"/>
<path d="M497.137 50.1837C504.403 44.2266 512.321 39.3526 521.077 35.652C522.754 34.9299 521.263 32.5832 519.68 33.3053C510.737 37.0961 502.633 42.1506 495.181 48.2882C493.784 49.3713 495.74 51.2668 497.137 50.1837Z" fill="#E8E8E8"/>
<path d="M513.346 24.7309C516.885 21.8426 524.803 14.5317 529.181 19.3154C532.348 22.7452 534.397 28.3413 536.26 32.4932C537.005 34.1178 539.427 32.6737 538.682 31.1393C536.912 27.2582 535.049 23.5576 532.814 19.9472C531.696 18.0518 530.299 15.1635 527.97 14.3512C525.269 13.4486 522.381 15.344 520.239 16.6076C517.071 18.4128 514.184 20.4888 511.389 22.7452C509.992 24.0088 512.041 25.9043 513.346 24.7309Z" fill="#E8E8E8"/>
<path d="M506.453 41.248C510.831 43.1435 514.557 45.6707 518.003 48.92C518.655 49.5519 519.68 49.3713 520.239 48.6493C524.337 42.963 529.74 38.6305 536.26 35.652C537.937 34.9299 536.447 32.5832 534.863 33.3053C527.877 36.4643 522.195 41.1578 517.817 47.2051C518.562 47.1149 519.307 47.0246 520.052 46.9344C516.513 43.5045 512.507 40.887 507.943 38.9013C506.173 38.2695 504.776 40.526 506.453 41.248Z" fill="#E8E8E8"/>
<path d="M526.76 141.616C526.574 140.623 526.294 139.631 526.108 138.638C526.947 137.825 527.785 137.103 528.81 136.562C529.368 136.201 530.021 135.84 530.579 135.388C531.697 134.486 532.442 133.583 533.001 132.32C533.653 130.695 533.467 129.161 533.281 127.446C533.188 126.904 533.094 126.272 533.001 125.731C532.908 125.099 533.281 117.788 536.261 120.135C537.659 121.218 539.615 119.322 538.218 118.239C536.168 116.615 534.026 116.885 532.163 118.6C528.996 121.579 530.486 125.099 530.673 128.709C530.952 134.125 523.686 134.396 523.034 139.36C522.755 141.616 523.686 143.692 526.108 144.143C527.785 144.505 528.53 141.887 526.76 141.616Z" fill="#161616"/>
<path d="M537.006 134.124C539.241 135.839 542.408 134.576 542.874 131.778C543.34 129.341 541.663 127.084 541.85 124.647C542.129 121.308 544.458 118.419 547.625 117.246C549.301 116.614 548.556 113.997 546.88 114.628C543.806 115.711 541.384 117.697 540.08 120.676C539.428 122.03 539.055 123.564 539.055 125.098C539.055 125.82 539.148 126.543 539.241 127.174C539.241 127.174 540.639 133.402 539.055 132.139C537.565 131.146 535.608 133.041 537.006 134.124Z" fill="#161616"/>
<path d="M296.68 431.978C295.004 431.076 294.817 429 296.028 427.646C297.239 426.292 299.475 425.75 301.245 426.021C302.735 426.292 304.412 427.014 305.064 428.458C305.809 430.083 304.691 432.881 302.456 432.61C300.686 432.339 299.941 434.957 301.711 435.227C304.878 435.679 307.672 433.603 308.138 430.444C308.697 427.104 305.902 424.396 302.735 423.584C299.475 422.681 295.376 423.674 293.42 426.563C291.65 429.18 292.396 432.881 295.376 434.325C296.867 435.137 298.264 432.79 296.68 431.978Z" fill="#161616"/>
<path d="M149.504 112.552C150.063 110.747 150.622 108.852 151.088 107.047C151.647 107.227 152.206 107.408 152.765 107.588C153.51 107.678 154.255 108.13 155 108.31C156.025 108.581 157.236 108.671 158.26 108.4C160.682 107.588 161.428 105.332 161.428 103.075C161.428 100.819 160.589 98.3817 162.452 96.5766C163.943 95.1324 166.458 94.5909 168.414 95.0422C174.841 96.4863 174.189 104.339 171.395 108.581C170.463 110.025 172.885 111.379 173.816 109.935C176.89 105.151 177.636 97.9304 172.605 94.0493C168.879 91.161 162.545 91.7026 159.658 95.4934C157.702 98.0207 159.006 100.277 158.447 103.165C157.515 107.949 150.529 103.526 147.362 104.61C141.4 106.686 143.17 113.996 148.48 115.35C150.436 115.621 151.181 113.004 149.504 112.552Z" fill="#161616"/>
<path d="M755.347 508.428C757.304 506.984 759.446 506.893 761.775 508.067C762.799 508.608 764.197 507.706 763.824 506.532C762.986 504.908 763.172 503.464 764.569 502.2C765.221 499.402 766.712 499.221 768.947 501.568C769.599 502.832 771.462 502.11 771.555 500.846C771.555 499.673 771.649 498.409 771.835 497.236C772.114 494.347 774.07 493.625 777.517 494.979C778.262 496.604 780.591 495.16 779.939 493.625C778.821 491.098 775.84 490.286 773.232 491.279C769.32 492.813 768.854 497.326 768.761 500.846C769.599 500.575 770.531 500.395 771.369 500.124C770.065 497.416 766.712 496.423 763.917 497.777C760.378 499.582 760.191 503.825 761.123 507.164C761.775 506.623 762.52 506.171 763.172 505.63C760.005 504.095 757.024 504.186 753.95 505.991C752.46 506.984 753.857 509.33 755.347 508.428Z" fill="#EC615B"/>
<path d="M682.971 134.486C677.941 135.93 674.401 140.082 673.749 145.226C673.097 150.1 676.078 156.148 681.667 156.689C685.765 157.05 689.864 152.537 687.349 148.837C684.648 144.775 679.431 147.754 677.289 150.642C671.234 159.036 676.637 175.463 689.119 171.582C692.565 170.499 696.85 166.437 694.894 162.556C692.472 157.772 687.07 162.917 685.672 165.625C682.785 171.221 682.04 179.254 688.001 183.225C692.659 186.294 699.086 184.308 700.576 178.983C700.949 177.81 699.179 176.546 698.247 177.629C691.82 185.482 696.757 196.313 707.19 196.674C708.96 196.764 708.96 194.056 707.19 193.966C699.365 193.695 695.267 185.572 700.204 179.615C699.458 179.164 698.62 178.712 697.875 178.261C696.478 183.406 689.957 182.594 687.442 178.803C685.207 175.283 685.952 170.499 688.001 166.979C688.467 166.076 690.982 161.834 692.472 164.542C693.217 165.986 690.423 168.062 689.491 168.603C686.604 170.138 682.785 169.687 680.549 167.34C678.22 164.993 677.475 161.383 677.755 158.224C677.941 156.509 678.314 154.523 679.152 153.079C679.524 152.537 679.99 151.996 680.363 151.454C682.691 149.288 682.598 149.92 679.99 153.44C678.127 153.62 676.544 148.656 676.451 147.483C676.357 146.31 676.544 145.136 676.823 144.053C677.755 140.713 680.27 138.186 683.716 137.193C685.486 136.652 684.741 134.034 682.971 134.486Z" fill="#161616"/>
<path d="M181.827 189.634C181.082 187.467 181.454 185.391 183.131 183.676C184.994 181.781 187.23 182.052 189.558 182.413C191.235 182.684 192.539 182.864 194.123 181.962C195.334 181.239 196.172 179.886 196.731 178.712C197.103 177.81 197.383 176.907 197.569 176.004C197.662 175.373 197.849 174.741 197.942 174.199C198.128 172.033 199.712 171.13 202.599 171.492C202.506 173.116 204.835 173.206 205.301 171.853C206.046 169.777 206.977 167.61 208.933 166.347C211.821 164.451 215.92 164.812 216.478 168.693C216.758 170.408 219.366 169.686 219.18 167.971C218.621 164.271 214.988 161.924 211.169 162.466C206.511 163.097 203.996 167.34 202.692 171.221C203.624 171.311 204.555 171.492 205.394 171.582C205.58 168.874 202.972 167.159 200.27 167.52C195.892 168.062 195.706 172.845 194.775 176.004C194.123 178.261 193.564 179.976 190.303 179.886C189.372 179.886 188.254 179.254 187.23 179.254C185.46 179.254 183.69 179.886 182.293 180.878C179.219 183.135 177.915 186.926 179.126 190.446C179.684 191.98 182.386 191.348 181.827 189.634Z" fill="#383838"/>
<path d="M703.277 277.184C709.965 277.184 715.387 271.567 715.387 264.638C715.387 257.709 709.965 252.092 703.277 252.092C696.59 252.092 691.168 257.709 691.168 264.638C691.168 271.567 696.59 277.184 703.277 277.184Z" fill="#A9A9AA"/>
<path d="M48.2516 279.983C52.6758 279.983 56.2624 276.548 56.2624 272.311C56.2624 268.074 52.6758 264.639 48.2516 264.639C43.8273 264.639 40.2407 268.074 40.2407 272.311C40.2407 276.548 43.8273 279.983 48.2516 279.983Z" fill="#A9A9AA"/>
<path d="M166.83 606.72C170.534 606.72 173.537 603.568 173.537 599.679C173.537 595.791 170.534 592.639 166.83 592.639C163.126 592.639 160.124 595.791 160.124 599.679C160.124 603.568 163.126 606.72 166.83 606.72Z" fill="#A9A9AA"/>
<path d="M689.212 292.799C696.98 292.799 703.277 287.021 703.277 279.892C703.277 272.764 696.98 266.985 689.212 266.985C681.443 266.985 675.146 272.764 675.146 279.892C675.146 287.021 681.443 292.799 689.212 292.799Z" fill="#444343"/>
<path d="M410.788 15.5245C414.749 15.5245 417.961 12.0492 417.961 7.76225C417.961 3.47528 414.749 0 410.788 0C406.827 0 403.616 3.47528 403.616 7.76225C403.616 12.0492 406.827 15.5245 410.788 15.5245Z" fill="#444343"/>
<path d="M804.437 429.27C809.993 429.27 814.497 424.421 814.497 418.439C814.497 412.458 809.993 407.608 804.437 407.608C798.881 407.608 794.377 412.458 794.377 418.439C794.377 424.421 798.881 429.27 804.437 429.27Z" fill="#444343"/>
<path d="M20.1203 373.31C31.2324 373.31 40.2405 364.38 40.2405 353.363C40.2405 342.347 31.2324 333.416 20.1203 333.416C9.00815 333.416 0 342.347 0 353.363C0 364.38 9.00815 373.31 20.1203 373.31Z" fill="#444343"/>
<path d="M233.991 572.691C235.388 662.679 236.879 752.667 238.276 842.745C356.203 868.559 474.037 894.283 591.964 920.097C591.778 815.939 591.498 711.78 591.312 607.622C472.174 595.888 353.036 584.245 233.991 572.691Z" fill="white" stroke="#161616" stroke-width="2" stroke-miterlimit="10"/>
<path d="M851.571 548.954C851.106 648.238 850.64 747.523 850.174 846.807C764.384 871.267 678.5 895.637 592.709 920.097C592.43 814.766 592.151 709.524 591.871 604.192C678.407 585.869 765.036 567.457 851.571 548.954Z" fill="white" stroke="#161616" stroke-width="2" stroke-miterlimit="10"/>
<path d="M588.89 606.719C471.056 594.895 353.315 583.071 235.575 571.247C313.168 552.113 390.761 532.978 468.355 513.843C595.224 525.667 722.187 537.491 849.056 549.405C762.334 568.449 675.612 587.584 588.89 606.719Z" fill="white" stroke="#161616" stroke-width="2" stroke-miterlimit="10"/>
<path d="M675.146 533.249C644.873 531.263 614.692 529.278 584.419 527.292C524.803 548.413 465.188 569.533 405.665 590.654C405.106 686.418 404.548 782.183 403.896 877.947C430.629 884.175 457.363 890.313 484.097 896.54C482.979 797.346 481.768 698.242 480.651 599.048C545.482 577.205 610.314 555.182 675.146 533.249Z" fill="#161616" stroke="#161616" stroke-width="2" stroke-miterlimit="10"/>
<path d="M701.228 888.146C725.913 880.835 750.69 873.524 775.375 866.213C774.536 767.019 773.605 667.915 772.767 568.721C651.859 554.911 530.858 541.102 409.95 527.292C388.992 532.346 368.126 537.401 347.167 542.546C465.467 560.327 583.767 578.017 702.159 595.798C701.88 693.278 701.601 790.667 701.228 888.146Z" fill="#161616" stroke="#161616" stroke-width="2" stroke-miterlimit="10"/>
<path d="M707.469 398.763C716.039 402.193 717.436 423.674 712.778 440.462C694.894 504.817 579.109 530.902 573.613 521.063C571.285 516.821 591.219 508.788 633.136 468.533C679.338 424.126 696.198 394.34 707.469 398.763Z" fill="white" stroke="#161616" stroke-width="2" stroke-miterlimit="10"/>
<path d="M469.193 441.094C471.429 451.294 476.925 463.117 512.228 495.972C535.888 517.995 547.811 529.006 551.165 526.84C557.965 522.327 535.423 478.913 513.998 447.954C503.007 432.068 483.725 404.359 473.944 407.969C466.958 410.497 466.399 428.368 469.193 441.094Z" fill="white" stroke="#161616" stroke-width="2" stroke-miterlimit="10"/>
<path d="M558.058 564.568C571.742 564.568 582.835 553.213 582.835 539.206C582.835 525.198 571.742 513.843 558.058 513.843C544.373 513.843 533.28 525.198 533.28 539.206C533.28 553.213 544.373 564.568 558.058 564.568Z" fill="#161616" stroke="#161616" stroke-width="2" stroke-miterlimit="10"/>
<path d="M558.523 528.916C572.589 515.648 586.841 501.568 601.093 486.855C632.577 454.362 660.615 422.32 685.486 391.271C690.889 390.64 701.508 390.008 705.979 395.875C712.499 404.269 702.16 420.876 697.316 428.729C672.631 468.533 594.106 510.864 558.523 528.916Z" fill="#161616" stroke="#161616" stroke-width="2" stroke-miterlimit="10"/>
<path d="M474.875 406.616C478.322 403.547 489.034 409.775 495.368 413.475C547.904 444.073 554.331 516.46 555.356 529.638C512.507 476.025 466.212 414.468 474.875 406.616Z" fill="#161616" stroke="#161616" stroke-width="2" stroke-miterlimit="10"/>
<path d="M253.46 621.431C295.936 622.153 338.598 621.973 380.981 623.868C423.83 625.764 466.306 631.54 508.596 638.671C532.442 642.732 556.288 647.155 580.134 651.668C581.904 652.029 582.649 649.412 580.88 649.051C539.149 641.198 497.325 633.436 455.128 627.93C412.466 622.424 369.803 620.619 326.768 619.897C302.363 619.536 277.865 619.085 253.46 618.724C251.69 618.724 251.69 621.431 253.46 621.431Z" fill="#161616"/>
<path d="M615.345 650.314C686.697 629.554 759.447 613.398 833.128 602.025C834.897 601.755 834.152 599.137 832.383 599.408C758.795 610.78 686.045 626.937 614.599 647.696C612.923 648.148 613.668 650.765 615.345 650.314Z" fill="#161616"/>
<path d="M487.171 774.6C487.171 801.948 487.171 829.206 487.171 856.555C487.171 858.269 489.965 858.269 489.965 856.555C489.965 829.206 489.965 801.948 489.965 774.6C489.965 772.885 487.171 772.885 487.171 774.6Z" fill="#161616"/>
<path d="M496.393 840.218C496.393 853.847 496.393 867.567 496.393 881.196C496.393 882.911 499.188 882.911 499.188 881.196C499.188 867.567 499.188 853.847 499.188 840.218C499.188 838.413 496.393 838.413 496.393 840.218Z" fill="#161616"/>
<path d="M689.212 705.011C689.212 726.853 689.212 748.696 689.212 770.539C689.212 772.254 692.006 772.254 692.006 770.539C692.006 748.696 692.006 726.853 692.006 705.011C692.006 703.296 689.212 703.296 689.212 705.011Z" fill="#161616"/>
<path d="M694.242 795.902C694.242 810.615 694.242 825.417 694.242 840.129C694.242 841.844 697.037 841.844 697.037 840.129C697.037 825.417 697.037 810.615 697.037 795.902C697.037 794.187 694.242 794.187 694.242 795.902Z" fill="#161616"/>
<path d="M353.781 701.491C353.781 713.315 353.781 725.139 353.781 736.962C353.781 738.677 356.576 738.677 356.576 736.962C356.576 725.139 356.576 713.315 356.576 701.491C356.576 699.776 353.781 699.776 353.781 701.491Z" fill="#161616"/>
<path d="M345.864 746.53C345.864 756.097 345.864 765.665 345.864 775.232C345.864 776.947 348.658 776.947 348.658 775.232C348.658 765.665 348.658 756.097 348.658 746.53C348.658 744.815 345.864 744.815 345.864 746.53Z" fill="#161616"/>
<path opacity="0.21" d="M845.609 846.447C761.402 871.268 677.195 896.179 592.988 921C592.988 817.383 592.988 713.766 592.988 610.149C677.661 591.375 762.334 572.602 847.006 553.918C846.634 651.397 846.168 748.877 845.609 846.447Z" fill="#666666"/>
<path opacity="0.21" d="M851.199 847.62C765.408 870.365 679.711 893.11 593.92 915.855C593.361 825.145 592.802 734.525 592.15 643.815C630.062 677.482 668.067 711.148 705.979 744.905C754.044 729.471 802.202 714.037 850.267 698.602C850.64 748.245 850.919 797.977 851.199 847.62Z" fill="#666666"/>
<path opacity="0.14" d="M711.661 403.457C707.097 402.555 702.253 432.972 686.324 457.973C671.886 480.628 643.103 507.164 579.668 522.508C587.866 521.786 600.348 520.162 614.972 516.01C630.155 511.768 694.242 493.716 711.102 445.247C717.995 425.209 715.387 404.179 711.661 403.457Z" fill="#666666"/>
<path opacity="0.2" d="M481.675 596.791C508.595 614.481 535.608 632.172 562.528 649.863C537.751 645.711 513.066 641.649 488.288 637.497C489.313 685.695 493.412 739.76 502.913 798.428C509.154 836.969 516.885 872.802 525.455 905.656C512.321 902.136 499.094 898.616 485.96 895.005C484.562 795.63 483.165 696.165 481.675 596.791Z" fill="#666666"/>
<path opacity="0.13" d="M488.196 597.603C527.784 592.097 567.466 586.592 607.054 581.086C589.635 578.829 572.216 576.573 554.798 574.407C542.781 578.739 532.907 581.718 526.014 583.703C518.935 585.689 513.626 586.953 505.708 589.931C498.163 592.729 492.108 595.617 488.196 597.603Z" fill="#666666"/>
<path d="M810.678 826.5C808.07 828.846 805.555 831.283 802.947 833.63C807.418 850.328 811.889 867.026 816.36 883.724C819.9 882.009 823.533 880.384 827.072 878.669C821.67 861.249 816.174 843.829 810.678 826.5Z" fill="#161616" stroke="#161616" stroke-width="3" stroke-miterlimit="10"/>
<path d="M815.802 818.647C813.194 817.925 810.679 817.203 808.071 816.48C807.605 807.816 807.046 799.151 806.58 790.486C821.763 785.161 837.04 779.835 852.223 774.42C853.527 774.781 854.925 775.142 856.229 775.503C842.815 789.854 829.309 804.296 815.802 818.647Z" fill="#161616" stroke="#161616" stroke-width="3" stroke-miterlimit="10"/>
<path d="M815.336 790.486C815.709 800.053 816.174 809.531 816.547 819.098C829.495 815.488 842.349 811.968 855.297 808.357C855.483 797.616 855.67 786.966 855.949 776.225C842.349 781.009 828.843 785.702 815.336 790.486Z" fill="white" stroke="#161616" stroke-width="3" stroke-miterlimit="10"/>
<path d="M811.05 826.229C827.072 822.257 843.001 818.286 859.022 814.314C858.463 818.918 858.184 824.153 858.37 829.839C859.022 844.822 863.121 857.097 866.94 865.581C853.62 869.914 840.299 874.336 826.979 878.669C821.669 861.159 816.36 843.739 811.05 826.229Z" fill="white" stroke="#161616" stroke-width="3" stroke-miterlimit="10"/>
<path d="M827.539 815.849C827.446 817.473 827.725 819.098 828.377 820.632C829.029 822.257 831.731 821.535 831.079 819.91C830.52 818.556 830.333 817.203 830.333 815.849C830.427 814.134 827.632 814.134 827.539 815.849Z" fill="#161616"/>
<path d="M836.108 814.404C835.921 815.848 836.201 817.292 836.76 818.556C837.039 819.188 837.691 819.729 838.437 819.459C839.089 819.278 839.741 818.466 839.368 817.834C838.902 816.661 838.716 815.578 838.809 814.404C838.902 813.682 838.157 813.05 837.412 813.05C836.667 813.05 836.108 813.682 836.108 814.404Z" fill="#161616"/>
<path d="M824.278 880.835C826.234 889.68 834.991 897.713 842.163 903.129C850.081 909.086 859.396 912.606 869.27 913.689C871.039 913.87 871.039 911.162 869.27 910.981C859.675 909.898 850.453 906.288 842.908 900.241C836.574 895.186 828.75 887.965 826.98 880.113C826.607 878.398 823.906 879.12 824.278 880.835Z" fill="#161616"/>
<path d="M830.799 878.488C839.927 891.937 852.037 904.393 869.176 907.1C870.946 907.371 871.691 904.754 869.922 904.483C853.434 901.865 841.977 890.041 833.128 877.134C832.196 875.6 829.774 876.954 830.799 878.488Z" fill="#161616"/>
<path d="M870.667 905.476C871.319 902.678 872.25 899.97 873.647 897.352C874.206 896.36 875.045 895.367 875.417 894.374C874.579 892.749 874.3 892.839 874.765 894.554C874.952 895.457 875.045 896.36 875.138 897.352C875.324 899.88 875.138 902.317 874.858 904.844C874.765 905.927 874.858 909.628 874.113 910.44C873.368 911.252 871.691 911.162 870.76 911.252C868.99 911.342 868.99 914.05 870.76 913.96C872.623 913.87 874.579 914.682 876.069 913.148C877.56 911.523 877.28 908.364 877.56 906.378C878.026 902.948 878.212 899.428 877.839 895.908C877.653 894.284 877.746 892.027 876.163 891.215C875.79 891.034 875.138 890.944 874.765 891.215C870.946 894.103 868.99 900.602 867.965 904.844C867.5 906.469 870.201 907.191 870.667 905.476Z" fill="#161616"/>
<path d="M852.316 871.268C860.979 881.467 874.393 886.341 887.806 884.626C889.576 884.355 888.831 881.828 887.061 882.008C874.579 883.633 862.19 878.759 854.272 869.372C853.155 868.018 851.198 869.914 852.316 871.268Z" fill="#161616"/>
<path d="M844.864 874.697C855.296 885.618 870.107 891.666 885.477 891.214C887.247 891.124 887.247 888.416 885.477 888.507C870.759 888.958 856.787 883.272 846.82 872.802C845.702 871.448 843.653 873.433 844.864 874.697Z" fill="#161616"/>
<path d="M889.855 882.91C890.321 881.195 890.88 879.481 891.532 877.856C891.718 877.314 893.395 872.17 894.047 872.17C893.581 871.809 893.115 871.538 892.743 871.177C893.674 873.885 893.022 877.675 892.743 880.383C892.37 883.723 891.625 886.972 890.694 890.221C890.228 891.936 892.929 892.658 893.395 890.943C894.42 887.514 895.165 883.994 895.537 880.383C895.817 877.405 896.469 873.343 895.444 870.455C895.258 869.913 894.699 869.462 894.14 869.462C889.948 869.733 888.085 879.12 887.247 882.188C886.688 883.903 889.39 884.625 889.855 882.91Z" fill="#161616"/>
<path d="M884.453 891.034C886.688 891.937 889.017 892.298 891.439 891.847C893.209 891.576 892.463 888.958 890.694 889.229C889.11 889.5 887.433 889.319 885.85 888.688C884.266 887.966 882.776 890.312 884.453 891.034Z" fill="#161616"/>
<path d="M833.5 891.937C833.873 889.77 835.829 888.417 838.065 888.687C839.834 888.868 839.834 886.16 838.065 885.98C834.711 885.618 831.358 887.965 830.799 891.215C830.426 892.929 833.128 893.651 833.5 891.937Z" fill="#161616"/>
<path d="M841.698 899.97C842.07 898.164 843.467 896.901 845.237 896.54C847.007 896.179 846.262 893.561 844.492 893.922C841.791 894.464 839.555 896.54 838.996 899.157C838.624 900.962 841.232 901.684 841.698 899.97Z" fill="#161616"/>
<path d="M850.359 906.378C851.011 904.483 852.595 903.129 854.644 902.768C856.414 902.407 855.669 899.789 853.899 900.15C850.918 900.692 848.59 902.858 847.658 905.656C847.099 907.281 849.801 908.003 850.359 906.378Z" fill="#161616"/>
<path d="M859.489 903.219C857.346 904.663 856.322 907.01 856.787 909.537C857.067 911.252 859.768 910.53 859.489 908.815C859.302 907.551 859.861 906.288 860.886 905.566C862.376 904.573 860.979 902.226 859.489 903.219Z" fill="#161616"/>
<path d="M873.927 895.457C872.157 900.06 873.088 906.017 873.088 910.891C873.088 912.606 875.883 912.606 875.883 910.891C875.883 906.288 874.951 900.511 876.628 896.179C877.187 894.554 874.485 893.832 873.927 895.457Z" fill="#161616"/>
<path d="M858.93 881.918C858.93 880.474 859.861 879.21 861.352 878.849C863.121 878.398 862.376 875.78 860.606 876.232C857.998 876.864 856.135 879.301 856.135 881.918C856.135 883.633 858.93 883.633 858.93 881.918Z" fill="#161616"/>
<path d="M851.384 877.134C852.13 875.69 853.527 874.788 855.204 874.517C855.949 874.427 856.321 873.524 856.135 872.892C855.949 872.08 855.203 871.809 854.458 871.989C852.13 872.351 850.08 873.795 848.962 875.871C848.217 877.315 850.639 878.669 851.384 877.134Z" fill="#161616"/>
<path d="M873.927 887.243C873.927 886.521 874.3 885.889 875.045 885.528C876.628 884.716 875.231 882.369 873.647 883.182C872.064 883.994 871.132 885.619 871.226 887.243C871.132 888.958 873.927 888.958 873.927 887.243Z" fill="#161616"/>
<path d="M822.135 802.49C823.998 802.49 825.861 802.49 827.724 802.49C829.494 802.49 829.494 799.783 827.724 799.783C825.861 799.783 823.998 799.783 822.135 799.783C820.366 799.783 820.366 802.49 822.135 802.49Z" fill="#161616"/>
<path d="M844.398 796.714C845.796 795.36 847.193 794.006 848.59 792.652C849.894 791.388 847.845 789.493 846.634 790.757C845.237 792.11 843.839 793.464 842.442 794.818C841.231 795.992 843.187 797.887 844.398 796.714Z" fill="#161616"/>
<path d="M833.873 806.462C836.481 807.274 839.275 806.101 840.673 803.935C841.604 802.4 839.182 801.046 838.251 802.581C837.505 803.844 836.015 804.296 834.618 803.935C832.848 803.393 832.196 806.011 833.873 806.462Z" fill="#161616"/>
<path d="M852.875 834.622C848.031 835.976 843.188 837.33 838.344 838.684C837.692 837.42 836.854 835.615 836.481 833.268C836.015 830.651 836.202 828.485 836.481 827.041C841.697 826.048 846.914 825.055 852.13 824.062C851.664 825.416 851.198 827.763 851.664 830.561C851.944 832.276 852.409 833.629 852.875 834.622Z" fill="#4F4D4D"/>
<path opacity="0.24" d="M825.023 787.508C825.303 796.534 825.675 805.65 825.955 814.676C835.549 812.239 845.144 809.892 854.738 807.455C854.831 797.526 854.924 787.688 854.924 777.76C845.051 781.099 834.99 784.258 825.023 787.508Z" fill="#666666"/>
<path opacity="0.24" d="M825.489 825.597C826.793 831.735 828.47 838.233 830.332 844.912C833.406 855.653 836.946 865.491 840.579 874.337C848.962 871.539 857.253 868.831 865.636 866.033C863.587 861.791 861.631 856.736 860.047 850.96C856.414 837.24 856.88 825.236 857.998 817.022C847.099 819.82 836.294 822.709 825.489 825.597Z" fill="#666666"/>
<path d="M336.362 106.325C336.735 113.636 337.387 124.287 338.598 137.013C341.579 168.694 343.348 196.042 350.894 217.704C356.576 234.041 369.989 264.639 403.523 295.417C401.567 301.645 398.4 309.498 393.09 317.982C386.57 328.362 379.118 335.763 373.529 340.547C345.957 314.462 331.519 288.467 323.88 271.679C305.157 230.341 304.692 192.703 304.319 164.813C304.039 142.158 305.996 123.113 308.045 109.484C304.692 106.415 299.568 101.632 293.141 95.9454C281.404 85.6559 276.933 82.3163 277.678 80.8722C278.33 79.6086 283.174 79.6988 303.294 86.6488C285.969 65.0769 278.237 53.5238 280.1 51.8089C281.777 50.2745 291.092 56.7731 308.138 71.3048C295.47 40.7973 293.42 31.6812 295.097 30.8689C296.774 30.0565 303.294 37.3675 321.552 66.7016C318.664 43.0538 319.595 37.7285 321.086 37.3675C323.694 36.8259 329.469 51.5381 331.146 55.9608C335.058 66.0698 337.201 74.7346 338.318 80.6014C354.061 68.597 357.228 69.6801 357.973 70.4022C360.674 72.7489 353.502 84.6631 351.732 87.6416C346.609 96.3064 340.74 102.444 336.362 106.325Z" fill="white" stroke="#161616" stroke-width="2" stroke-miterlimit="10"/>
<path opacity="0.15" d="M295.935 32.3125C294.352 33.1248 300.22 48.2883 307.859 61.1953C310.001 64.7154 311.305 66.4303 322.576 82.8574C327.14 89.5365 330.866 94.952 333.381 98.5624C330.121 111.56 326.582 129.431 325.65 150.912C324.998 165.895 323.973 195.591 334.779 231.152C346.516 269.783 366.915 297.673 381.819 314.552C388.992 308.324 396.164 302.096 403.337 295.868C372.504 267.166 358.904 238.373 352.663 222.036C343.814 198.75 341.392 176.365 339.25 156.87C336.921 136.561 336.642 119.412 336.828 106.866C341.579 103.256 348.658 96.9377 353.874 87.0995C354.992 84.9333 361.14 73.4705 358.066 70.9432C354.806 68.2355 342.976 76.9003 338.039 80.6009C327.14 45.6708 322.762 37.8183 320.993 38.1793C319.968 38.3598 319.688 41.2481 319.316 45.8513C318.571 55.2382 320.247 62.9102 321.831 67.6939C321.738 67.8744 321.738 67.8744 295.935 32.3125Z" fill="#666666"/>
<path opacity="0.2" d="M355.551 79.1567C351.732 80.8717 343.628 85.1138 337.201 94.1397C331.333 102.353 329.749 110.296 329.283 114.358C327.979 126.994 327.7 141.435 329.376 157.05C335.245 212.649 362.165 253.446 379.584 275.199C367.568 255.974 352.105 226.459 343.256 187.919C335.617 154.884 335.338 126.182 336.735 105.512C340.368 101.812 344.467 97.1182 348.379 91.3417C351.36 87.0092 353.688 82.8573 355.551 79.1567Z" fill="#666666"/>
<path d="M495.181 290.814C488.754 293.702 483.351 295.688 480.184 301.374C473.943 312.476 482.234 327.278 484.283 330.979C489.499 340.366 496.951 346.142 502.633 349.572C520.704 341.991 547.718 327.549 571.657 300.923C602.582 266.534 611.525 230.07 616.182 210.484C622.423 183.767 622.703 160.932 621.864 145.407C626.429 137.735 633.042 126.904 641.519 113.907C648.971 102.354 653.069 96.3063 651.486 94.6816C650.275 93.5082 645.617 94.5011 629.13 105.964C635.092 83.4895 637.048 71.8462 634.905 71.0338C632.856 70.3118 627.081 79.4279 617.579 98.4725C618.977 72.478 618.325 59.3002 615.623 58.9392C612.829 58.4879 607.706 72.6585 600.254 101.27C595.876 81.5038 592.709 71.7559 590.659 71.9364C588.237 72.2072 587.492 86.1973 588.237 113.816C574.172 106.325 566.161 103.617 564.205 105.874C561.504 109.033 570.539 121.488 591.311 143.421C591.777 151.906 591.684 165.444 588.331 181.42C586.654 189.453 574.731 245.955 534.118 268.339C520.984 275.65 508.781 284.676 495.181 290.814Z" fill="white" stroke="#161616" stroke-width="2" stroke-miterlimit="10"/>
<path opacity="0.16" d="M634.906 70.8534C633.415 70.4021 630.9 78.7059 620.654 92.9668C618.232 96.3967 617.114 97.6603 616.182 100.368C613.667 108.221 618.139 113.185 617.952 119.774C617.766 124.467 615.251 131.056 603.7 138.999C605.657 145.768 607.799 155.426 608.451 167.069C610.966 213.552 585.816 247.58 577.06 261.751C568.769 275.199 543.992 310.039 483.724 331.43C484.19 333.687 485.867 339.915 491.642 344.879C495.181 347.948 498.907 349.302 501.143 349.843C513.625 344.879 530.951 336.395 548.836 322.134C577.06 299.569 590.753 274.928 597.273 262.834C623.634 214.275 623.634 166.889 621.865 143.241C627.174 135.118 631.832 127.987 635.464 122.391C648.505 102.354 652.604 95.9454 651.02 94.411C650.182 93.5986 647.387 93.9597 638.352 99.9167C635.278 101.722 632.204 103.617 629.13 105.423C635.744 78.4352 636.21 71.2145 634.906 70.8534Z" fill="#666666"/>
<path opacity="0.28" d="M638.724 117.247C617.3 129.973 612.27 140.804 611.804 148.566C611.618 151.635 612.177 152.447 612.829 159.758C612.829 159.758 612.27 173.117 612.456 189.815C612.736 213.643 602.583 235.215 590.194 261.39C583.673 275.109 573.986 293.161 559.641 312.927C569.98 302.999 581.065 290.273 591.032 274.477C622.889 223.481 622.889 171.492 621.026 146.49C626.894 136.652 632.763 126.904 638.724 117.247Z" fill="#666666"/>
<path opacity="0.11" d="M563.926 107.408C584.698 117.698 590.566 119.413 591.219 118.51C591.777 117.607 588.331 114.087 585.164 112.102C583.86 111.289 582.09 110.477 578.55 109.033C572.216 106.415 570.539 106.235 569.328 106.235C566.907 106.144 565.044 106.867 563.926 107.408Z" fill="#666666"/>
<path d="M286.9 676.399C286.155 680.911 290.44 686.237 298.823 696.978C303.294 702.664 307.393 706.996 310.094 709.794C305.903 717.105 298.544 732.81 302.177 751.584C303.294 757.631 305.251 767.65 310.839 768.914C320.527 771.17 334.965 745.627 340.647 733.532C347.075 719.903 349.869 707.538 351.266 698.783C341.579 686.146 331.798 673.51 322.111 660.874C302.829 662.499 288.111 668.456 286.9 676.399Z" fill="#161616" stroke="#161616" stroke-width="2" stroke-miterlimit="10"/>
<path d="M400.914 483.516C407.062 528.374 397.561 546.065 386.849 553.647C377.161 560.506 367.567 558.25 344.652 564.658C324.625 570.345 309.256 578.468 299.102 584.786C300.406 593.812 303.108 605.365 308.51 617.911C317.08 637.768 329.003 651.758 337.48 660.152C335.803 663.582 328.817 676.76 312.516 683.439C299.289 688.945 287.365 686.959 282.987 686.056C268.084 672.698 245.169 647.877 234.829 611.322C230.638 596.429 225.514 577.204 233.059 555.723C237.81 542.274 245.169 534.692 259.98 519.529C264.823 514.565 285.968 493.354 323.414 474.039C345.304 462.756 356.389 457.07 369.523 459.687C386.197 463.208 396.536 476.746 400.914 483.516Z" fill="#383838"/>
<path opacity="0.21" d="M379.117 480.808C364.027 489.653 343.069 502.56 318.85 519.439C276.933 548.683 257.744 564.297 250.851 580.544C244.144 596.339 248.895 625.222 309.442 682.536C312.702 681.905 317.825 680.37 322.948 676.94C331.239 671.434 335.058 664.033 336.455 660.694C329.655 653.924 321.551 644.357 314.285 631.721C303.946 613.669 299.847 596.791 298.077 585.328C317.08 572.421 333.754 567.095 345.863 564.658C363.934 560.958 378.558 562.402 389.736 551.21C395.418 545.524 397.654 539.025 399.703 533.068C405.479 516.37 403.336 501.568 401.566 493.896C394.114 489.653 386.569 485.231 379.117 480.808Z" fill="#666666"/>
<path opacity="0.16" d="M373.529 493.534C371.573 501.838 368.406 511.135 363.655 520.883C347.075 554.459 319.782 573.052 304.599 581.717C316.801 573.864 327.607 569.713 335.245 567.366C337.853 566.554 340.554 565.831 369.151 558.611C382.192 555.271 385.918 554.369 389.83 550.758C392.159 548.592 395.978 544.169 398.959 528.103C400.449 519.89 401.94 507.885 400.915 492.993C391.693 493.173 382.565 493.354 373.529 493.534Z" fill="#666666"/>
<path opacity="0.17" d="M298.171 582.8C295.656 594.263 292.675 616.286 300.5 642.01C305.437 658.257 313.168 670.532 319.129 678.565C321.924 677.03 325.836 674.413 329.655 670.261C332.916 666.651 334.965 663.131 336.269 660.423C329.469 653.653 321.272 644.086 314.099 631.359C303.294 612.225 299.568 594.353 298.171 582.8Z" fill="#666666"/>
<path d="M351.825 671.886C357.973 680.28 364.214 688.584 370.362 696.978C367.009 705.552 358.532 730.915 371.014 750.952C373.156 754.382 376.976 760.52 382.285 760.61C393.556 760.791 401.846 733.713 403.523 728.478C406.318 719.542 409.205 705.733 407.528 687.952C403.337 661.867 383.775 647.787 370.362 650.675C358.066 653.293 352.477 670.081 351.825 671.886Z" fill="#161616" stroke="#161616" stroke-width="2" stroke-miterlimit="10"/>
<path d="M467.051 480.538C474.968 528.916 458.853 545.705 452.985 550.669C447.489 555.272 442.18 557.077 412.465 566.645C401.38 570.255 385.079 575.49 365.145 581.808C366.449 590.834 369.151 602.387 374.553 614.933C383.123 634.79 395.046 648.78 403.523 657.174C401.846 660.604 394.86 673.782 378.559 680.461C365.332 685.967 353.408 683.981 349.03 683.078C334.126 669.72 311.212 644.899 300.872 608.344C296.68 593.451 291.557 574.226 299.102 552.745C303.853 539.296 311.212 531.714 326.022 516.551C330.866 511.587 352.011 490.376 389.457 471.061C411.347 459.778 422.432 454.092 435.566 456.709C452.426 460.139 462.673 473.768 467.051 480.538Z" fill="#383838"/>
<path opacity="0.21" d="M405.759 478.552C402.778 487.488 396.909 501.929 385.732 517.183C357.973 554.911 326.675 557.168 317.733 578.288C311.026 594.083 315.776 622.966 376.323 680.28C379.956 678.836 384.614 676.67 389.458 673.15C396.444 668.096 400.822 662.409 403.43 658.438C396.537 651.488 388.526 641.921 381.26 629.465C370.548 610.962 366.077 593.722 364.028 581.808C385.173 574.858 402.219 569.714 413.583 566.284C436.312 559.605 447.955 556.716 456.991 545.614C462.58 538.665 464.908 531.354 466.399 526.57C471.056 511.858 469.752 499.041 468.448 491.64C447.583 487.398 426.717 482.975 405.759 478.552Z" fill="#666666"/>
<path opacity="0.16" d="M440.41 491.188C438.454 499.582 435.38 508.879 430.536 518.536C411.348 556.535 377.162 575.129 361.14 582.44C377.348 577.475 391.973 572.963 404.734 568.991C404.734 568.991 411.348 566.915 427.556 561.319C448.235 554.098 451.774 552.293 455.314 548.863C461.555 542.726 463.232 535.866 465.747 525.847C467.61 518.175 469.659 506.081 467.703 490.737C458.667 490.917 449.539 491.098 440.41 491.188Z" fill="#666666"/>
<path opacity="0.17" d="M365.053 580.544C362.538 592.007 359.557 614.03 367.381 639.754C372.318 656.001 380.05 668.276 386.011 676.309C388.806 674.775 392.718 672.157 396.537 668.005C399.797 664.395 401.847 660.875 403.151 658.167C396.351 651.398 388.154 641.83 380.981 629.104C370.176 609.969 366.45 592.098 365.053 580.544Z" fill="#666666"/>
<path d="M401.101 289.46C383.03 302.457 374.46 322.404 372.504 327.098C371.293 329.896 367.847 338.741 366.263 350.926C364.4 364.826 365.891 376.469 367.381 384.141C368.033 394.882 367.66 412.663 359.929 432.881C354.433 447.412 346.981 458.243 341.113 465.554C353.036 474.4 375.485 488.751 407.435 495.43C433.051 500.846 454.848 499.221 468.541 497.055C476.552 475.122 484.376 450.12 490.804 422.32C496.858 396.145 500.864 371.776 503.379 349.752C499.373 347.857 487.637 341.9 481.675 328.722C481.303 327.91 472.733 308.324 482.234 296.59C487.916 289.64 495.927 290.452 495.927 288.286C495.927 282.51 439.106 262.202 401.101 289.46Z" fill="white" stroke="#161616" stroke-width="2" stroke-miterlimit="10"/>
<path opacity="0.13" d="M425.972 279.982C424.109 283.232 423.457 291.897 423.457 296.77C423.457 301.915 424.016 306.248 424.668 309.316C424.668 317.349 433.61 357.063 427.369 394.791C420.196 438.116 396.071 471.511 384.334 486.043C393.742 490.285 407.808 495.34 425.599 497.596C443.297 499.762 458.108 498.318 468.355 496.603C475.061 478.01 481.396 457.521 486.984 435.227C494.623 404.72 499.373 376.288 502.261 350.926C497.417 347.857 482.141 337.387 478.415 319.245C477.39 314.01 475.527 305.165 481.023 297.222C485.96 290.001 493.878 287.745 496.672 287.113C460.344 273.935 431.002 271.137 425.972 279.982Z" fill="#666666"/>
<path opacity="0.17" d="M478.601 325.292C479.812 341.087 479.533 360.583 475.062 382.335C463.418 439.469 430.257 477.649 412.372 495.339C419.824 497.235 429.791 499.04 441.621 499.04C452.24 499.13 461.275 497.776 468.262 496.242C481.209 462.846 492.667 423.945 499.094 380.079C500.584 369.97 501.795 360.132 502.634 350.474C498.535 348.127 492.946 344.246 487.544 338.289C483.352 333.596 480.464 328.993 478.601 325.292Z" fill="#666666"/>
<path opacity="0.14" d="M415.073 292.98C419.731 301.464 428.673 306.789 438.267 306.97C453.358 307.331 465.56 294.785 463.79 290.362C462.579 287.294 453.358 285.488 415.073 292.98Z" fill="#666666"/>
<path d="M389.364 175.553C386.383 175.283 383.589 190.807 377.161 214.816C367.101 252.634 361.046 262.382 367.381 275.379C368.498 277.636 372.97 286.662 382.75 290.272C392.997 294.063 407.807 291.536 414.98 283.051C431.281 263.736 399.051 223.481 392.158 182.503C391.786 180.698 391.041 175.734 389.364 175.553Z" fill="#0A0A0A"/>
<path d="M416.004 269.964C416.842 273.304 417.774 278.449 416.936 284.586C416.47 288.377 415.445 291.536 414.514 294.063C418.519 295.146 424.667 296.32 432.026 295.959C440.689 295.507 447.489 293.071 451.494 291.265C450.097 288.287 448.793 285.037 447.582 281.337C445.439 274.929 444.321 268.971 443.669 263.827C442.365 265.361 437.987 269.874 430.535 271.408C423.549 272.853 417.96 270.777 416.004 269.964Z" fill="white" stroke="#161616" stroke-width="2" stroke-miterlimit="10"/>
<path d="M390.202 185.933C380.98 209.4 381.632 241.261 400.076 264.007C402.963 267.617 405.758 270.234 407.621 271.859C420.476 273.032 430.349 271.047 436.311 269.332C440.503 268.158 444.787 266.895 449.352 263.916C459.505 257.327 463.697 247.399 465.28 242.525C468.261 244.872 470.59 245.233 472.173 245.142C480.557 244.601 489.22 229.528 484.096 219.419C481.302 213.913 475.34 211.656 472.919 210.934C471.056 203.804 464.256 181.781 442.831 169.415C437.336 166.256 420.848 156.779 406.783 163.278C397.468 167.52 393.835 176.726 390.202 185.933Z" fill="white" stroke="#161616" stroke-width="2" stroke-miterlimit="10"/>
<path d="M418.52 275.38C418.241 275.47 417.868 275.56 417.589 275.741C416.098 276.282 416.378 278.268 417.961 278.358C425.693 279.08 435.287 274.116 441.528 270.054C443.018 269.062 441.621 266.715 440.131 267.708C434.262 271.499 425.227 276.282 417.961 275.65C418.054 276.553 418.241 277.456 418.334 278.268C418.613 278.178 418.986 278.087 419.265 277.907C420.942 277.365 420.197 274.748 418.52 275.38Z" fill="#161616"/>
<path d="M418.799 276.643C424.761 275.831 430.629 274.296 436.218 272.13C437.895 271.498 437.15 268.881 435.473 269.513C429.791 271.679 424.016 273.213 418.054 274.026C416.284 274.296 417.029 276.914 418.799 276.643Z" fill="#161616"/>
<path d="M419.172 275.199C421.221 275.38 423.363 275.289 425.413 274.748C427.182 274.296 426.437 271.679 424.667 272.13C422.898 272.581 421.035 272.672 419.172 272.491C417.402 272.311 417.402 275.018 419.172 275.199Z" fill="#161616"/>
<path d="M436.405 228.986C438.174 228.986 438.174 226.278 436.405 226.278C434.635 226.278 434.635 228.986 436.405 228.986Z" fill="#161616"/>
<path d="M445.067 227.633C445.067 227.542 445.067 227.452 445.067 227.452C445.067 226.73 444.415 226.098 443.67 226.098C442.925 226.098 442.273 226.73 442.273 227.452C442.273 227.542 442.273 227.633 442.273 227.633C442.273 228.355 442.925 228.986 443.67 228.986C444.415 228.896 445.067 228.355 445.067 227.633Z" fill="#161616"/>
<path d="M440.689 234.221C442.459 234.221 442.459 231.514 440.689 231.514C438.919 231.514 438.919 234.221 440.689 234.221Z" fill="#161616"/>
<path d="M392.903 222.848C394.673 222.848 394.673 220.141 392.903 220.141C391.133 220.141 391.133 222.848 392.903 222.848Z" fill="#161616"/>
<path d="M399.517 220.863C401.287 220.863 401.287 218.155 399.517 218.155C397.747 218.155 397.654 220.863 399.517 220.863Z" fill="#161616"/>
<path d="M397.934 227.181C399.704 227.181 399.704 224.474 397.934 224.474C396.071 224.474 396.071 227.181 397.934 227.181Z" fill="#161616"/>
<path d="M385.452 202.992C383.589 200.555 379.024 193.876 379.211 184.76C379.304 178.441 381.539 173.838 382.75 171.401C386.942 163.097 393.276 158.584 398.492 155.064C403.336 151.725 412.372 145.587 425.226 144.414C442.273 142.789 455.22 150.913 464.163 156.599C481.395 167.52 489.22 181.691 490.897 184.76C493.784 190.175 495.275 194.869 497.603 201.909C500.118 209.671 500.118 211.837 504.31 229.708C508.409 247.309 508.968 247.941 508.595 251.822C507.477 265.09 498.628 274.025 497.231 275.47C484.749 287.745 468.541 287.113 463.045 286.932C455.593 286.662 452.426 284.676 451.215 283.864C443.856 278.719 443.39 269.061 443.39 267.075C446.278 265.451 450.097 262.924 453.637 259.042C460.53 251.551 462.672 243.337 463.418 239.276C470.59 241.352 477.763 238.644 480.743 233.589C484.935 226.188 479.067 215.448 472.453 214.545C471.428 214.364 468.634 214.274 465.001 217.253C462.02 210.574 456.711 200.916 447.303 191.348C435.752 179.525 423.363 173.477 415.911 170.408C411.72 172.123 405.479 175.373 399.424 181.059C390.482 189.182 386.942 198.298 385.452 202.992Z" fill="#0A0A0A"/>
<path opacity="0.14" d="M440.409 184.309C444.228 190.266 450.19 201.638 449.911 216.441C449.352 251.281 414.793 270.776 412.651 271.86C414.886 272.221 436.683 275.56 451.867 260.577C459.878 252.634 462.299 243.428 463.045 239.186C464.628 239.727 468.168 240.54 472.266 239.366C473.291 239.096 479.253 237.381 481.209 231.965C482.14 229.528 481.861 227.272 481.675 226.008C481.581 224.474 481.209 220.863 478.414 217.704C477.39 216.621 475.806 214.816 473.198 214.274C469.006 213.462 465.746 216.441 465.28 216.802C463.138 211.838 459.878 205.7 455.034 199.201C449.817 192.793 444.694 187.829 440.409 184.309Z" fill="#666666"/>
<path opacity="0.18" d="M437.523 294.785C434.728 287.113 431.934 279.351 429.232 271.679C433.797 270.235 438.454 268.7 443.019 267.256C445.534 275.199 447.955 283.232 450.471 291.175C446.186 292.439 441.901 293.612 437.523 294.785Z" fill="#666666"/>
<path opacity="0.21" d="M464.07 235.214C461.741 240.269 457.642 247.67 450.283 254.71C438.174 266.354 424.388 270.144 418.147 271.498C420.848 271.679 437.149 272.762 449.259 263.014C455.872 257.689 459.319 250.919 459.319 250.919C461.089 247.399 462.113 243.789 462.579 242.255C463.324 239.457 463.79 237.02 464.07 235.214Z" fill="#666666"/>
<path opacity="0.18" d="M443.67 293.702C440.968 285.759 438.36 277.726 435.659 269.783C437.987 269.061 440.316 268.249 442.645 267.527C445.16 275.47 447.768 283.412 450.283 291.355C448.141 292.077 445.905 292.89 443.67 293.702Z" fill="#666666"/>
<path d="M416.004 203.263C413.489 212.921 411.44 222.669 409.763 232.507C409.484 234.131 408.925 236.027 410.695 236.929C412.744 238.012 417.681 236.478 419.824 236.027C421.593 235.666 420.848 233.048 419.078 233.409C417.588 233.77 414.887 234.583 413.489 234.402C411.626 234.131 412.092 234.492 412.651 232.416C413.396 229.348 413.769 226.008 414.421 222.939C415.725 216.621 417.122 210.303 418.706 204.075C419.172 202.36 416.47 201.638 416.004 203.263Z" fill="#161616"/>
<path d="M392.624 212.469C396.257 208.408 402.591 208.317 406.317 212.199C407.248 213.191 408.739 211.747 407.807 210.754C403.336 206.061 395.511 206.151 391.133 211.025C390.295 212.018 391.785 213.462 392.624 212.469Z" fill="#161616"/>
<path d="M430.909 213.462C435.846 210.394 442.459 211.748 445.627 216.622C446.372 217.705 448.142 216.712 447.396 215.629C443.67 209.852 435.753 208.047 429.791 211.748C428.673 212.379 429.791 214.185 430.909 213.462Z" fill="#161616"/>
<path d="M398.399 196.854C401.752 195.139 405.478 195.23 408.739 197.035C409.949 197.667 410.974 195.952 409.763 195.32C405.851 193.154 401.287 193.063 397.281 195.139C396.163 195.681 397.188 197.486 398.399 196.854Z" fill="#161616"/>
<path d="M432.026 197.395C436.591 196.673 440.969 197.847 444.601 200.464C445.719 201.277 446.744 199.471 445.626 198.749C441.434 195.771 436.497 194.688 431.467 195.41C430.163 195.681 430.722 197.576 432.026 197.395Z" fill="#161616"/>
<path d="M402.312 247.489C412.558 250.558 423.363 248.302 431.467 241.532C432.492 240.72 431.002 239.276 429.977 240.088C422.432 246.406 412.372 248.392 402.87 245.504C401.566 245.052 401.007 247.038 402.312 247.489Z" fill="#161616"/>
</svg>
