<svg width="1570" height="471" viewBox="0 0 1570 471" fill="none" xmlns="http://www.w3.org/2000/svg">
<path d="M448.55 7.5H453.73V24.65H464.79L472.42 12.4C474.707 8.66666 477.74 6.8 481.52 6.8C482.92 6.8 484.297 6.96333 485.65 7.29L484.74 11.84C483.947 11.7 483.153 11.63 482.36 11.63C479.933 11.63 477.857 12.9833 476.13 15.69L469.13 26.61L486.28 53H480.26L465 29.13H453.73V53H448.55V7.5ZM509.785 7.5H515.945L535.545 53H530.015L523.505 37.67H501.875L495.505 53H490.115L509.785 7.5ZM512.235 12.89L503.695 33.33H521.685L513.215 12.89H512.235ZM541.861 7.5H547.041V24.65H558.101L565.731 12.4C568.017 8.66666 571.051 6.8 574.831 6.8C576.231 6.8 577.607 6.96333 578.961 7.29L578.051 11.84C577.257 11.7 576.464 11.63 575.671 11.63C573.244 11.63 571.167 12.9833 569.441 15.69L562.441 26.61L579.591 53H573.571L558.311 29.13H547.041V53H541.861V7.5ZM616.32 26.89H639.56C639 22.2233 637.04 18.42 633.68 15.48C630.367 12.54 626.214 11.07 621.22 11.07C615.947 11.07 611.21 12.5167 607.01 15.41L604.77 11.28C609.297 8.15333 614.78 6.59 621.22 6.59C628.22 6.59 633.914 8.73666 638.3 13.03C642.687 17.3233 644.88 23.04 644.88 30.18C644.88 37.6 642.594 43.41 638.02 47.61C633.494 51.81 628.034 53.91 621.64 53.91C615.014 53.91 609.484 52.51 605.05 49.71L606.38 45.09C608.714 46.5833 610.977 47.6567 613.17 48.31C615.364 48.9167 617.954 49.22 620.94 49.22C626.167 49.22 630.507 47.6567 633.96 44.53C637.414 41.4033 639.304 36.9933 639.63 31.3H616.32V26.89ZM646.341 11.98V7.5H679.591V11.98H665.591V53H660.341V11.98H646.341ZM692.463 16.32C688.776 19.82 686.933 24.4633 686.933 30.25C686.933 36.0367 688.776 40.68 692.463 44.18C696.196 47.68 700.723 49.43 706.043 49.43C711.363 49.43 715.866 47.68 719.553 44.18C723.286 40.68 725.153 36.0367 725.153 30.25C725.153 24.4633 723.286 19.82 719.553 16.32C715.866 12.82 711.363 11.07 706.043 11.07C700.723 11.07 696.196 12.82 692.463 16.32ZM730.403 30.25C730.403 37.2033 728.069 42.8967 723.403 47.33C718.783 51.7167 712.996 53.91 706.043 53.91C699.043 53.91 693.233 51.7167 688.613 47.33C683.993 42.9433 681.683 37.25 681.683 30.25C681.683 23.2967 683.993 17.6267 688.613 13.24C693.279 8.80666 699.089 6.59 706.043 6.59C713.043 6.59 718.853 8.78333 723.473 13.17C728.093 17.5567 730.403 23.25 730.403 30.25ZM758.423 7.5H773.823C779.003 7.5 783.25 8.76 786.563 11.28C789.876 13.7533 791.533 17.16 791.533 21.5C791.533 25.98 789.9 29.48 786.633 32C783.366 34.52 779.096 35.78 773.823 35.78H763.673V53H758.423V7.5ZM763.673 11.98V31.23H772.773C781.78 31.23 786.283 27.9867 786.283 21.5C786.283 15.1533 781.78 11.98 772.773 11.98H763.673ZM810.84 7.5H817L836.6 53H831.07L824.56 37.67H802.93L796.56 53H791.17L810.84 7.5ZM813.29 12.89L804.75 33.33H822.74L814.27 12.89H813.29ZM842.915 7.5H871.825V11.98H848.165V25.35H858.875C864.149 25.35 868.325 26.54 871.405 28.92C874.485 31.3 876.025 34.73 876.025 39.21C876.025 43.5967 874.485 47.0033 871.405 49.43C868.325 51.81 864.219 53 859.085 53H842.915V7.5ZM848.165 29.83V48.52H858.105C862.445 48.52 865.619 47.7967 867.625 46.35C869.679 44.8567 870.705 42.4767 870.705 39.21C870.705 35.8033 869.632 33.4 867.485 32C865.385 30.5533 862.189 29.83 857.895 29.83H848.165ZM891.389 16.32C887.702 19.82 885.859 24.4633 885.859 30.25C885.859 36.0367 887.702 40.68 891.389 44.18C895.122 47.68 899.649 49.43 904.969 49.43C910.289 49.43 914.792 47.68 918.479 44.18C922.212 40.68 924.079 36.0367 924.079 30.25C924.079 24.4633 922.212 19.82 918.479 16.32C914.792 12.82 910.289 11.07 904.969 11.07C899.649 11.07 895.122 12.82 891.389 16.32ZM929.329 30.25C929.329 37.2033 926.995 42.8967 922.329 47.33C917.709 51.7167 911.922 53.91 904.969 53.91C897.969 53.91 892.159 51.7167 887.539 47.33C882.919 42.9433 880.609 37.25 880.609 30.25C880.609 23.2967 882.919 17.6267 887.539 13.24C892.205 8.80666 898.015 6.59 904.969 6.59C911.969 6.59 917.779 8.78333 922.399 13.17C927.019 17.5567 929.329 23.25 929.329 30.25ZM930.784 11.98V7.5H964.034V11.98H950.034V53H944.784V11.98H930.784ZM984.746 7.5H990.906L1010.51 53H1004.98L998.466 37.67H976.836L970.466 53H965.076L984.746 7.5ZM987.196 12.89L978.656 33.33H996.646L988.176 12.89H987.196ZM1016.82 53V7.5H1045.31V11.98H1022.07V27.03H1043V31.51H1022.07V48.45H1046.36V53H1016.82ZM1052.33 11.98V7.5H1085.58V11.98H1071.58V53H1066.33V11.98H1052.33ZM1106.14 41.1H1102.5C1101.94 40.0267 1101.66 38.6033 1101.66 36.83C1101.66 32.6767 1104.43 29.48 1109.99 27.24C1112.37 26.26 1114.14 25.07 1115.31 23.67C1116.52 22.2233 1117.13 20.3567 1117.13 18.07C1117.13 15.41 1116.19 13.38 1114.33 11.98C1112.46 10.5333 1109.66 9.81 1105.93 9.81C1100.84 9.81 1096.43 11.49 1092.7 14.85L1090.18 11.28C1094.47 7.26666 1099.88 5.26 1106.42 5.26C1111.32 5.26 1115.21 6.40333 1118.11 8.69C1121 10.93 1122.45 14.29 1122.45 18.77C1122.45 21.5233 1121.56 23.9733 1119.79 26.12C1118.01 28.2667 1115.73 29.8767 1112.93 30.95C1110.59 31.8367 1108.87 32.8167 1107.75 33.89C1106.67 34.9167 1106.14 36.34 1106.14 38.16V41.1ZM1101.38 46.63C1102.12 45.8367 1103.13 45.44 1104.39 45.44C1105.65 45.44 1106.65 45.8367 1107.4 46.63C1108.14 47.3767 1108.52 48.3333 1108.52 49.5C1108.52 50.6667 1108.14 51.6467 1107.4 52.44C1106.65 53.1867 1105.65 53.56 1104.39 53.56C1103.13 53.56 1102.12 53.1867 1101.38 52.44C1100.63 51.6467 1100.26 50.6667 1100.26 49.5C1100.26 48.3333 1100.63 47.3767 1101.38 46.63Z" fill="black"/>
<path d="M113.166 228.818C102.834 218.486 86.0817 218.486 75.7493 228.818C65.4169 239.151 65.4169 255.903 75.7493 266.235C86.0817 276.567 102.834 276.567 113.166 266.235C123.499 255.903 123.499 239.151 113.166 228.818ZM113.166 228.818L145.906 196.078M164.614 177.37L180.984 161M164.614 177.37L188 200.755M164.614 177.37L145.906 196.078M145.906 196.078L159.937 210.11" stroke="#1A0C21" stroke-width="9" stroke-linecap="round" stroke-linejoin="round"/>
<path d="M776.362 238.294L776.362 242.794L776.362 238.294ZM716.098 288.566C715.582 290.997 717.135 293.386 719.566 293.902C721.997 294.417 724.386 292.865 724.902 290.433L716.098 288.566ZM827.822 290.434C828.338 292.865 830.727 294.418 833.158 293.902C835.589 293.386 837.142 290.997 836.626 288.566L827.822 290.434ZM751.541 183.983L756.041 183.997C756.041 183.992 756.041 183.988 756.041 183.983H751.541ZM776.186 213.466L776.168 217.965C776.174 217.966 776.18 217.966 776.186 217.966V213.466ZM851.9 184.7C853.391 186.688 856.212 187.091 858.2 185.6C860.188 184.109 860.591 181.288 859.1 179.3L851.9 184.7ZM840.5 162L844.1 159.3C843.25 158.167 841.916 157.5 840.5 157.5C839.084 157.5 837.75 158.167 836.9 159.3L840.5 162ZM821.9 179.3C820.409 181.288 820.812 184.109 822.8 185.6C824.788 187.091 827.609 186.688 829.1 184.7L821.9 179.3ZM836 207C836 209.485 838.015 211.5 840.5 211.5C842.985 211.5 845 209.485 845 207H836ZM776.362 238.294L776.362 233.794C759.687 233.794 746.134 239.728 735.968 249.713C725.876 259.625 719.336 273.303 716.098 288.566L720.5 289.5L724.902 290.433C727.871 276.436 733.745 264.511 742.274 256.135C750.728 247.832 762.003 242.794 776.362 242.794L776.362 238.294ZM832.224 289.5L836.626 288.566C833.389 273.303 826.849 259.625 816.757 249.713C806.59 239.728 793.037 233.793 776.362 233.794L776.362 238.294L776.362 242.794C790.721 242.793 801.996 247.831 810.45 256.134C818.979 264.511 824.853 276.436 827.822 290.434L832.224 289.5ZM776.368 213.466V217.966C793.257 217.966 805.696 202.002 805.696 183.983H801.196H796.696C796.696 198.542 786.901 208.966 776.368 208.966V213.466ZM801.196 183.983H805.696C805.696 165.972 793.258 150 776.368 150V154.5V159C786.9 159 796.696 169.431 796.696 183.983H801.196ZM776.368 154.5V150C759.479 150 747.041 165.972 747.041 183.983H751.541H756.041C756.041 169.431 765.836 159 776.368 159V154.5ZM751.541 183.983L747.041 183.968C746.983 201.924 759.325 217.899 776.168 217.965L776.186 213.466L776.204 208.966C765.717 208.924 755.994 198.497 756.041 183.997L751.541 183.983ZM776.186 213.466V217.966H776.368V213.466V208.966H776.186V213.466ZM855.5 182L859.1 179.3L844.1 159.3L840.5 162L836.9 164.7L851.9 184.7L855.5 182ZM840.5 162L836.9 159.3L821.9 179.3L825.5 182L829.1 184.7L844.1 164.7L840.5 162ZM840.5 162H836V207H840.5H845V162H840.5Z" fill="#1A0C21"/>
<path d="M1042.97 221.132L1039.62 185.485C1038.96 178.542 1043.17 172.051 1049.67 169.508C1058.62 166.002 1071.67 160.442 1084.04 153.535C1097.31 146.118 1114.69 146.118 1127.96 153.535C1140.33 160.442 1153.38 166.002 1162.33 169.508C1168.83 172.051 1173.04 178.542 1172.38 185.485L1169.03 221.132C1166.52 247.805 1152.25 271.972 1130.12 287.062L1127.12 289.102C1114.38 297.788 1097.62 297.788 1084.88 289.102L1081.89 287.062C1059.75 271.972 1045.48 247.805 1042.97 221.132Z" fill="#83B5FA"/>
<path d="M1087.25 224.75L1097.48 236L1124.75 206M1039.62 185.485L1042.97 221.132C1045.48 247.805 1059.75 271.972 1081.89 287.062L1084.88 289.102C1097.62 297.788 1114.38 297.788 1127.12 289.102L1130.12 287.062C1152.25 271.972 1166.52 247.805 1169.03 221.132L1172.38 185.485C1173.04 178.542 1168.83 172.051 1162.33 169.508C1153.38 166.002 1140.33 160.442 1127.96 153.535C1114.69 146.118 1097.31 146.118 1084.04 153.535C1071.67 160.442 1058.62 166.002 1049.67 169.508C1043.17 172.051 1038.96 178.542 1039.62 185.485Z" stroke="#1A0C21" stroke-width="9" stroke-linecap="round" stroke-linejoin="round"/>
<path d="M303.037 207.333L320.167 224M320.167 224L303.037 240.667M320.167 224L261.833 224" stroke="#DD4F62" stroke-width="12" stroke-linecap="round" stroke-linejoin="round"/>
<path d="M629.037 196.333L646.167 213M646.167 213L629.037 229.667M646.167 213L587.833 213" stroke="#DD4F62" stroke-width="12" stroke-linecap="round" stroke-linejoin="round"/>
<path d="M955.037 204.333L972.167 221M972.167 221L955.037 237.667M972.167 221L913.833 221" stroke="#DD4F62" stroke-width="12" stroke-linecap="round" stroke-linejoin="round"/>
<path d="M1281.04 207.333L1298.17 224M1298.17 224L1281.04 240.667M1298.17 224L1239.83 224" stroke="#DD4F62" stroke-width="12" stroke-linecap="round" stroke-linejoin="round"/>
<path d="M1390.16 264.795C1389.5 267.19 1390.9 269.67 1393.3 270.336C1395.69 271.001 1398.17 269.599 1398.84 267.204L1390.16 264.795ZM1465.16 267.204C1465.83 269.599 1468.31 271.001 1470.7 270.336C1473.1 269.671 1474.5 267.19 1473.84 264.796L1465.16 267.204ZM1412.01 199.75L1416.5 199.767C1416.51 199.761 1416.51 199.756 1416.51 199.75H1412.01ZM1431.86 219.75L1431.84 224.25C1431.85 224.25 1431.85 224.25 1431.86 224.25V219.75ZM1454.5 150.5C1456.99 150.5 1459 148.485 1459 146C1459 143.515 1456.99 141.5 1454.5 141.5V150.5ZM1511.5 198.5C1511.5 196.015 1509.49 194 1507 194C1504.51 194 1502.5 196.015 1502.5 198.5H1511.5ZM1432 239.75L1432 235.25C1420.75 235.25 1411.44 238.299 1404.3 243.65C1397.17 248.996 1392.48 256.444 1390.16 264.795L1394.5 266L1398.84 267.204C1400.68 260.556 1404.33 254.879 1409.7 250.85C1415.06 246.827 1422.42 244.25 1432 244.25L1432 239.75ZM1469.5 266L1473.84 264.796C1471.52 256.444 1466.83 248.996 1459.7 243.65C1452.56 238.299 1443.25 235.25 1432 235.25L1432 239.75L1432 244.25C1441.58 244.25 1448.94 246.826 1454.3 250.85C1459.67 254.879 1463.32 260.556 1465.16 267.204L1469.5 266ZM1432 219.75V224.25C1445.53 224.25 1456.5 213.286 1456.5 199.75H1452H1447.5C1447.5 208.314 1440.57 215.25 1432 215.25V219.75ZM1452 199.75H1456.5C1456.5 186.22 1445.53 175.25 1432 175.25V179.75V184.25C1440.56 184.25 1447.5 191.19 1447.5 199.75H1452ZM1432 179.75V175.25C1418.47 175.25 1407.51 186.22 1407.51 199.75H1412.01H1416.51C1416.51 191.19 1423.45 184.25 1432 184.25V179.75ZM1412.01 199.75L1407.51 199.733C1407.45 213.226 1418.35 224.205 1431.84 224.25L1431.86 219.75L1431.87 215.25C1423.35 215.222 1416.47 208.29 1416.5 199.767L1412.01 199.75ZM1431.86 219.75V224.25H1432V219.75V215.25H1431.86V219.75ZM1409.5 146V150.5H1454.5V146V141.5H1409.5V146ZM1507 198.5H1502.5V243.5H1507H1511.5V198.5H1507ZM1454.5 296V291.5H1409.5V296V300.5H1454.5V296ZM1357 243.5H1361.5V198.5H1357H1352.5V243.5H1357ZM1409.5 296V291.5C1382.99 291.5 1361.5 270.01 1361.5 243.5H1357H1352.5C1352.5 274.98 1378.02 300.5 1409.5 300.5V296ZM1507 243.5H1502.5C1502.5 270.01 1481.01 291.5 1454.5 291.5V296V300.5C1485.98 300.5 1511.5 274.98 1511.5 243.5H1507ZM1409.5 146V141.5C1378.02 141.5 1352.5 167.02 1352.5 198.5H1357H1361.5C1361.5 171.99 1382.99 150.5 1409.5 150.5V146Z" fill="#1A0C21"/>
<path d="M1465.75 168.5L1477 179.75L1503.25 146" stroke="#83B5FA" stroke-width="9" stroke-linecap="round" stroke-linejoin="round"/>
<path d="M499 191C511.426 191 521.5 180.926 521.5 168.5C521.5 156.074 511.426 146 499 146C486.574 146 476.5 156.074 476.5 168.5C476.5 180.926 486.574 191 499 191Z" fill="#83B5FA"/>
<path d="M409 243.5C421.426 243.5 431.5 233.426 431.5 221C431.5 208.574 421.426 198.5 409 198.5C396.574 198.5 386.5 208.574 386.5 221C386.5 233.426 396.574 243.5 409 243.5Z" fill="#83B5FA"/>
<path d="M499 296C511.426 296 521.5 285.926 521.5 273.5C521.5 261.074 511.426 251 499 251C486.574 251 476.5 261.074 476.5 273.5C476.5 285.926 486.574 296 499 296Z" fill="#83B5FA"/>
<path d="M428.425 232.325L479.65 262.175M479.575 179.825L428.425 209.675M521.5 168.5C521.5 180.926 511.426 191 499 191C486.574 191 476.5 180.926 476.5 168.5C476.5 156.074 486.574 146 499 146C511.426 146 521.5 156.074 521.5 168.5ZM431.5 221C431.5 233.426 421.426 243.5 409 243.5C396.574 243.5 386.5 233.426 386.5 221C386.5 208.574 396.574 198.5 409 198.5C421.426 198.5 431.5 208.574 431.5 221ZM521.5 273.5C521.5 285.926 511.426 296 499 296C486.574 296 476.5 285.926 476.5 273.5C476.5 261.074 486.574 251 499 251C511.426 251 521.5 261.074 521.5 273.5Z" stroke="#1A0C21" stroke-width="9" stroke-linecap="round" stroke-linejoin="round"/>
<path d="M3.60055 389V368H21.2705V389H19.0805V369.32L19.6505 369.92H5.22055L5.79055 369.32V389H3.60055ZM34.3264 389.15C32.8064 389.15 31.4364 388.81 30.2164 388.13C29.0164 387.43 28.0664 386.48 27.3664 385.28C26.6664 384.06 26.3164 382.67 26.3164 381.11C26.3164 379.53 26.6664 378.14 27.3664 376.94C28.0664 375.74 29.0164 374.8 30.2164 374.12C31.4164 373.44 32.7864 373.1 34.3264 373.1C35.8864 373.1 37.2664 373.44 38.4664 374.12C39.6864 374.8 40.6364 375.74 41.3164 376.94C42.0164 378.14 42.3664 379.53 42.3664 381.11C42.3664 382.67 42.0164 384.06 41.3164 385.28C40.6364 386.48 39.6864 387.43 38.4664 388.13C37.2464 388.81 35.8664 389.15 34.3264 389.15ZM34.3264 387.26C35.4664 387.26 36.4764 387.01 37.3564 386.51C38.2364 385.99 38.9264 385.27 39.4264 384.35C39.9464 383.41 40.2064 382.33 40.2064 381.11C40.2064 379.87 39.9464 378.79 39.4264 377.87C38.9264 376.95 38.2364 376.24 37.3564 375.74C36.4764 375.22 35.4764 374.96 34.3564 374.96C33.2364 374.96 32.2364 375.22 31.3564 375.74C30.4764 376.24 29.7764 376.95 29.2564 377.87C28.7364 378.79 28.4764 379.87 28.4764 381.11C28.4764 382.33 28.7364 383.41 29.2564 384.35C29.7764 385.27 30.4764 385.99 31.3564 386.51C32.2364 387.01 33.2264 387.26 34.3264 387.26ZM57.6308 387.98V375.11H50.0408L49.8608 378.62C49.8208 379.68 49.7508 380.72 49.6508 381.74C49.5708 382.76 49.4208 383.7 49.2008 384.56C49.0008 385.4 48.7108 386.09 48.3308 386.63C47.9508 387.15 47.4608 387.45 46.8608 387.53L44.7308 387.14C45.3508 387.16 45.8608 386.94 46.2608 386.48C46.6608 386 46.9708 385.35 47.1908 384.53C47.4108 383.71 47.5708 382.78 47.6708 381.74C47.7708 380.68 47.8508 379.6 47.9108 378.5L48.1208 373.25H59.7608V387.98H57.6308ZM44.0708 392.81V387.14H62.2208V392.81H60.2108V389H46.0808V392.81H44.0708ZM77.9218 389L71.4418 381.2L73.2118 380.15L80.4418 389H77.9218ZM66.3718 389V373.25H68.5018V389H66.3718ZM67.8418 381.98V380.15H72.9118V381.98H67.8418ZM73.3918 381.35L71.4118 381.05L77.6818 373.25H79.9918L73.3918 381.35ZM80.9234 388.97L81.0734 387.14C81.2134 387.16 81.3434 387.19 81.4634 387.23C81.6034 387.25 81.7234 387.26 81.8234 387.26C82.4634 387.26 82.9734 387.02 83.3534 386.54C83.7534 386.06 84.0534 385.42 84.2534 384.62C84.4534 383.82 84.5934 382.92 84.6734 381.92C84.7534 380.9 84.8234 379.88 84.8834 378.86L85.1534 373.25H96.7034V389H94.5734V374.48L95.1134 375.11H86.5334L87.0434 374.45L86.8034 379.01C86.7434 380.37 86.6334 381.67 86.4734 382.91C86.3334 384.15 86.1034 385.24 85.7834 386.18C85.4834 387.12 85.0634 387.86 84.5234 388.4C83.9834 388.92 83.2934 389.18 82.4534 389.18C82.2134 389.18 81.9634 389.16 81.7034 389.12C81.4634 389.08 81.2034 389.03 80.9234 388.97ZM102.759 389V373.25H104.889V380.03H109.689V381.98H104.889V389H102.759ZM116.319 389.15C114.819 389.15 113.469 388.81 112.269 388.13C111.089 387.43 110.159 386.48 109.479 385.28C108.799 384.06 108.459 382.67 108.459 381.11C108.459 379.53 108.799 378.14 109.479 376.94C110.159 375.74 111.089 374.8 112.269 374.12C113.469 373.44 114.819 373.1 116.319 373.1C117.819 373.1 119.159 373.44 120.339 374.12C121.519 374.8 122.449 375.74 123.129 376.94C123.809 378.14 124.149 379.53 124.149 381.11C124.149 382.67 123.809 384.06 123.129 385.28C122.449 386.48 121.519 387.43 120.339 388.13C119.159 388.81 117.819 389.15 116.319 389.15ZM116.319 387.29C117.419 387.29 118.399 387.03 119.259 386.51C120.119 385.99 120.799 385.27 121.299 384.35C121.799 383.41 122.049 382.33 122.049 381.11C122.049 379.87 121.799 378.79 121.299 377.87C120.799 376.95 120.119 376.24 119.259 375.74C118.399 375.22 117.419 374.96 116.319 374.96C115.239 374.96 114.259 375.22 113.379 375.74C112.519 376.24 111.839 376.95 111.339 377.87C110.839 378.79 110.589 379.87 110.589 381.11C110.589 382.33 110.839 383.41 111.339 384.35C111.839 385.27 112.519 385.99 113.379 386.51C114.259 387.03 115.239 387.29 116.319 387.29ZM138.676 382.34C137.756 382.74 136.826 383.06 135.886 383.3C134.966 383.52 134.046 383.63 133.126 383.63C131.266 383.63 129.796 383.21 128.716 382.37C127.636 381.51 127.096 380.19 127.096 378.41V373.25H129.196V378.29C129.196 379.49 129.586 380.39 130.366 380.99C131.146 381.59 132.196 381.89 133.516 381.89C134.316 381.89 135.156 381.79 136.036 381.59C136.916 381.37 137.806 381.06 138.706 380.66L138.676 382.34ZM138.496 389V373.25H140.626V389H138.496ZM146.675 389V373.25H148.805V385.76L159.335 373.25H161.225V389H159.095V376.46L148.595 389H146.675ZM170.329 389V374.54L170.869 375.11H164.359V373.25H178.429V375.11H171.919L172.459 374.54V389H170.329ZM187.526 389.15C185.886 389.15 184.446 388.81 183.206 388.13C181.966 387.43 180.996 386.48 180.296 385.28C179.596 384.06 179.246 382.67 179.246 381.11C179.246 379.55 179.576 378.17 180.236 376.97C180.916 375.77 181.836 374.83 182.996 374.15C184.176 373.45 185.496 373.1 186.956 373.1C188.436 373.1 189.746 373.44 190.886 374.12C192.046 374.78 192.956 375.72 193.616 376.94C194.276 378.14 194.606 379.53 194.606 381.11C194.606 381.21 194.596 381.32 194.576 381.44C194.576 381.54 194.576 381.65 194.576 381.77H180.866V380.18H193.436L192.596 380.81C192.596 379.67 192.346 378.66 191.846 377.78C191.366 376.88 190.706 376.18 189.866 375.68C189.026 375.18 188.056 374.93 186.956 374.93C185.876 374.93 184.906 375.18 184.046 375.68C183.186 376.18 182.516 376.88 182.036 377.78C181.556 378.68 181.316 379.71 181.316 380.87V381.2C181.316 382.4 181.576 383.46 182.096 384.38C182.636 385.28 183.376 385.99 184.316 386.51C185.276 387.01 186.366 387.26 187.586 387.26C188.546 387.26 189.436 387.09 190.256 386.75C191.096 386.41 191.816 385.89 192.416 385.19L193.616 386.57C192.916 387.41 192.036 388.05 190.976 388.49C189.936 388.93 188.786 389.15 187.526 389.15ZM204.203 389L213.803 368H215.993L225.593 389H223.253L214.433 369.29H215.333L206.513 389H204.203ZM207.983 383.39L208.643 381.59H220.853L221.513 383.39H207.983ZM229.066 389V368H236.926C238.706 368 240.236 368.29 241.516 368.87C242.796 369.43 243.776 370.25 244.456 371.33C245.156 372.39 245.506 373.68 245.506 375.2C245.506 376.68 245.156 377.96 244.456 379.04C243.776 380.1 242.796 380.92 241.516 381.5C240.236 382.08 238.706 382.37 236.926 382.37H230.296L231.286 381.32V389H229.066ZM231.286 381.5L230.296 380.42H236.866C238.966 380.42 240.556 379.97 241.636 379.07C242.736 378.15 243.286 376.86 243.286 375.2C243.286 373.52 242.736 372.22 241.636 371.3C240.556 370.38 238.966 369.92 236.866 369.92H230.296L231.286 368.87V381.5ZM250.307 389V368H252.527V389H250.307ZM21.7597 426L15.2797 418.2L17.0497 417.15L24.2797 426H21.7597ZM10.2097 426V410.25H12.3397V426H10.2097ZM11.6797 418.98V417.15H16.7497V418.98H11.6797ZM17.2297 418.35L15.2497 418.05L21.5197 410.25H23.8297L17.2297 418.35ZM35.4929 426V410.25H42.4529C44.2329 410.25 45.6329 410.59 46.6529 411.27C47.6929 411.95 48.2129 412.95 48.2129 414.27C48.2129 415.55 47.7229 416.54 46.7429 417.24C45.7629 417.92 44.4729 418.26 42.8729 418.26L43.2929 417.63C45.1729 417.63 46.5529 417.98 47.4329 418.68C48.3129 419.38 48.7529 420.39 48.7529 421.71C48.7529 423.07 48.2529 424.13 47.2529 424.89C46.2729 425.63 44.7429 426 42.6629 426H35.4929ZM37.5629 424.32H42.5729C43.9129 424.32 44.9229 424.11 45.6029 423.69C46.3029 423.25 46.6529 422.55 46.6529 421.59C46.6529 420.63 46.3429 419.93 45.7229 419.49C45.1029 419.05 44.1229 418.83 42.7829 418.83H37.5629V424.32ZM37.5629 417.24H42.3029C43.5229 417.24 44.4529 417.01 45.0929 416.55C45.7529 416.09 46.0829 415.42 46.0829 414.54C46.0829 413.66 45.7529 413 45.0929 412.56C44.4529 412.12 43.5229 411.9 42.3029 411.9H37.5629V417.24ZM63.5248 426V422.52L63.4348 421.95V416.13C63.4348 414.79 63.0548 413.76 62.2948 413.04C61.5548 412.32 60.4448 411.96 58.9648 411.96C57.9448 411.96 56.9748 412.13 56.0548 412.47C55.1348 412.81 54.3548 413.26 53.7148 413.82L52.7548 412.23C53.5548 411.55 54.5148 411.03 55.6348 410.67C56.7548 410.29 57.9348 410.1 59.1748 410.1C61.2148 410.1 62.7848 410.61 63.8848 411.63C65.0048 412.63 65.5648 414.16 65.5648 416.22V426H63.5248ZM58.0948 426.15C56.9148 426.15 55.8848 425.96 55.0048 425.58C54.1448 425.18 53.4848 424.64 53.0248 423.96C52.5648 423.26 52.3348 422.46 52.3348 421.56C52.3348 420.74 52.5248 420 52.9048 419.34C53.3048 418.66 53.9448 418.12 54.8248 417.72C55.7248 417.3 56.9248 417.09 58.4248 417.09H63.8548V418.68H58.4848C56.9648 418.68 55.9048 418.95 55.3048 419.49C54.7248 420.03 54.4348 420.7 54.4348 421.5C54.4348 422.4 54.7848 423.12 55.4848 423.66C56.1848 424.2 57.1648 424.47 58.4248 424.47C59.6248 424.47 60.6548 424.2 61.5148 423.66C62.3948 423.1 63.0348 422.3 63.4348 421.26L63.9148 422.73C63.5148 423.77 62.8148 424.6 61.8148 425.22C60.8348 425.84 59.5948 426.15 58.0948 426.15ZM81.5851 424.14L81.1051 424.71V410.25H83.2351V424.71L82.6651 424.14H91.4551L90.8851 424.71V410.25H93.0151V426H71.2351V410.25H73.3651V424.71L72.8251 424.14H81.5851ZM105.817 426.15C104.177 426.15 102.737 425.81 101.497 425.13C100.257 424.43 99.2871 423.48 98.5871 422.28C97.8871 421.06 97.5371 419.67 97.5371 418.11C97.5371 416.55 97.8671 415.17 98.5271 413.97C99.2071 412.77 100.127 411.83 101.287 411.15C102.467 410.45 103.787 410.1 105.247 410.1C106.727 410.1 108.037 410.44 109.177 411.12C110.337 411.78 111.247 412.72 111.907 413.94C112.567 415.14 112.897 416.53 112.897 418.11C112.897 418.21 112.887 418.32 112.867 418.44C112.867 418.54 112.867 418.65 112.867 418.77H99.1571V417.18H111.727L110.887 417.81C110.887 416.67 110.637 415.66 110.137 414.78C109.657 413.88 108.997 413.18 108.157 412.68C107.317 412.18 106.347 411.93 105.247 411.93C104.167 411.93 103.197 412.18 102.337 412.68C101.477 413.18 100.807 413.88 100.327 414.78C99.8471 415.68 99.6071 416.71 99.6071 417.87V418.2C99.6071 419.4 99.8671 420.46 100.387 421.38C100.927 422.28 101.667 422.99 102.607 423.51C103.567 424.01 104.657 424.26 105.877 424.26C106.837 424.26 107.727 424.09 108.547 423.75C109.387 423.41 110.107 422.89 110.707 422.19L111.907 423.57C111.207 424.41 110.327 425.05 109.267 425.49C108.227 425.93 107.077 426.15 105.817 426.15ZM117.612 426V410.25H119.772L126.912 422.34H126.012L133.272 410.25H135.252V426H133.302V412.68L133.692 412.86L126.912 424.08H125.952L119.112 412.74L119.562 412.65V426H117.612ZM141.583 431.97C140.843 431.97 140.133 431.85 139.453 431.61C138.793 431.37 138.223 431.01 137.743 430.53L138.733 428.94C139.133 429.32 139.563 429.61 140.023 429.81C140.503 430.03 141.033 430.14 141.613 430.14C142.313 430.14 142.913 429.94 143.413 429.54C143.933 429.16 144.423 428.48 144.883 427.5L145.903 425.19L146.143 424.86L152.623 410.25H154.723L146.833 427.89C146.393 428.91 145.903 429.72 145.363 430.32C144.843 430.92 144.273 431.34 143.653 431.58C143.033 431.84 142.343 431.97 141.583 431.97ZM145.783 426.45L138.523 410.25H140.743L147.163 424.71L145.783 426.45ZM172.493 426.15C170.933 426.15 169.533 425.81 168.293 425.13C167.073 424.43 166.113 423.48 165.413 422.28C164.713 421.06 164.363 419.67 164.363 418.11C164.363 416.53 164.713 415.14 165.413 413.94C166.113 412.74 167.073 411.8 168.293 411.12C169.533 410.44 170.933 410.1 172.493 410.1C173.833 410.1 175.043 410.36 176.123 410.88C177.203 411.4 178.053 412.18 178.673 413.22L177.083 414.3C176.543 413.5 175.873 412.91 175.073 412.53C174.273 412.15 173.403 411.96 172.463 411.96C171.343 411.96 170.333 412.22 169.433 412.74C168.533 413.24 167.823 413.95 167.303 414.87C166.783 415.79 166.523 416.87 166.523 418.11C166.523 419.35 166.783 420.43 167.303 421.35C167.823 422.27 168.533 422.99 169.433 423.51C170.333 424.01 171.343 424.26 172.463 424.26C173.403 424.26 174.273 424.07 175.073 423.69C175.873 423.31 176.543 422.73 177.083 421.95L178.673 423.03C178.053 424.05 177.203 424.83 176.123 425.37C175.043 425.89 173.833 426.15 172.493 426.15ZM192.578 426V422.52L192.488 421.95V416.13C192.488 414.79 192.108 413.76 191.348 413.04C190.608 412.32 189.498 411.96 188.018 411.96C186.998 411.96 186.028 412.13 185.108 412.47C184.188 412.81 183.408 413.26 182.768 413.82L181.808 412.23C182.608 411.55 183.568 411.03 184.688 410.67C185.808 410.29 186.988 410.1 188.228 410.1C190.268 410.1 191.838 410.61 192.938 411.63C194.058 412.63 194.618 414.16 194.618 416.22V426H192.578ZM187.148 426.15C185.968 426.15 184.938 425.96 184.058 425.58C183.198 425.18 182.538 424.64 182.078 423.96C181.618 423.26 181.388 422.46 181.388 421.56C181.388 420.74 181.578 420 181.958 419.34C182.358 418.66 182.998 418.12 183.878 417.72C184.778 417.3 185.978 417.09 187.478 417.09H192.908V418.68H187.538C186.018 418.68 184.958 418.95 184.358 419.49C183.778 420.03 183.488 420.7 183.488 421.5C183.488 422.4 183.838 423.12 184.538 423.66C185.238 424.2 186.218 424.47 187.478 424.47C188.678 424.47 189.708 424.2 190.568 423.66C191.448 423.1 192.088 422.3 192.488 421.26L192.968 422.73C192.568 423.77 191.868 424.6 190.868 425.22C189.888 425.84 188.648 426.15 187.148 426.15ZM200.288 426V410.25H202.418V422.76L212.948 410.25H214.838V426H212.708V413.46L202.208 426H200.288ZM207.428 407.97C206.108 407.97 205.038 407.64 204.218 406.98C203.418 406.3 202.998 405.33 202.958 404.07H204.488C204.508 404.87 204.788 405.5 205.328 405.96C205.868 406.42 206.568 406.65 207.428 406.65C208.288 406.65 208.988 406.42 209.528 405.96C210.088 405.5 210.378 404.87 210.398 404.07H211.928C211.908 405.33 211.488 406.3 210.668 406.98C209.848 407.64 208.768 407.97 207.428 407.97ZM223.942 426V411.54L224.482 412.11H217.972V410.25H232.042V412.11H225.532L226.072 411.54V426H223.942ZM235.392 431.97C234.652 431.97 233.942 431.85 233.262 431.61C232.602 431.37 232.032 431.01 231.552 430.53L232.542 428.94C232.942 429.32 233.372 429.61 233.832 429.81C234.312 430.03 234.842 430.14 235.422 430.14C236.122 430.14 236.722 429.94 237.222 429.54C237.742 429.16 238.232 428.48 238.692 427.5L239.712 425.19L239.952 424.86L246.432 410.25H248.532L240.642 427.89C240.202 428.91 239.712 429.72 239.172 430.32C238.652 430.92 238.082 431.34 237.462 431.58C236.842 431.84 236.152 431.97 235.392 431.97ZM239.592 426.45L232.332 410.25H234.552L240.972 424.71L239.592 426.45Z" fill="black"/>
<path d="M637.79 389V368H655.46V389H653.27V369.32L653.84 369.92H639.41L639.98 369.32V389H637.79ZM668.516 389.15C666.996 389.15 665.626 388.81 664.406 388.13C663.206 387.43 662.256 386.48 661.556 385.28C660.856 384.06 660.506 382.67 660.506 381.11C660.506 379.53 660.856 378.14 661.556 376.94C662.256 375.74 663.206 374.8 664.406 374.12C665.606 373.44 666.976 373.1 668.516 373.1C670.076 373.1 671.456 373.44 672.656 374.12C673.876 374.8 674.826 375.74 675.506 376.94C676.206 378.14 676.556 379.53 676.556 381.11C676.556 382.67 676.206 384.06 675.506 385.28C674.826 386.48 673.876 387.43 672.656 388.13C671.436 388.81 670.056 389.15 668.516 389.15ZM668.516 387.26C669.656 387.26 670.666 387.01 671.546 386.51C672.426 385.99 673.116 385.27 673.616 384.35C674.136 383.41 674.396 382.33 674.396 381.11C674.396 379.87 674.136 378.79 673.616 377.87C673.116 376.95 672.426 376.24 671.546 375.74C670.666 375.22 669.666 374.96 668.546 374.96C667.426 374.96 666.426 375.22 665.546 375.74C664.666 376.24 663.966 376.95 663.446 377.87C662.926 378.79 662.666 379.87 662.666 381.11C662.666 382.33 662.926 383.41 663.446 384.35C663.966 385.27 664.666 385.99 665.546 386.51C666.426 387.01 667.416 387.26 668.516 387.26ZM678.14 388.97L678.29 387.14C678.43 387.16 678.56 387.19 678.68 387.23C678.82 387.25 678.94 387.26 679.04 387.26C679.68 387.26 680.19 387.02 680.57 386.54C680.97 386.06 681.27 385.42 681.47 384.62C681.67 383.82 681.81 382.92 681.89 381.92C681.97 380.9 682.04 379.88 682.1 378.86L682.37 373.25H693.92V389H691.79V374.48L692.33 375.11H683.75L684.26 374.45L684.02 379.01C683.96 380.37 683.85 381.67 683.69 382.91C683.55 384.15 683.32 385.24 683 386.18C682.7 387.12 682.28 387.86 681.74 388.4C681.2 388.92 680.51 389.18 679.67 389.18C679.43 389.18 679.18 389.16 678.92 389.12C678.68 389.08 678.42 389.03 678.14 388.97ZM700.245 394.97C699.505 394.97 698.795 394.85 698.115 394.61C697.455 394.37 696.885 394.01 696.405 393.53L697.395 391.94C697.795 392.32 698.225 392.61 698.685 392.81C699.165 393.03 699.695 393.14 700.275 393.14C700.975 393.14 701.575 392.94 702.075 392.54C702.595 392.16 703.085 391.48 703.545 390.5L704.565 388.19L704.805 387.86L711.285 373.25H713.385L705.495 390.89C705.055 391.91 704.565 392.72 704.025 393.32C703.505 393.92 702.935 394.34 702.315 394.58C701.695 394.84 701.005 394.97 700.245 394.97ZM704.445 389.45L697.185 373.25H699.405L705.825 387.71L704.445 389.45ZM726.664 382.34C725.744 382.74 724.814 383.06 723.874 383.3C722.954 383.52 722.034 383.63 721.114 383.63C719.254 383.63 717.784 383.21 716.704 382.37C715.624 381.51 715.084 380.19 715.084 378.41V373.25H717.184V378.29C717.184 379.49 717.574 380.39 718.354 380.99C719.134 381.59 720.184 381.89 721.504 381.89C722.304 381.89 723.144 381.79 724.024 381.59C724.904 381.37 725.794 381.06 726.694 380.66L726.664 382.34ZM726.484 389V373.25H728.614V389H726.484ZM734.663 389V373.25H736.793V385.76L747.323 373.25H749.213V389H747.083V376.46L736.583 389H734.663ZM758.317 389V374.54L758.857 375.11H752.347V373.25H766.417V375.11H759.907L760.447 374.54V389H758.317ZM775.514 389.15C773.874 389.15 772.434 388.81 771.194 388.13C769.954 387.43 768.984 386.48 768.284 385.28C767.584 384.06 767.234 382.67 767.234 381.11C767.234 379.55 767.564 378.17 768.224 376.97C768.904 375.77 769.824 374.83 770.984 374.15C772.164 373.45 773.484 373.1 774.944 373.1C776.424 373.1 777.734 373.44 778.874 374.12C780.034 374.78 780.944 375.72 781.604 376.94C782.264 378.14 782.594 379.53 782.594 381.11C782.594 381.21 782.584 381.32 782.564 381.44C782.564 381.54 782.564 381.65 782.564 381.77H768.854V380.18H781.424L780.584 380.81C780.584 379.67 780.334 378.66 779.834 377.78C779.354 376.88 778.694 376.18 777.854 375.68C777.014 375.18 776.044 374.93 774.944 374.93C773.864 374.93 772.894 375.18 772.034 375.68C771.174 376.18 770.504 376.88 770.024 377.78C769.544 378.68 769.304 379.71 769.304 380.87V381.2C769.304 382.4 769.564 383.46 770.084 384.38C770.624 385.28 771.364 385.99 772.304 386.51C773.264 387.01 774.354 387.26 775.574 387.26C776.534 387.26 777.424 387.09 778.244 386.75C779.084 386.41 779.804 385.89 780.404 385.19L781.604 386.57C780.904 387.41 780.024 388.05 778.964 388.49C777.924 388.93 776.774 389.15 775.514 389.15ZM805.961 387.98V375.11H798.371L798.191 378.62C798.151 379.68 798.081 380.72 797.981 381.74C797.901 382.76 797.751 383.7 797.531 384.56C797.331 385.4 797.041 386.09 796.661 386.63C796.281 387.15 795.791 387.45 795.191 387.53L793.061 387.14C793.681 387.16 794.191 386.94 794.591 386.48C794.991 386 795.301 385.35 795.521 384.53C795.741 383.71 795.901 382.78 796.001 381.74C796.101 380.68 796.181 379.6 796.241 378.5L796.451 373.25H808.091V387.98H805.961ZM792.401 392.81V387.14H810.551V392.81H808.541V389H794.411V392.81H792.401ZM824.482 389V385.52L824.392 384.95V379.13C824.392 377.79 824.012 376.76 823.252 376.04C822.512 375.32 821.402 374.96 819.922 374.96C818.902 374.96 817.932 375.13 817.012 375.47C816.092 375.81 815.312 376.26 814.672 376.82L813.712 375.23C814.512 374.55 815.472 374.03 816.592 373.67C817.712 373.29 818.892 373.1 820.132 373.1C822.172 373.1 823.742 373.61 824.842 374.63C825.962 375.63 826.522 377.16 826.522 379.22V389H824.482ZM819.052 389.15C817.872 389.15 816.842 388.96 815.962 388.58C815.102 388.18 814.442 387.64 813.982 386.96C813.522 386.26 813.292 385.46 813.292 384.56C813.292 383.74 813.482 383 813.862 382.34C814.262 381.66 814.902 381.12 815.782 380.72C816.682 380.3 817.882 380.09 819.382 380.09H824.812V381.68H819.442C817.922 381.68 816.862 381.95 816.262 382.49C815.682 383.03 815.392 383.7 815.392 384.5C815.392 385.4 815.742 386.12 816.442 386.66C817.142 387.2 818.122 387.47 819.382 387.47C820.582 387.47 821.612 387.2 822.472 386.66C823.352 386.1 823.992 385.3 824.392 384.26L824.872 385.73C824.472 386.77 823.772 387.6 822.772 388.22C821.792 388.84 820.552 389.15 819.052 389.15ZM832.192 389V373.25H834.322V380.21H844.252V373.25H846.382V389H844.252V382.04H834.322V389H832.192ZM852.436 389V373.25H854.566V380.21H864.496V373.25H866.626V389H864.496V382.04H854.566V389H852.436ZM888.04 389V373.25H890.17V389H888.04ZM879.31 378.8C881.29 378.82 882.8 379.26 883.84 380.12C884.88 380.98 885.4 382.22 885.4 383.84C885.4 385.52 884.84 386.81 883.72 387.71C882.6 388.61 881 389.05 878.92 389.03L872.68 389V373.25H874.81V378.74L879.31 378.8ZM878.77 387.41C880.25 387.43 881.36 387.14 882.1 386.54C882.86 385.92 883.24 385.02 883.24 383.84C883.24 382.66 882.87 381.8 882.13 381.26C881.39 380.7 880.27 380.41 878.77 380.39L874.81 380.33V387.35L878.77 387.41ZM902.985 389.15C901.345 389.15 899.905 388.81 898.665 388.13C897.425 387.43 896.455 386.48 895.755 385.28C895.055 384.06 894.705 382.67 894.705 381.11C894.705 379.55 895.035 378.17 895.695 376.97C896.375 375.77 897.295 374.83 898.455 374.15C899.635 373.45 900.955 373.1 902.415 373.1C903.895 373.1 905.205 373.44 906.345 374.12C907.505 374.78 908.415 375.72 909.075 376.94C909.735 378.14 910.065 379.53 910.065 381.11C910.065 381.21 910.055 381.32 910.035 381.44C910.035 381.54 910.035 381.65 910.035 381.77H896.325V380.18H908.895L908.055 380.81C908.055 379.67 907.805 378.66 907.305 377.78C906.825 376.88 906.165 376.18 905.325 375.68C904.485 375.18 903.515 374.93 902.415 374.93C901.335 374.93 900.365 375.18 899.505 375.68C898.645 376.18 897.975 376.88 897.495 377.78C897.015 378.68 896.775 379.71 896.775 380.87V381.2C896.775 382.4 897.035 383.46 897.555 384.38C898.095 385.28 898.835 385.99 899.775 386.51C900.735 387.01 901.825 387.26 903.045 387.26C904.005 387.26 904.895 387.09 905.715 386.75C906.555 386.41 907.275 385.89 907.875 385.19L909.075 386.57C908.375 387.41 907.495 388.05 906.435 388.49C905.395 388.93 904.245 389.15 902.985 389.15ZM698.501 426.15C696.981 426.15 695.611 425.81 694.391 425.13C693.191 424.43 692.241 423.48 691.541 422.28C690.841 421.06 690.491 419.67 690.491 418.11C690.491 416.53 690.841 415.14 691.541 413.94C692.241 412.74 693.191 411.8 694.391 411.12C695.591 410.44 696.961 410.1 698.501 410.1C700.061 410.1 701.441 410.44 702.641 411.12C703.861 411.8 704.811 412.74 705.491 413.94C706.191 415.14 706.541 416.53 706.541 418.11C706.541 419.67 706.191 421.06 705.491 422.28C704.811 423.48 703.861 424.43 702.641 425.13C701.421 425.81 700.041 426.15 698.501 426.15ZM698.501 424.26C699.641 424.26 700.651 424.01 701.531 423.51C702.411 422.99 703.101 422.27 703.601 421.35C704.121 420.41 704.381 419.33 704.381 418.11C704.381 416.87 704.121 415.79 703.601 414.87C703.101 413.95 702.411 413.24 701.531 412.74C700.651 412.22 699.651 411.96 698.531 411.96C697.411 411.96 696.411 412.22 695.531 412.74C694.651 413.24 693.951 413.95 693.431 414.87C692.911 415.79 692.651 416.87 692.651 418.11C692.651 419.33 692.911 420.41 693.431 421.35C693.951 422.27 694.651 422.99 695.531 423.51C696.411 424.01 697.401 424.26 698.501 424.26ZM713.508 426V411.54L714.048 412.11H707.538V410.25H721.608V412.11H715.098L715.638 411.54V426H713.508ZM744.089 426L737.609 418.2L739.379 417.15L746.609 426H744.089ZM732.539 426V410.25H734.669V426H732.539ZM734.009 418.98V417.15H739.079V418.98H734.009ZM739.559 418.35L737.579 418.05L743.849 410.25H746.159L739.559 418.35ZM747.09 425.97L747.24 424.14C747.38 424.16 747.51 424.19 747.63 424.23C747.77 424.25 747.89 424.26 747.99 424.26C748.63 424.26 749.14 424.02 749.52 423.54C749.92 423.06 750.22 422.42 750.42 421.62C750.62 420.82 750.76 419.92 750.84 418.92C750.92 417.9 750.99 416.88 751.05 415.86L751.32 410.25H762.87V426H760.74V411.48L761.28 412.11H752.7L753.21 411.45L752.97 416.01C752.91 417.37 752.8 418.67 752.64 419.91C752.5 421.15 752.27 422.24 751.95 423.18C751.65 424.12 751.23 424.86 750.69 425.4C750.15 425.92 749.46 426.18 748.62 426.18C748.38 426.18 748.13 426.16 747.87 426.12C747.63 426.08 747.37 426.03 747.09 425.97ZM768.926 426V410.25H771.056V422.76L781.586 410.25H783.476V426H781.346V413.46L770.846 426H768.926ZM796.33 426.15C794.69 426.15 793.25 425.81 792.01 425.13C790.77 424.43 789.8 423.48 789.1 422.28C788.4 421.06 788.05 419.67 788.05 418.11C788.05 416.55 788.38 415.17 789.04 413.97C789.72 412.77 790.64 411.83 791.8 411.15C792.98 410.45 794.3 410.1 795.76 410.1C797.24 410.1 798.55 410.44 799.69 411.12C800.85 411.78 801.76 412.72 802.42 413.94C803.08 415.14 803.41 416.53 803.41 418.11C803.41 418.21 803.4 418.32 803.38 418.44C803.38 418.54 803.38 418.65 803.38 418.77H789.67V417.18H802.24L801.4 417.81C801.4 416.67 801.15 415.66 800.65 414.78C800.17 413.88 799.51 413.18 798.67 412.68C797.83 412.18 796.86 411.93 795.76 411.93C794.68 411.93 793.71 412.18 792.85 412.68C791.99 413.18 791.32 413.88 790.84 414.78C790.36 415.68 790.12 416.71 790.12 417.87V418.2C790.12 419.4 790.38 420.46 790.9 421.38C791.44 422.28 792.18 422.99 793.12 423.51C794.08 424.01 795.17 424.26 796.39 424.26C797.35 424.26 798.24 424.09 799.06 423.75C799.9 423.41 800.62 422.89 801.22 422.19L802.42 423.57C801.72 424.41 800.84 425.05 799.78 425.49C798.74 425.93 797.59 426.15 796.33 426.15ZM808.125 426V410.25H810.255V417.21H820.185V410.25H822.315V426H820.185V419.04H810.255V426H808.125ZM831.369 426V411.54L831.909 412.11H825.399V410.25H839.469V412.11H832.959L833.499 411.54V426H831.369ZM852.329 426V422.52L852.239 421.95V416.13C852.239 414.79 851.859 413.76 851.099 413.04C850.359 412.32 849.249 411.96 847.769 411.96C846.749 411.96 845.779 412.13 844.859 412.47C843.939 412.81 843.159 413.26 842.519 413.82L841.559 412.23C842.359 411.55 843.319 411.03 844.439 410.67C845.559 410.29 846.739 410.1 847.979 410.1C850.019 410.1 851.589 410.61 852.689 411.63C853.809 412.63 854.369 414.16 854.369 416.22V426H852.329ZM846.899 426.15C845.719 426.15 844.689 425.96 843.809 425.58C842.949 425.18 842.289 424.64 841.829 423.96C841.369 423.26 841.139 422.46 841.139 421.56C841.139 420.74 841.329 420 841.709 419.34C842.109 418.66 842.749 418.12 843.629 417.72C844.529 417.3 845.729 417.09 847.229 417.09H852.659V418.68H847.289C845.769 418.68 844.709 418.95 844.109 419.49C843.529 420.03 843.239 420.7 843.239 421.5C843.239 422.4 843.589 423.12 844.289 423.66C844.989 424.2 845.969 424.47 847.229 424.47C848.429 424.47 849.459 424.2 850.319 423.66C851.199 423.1 851.839 422.3 852.239 421.26L852.719 422.73C852.319 423.77 851.619 424.6 850.619 425.22C849.639 425.84 848.399 426.15 846.899 426.15Z" fill="black"/>
<path d="M1332.71 389V368H1350.38V389H1348.19V369.32L1348.76 369.92H1334.33L1334.9 369.32V389H1332.71ZM1363.43 389.15C1361.91 389.15 1360.54 388.81 1359.32 388.13C1358.12 387.43 1357.17 386.48 1356.47 385.28C1355.77 384.06 1355.42 382.67 1355.42 381.11C1355.42 379.53 1355.77 378.14 1356.47 376.94C1357.17 375.74 1358.12 374.8 1359.32 374.12C1360.52 373.44 1361.89 373.1 1363.43 373.1C1364.99 373.1 1366.37 373.44 1367.57 374.12C1368.79 374.8 1369.74 375.74 1370.42 376.94C1371.12 378.14 1371.47 379.53 1371.47 381.11C1371.47 382.67 1371.12 384.06 1370.42 385.28C1369.74 386.48 1368.79 387.43 1367.57 388.13C1366.35 388.81 1364.97 389.15 1363.43 389.15ZM1363.43 387.26C1364.57 387.26 1365.58 387.01 1366.46 386.51C1367.34 385.99 1368.03 385.27 1368.53 384.35C1369.05 383.41 1369.31 382.33 1369.31 381.11C1369.31 379.87 1369.05 378.79 1368.53 377.87C1368.03 376.95 1367.34 376.24 1366.46 375.74C1365.58 375.22 1364.58 374.96 1363.46 374.96C1362.34 374.96 1361.34 375.22 1360.46 375.74C1359.58 376.24 1358.88 376.95 1358.36 377.87C1357.84 378.79 1357.58 379.87 1357.58 381.11C1357.58 382.33 1357.84 383.41 1358.36 384.35C1358.88 385.27 1359.58 385.99 1360.46 386.51C1361.34 387.01 1362.33 387.26 1363.43 387.26ZM1373.06 388.97L1373.21 387.14C1373.35 387.16 1373.48 387.19 1373.6 387.23C1373.74 387.25 1373.86 387.26 1373.96 387.26C1374.6 387.26 1375.11 387.02 1375.49 386.54C1375.89 386.06 1376.19 385.42 1376.39 384.62C1376.59 383.82 1376.73 382.92 1376.81 381.92C1376.89 380.9 1376.96 379.88 1377.02 378.86L1377.29 373.25H1388.84V389H1386.71V374.48L1387.25 375.11H1378.67L1379.18 374.45L1378.94 379.01C1378.88 380.37 1378.77 381.67 1378.61 382.91C1378.47 384.15 1378.24 385.24 1377.92 386.18C1377.62 387.12 1377.2 387.86 1376.66 388.4C1376.12 388.92 1375.43 389.18 1374.59 389.18C1374.35 389.18 1374.1 389.16 1373.84 389.12C1373.6 389.08 1373.34 389.03 1373.06 388.97ZM1401.67 378.8C1403.65 378.82 1405.15 379.26 1406.17 380.12C1407.21 380.98 1407.73 382.22 1407.73 383.84C1407.73 385.52 1407.17 386.81 1406.05 387.71C1404.95 388.61 1403.35 389.05 1401.25 389.03L1394.89 389V373.25H1397.02V378.74L1401.67 378.8ZM1401.13 387.41C1402.59 387.43 1403.69 387.14 1404.43 386.54C1405.19 385.92 1405.57 385.02 1405.57 383.84C1405.57 382.66 1405.2 381.8 1404.46 381.26C1403.72 380.7 1402.61 380.41 1401.13 380.39L1397.02 380.33V387.35L1401.13 387.41ZM1415.88 389.18C1414.74 389.18 1413.61 389.02 1412.49 388.7C1411.37 388.38 1410.38 387.89 1409.52 387.23L1410.21 385.64C1410.97 386.2 1411.85 386.63 1412.85 386.93C1413.85 387.21 1414.84 387.35 1415.82 387.35C1416.8 387.33 1417.65 387.19 1418.37 386.93C1419.09 386.67 1419.65 386.31 1420.05 385.85C1420.45 385.39 1420.65 384.87 1420.65 384.29C1420.65 383.45 1420.27 382.8 1419.51 382.34C1418.75 381.86 1417.71 381.62 1416.39 381.62H1413.69V380.06H1416.24C1417.02 380.06 1417.71 379.96 1418.31 379.76C1418.91 379.56 1419.37 379.27 1419.69 378.89C1420.03 378.51 1420.2 378.06 1420.2 377.54C1420.2 376.98 1420 376.5 1419.6 376.1C1419.22 375.7 1418.69 375.4 1418.01 375.2C1417.33 375 1416.56 374.9 1415.7 374.9C1414.92 374.92 1414.11 375.04 1413.27 375.26C1412.43 375.46 1411.6 375.77 1410.78 376.19L1410.18 374.54C1411.1 374.06 1412.01 373.7 1412.91 373.46C1413.83 373.2 1414.75 373.07 1415.67 373.07C1416.93 373.03 1418.06 373.18 1419.06 373.52C1420.08 373.86 1420.89 374.35 1421.49 374.99C1422.09 375.61 1422.39 376.36 1422.39 377.24C1422.39 378.02 1422.15 378.7 1421.67 379.28C1421.19 379.86 1420.55 380.31 1419.75 380.63C1418.95 380.95 1418.04 381.11 1417.02 381.11L1417.11 380.54C1418.91 380.54 1420.31 380.89 1421.31 381.59C1422.33 382.29 1422.84 383.24 1422.84 384.44C1422.84 385.38 1422.53 386.21 1421.91 386.93C1421.29 387.63 1420.45 388.18 1419.39 388.58C1418.35 388.98 1417.18 389.18 1415.88 389.18ZM1427.95 394.97C1427.21 394.97 1426.5 394.85 1425.82 394.61C1425.16 394.37 1424.59 394.01 1424.11 393.53L1425.1 391.94C1425.5 392.32 1425.93 392.61 1426.39 392.81C1426.87 393.03 1427.4 393.14 1427.98 393.14C1428.68 393.14 1429.28 392.94 1429.78 392.54C1430.3 392.16 1430.79 391.48 1431.25 390.5L1432.27 388.19L1432.51 387.86L1438.99 373.25H1441.09L1433.2 390.89C1432.76 391.91 1432.27 392.72 1431.73 393.32C1431.21 393.92 1430.64 394.34 1430.02 394.58C1429.4 394.84 1428.71 394.97 1427.95 394.97ZM1432.15 389.45L1424.89 373.25H1427.11L1433.53 387.71L1432.15 389.45ZM1444.41 389V373.25H1446.54V385.76L1457.07 373.25H1458.96V389H1456.83V376.46L1446.33 389H1444.41ZM1451.55 370.97C1450.23 370.97 1449.16 370.64 1448.34 369.98C1447.54 369.3 1447.12 368.33 1447.08 367.07H1448.61C1448.63 367.87 1448.91 368.5 1449.45 368.96C1449.99 369.42 1450.69 369.65 1451.55 369.65C1452.41 369.65 1453.11 369.42 1453.65 368.96C1454.21 368.5 1454.5 367.87 1454.52 367.07H1456.05C1456.03 368.33 1455.61 369.3 1454.79 369.98C1453.97 370.64 1452.89 370.97 1451.55 370.97ZM1468.06 389V374.54L1468.6 375.11H1462.09V373.25H1476.16V375.11H1469.65L1470.19 374.54V389H1468.06ZM1485.26 389.15C1483.62 389.15 1482.18 388.81 1480.94 388.13C1479.7 387.43 1478.73 386.48 1478.03 385.28C1477.33 384.06 1476.98 382.67 1476.98 381.11C1476.98 379.55 1477.31 378.17 1477.97 376.97C1478.65 375.77 1479.57 374.83 1480.73 374.15C1481.91 373.45 1483.23 373.1 1484.69 373.1C1486.17 373.1 1487.48 373.44 1488.62 374.12C1489.78 374.78 1490.69 375.72 1491.35 376.94C1492.01 378.14 1492.34 379.53 1492.34 381.11C1492.34 381.21 1492.33 381.32 1492.31 381.44C1492.31 381.54 1492.31 381.65 1492.31 381.77H1478.6V380.18H1491.17L1490.33 380.81C1490.33 379.67 1490.08 378.66 1489.58 377.78C1489.1 376.88 1488.44 376.18 1487.6 375.68C1486.76 375.18 1485.79 374.93 1484.69 374.93C1483.61 374.93 1482.64 375.18 1481.78 375.68C1480.92 376.18 1480.25 376.88 1479.77 377.78C1479.29 378.68 1479.05 379.71 1479.05 380.87V381.2C1479.05 382.4 1479.31 383.46 1479.83 384.38C1480.37 385.28 1481.11 385.99 1482.05 386.51C1483.01 387.01 1484.1 387.26 1485.32 387.26C1486.28 387.26 1487.17 387.09 1487.99 386.75C1488.83 386.41 1489.55 385.89 1490.15 385.19L1491.35 386.57C1490.65 387.41 1489.77 388.05 1488.71 388.49C1487.67 388.93 1486.52 389.15 1485.26 389.15ZM1503.65 389.15C1502.09 389.15 1500.69 388.81 1499.45 388.13C1498.23 387.43 1497.27 386.48 1496.57 385.28C1495.87 384.06 1495.52 382.67 1495.52 381.11C1495.52 379.53 1495.87 378.14 1496.57 376.94C1497.27 375.74 1498.23 374.8 1499.45 374.12C1500.69 373.44 1502.09 373.1 1503.65 373.1C1504.99 373.1 1506.2 373.36 1507.28 373.88C1508.36 374.4 1509.21 375.18 1509.83 376.22L1508.24 377.3C1507.7 376.5 1507.03 375.91 1506.23 375.53C1505.43 375.15 1504.56 374.96 1503.62 374.96C1502.5 374.96 1501.49 375.22 1500.59 375.74C1499.69 376.24 1498.98 376.95 1498.46 377.87C1497.94 378.79 1497.68 379.87 1497.68 381.11C1497.68 382.35 1497.94 383.43 1498.46 384.35C1498.98 385.27 1499.69 385.99 1500.59 386.51C1501.49 387.01 1502.5 387.26 1503.62 387.26C1504.56 387.26 1505.43 387.07 1506.23 386.69C1507.03 386.31 1507.7 385.73 1508.24 384.95L1509.83 386.03C1509.21 387.05 1508.36 387.83 1507.28 388.37C1506.2 388.89 1504.99 389.15 1503.65 389.15ZM1520.74 378.8C1522.72 378.82 1524.22 379.26 1525.24 380.12C1526.28 380.98 1526.8 382.22 1526.8 383.84C1526.8 385.52 1526.24 386.81 1525.12 387.71C1524.02 388.61 1522.42 389.05 1520.32 389.03L1513.96 389V373.25H1516.09V378.74L1520.74 378.8ZM1520.2 387.41C1521.66 387.43 1522.76 387.14 1523.5 386.54C1524.26 385.92 1524.64 385.02 1524.64 383.84C1524.64 382.66 1524.27 381.8 1523.53 381.26C1522.79 380.7 1521.68 380.41 1520.2 380.39L1516.09 380.33V387.35L1520.2 387.41ZM1316.9 426.18C1315.62 426.18 1314.48 425.97 1313.48 425.55C1312.5 425.13 1311.66 424.49 1310.96 423.63C1310.26 422.77 1309.73 421.71 1309.37 420.45C1309.01 419.17 1308.83 417.69 1308.83 416.01C1308.83 414.51 1308.97 413.2 1309.25 412.08C1309.53 410.94 1309.92 409.96 1310.42 409.14C1310.92 408.32 1311.5 407.63 1312.16 407.07C1312.84 406.49 1313.57 406.03 1314.35 405.69C1315.15 405.33 1315.97 405.06 1316.81 404.88L1323.89 403.23L1324.25 405.21L1317.59 406.71C1317.17 406.81 1316.66 406.95 1316.06 407.13C1315.48 407.31 1314.88 407.58 1314.26 407.94C1313.66 408.3 1313.1 408.8 1312.58 409.44C1312.06 410.08 1311.64 410.91 1311.32 411.93C1311.02 412.93 1310.87 414.18 1310.87 415.68C1310.87 416 1310.88 416.26 1310.9 416.46C1310.92 416.64 1310.94 416.84 1310.96 417.06C1311 417.26 1311.03 417.56 1311.05 417.96L1310.12 417.18C1310.34 415.96 1310.79 414.9 1311.47 414C1312.15 413.08 1313 412.37 1314.02 411.87C1315.06 411.35 1316.21 411.09 1317.47 411.09C1318.93 411.09 1320.23 411.41 1321.37 412.05C1322.51 412.67 1323.4 413.54 1324.04 414.66C1324.7 415.78 1325.03 417.08 1325.03 418.56C1325.03 420.02 1324.69 421.33 1324.01 422.49C1323.35 423.65 1322.41 424.56 1321.19 425.22C1319.97 425.86 1318.54 426.18 1316.9 426.18ZM1317.14 424.41C1318.26 424.41 1319.25 424.16 1320.11 423.66C1320.97 423.14 1321.64 422.44 1322.12 421.56C1322.62 420.68 1322.87 419.69 1322.87 418.59C1322.87 417.51 1322.62 416.55 1322.12 415.71C1321.64 414.87 1320.97 414.21 1320.11 413.73C1319.25 413.23 1318.25 412.98 1317.11 412.98C1315.99 412.98 1315 413.22 1314.14 413.7C1313.28 414.16 1312.6 414.81 1312.1 415.65C1311.62 416.49 1311.38 417.46 1311.38 418.56C1311.38 419.66 1311.62 420.65 1312.1 421.53C1312.6 422.41 1313.28 423.11 1314.14 423.63C1315.02 424.15 1316.02 424.41 1317.14 424.41ZM1339.28 426V422.52L1339.19 421.95V416.13C1339.19 414.79 1338.81 413.76 1338.05 413.04C1337.31 412.32 1336.2 411.96 1334.72 411.96C1333.7 411.96 1332.73 412.13 1331.81 412.47C1330.89 412.81 1330.11 413.26 1329.47 413.82L1328.51 412.23C1329.31 411.55 1330.27 411.03 1331.39 410.67C1332.51 410.29 1333.69 410.1 1334.93 410.1C1336.97 410.1 1338.54 410.61 1339.64 411.63C1340.76 412.63 1341.32 414.16 1341.32 416.22V426H1339.28ZM1333.85 426.15C1332.67 426.15 1331.64 425.96 1330.76 425.58C1329.9 425.18 1329.24 424.64 1328.78 423.96C1328.32 423.26 1328.09 422.46 1328.09 421.56C1328.09 420.74 1328.28 420 1328.66 419.34C1329.06 418.66 1329.7 418.12 1330.58 417.72C1331.48 417.3 1332.68 417.09 1334.18 417.09H1339.61V418.68H1334.24C1332.72 418.68 1331.66 418.95 1331.06 419.49C1330.48 420.03 1330.19 420.7 1330.19 421.5C1330.19 422.4 1330.54 423.12 1331.24 423.66C1331.94 424.2 1332.92 424.47 1334.18 424.47C1335.38 424.47 1336.41 424.2 1337.27 423.66C1338.15 423.1 1338.79 422.3 1339.19 421.26L1339.67 422.73C1339.27 423.77 1338.57 424.6 1337.57 425.22C1336.59 425.84 1335.35 426.15 1333.85 426.15ZM1350.9 426.18C1349.76 426.18 1348.63 426.02 1347.51 425.7C1346.39 425.38 1345.4 424.89 1344.54 424.23L1345.23 422.64C1345.99 423.2 1346.87 423.63 1347.87 423.93C1348.87 424.21 1349.86 424.35 1350.84 424.35C1351.82 424.33 1352.67 424.19 1353.39 423.93C1354.11 423.67 1354.67 423.31 1355.07 422.85C1355.47 422.39 1355.67 421.87 1355.67 421.29C1355.67 420.45 1355.29 419.8 1354.53 419.34C1353.77 418.86 1352.73 418.62 1351.41 418.62H1348.71V417.06H1351.26C1352.04 417.06 1352.73 416.96 1353.33 416.76C1353.93 416.56 1354.39 416.27 1354.71 415.89C1355.05 415.51 1355.22 415.06 1355.22 414.54C1355.22 413.98 1355.02 413.5 1354.62 413.1C1354.24 412.7 1353.71 412.4 1353.03 412.2C1352.35 412 1351.58 411.9 1350.72 411.9C1349.94 411.92 1349.13 412.04 1348.29 412.26C1347.45 412.46 1346.62 412.77 1345.8 413.19L1345.2 411.54C1346.12 411.06 1347.03 410.7 1347.93 410.46C1348.85 410.2 1349.77 410.07 1350.69 410.07C1351.95 410.03 1353.08 410.18 1354.08 410.52C1355.1 410.86 1355.91 411.35 1356.51 411.99C1357.11 412.61 1357.41 413.36 1357.41 414.24C1357.41 415.02 1357.17 415.7 1356.69 416.28C1356.21 416.86 1355.57 417.31 1354.77 417.63C1353.97 417.95 1353.06 418.11 1352.04 418.11L1352.13 417.54C1353.93 417.54 1355.33 417.89 1356.33 418.59C1357.35 419.29 1357.86 420.24 1357.86 421.44C1357.86 422.38 1357.55 423.21 1356.93 423.93C1356.31 424.63 1355.47 425.18 1354.41 425.58C1353.37 425.98 1352.2 426.18 1350.9 426.18ZM1369.18 426.15C1367.66 426.15 1366.29 425.81 1365.07 425.13C1363.87 424.43 1362.92 423.48 1362.22 422.28C1361.52 421.06 1361.17 419.67 1361.17 418.11C1361.17 416.53 1361.52 415.14 1362.22 413.94C1362.92 412.74 1363.87 411.8 1365.07 411.12C1366.27 410.44 1367.64 410.1 1369.18 410.1C1370.74 410.1 1372.12 410.44 1373.32 411.12C1374.54 411.8 1375.49 412.74 1376.17 413.94C1376.87 415.14 1377.22 416.53 1377.22 418.11C1377.22 419.67 1376.87 421.06 1376.17 422.28C1375.49 423.48 1374.54 424.43 1373.32 425.13C1372.1 425.81 1370.72 426.15 1369.18 426.15ZM1369.18 424.26C1370.32 424.26 1371.33 424.01 1372.21 423.51C1373.09 422.99 1373.78 422.27 1374.28 421.35C1374.8 420.41 1375.06 419.33 1375.06 418.11C1375.06 416.87 1374.8 415.79 1374.28 414.87C1373.78 413.95 1373.09 413.24 1372.21 412.74C1371.33 412.22 1370.33 411.96 1369.21 411.96C1368.09 411.96 1367.09 412.22 1366.21 412.74C1365.33 413.24 1364.63 413.95 1364.11 414.87C1363.59 415.79 1363.33 416.87 1363.33 418.11C1363.33 419.33 1363.59 420.41 1364.11 421.35C1364.63 422.27 1365.33 422.99 1366.21 423.51C1367.09 424.01 1368.08 424.26 1369.18 424.26ZM1381.77 426V410.25H1383.9V422.76L1394.43 410.25H1396.32V426H1394.19V413.46L1383.69 426H1381.77ZM1388.91 407.97C1387.59 407.97 1386.52 407.64 1385.7 406.98C1384.9 406.3 1384.48 405.33 1384.44 404.07H1385.97C1385.99 404.87 1386.27 405.5 1386.81 405.96C1387.35 406.42 1388.05 406.65 1388.91 406.65C1389.77 406.65 1390.47 406.42 1391.01 405.96C1391.57 405.5 1391.86 404.87 1391.88 404.07H1393.41C1393.39 405.33 1392.97 406.3 1392.15 406.98C1391.33 407.64 1390.25 407.97 1388.91 407.97ZM1421.08 424.98V412.11H1413.49L1413.31 415.62C1413.27 416.68 1413.2 417.72 1413.1 418.74C1413.02 419.76 1412.87 420.7 1412.65 421.56C1412.45 422.4 1412.16 423.09 1411.78 423.63C1411.4 424.15 1410.91 424.45 1410.31 424.53L1408.18 424.14C1408.8 424.16 1409.31 423.94 1409.71 423.48C1410.11 423 1410.42 422.35 1410.64 421.53C1410.86 420.71 1411.02 419.78 1411.12 418.74C1411.22 417.68 1411.3 416.6 1411.36 415.5L1411.57 410.25H1423.21V424.98H1421.08ZM1407.52 429.81V424.14H1425.67V429.81H1423.66V426H1409.53V429.81H1407.52ZM1439.6 426V422.52L1439.51 421.95V416.13C1439.51 414.79 1439.13 413.76 1438.37 413.04C1437.63 412.32 1436.52 411.96 1435.04 411.96C1434.02 411.96 1433.05 412.13 1432.13 412.47C1431.21 412.81 1430.43 413.26 1429.79 413.82L1428.83 412.23C1429.63 411.55 1430.59 411.03 1431.71 410.67C1432.83 410.29 1434.01 410.1 1435.25 410.1C1437.29 410.1 1438.86 410.61 1439.96 411.63C1441.08 412.63 1441.64 414.16 1441.64 416.22V426H1439.6ZM1434.17 426.15C1432.99 426.15 1431.96 425.96 1431.08 425.58C1430.22 425.18 1429.56 424.64 1429.1 423.96C1428.64 423.26 1428.41 422.46 1428.41 421.56C1428.41 420.74 1428.6 420 1428.98 419.34C1429.38 418.66 1430.02 418.12 1430.9 417.72C1431.8 417.3 1433 417.09 1434.5 417.09H1439.93V418.68H1434.56C1433.04 418.68 1431.98 418.95 1431.38 419.49C1430.8 420.03 1430.51 420.7 1430.51 421.5C1430.51 422.4 1430.86 423.12 1431.56 423.66C1432.26 424.2 1433.24 424.47 1434.5 424.47C1435.7 424.47 1436.73 424.2 1437.59 423.66C1438.47 423.1 1439.11 422.3 1439.51 421.26L1439.99 422.73C1439.59 423.77 1438.89 424.6 1437.89 425.22C1436.91 425.84 1435.67 426.15 1434.17 426.15ZM1447.31 426V410.25H1449.44V417.21H1459.37V410.25H1461.5V426H1459.37V419.04H1449.44V426H1447.31ZM1467.55 426V410.25H1469.68V417.21H1479.61V410.25H1481.74V426H1479.61V419.04H1469.68V426H1467.55ZM1503.15 426V410.25H1505.28V426H1503.15ZM1494.42 415.8C1496.4 415.82 1497.91 416.26 1498.95 417.12C1499.99 417.98 1500.51 419.22 1500.51 420.84C1500.51 422.52 1499.95 423.81 1498.83 424.71C1497.71 425.61 1496.11 426.05 1494.03 426.03L1487.79 426V410.25H1489.92V415.74L1494.42 415.8ZM1493.88 424.41C1495.36 424.43 1496.47 424.14 1497.21 423.54C1497.97 422.92 1498.35 422.02 1498.35 420.84C1498.35 419.66 1497.98 418.8 1497.24 418.26C1496.5 417.7 1495.38 417.41 1493.88 417.39L1489.92 417.33V424.35L1493.88 424.41ZM1508.77 426L1515.43 417.36L1515.4 418.41L1509.07 410.25H1511.47L1516.66 417L1515.76 416.97L1520.95 410.25H1523.29L1516.9 418.5L1516.93 417.36L1523.65 426H1521.22L1515.73 418.8L1516.57 418.92L1511.17 426H1508.77ZM1534.99 426V410.25H1541.95C1543.73 410.25 1545.13 410.59 1546.15 411.27C1547.19 411.95 1547.71 412.95 1547.71 414.27C1547.71 415.55 1547.22 416.54 1546.24 417.24C1545.26 417.92 1543.97 418.26 1542.37 418.26L1542.79 417.63C1544.67 417.63 1546.05 417.98 1546.93 418.68C1547.81 419.38 1548.25 420.39 1548.25 421.71C1548.25 423.07 1547.75 424.13 1546.75 424.89C1545.77 425.63 1544.24 426 1542.16 426H1534.99ZM1537.06 424.32H1542.07C1543.41 424.32 1544.42 424.11 1545.1 423.69C1545.8 423.25 1546.15 422.55 1546.15 421.59C1546.15 420.63 1545.84 419.93 1545.22 419.49C1544.6 419.05 1543.62 418.83 1542.28 418.83H1537.06V424.32ZM1537.06 417.24H1541.8C1543.02 417.24 1543.95 417.01 1544.59 416.55C1545.25 416.09 1545.58 415.42 1545.58 414.54C1545.58 413.66 1545.25 413 1544.59 412.56C1543.95 412.12 1543.02 411.9 1541.8 411.9H1537.06V417.24ZM1301.19 463V448.54L1301.73 449.11H1295.22V447.25H1309.29V449.11H1302.78L1303.32 448.54V463H1301.19ZM1322.14 463V459.52L1322.05 458.95V453.13C1322.05 451.79 1321.67 450.76 1320.91 450.04C1320.17 449.32 1319.06 448.96 1317.58 448.96C1316.56 448.96 1315.59 449.13 1314.67 449.47C1313.75 449.81 1312.97 450.26 1312.33 450.82L1311.37 449.23C1312.17 448.55 1313.13 448.03 1314.25 447.67C1315.37 447.29 1316.55 447.1 1317.79 447.1C1319.83 447.1 1321.4 447.61 1322.5 448.63C1323.62 449.63 1324.18 451.16 1324.18 453.22V463H1322.14ZM1316.71 463.15C1315.53 463.15 1314.5 462.96 1313.62 462.58C1312.76 462.18 1312.1 461.64 1311.64 460.96C1311.18 460.26 1310.95 459.46 1310.95 458.56C1310.95 457.74 1311.14 457 1311.52 456.34C1311.92 455.66 1312.56 455.12 1313.44 454.72C1314.34 454.3 1315.54 454.09 1317.04 454.09H1322.47V455.68H1317.1C1315.58 455.68 1314.52 455.95 1313.92 456.49C1313.34 457.03 1313.05 457.7 1313.05 458.5C1313.05 459.4 1313.4 460.12 1314.1 460.66C1314.8 461.2 1315.78 461.47 1317.04 461.47C1318.24 461.47 1319.27 461.2 1320.13 460.66C1321.01 460.1 1321.65 459.3 1322.05 458.26L1322.53 459.73C1322.13 460.77 1321.43 461.6 1320.43 462.22C1319.45 462.84 1318.21 463.15 1316.71 463.15ZM1336.94 463.18C1335.66 463.18 1334.52 462.97 1333.52 462.55C1332.54 462.13 1331.7 461.49 1331 460.63C1330.3 459.77 1329.77 458.71 1329.41 457.45C1329.05 456.17 1328.87 454.69 1328.87 453.01C1328.87 451.51 1329.01 450.2 1329.29 449.08C1329.57 447.94 1329.96 446.96 1330.46 446.14C1330.96 445.32 1331.54 444.63 1332.2 444.07C1332.88 443.49 1333.61 443.03 1334.39 442.69C1335.19 442.33 1336.01 442.06 1336.85 441.88L1343.93 440.23L1344.29 442.21L1337.63 443.71C1337.21 443.81 1336.7 443.95 1336.1 444.13C1335.52 444.31 1334.92 444.58 1334.3 444.94C1333.7 445.3 1333.14 445.8 1332.62 446.44C1332.1 447.08 1331.68 447.91 1331.36 448.93C1331.06 449.93 1330.91 451.18 1330.91 452.68C1330.91 453 1330.92 453.26 1330.94 453.46C1330.96 453.64 1330.98 453.84 1331 454.06C1331.04 454.26 1331.07 454.56 1331.09 454.96L1330.16 454.18C1330.38 452.96 1330.83 451.9 1331.51 451C1332.19 450.08 1333.04 449.37 1334.06 448.87C1335.1 448.35 1336.25 448.09 1337.51 448.09C1338.97 448.09 1340.27 448.41 1341.41 449.05C1342.55 449.67 1343.44 450.54 1344.08 451.66C1344.74 452.78 1345.07 454.08 1345.07 455.56C1345.07 457.02 1344.73 458.33 1344.05 459.49C1343.39 460.65 1342.45 461.56 1341.23 462.22C1340.01 462.86 1338.58 463.18 1336.94 463.18ZM1337.18 461.41C1338.3 461.41 1339.29 461.16 1340.15 460.66C1341.01 460.14 1341.68 459.44 1342.16 458.56C1342.66 457.68 1342.91 456.69 1342.91 455.59C1342.91 454.51 1342.66 453.55 1342.16 452.71C1341.68 451.87 1341.01 451.21 1340.15 450.73C1339.29 450.23 1338.29 449.98 1337.15 449.98C1336.03 449.98 1335.04 450.22 1334.18 450.7C1333.32 451.16 1332.64 451.81 1332.14 452.65C1331.66 453.49 1331.42 454.46 1331.42 455.56C1331.42 456.66 1331.66 457.65 1332.14 458.53C1332.64 459.41 1333.32 460.11 1334.18 460.63C1335.06 461.15 1336.06 461.41 1337.18 461.41ZM1346.66 462.97L1346.81 461.14C1346.95 461.16 1347.08 461.19 1347.2 461.23C1347.34 461.25 1347.46 461.26 1347.56 461.26C1348.2 461.26 1348.71 461.02 1349.09 460.54C1349.49 460.06 1349.79 459.42 1349.99 458.62C1350.19 457.82 1350.33 456.92 1350.41 455.92C1350.49 454.9 1350.56 453.88 1350.62 452.86L1350.89 447.25H1362.44V463H1360.31V448.48L1360.85 449.11H1352.27L1352.78 448.45L1352.54 453.01C1352.48 454.37 1352.37 455.67 1352.21 456.91C1352.07 458.15 1351.84 459.24 1351.52 460.18C1351.22 461.12 1350.8 461.86 1350.26 462.4C1349.72 462.92 1349.03 463.18 1348.19 463.18C1347.95 463.18 1347.7 463.16 1347.44 463.12C1347.2 463.08 1346.94 463.03 1346.66 462.97ZM1368.5 463V447.25H1370.63V459.76L1381.16 447.25H1383.05V463H1380.92V450.46L1370.42 463H1368.5ZM1389.15 463V447.25H1391.28V461.14H1400.91V447.25H1403.04V463H1389.15ZM1403.58 466.81V462.82L1404.12 463H1400.91V461.14H1405.59V466.81H1403.58ZM1419.44 463V459.52L1419.35 458.95V453.13C1419.35 451.79 1418.97 450.76 1418.21 450.04C1417.47 449.32 1416.36 448.96 1414.88 448.96C1413.86 448.96 1412.89 449.13 1411.97 449.47C1411.05 449.81 1410.27 450.26 1409.63 450.82L1408.67 449.23C1409.47 448.55 1410.43 448.03 1411.55 447.67C1412.67 447.29 1413.85 447.1 1415.09 447.1C1417.13 447.1 1418.7 447.61 1419.8 448.63C1420.92 449.63 1421.48 451.16 1421.48 453.22V463H1419.44ZM1414.01 463.15C1412.83 463.15 1411.8 462.96 1410.92 462.58C1410.06 462.18 1409.4 461.64 1408.94 460.96C1408.48 460.26 1408.25 459.46 1408.25 458.56C1408.25 457.74 1408.44 457 1408.82 456.34C1409.22 455.66 1409.86 455.12 1410.74 454.72C1411.64 454.3 1412.84 454.09 1414.34 454.09H1419.77V455.68H1414.4C1412.88 455.68 1411.82 455.95 1411.22 456.49C1410.64 457.03 1410.35 457.7 1410.35 458.5C1410.35 459.4 1410.7 460.12 1411.4 460.66C1412.1 461.2 1413.08 461.47 1414.34 461.47C1415.54 461.47 1416.57 461.2 1417.43 460.66C1418.31 460.1 1418.95 459.3 1419.35 458.26L1419.83 459.73C1419.43 460.77 1418.73 461.6 1417.73 462.22C1416.75 462.84 1415.51 463.15 1414.01 463.15ZM1424.57 463L1431.23 454.36L1431.2 455.41L1424.87 447.25H1427.27L1432.46 454L1431.56 453.97L1436.75 447.25H1439.09L1432.7 455.5L1432.73 454.36L1439.45 463H1437.02L1431.53 455.8L1432.37 455.92L1426.97 463H1424.57ZM1463.99 463V456.04L1464.59 456.64H1457.72C1456.04 456.64 1454.6 456.35 1453.4 455.77C1452.22 455.19 1451.31 454.37 1450.67 453.31C1450.05 452.23 1449.74 450.94 1449.74 449.44C1449.74 447.84 1450.08 446.49 1450.76 445.39C1451.44 444.27 1452.4 443.43 1453.64 442.87C1454.9 442.29 1456.36 442 1458.02 442H1466.18V463H1463.99ZM1449.74 463L1454.9 455.62H1457.18L1452.11 463H1449.74ZM1463.99 455.41V443.29L1464.59 443.92H1458.11C1456.15 443.92 1454.63 444.39 1453.55 445.33C1452.49 446.25 1451.96 447.6 1451.96 449.38C1451.96 451.1 1452.46 452.43 1453.46 453.37C1454.46 454.29 1455.94 454.75 1457.9 454.75H1464.59L1463.99 455.41ZM1472.77 463V447.25H1474.9V454.21H1484.83V447.25H1486.96V463H1484.83V456.04H1474.9V463H1472.77ZM1503.81 461.98V449.11H1496.22L1496.04 452.62C1496 453.68 1495.93 454.72 1495.83 455.74C1495.75 456.76 1495.6 457.7 1495.38 458.56C1495.18 459.4 1494.89 460.09 1494.51 460.63C1494.13 461.15 1493.64 461.45 1493.04 461.53L1490.91 461.14C1491.53 461.16 1492.04 460.94 1492.44 460.48C1492.84 460 1493.15 459.35 1493.37 458.53C1493.59 457.71 1493.75 456.78 1493.85 455.74C1493.95 454.68 1494.03 453.6 1494.09 452.5L1494.3 447.25H1505.94V461.98H1503.81ZM1490.25 466.81V461.14H1508.4V466.81H1506.39V463H1492.26V466.81H1490.25ZM1519.3 463.15C1517.66 463.15 1516.22 462.81 1514.98 462.13C1513.74 461.43 1512.77 460.48 1512.07 459.28C1511.37 458.06 1511.02 456.67 1511.02 455.11C1511.02 453.55 1511.35 452.17 1512.01 450.97C1512.69 449.77 1513.61 448.83 1514.77 448.15C1515.95 447.45 1517.27 447.1 1518.73 447.1C1520.21 447.1 1521.52 447.44 1522.66 448.12C1523.82 448.78 1524.73 449.72 1525.39 450.94C1526.05 452.14 1526.38 453.53 1526.38 455.11C1526.38 455.21 1526.37 455.32 1526.35 455.44C1526.35 455.54 1526.35 455.65 1526.35 455.77H1512.64V454.18H1525.21L1524.37 454.81C1524.37 453.67 1524.12 452.66 1523.62 451.78C1523.14 450.88 1522.48 450.18 1521.64 449.68C1520.8 449.18 1519.83 448.93 1518.73 448.93C1517.65 448.93 1516.68 449.18 1515.82 449.68C1514.96 450.18 1514.29 450.88 1513.81 451.78C1513.33 452.68 1513.09 453.71 1513.09 454.87V455.2C1513.09 456.4 1513.35 457.46 1513.87 458.38C1514.41 459.28 1515.15 459.99 1516.09 460.51C1517.05 461.01 1518.14 461.26 1519.36 461.26C1520.32 461.26 1521.21 461.09 1522.03 460.75C1522.87 460.41 1523.59 459.89 1524.19 459.19L1525.39 460.57C1524.69 461.41 1523.81 462.05 1522.75 462.49C1521.71 462.93 1520.56 463.15 1519.3 463.15ZM1542.65 463L1536.17 455.2L1537.94 454.15L1545.17 463H1542.65ZM1531.1 463V447.25H1533.23V463H1531.1ZM1532.57 455.98V454.15H1537.64V455.98H1532.57ZM1538.12 455.35L1536.14 455.05L1542.41 447.25H1544.72L1538.12 455.35ZM1554.57 463.15C1553.01 463.15 1551.61 462.81 1550.37 462.13C1549.15 461.43 1548.19 460.48 1547.49 459.28C1546.79 458.06 1546.44 456.67 1546.44 455.11C1546.44 453.53 1546.79 452.14 1547.49 450.94C1548.19 449.74 1549.15 448.8 1550.37 448.12C1551.61 447.44 1553.01 447.1 1554.57 447.1C1555.91 447.1 1557.12 447.36 1558.2 447.88C1559.28 448.4 1560.13 449.18 1560.75 450.22L1559.16 451.3C1558.62 450.5 1557.95 449.91 1557.15 449.53C1556.35 449.15 1555.48 448.96 1554.54 448.96C1553.42 448.96 1552.41 449.22 1551.51 449.74C1550.61 450.24 1549.9 450.95 1549.38 451.87C1548.86 452.79 1548.6 453.87 1548.6 455.11C1548.6 456.35 1548.86 457.43 1549.38 458.35C1549.9 459.27 1550.61 459.99 1551.51 460.51C1552.41 461.01 1553.42 461.26 1554.54 461.26C1555.48 461.26 1556.35 461.07 1557.15 460.69C1557.95 460.31 1558.62 459.73 1559.16 458.95L1560.75 460.03C1560.13 461.05 1559.28 461.83 1558.2 462.37C1557.12 462.89 1555.91 463.15 1554.57 463.15Z" fill="black"/>
</svg>
