<svg width="928" height="912" viewBox="0 0 928 912" fill="none" xmlns="http://www.w3.org/2000/svg">
<rect width="860" height="912" rx="38" fill="#DFECFF"/>
<path d="M391.878 493.647C565.29 506.167 738.702 518.618 912.045 531.138C916.749 405.385 921.452 279.632 926.087 153.879C751.914 151.527 577.741 149.175 403.568 146.823C399.694 262.408 395.821 377.993 391.878 493.647Z" fill="white" stroke="#161616" stroke-width="3.5" stroke-miterlimit="10"/>
<path d="M778.753 215.095C745.135 215.095 711.449 215.095 677.832 215.095C676.518 215.095 676.518 213.02 677.832 213.02C711.449 213.02 745.135 213.02 778.753 213.02C780.067 213.02 780.067 215.095 778.753 215.095Z" fill="#161616"/>
<path d="M740.985 223.603C706.33 223.603 671.675 223.603 637.021 223.603C635.706 223.603 635.706 221.528 637.021 221.528C671.675 221.528 706.33 221.528 740.985 221.528C742.368 221.528 742.368 223.603 740.985 223.603Z" fill="#161616"/>
<path d="M905.06 426.552C903.815 455.465 902.57 484.448 901.325 513.361C901.255 514.676 899.18 514.676 899.249 513.361C900.495 484.448 901.74 455.465 902.985 426.552C903.054 425.237 905.129 425.237 905.06 426.552Z" fill="#161616"/>
<path d="M752.674 409.674C749.7 409.674 746.726 409.674 743.682 409.674C742.368 409.674 742.368 407.599 743.682 407.599C746.657 407.599 749.631 407.599 752.674 407.599C753.989 407.599 753.989 409.674 752.674 409.674Z" fill="#161616"/>
<path d="M735.866 409.674C728.188 409.674 720.579 409.674 712.901 409.674C711.587 409.674 711.587 407.599 712.901 407.599C720.579 407.599 728.188 407.599 735.866 407.599C737.18 407.599 737.18 409.674 735.866 409.674Z" fill="#161616"/>
<path d="M695.54 408.567C686.409 408.567 677.279 408.567 668.079 408.567C666.764 408.567 666.764 406.492 668.079 406.492C677.209 406.492 686.34 406.492 695.54 406.492C696.854 406.492 696.854 408.567 695.54 408.567Z" fill="#161616"/>
<path d="M740.293 424.199C729.088 424.199 717.882 424.199 706.676 424.199C705.362 424.199 705.362 422.124 706.676 422.124C717.882 422.124 729.088 422.124 740.293 422.124C741.677 422.124 741.677 424.199 740.293 424.199Z" fill="#161616"/>
<path d="M724.107 416.383C711.034 416.383 697.96 416.383 684.887 416.383C683.573 416.383 683.573 414.308 684.887 414.308C697.96 414.308 711.034 414.308 724.107 414.308C725.421 414.308 725.421 416.383 724.107 416.383Z" fill="#161616"/>
<path d="M654.659 490.327C632.662 490.327 610.597 490.327 588.6 490.327C587.286 490.327 587.286 488.252 588.6 488.252C610.597 488.252 632.662 488.252 654.659 488.252C655.973 488.252 655.973 490.327 654.659 490.327Z" fill="#161616"/>
<path d="M600.36 495.93C588.808 495.93 577.188 495.93 565.636 495.93C564.322 495.93 564.322 493.855 565.636 493.855C577.188 493.855 588.808 493.855 600.36 493.855C601.674 493.855 601.674 495.93 600.36 495.93Z" fill="#161616"/>
<path d="M570.132 487.491C558.719 487.491 547.375 487.491 535.962 487.491C534.648 487.491 534.648 485.416 535.962 485.416C547.375 485.416 558.719 485.416 570.132 485.416C571.447 485.416 571.447 487.491 570.132 487.491Z" fill="#161616"/>
<path d="M511.89 299.968C490.793 299.968 469.696 299.968 448.599 299.968C447.284 299.968 447.284 297.893 448.599 297.893C469.696 297.893 490.793 297.893 511.89 297.893C513.205 297.893 513.205 299.968 511.89 299.968Z" fill="#161616"/>
<path d="M531.465 303.288C524.756 303.288 518.046 303.288 511.337 303.288C510.022 303.288 510.022 301.213 511.337 301.213C518.046 301.213 524.756 301.213 531.465 301.213C532.849 301.213 532.849 303.288 531.465 303.288Z" fill="#161616"/>
<path d="M527.592 308.891C505.043 308.891 482.424 308.891 459.874 308.891C458.56 308.891 458.56 306.816 459.874 306.816C482.424 306.816 505.043 306.816 527.592 306.816C528.907 306.816 528.907 308.891 527.592 308.891Z" fill="#161616"/>
<path d="M444.103 303.842C439.814 303.842 435.526 303.842 431.237 303.842C429.923 303.842 429.923 301.767 431.237 301.767C435.526 301.767 439.814 301.767 444.103 301.767C445.486 301.767 445.486 303.842 444.103 303.842Z" fill="#161616"/>
<path d="M460.912 388.369C454.548 388.369 448.253 388.369 441.89 388.369C440.575 388.369 440.575 386.293 441.89 386.293C448.253 386.293 454.548 386.293 460.912 386.293C462.295 386.293 462.295 388.369 460.912 388.369Z" fill="#161616"/>
<path d="M473.223 393.972C466.306 393.972 459.389 393.972 452.541 393.972C451.227 393.972 451.227 391.896 452.541 391.896C459.458 391.896 466.375 391.896 473.223 391.896C474.607 391.896 474.607 393.972 473.223 393.972Z" fill="#161616"/>
<path d="M463.194 399.575C449.567 399.575 435.941 399.575 422.314 399.575C421 399.575 421 397.5 422.314 397.5C435.941 397.5 449.567 397.5 463.194 397.5C464.508 397.5 464.508 399.575 463.194 399.575Z" fill="#161616"/>
<path d="M437.393 392.865C433.312 392.865 429.162 392.865 425.081 392.865C423.766 392.865 423.766 390.79 425.081 390.79C429.162 390.79 433.312 390.79 437.393 390.79C438.777 390.79 438.777 392.865 437.393 392.865Z" fill="#161616"/>
<path d="M722.308 306.609C712.624 306.609 703.009 306.609 693.326 306.609C692.011 306.609 692.011 304.534 693.326 304.534C703.009 304.534 712.624 304.534 722.308 304.534C723.623 304.534 723.623 306.609 722.308 306.609Z" fill="#161616"/>
<path d="M701.212 312.558C686.963 312.558 672.644 312.558 658.395 312.558C657.081 312.558 657.081 310.482 658.395 310.482C672.644 310.482 686.963 310.482 701.212 310.482C702.526 310.482 702.595 312.558 701.212 312.558Z" fill="#161616"/>
<path d="M663.652 304.602C655.559 304.602 647.397 304.602 639.304 304.602C637.99 304.602 637.99 302.527 639.304 302.527C647.397 302.527 655.559 302.527 663.652 302.527C664.966 302.527 664.966 304.602 663.652 304.602Z" fill="#161616"/>
<path d="M911.215 194.205C909.693 246.706 908.171 299.276 906.65 351.777C906.235 366.718 905.819 381.59 905.335 396.531C905.266 397.845 903.191 397.845 903.26 396.531C904.782 344.03 906.304 291.46 907.825 238.959C908.24 224.018 908.656 209.146 909.14 194.205C909.14 192.891 911.215 192.891 911.215 194.205Z" fill="#161616"/>
<path d="M408.41 365.819C407.373 400.543 406.335 435.198 405.297 469.922C405.228 471.236 403.153 471.236 403.222 469.922C404.26 435.198 405.297 400.543 406.335 365.819C406.335 364.505 408.41 364.505 408.41 365.819Z" fill="#161616"/>
<path d="M551.663 349.909C551.248 354.129 550.833 358.417 550.487 362.637C546.475 361.599 542.532 360.493 538.521 359.455C539.074 355.236 539.558 350.947 540.111 346.728C543.985 347.765 547.79 348.872 551.663 349.909Z" fill="#939393"/>
<path d="M554.084 382.213C549.934 381.659 545.853 381.175 541.702 380.622C541.149 385.671 540.665 390.721 540.111 395.77C543.847 395.908 547.582 396.047 551.248 396.185C552.216 391.481 553.116 386.847 554.084 382.213Z" fill="#939393"/>
<path d="M538.936 412.855C537.621 417.213 536.307 421.64 534.924 425.998C531.188 424.268 527.453 422.539 523.787 420.81C524.963 416.936 526.208 413.132 527.384 409.258C531.188 410.503 535.062 411.679 538.936 412.855Z" fill="#939393"/>
<path d="M812.369 454.081C811.47 467.501 810.571 480.92 809.671 494.27C786.153 492.748 762.635 491.295 739.117 489.774C738.702 477.738 738.218 465.633 737.803 453.597C762.635 453.805 787.537 453.943 812.369 454.081Z" fill="#8C8C8C"/>
<path d="M519.982 181.063C517.27 181.063 515.071 179.236 515.071 176.982C515.071 174.728 517.27 172.901 519.982 172.901C522.695 172.901 524.894 174.728 524.894 176.982C524.894 179.236 522.695 181.063 519.982 181.063Z" fill="#444444"/>
<path d="M853.733 211.637C851.479 211.637 849.652 210.429 849.652 208.939C849.652 207.449 851.479 206.241 853.733 206.241C855.987 206.241 857.814 207.449 857.814 208.939C857.814 210.429 855.987 211.637 853.733 211.637Z" fill="#828282"/>
<path d="M788.782 289.869C787.025 289.869 785.6 288.197 785.6 286.134C785.6 284.071 787.025 282.398 788.782 282.398C790.539 282.398 791.964 284.071 791.964 286.134C791.964 288.197 790.539 289.869 788.782 289.869Z" fill="#828282"/>
<path opacity="0.21" d="M817.972 196.696C816.727 196.488 814.306 208.04 808.357 228.999C800.541 256.598 792.794 278.871 787.191 294.089C795.699 299.346 814.721 309.375 840.66 309.721C858.99 309.929 873.447 305.225 882.024 301.628C865.216 303.496 851.658 303.012 842.182 302.112C827.172 300.729 829.8 299.138 818.456 298.585C813.752 298.377 807.596 298.377 801.302 294.573C799.019 293.189 797.359 291.668 796.252 290.561C800.679 281.43 806.351 268.011 810.916 251.203C818.179 223.88 819.77 197.041 817.972 196.696Z" fill="#6D6C6C"/>
<path opacity="0.25" d="M753.158 271.746C752.051 280.531 750.045 290.353 746.725 300.867C737.249 330.749 721.27 352.054 709.234 365.196C716.428 370.523 725.351 376.056 736.073 380.691C768.583 394.732 798.949 392.657 815.205 390.167C815.827 386.501 816.45 382.835 817.072 379.169C810.155 379.376 802.823 379.238 795.145 378.823C767.753 377.094 744.235 370.938 725.49 364.09C731.438 353.991 735.727 345.275 738.701 338.704C745.895 323.002 751.221 311.174 753.089 295.195C754.265 285.442 753.781 277.211 753.158 271.746Z" fill="#6D6C6C"/>
<path opacity="0.14" d="M533.264 317.538C532.572 333.309 530.912 346.382 529.459 355.789C526.07 377.371 523.58 392.312 514.726 409.12C509.192 419.565 502.967 427.243 498.47 432.223C506.287 438.933 516.801 446.542 530.289 452.629C564.183 468.054 596.002 464.941 610.874 462.451C611.634 459.062 612.395 455.672 613.156 452.214C611.289 452.352 608.383 452.491 604.856 452.56C593.097 452.836 568.61 453.251 540.527 443.844C532.641 441.216 521.574 436.789 509.123 429.457C514.034 422.885 518.876 415.069 523.095 406.007C539.766 370.246 536.445 335.522 533.264 317.538Z" fill="#6D6C6C"/>
<path opacity="0.18" d="M480.279 162.387C478.895 168.82 476.889 178.642 474.883 190.885C471.148 214.542 471.425 223.119 467.067 237.092C464.784 244.355 460.703 254.661 453.025 266.42C459.458 271.677 467.482 277.142 477.373 281.707C509.745 296.717 540.734 292.498 554.983 289.523C554.845 286.756 554.707 283.99 554.568 281.292C552.77 281.776 550.072 282.399 546.752 282.952C542.394 283.644 526.277 285.996 495.98 278.387C487.611 276.312 476.336 272.991 463.401 267.665C465.891 263.238 469.557 256.321 472.877 247.467C482.561 221.805 482.492 199.532 482.354 188.049C482.285 181.755 481.869 172.97 480.279 162.387Z" fill="#6D6C6C"/>
<path d="M893.784 192.753C900.632 228.999 893.715 265.659 886.798 301.352C886.521 302.666 884.515 302.112 884.792 300.798C891.64 265.521 898.488 229.206 891.778 193.306C891.57 192.061 893.576 191.439 893.784 192.753Z" fill="#161616"/>
<path d="M891.846 192.476C881.955 199.116 869.988 200.292 858.298 199.462C844.948 198.494 831.736 195.658 818.525 193.444C817.211 193.237 817.764 191.231 819.078 191.438C831.736 193.514 844.395 196.211 857.191 197.249C868.881 198.217 880.848 197.318 890.809 190.608C891.915 189.917 892.953 191.715 891.846 192.476Z" fill="#161616"/>
<path d="M819.909 194.897C817.973 227.961 812.992 261.717 796.253 290.769C795.561 291.944 793.763 290.907 794.454 289.731C810.986 260.956 815.898 227.546 817.834 194.897C817.903 193.583 819.979 193.583 819.909 194.897Z" fill="#161616"/>
<path d="M885.068 301.905C869.366 306.47 852.488 303.703 836.51 302.389C822.33 301.213 807.112 300.66 794.938 292.359C793.831 291.598 794.869 289.8 795.975 290.561C808.219 298.931 823.575 299.207 837.824 300.383C853.18 301.628 869.366 304.188 884.514 299.83C885.829 299.553 886.382 301.559 885.068 301.905Z" fill="#161616"/>
<path d="M858.506 209.354C859.89 208.731 858.368 207.417 857.538 207.21C856.5 206.933 854.494 206.795 854.01 207.971C853.664 208.87 854.218 210.046 855.048 210.392C856.362 211.014 857.815 210.253 858.714 209.354C859.682 208.386 861.135 209.838 860.167 210.807C858.437 212.536 855.601 213.435 853.457 211.844C851.728 210.599 851.105 207.832 852.558 206.172C854.218 204.304 857.746 204.512 859.613 205.895C861.273 207.14 861.619 210.115 859.475 211.083C858.299 211.706 857.261 209.907 858.506 209.354Z" fill="#161616"/>
<path d="M830.769 302.181C835.749 327.429 830.423 352.953 825.028 377.716C824.751 379.03 822.745 378.477 823.022 377.163C828.348 352.814 833.605 327.636 828.763 302.735C828.486 301.42 830.492 300.867 830.769 302.181Z" fill="#161616"/>
<path d="M802.201 275.689C786.222 272.645 770.036 271.539 753.85 272.161C754.196 271.815 754.542 271.469 754.888 271.124C758.139 304.464 743.89 336.214 726.597 363.813C725.905 364.92 724.107 363.882 724.798 362.775C741.884 335.453 756.064 304.118 752.813 271.124C752.744 270.57 753.366 270.086 753.85 270.086C770.244 269.464 786.638 270.639 802.754 273.683C804.069 273.96 803.515 275.966 802.201 275.689Z" fill="#161616"/>
<path d="M823.921 379.169C790.303 383.112 756.202 378.062 725.075 364.781C723.83 364.228 724.937 362.499 726.113 362.983C756.825 376.126 790.718 380.968 823.921 377.094C825.235 376.956 825.235 379.031 823.921 379.169Z" fill="#161616"/>
<path d="M789.196 284.197C789.196 284.128 788.988 283.782 788.988 283.644C788.919 283.367 788.712 283.09 788.504 282.883C788.089 282.537 787.605 282.26 787.052 282.191C786.014 282.053 785.046 282.606 784.769 283.644C784.561 284.474 784.907 285.581 785.876 285.719C786.775 285.857 787.605 285.235 787.743 284.336C787.951 283.021 789.957 283.575 789.749 284.889C789.403 287.31 786.291 288.486 784.285 287.31C782.071 285.996 782.21 282.606 784.077 281.015C786.152 279.286 789.611 280.185 790.787 282.537C791.34 283.713 791.34 285.304 790.026 285.996C788.988 286.549 787.467 286.065 787.19 284.751C786.982 283.436 788.988 282.883 789.196 284.197Z" fill="#161616"/>
<path d="M886.936 230.382C868.536 232.941 850.275 229.137 832.637 224.087C831.322 223.742 831.876 221.736 833.19 222.081C850.483 226.993 868.398 230.866 886.383 228.376C887.697 228.168 888.25 230.174 886.936 230.382Z" fill="#161616"/>
<path d="M883.477 243.939C873.932 244.977 864.386 244.008 855.186 241.103C853.941 240.688 854.425 238.682 855.74 239.097C864.732 241.933 874.07 242.832 883.477 241.864C884.791 241.726 884.791 243.801 883.477 243.939Z" fill="#161616"/>
<path d="M883.477 260.679C865.216 262.823 846.816 261.509 829.109 256.874C827.794 256.529 828.348 254.523 829.662 254.869C847.232 259.503 865.424 260.748 883.477 258.604C884.791 258.396 884.791 260.471 883.477 260.679Z" fill="#161616"/>
<path d="M815.136 366.857C796.806 367.687 778.476 365.473 760.906 360.216C759.661 359.87 760.145 357.864 761.459 358.21C778.891 363.398 796.944 365.612 815.136 364.782C816.52 364.712 816.52 366.788 815.136 366.857Z" fill="#161616"/>
<path d="M811.608 351.016C803.446 350.74 795.284 350.117 787.121 349.218C785.807 349.08 785.807 347.005 787.121 347.143C795.284 348.042 803.377 348.665 811.608 348.941C812.922 349.01 812.922 351.086 811.608 351.016Z" fill="#161616"/>
<path d="M804.968 322.518C799.573 323.21 793.97 321.826 788.644 321.066C782.764 320.166 776.954 319.336 771.075 318.437C769.76 318.229 770.314 316.224 771.628 316.431C777.023 317.261 782.488 318.091 787.883 318.852C793.486 319.682 799.296 321.204 804.968 320.443C806.283 320.235 806.283 322.311 804.968 322.518Z" fill="#161616"/>
<path d="M560.517 167.436C568.057 204.443 568.818 242.487 562.8 279.77C562.592 281.084 560.586 280.531 560.794 279.217C566.743 242.348 565.913 204.581 558.511 167.989C558.235 166.675 560.241 166.122 560.517 167.436Z" fill="#161616"/>
<path d="M558.166 167.92C533.057 162.179 507.117 161.003 481.524 164.462C480.21 164.669 479.656 162.663 480.971 162.456C506.91 158.928 533.195 160.104 558.719 165.914C559.964 166.26 559.411 168.266 558.166 167.92Z" fill="#161616"/>
<path d="M482.145 162.594C482.906 198.217 482.422 235.846 464.368 267.734C463.677 268.91 461.947 267.873 462.57 266.697C480.416 235.155 480.831 197.871 480.07 162.594C480.001 161.28 482.076 161.28 482.145 162.594Z" fill="#161616"/>
<path d="M561.209 280.876C553.461 283.228 545.161 283.367 537.137 283.436C528.491 283.505 519.844 282.952 511.198 281.776C494.666 279.562 478.549 275.066 463.124 268.564C461.879 268.08 462.986 266.281 464.161 266.766C479.587 273.268 495.842 277.695 512.443 279.839C520.19 280.807 528.006 281.361 535.823 281.292C544.054 281.292 552.701 281.222 560.586 278.801C561.969 278.525 562.454 280.531 561.209 280.876Z" fill="#161616"/>
<path d="M518.875 170.134C521.227 170.964 522.265 173.662 521.435 175.944C520.466 178.504 517.492 179.126 515.278 177.604C513.134 176.083 512.442 173.039 514.518 171.102C516.316 169.442 519.429 169.373 521.089 171.171C521.988 172.14 520.535 173.592 519.636 172.624C517.561 170.411 513.48 173.523 516.316 175.737C517.423 176.567 519.014 176.567 519.498 175.114C519.844 174.007 519.498 172.486 518.322 172.071C517.077 171.656 517.63 169.65 518.875 170.134Z" fill="#161616"/>
<path d="M559.479 199.601C540.595 200.085 521.781 199.739 502.966 198.494C501.652 198.425 501.652 196.35 502.966 196.419C521.781 197.664 540.664 198.079 559.479 197.525C560.862 197.525 560.862 199.601 559.479 199.601Z" fill="#161616"/>
<path d="M557.612 210.114C550.556 210.391 543.501 210.668 536.515 210.944C535.2 211.014 535.2 208.939 536.515 208.869C543.57 208.593 550.626 208.316 557.612 208.039C558.995 207.97 558.995 210.045 557.612 210.114Z" fill="#161616"/>
<path d="M559.548 224.779C541.772 225.747 523.787 226.578 506.287 222.704C504.972 222.427 505.526 220.421 506.84 220.698C524.202 224.502 541.979 223.672 559.548 222.704C560.863 222.635 560.863 224.71 559.548 224.779Z" fill="#161616"/>
<path d="M817.418 449.655C819.009 463.489 819.563 477.392 819.079 491.296C819.009 492.61 816.934 492.61 817.003 491.296C817.488 477.392 816.934 463.489 815.343 449.655C815.205 448.34 817.28 448.34 817.418 449.655Z" fill="#161616"/>
<path d="M816.726 450.484C792.101 450.484 767.407 450.138 742.782 449.378C741.468 449.308 741.468 447.233 742.782 447.302C767.407 448.063 792.101 448.409 816.726 448.409C818.04 448.409 818.04 450.484 816.726 450.484Z" fill="#161616"/>
<path d="M742.991 448.41C742.783 460.445 742.576 472.412 742.368 484.448C742.368 485.762 740.293 485.762 740.293 484.448C740.5 472.412 740.708 460.445 740.915 448.41C740.915 447.095 743.06 447.095 742.991 448.41Z" fill="#161616"/>
<path d="M819.286 489.773C819.148 494.269 811.331 492.263 808.772 492.125C801.44 491.641 794.108 491.157 786.845 490.603C771.973 489.566 757.101 488.597 742.229 487.56C740.915 487.491 740.915 485.415 742.229 485.485C754.888 486.315 767.477 487.214 780.135 488.044C786.153 488.459 792.171 488.874 798.189 489.289C799.987 489.427 817.211 491.087 817.28 489.773C817.211 488.459 819.286 488.459 819.286 489.773Z" fill="#161616"/>
<path d="M811.124 459.823C794.522 459.062 777.921 459.684 761.459 461.759C760.144 461.898 760.144 459.823 761.459 459.684C777.921 457.609 794.522 456.987 811.124 457.748C812.507 457.817 812.507 459.892 811.124 459.823Z" fill="#161616"/>
<path d="M810.501 470.336C801.232 469.645 791.894 468.884 782.625 468.192C781.31 468.123 781.31 466.048 782.625 466.117C791.894 466.809 801.232 467.57 810.501 468.261C811.815 468.33 811.815 470.406 810.501 470.336Z" fill="#161616"/>
<path d="M807.389 480.92C794.039 479.19 779.513 475.663 766.094 478.084C764.779 478.291 764.226 476.354 765.54 476.078C779.236 473.588 793.762 477.046 807.389 478.845C808.634 479.052 808.703 481.127 807.389 480.92Z" fill="#161616"/>
<path d="M627.475 331.925C638.473 371.076 637.09 412.994 623.601 451.384C623.186 452.629 621.18 452.076 621.595 450.83C634.945 412.786 636.329 371.284 625.469 332.479C625.123 331.164 627.129 330.611 627.475 331.925Z" fill="#161616"/>
<path d="M626.091 332.617C595.31 332.479 564.667 328.467 534.855 320.65C533.54 320.305 534.094 318.299 535.408 318.644C565.013 326.392 595.449 330.403 626.091 330.542C627.475 330.542 627.475 332.617 626.091 332.617Z" fill="#161616"/>
<path d="M535.408 319.405C536.653 338.635 535.823 358.003 532.364 377.025C530.635 386.639 528.56 396.254 524.756 405.247C520.951 414.17 515.694 422.263 509.538 429.664C508.708 430.702 507.186 429.249 508.085 428.211C514.38 420.672 519.706 412.302 523.441 403.171C526.969 394.456 528.906 385.118 530.497 375.918C533.817 357.311 534.578 338.289 533.402 319.405C533.264 318.091 535.339 318.091 535.408 319.405Z" fill="#161616"/>
<path d="M623.324 452.49C584.173 455.257 543.293 450.83 508.984 430.632C507.808 429.941 508.846 428.142 510.022 428.834C544.123 448.893 584.588 453.113 623.324 450.415C624.638 450.277 624.638 452.352 623.324 452.49Z" fill="#161616"/>
<path d="M581.683 338.842C582.859 336.836 580.507 334.346 578.501 335.937C576.357 337.666 578.64 340.433 580.922 339.534C582.168 339.05 582.721 341.056 581.476 341.54C579.608 342.301 577.326 341.471 576.219 339.811C574.974 337.943 575.527 335.591 577.256 334.277C580.992 331.302 585.695 335.937 583.482 339.88C582.79 341.056 580.992 340.018 581.683 338.842Z" fill="#161616"/>
<path d="M625.399 362.706C604.717 362.36 584.035 360.908 563.422 358.418C562.107 358.279 562.107 356.204 563.422 356.343C583.966 358.902 604.648 360.285 625.399 360.631C626.713 360.7 626.713 362.775 625.399 362.706Z" fill="#161616"/>
<path d="M556.021 348.803C555.399 351.985 554.776 355.236 554.153 358.418C553.877 359.732 551.871 359.179 552.148 357.864C552.77 354.682 553.393 351.431 554.015 348.25C554.223 346.935 556.229 347.489 556.021 348.803Z" fill="#161616"/>
<path d="M554.638 348.526C550.833 347.973 547.029 347.419 543.155 346.797C541.841 346.589 542.394 344.583 543.709 344.791C547.513 345.344 551.317 345.898 555.191 346.52C556.505 346.728 555.952 348.734 554.638 348.526Z" fill="#161616"/>
<path d="M543.778 346.175C543.225 349.149 542.74 352.123 542.187 355.029C541.979 356.343 539.974 355.789 540.181 354.475C540.734 351.501 541.219 348.526 541.772 345.621C541.98 344.376 543.985 344.93 543.778 346.175Z" fill="#161616"/>
<path d="M552.424 360.009C548.343 359.179 544.469 358.072 540.595 356.55C539.35 356.066 539.904 354.06 541.149 354.544C545.022 355.997 548.965 357.173 552.977 358.003C554.291 358.279 553.738 360.285 552.424 360.009Z" fill="#161616"/>
<path d="M552.078 350.878C551.317 352.607 550.28 353.991 548.758 355.166C548.205 355.582 547.167 355.582 547.029 354.682C546.475 350.947 545.161 347.627 542.948 344.514C542.187 343.407 543.985 342.37 544.746 343.477C547.029 346.658 548.481 350.255 549.035 354.129C548.481 353.991 547.859 353.852 547.305 353.645C548.62 352.607 549.588 351.362 550.28 349.771C550.833 348.595 552.632 349.633 552.078 350.878Z" fill="#161616"/>
<path d="M551.317 380.553C552.424 385.533 551.94 390.375 549.934 395.009C549.38 396.255 547.651 395.148 548.135 393.972C549.934 389.891 550.28 385.464 549.311 381.106C549.034 379.792 551.04 379.239 551.317 380.553Z" fill="#161616"/>
<path d="M549.933 381.244C545.783 380.553 541.633 379.93 537.483 379.238C537.898 378.823 538.313 378.408 538.728 377.993C539.419 382.42 538.935 386.64 537.206 390.79C536.722 392.035 534.716 391.482 535.2 390.236C536.791 386.501 537.344 382.558 536.722 378.547C536.583 377.716 537.137 377.163 537.967 377.301C542.117 377.924 546.267 378.616 550.418 379.307C551.801 379.446 551.248 381.452 549.933 381.244Z" fill="#161616"/>
<path d="M549.035 395.079C544.47 394.94 540.112 394.041 535.823 392.519C534.578 392.035 535.131 390.029 536.376 390.513C540.458 392.035 544.677 392.865 549.035 393.003C550.349 393.003 550.349 395.079 549.035 395.079Z" fill="#161616"/>
<path d="M548.412 385.464C547.789 387.262 546.752 388.507 545.091 389.476C544.331 389.891 543.639 389.337 543.5 388.576C543.085 384.91 542.117 381.383 540.595 377.993C540.042 376.817 541.84 375.711 542.394 376.956C544.054 380.691 545.091 384.564 545.576 388.576C545.022 388.3 544.538 387.954 543.985 387.677C545.161 386.985 545.852 386.155 546.336 384.841C546.821 383.665 548.827 384.219 548.412 385.464Z" fill="#161616"/>
<path d="M547.029 412.648C546.544 417.282 545.299 421.64 543.224 425.79C542.671 426.966 540.872 425.929 541.426 424.753C543.293 420.948 544.469 416.867 544.884 412.648C545.092 411.334 547.167 411.334 547.029 412.648Z" fill="#161616"/>
<path d="M546.06 412.44C540.734 412.924 535.754 411.956 530.981 409.604C531.465 409.397 532.018 409.189 532.503 408.982C531.603 413.201 529.736 416.867 526.831 420.118C525.931 421.087 524.479 419.634 525.378 418.666C528.007 415.691 529.667 412.371 530.497 408.497C530.635 407.806 531.465 407.598 532.018 407.875C536.445 410.019 541.149 410.849 546.06 410.434C547.374 410.296 547.374 412.371 546.06 412.44Z" fill="#161616"/>
<path d="M541.356 426.552C535.961 424.546 530.635 422.401 525.447 420.049C524.202 419.496 525.308 417.698 526.484 418.251C531.534 420.534 536.722 422.609 541.91 424.546C543.155 425.03 542.601 427.036 541.356 426.552Z" fill="#161616"/>
<path d="M542.463 416.107C540.803 417.559 536.998 422.54 535.062 418.873C534.162 417.213 534.37 414.931 533.816 413.063C532.986 410.435 531.603 408.014 529.805 405.938C528.974 404.901 530.427 403.448 531.257 404.486C533.194 406.768 534.716 409.259 535.615 412.164C536.03 413.478 536.376 414.862 536.583 416.245C536.86 417.974 537.344 417.559 538.658 416.729C539.489 416.176 540.249 415.346 541.01 414.654C541.979 413.755 543.431 415.207 542.463 416.107Z" fill="#161616"/>
<path d="M623.532 396.531C604.164 396.323 584.865 394.732 565.774 391.689C564.46 391.481 565.013 389.475 566.327 389.683C585.28 392.657 604.371 394.248 623.532 394.387C624.846 394.456 624.846 396.531 623.532 396.531Z" fill="#161616"/>
<path d="M625.745 368.448C613.225 368.794 600.774 368.379 588.323 367.341C587.009 367.203 587.009 365.128 588.323 365.266C600.774 366.303 613.294 366.649 625.745 366.373C627.059 366.303 627.059 368.379 625.745 368.448Z" fill="#161616"/>
<path d="M622.771 400.612C609.629 401.234 596.486 400.75 583.482 399.09C582.168 398.952 582.168 396.877 583.482 397.015C596.555 398.606 609.698 399.159 622.771 398.537C624.085 398.468 624.085 400.543 622.771 400.612Z" fill="#161616"/>
<path d="M579.054 398.122C575.319 398.191 571.653 397.707 568.056 396.531C566.811 396.116 567.364 394.11 568.61 394.525C571.999 395.632 575.457 396.116 579.054 396.047C580.369 396.047 580.369 398.122 579.054 398.122Z" fill="#161616"/>
<path d="M615.715 426.62C599.944 425.652 584.243 424.199 568.61 422.055C567.296 421.848 567.296 419.772 568.61 419.98C584.243 422.055 599.944 423.577 615.715 424.545C617.099 424.614 617.099 426.689 615.715 426.62Z" fill="#161616"/>
<path d="M613.918 431.462C608.73 431.462 603.542 431.462 598.354 431.462C597.04 431.462 597.04 429.387 598.354 429.387C603.542 429.387 608.73 429.387 613.918 429.387C615.232 429.387 615.232 431.462 613.918 431.462Z" fill="#161616"/>
<path d="M609.421 436.097C601.328 435.613 593.235 434.852 585.142 433.884C578.64 433.053 571.654 432.708 566.051 428.903C564.944 428.142 565.982 426.344 567.088 427.105C572.968 431.117 580.853 431.324 587.701 432.085C594.895 432.915 602.158 433.538 609.352 434.022C610.735 434.091 610.805 436.166 609.421 436.097Z" fill="#161616"/>
<path d="M530.427 380.207C517.838 379.584 505.318 377.924 492.936 375.295C493.351 375.088 493.766 374.811 494.181 374.604C488.371 391.897 479.794 408.013 468.795 422.609C468.035 423.646 466.167 422.609 466.997 421.571C477.857 407.183 486.365 391.205 492.175 374.12C492.383 373.566 492.867 373.289 493.42 373.428C505.595 376.056 517.907 377.647 530.358 378.27C531.81 378.201 531.81 380.276 530.427 380.207Z" fill="#161616"/>
<path d="M528.283 438.587C526.415 441.215 524.894 443.982 523.579 446.957C523.441 447.372 522.818 447.579 522.403 447.441C512.235 444.051 502.205 440.316 492.383 436.097C487.403 433.952 482.492 431.739 477.58 429.387C475.229 428.28 472.877 427.104 470.594 425.929C469.211 425.237 467.62 424.822 467.136 423.3C466.997 422.885 467.205 422.332 467.62 422.124C468.242 421.778 468.588 421.778 469.211 422.124C469.626 422.332 469.833 422.885 469.695 423.3C469.695 423.369 469.626 423.438 469.626 423.508C469.28 424.822 467.274 424.268 467.62 422.954C467.62 422.885 467.689 422.816 467.689 422.747C467.827 423.162 468.035 423.508 468.173 423.923C468.312 423.923 468.519 423.923 468.657 423.923C468.796 423.508 469.003 423.162 469.142 422.747C469.557 423.992 473.914 425.306 475.09 425.929C477.027 426.897 478.964 427.796 480.97 428.765C485.604 430.978 490.308 433.053 495.081 435.059C504.211 438.933 513.549 442.391 522.957 445.504C522.542 445.642 522.196 445.85 521.781 445.988C523.026 443.014 524.617 440.247 526.484 437.618C527.245 436.443 529.044 437.48 528.283 438.587Z" fill="#161616"/>
<path d="M516.247 385.602C516.385 384.703 514.725 383.873 514.103 384.495C513.273 385.325 514.656 386.847 515.624 386.501C516.87 386.017 517.423 388.023 516.178 388.507C513.204 389.614 510.298 385.325 512.581 383.043C513.619 382.005 515.209 382.074 516.455 382.697C517.769 383.388 518.46 384.703 518.184 386.155C518.045 387.469 516.04 386.847 516.247 385.602Z" fill="#161616"/>
<path d="M822.745 330.265C815.067 330.403 807.32 330.057 799.711 329.02C791.756 327.913 783.871 325.63 775.778 325.976C774.463 326.045 774.463 323.97 775.778 323.901C783.179 323.624 790.373 325.492 797.636 326.599C805.936 327.913 814.375 328.397 822.814 328.19C824.059 328.19 824.059 330.265 822.745 330.265Z" fill="#161616"/>
<path d="M821.638 307.37C809.879 308.269 798.12 307.231 786.707 304.257C785.393 303.911 785.946 301.905 787.26 302.251C798.535 305.156 810.018 306.194 821.638 305.294C822.953 305.225 822.953 307.3 821.638 307.37Z" fill="#161616"/>
<path d="M555.468 249.127C556.644 256.736 557.612 264.967 552.839 271.608C552.078 272.714 550.28 271.677 551.041 270.57C555.468 264.414 554.499 256.736 553.462 249.68C553.254 248.366 555.26 247.813 555.468 249.127Z" fill="#161616"/>
<path d="M554.845 249.058C538.382 249.68 521.92 248.089 505.872 244.285C506.287 244.078 506.702 243.801 507.117 243.593C505.664 250.718 502.898 257.358 499.024 263.445C498.332 264.552 496.534 263.515 497.225 262.408C501.03 256.459 503.658 249.957 505.111 243.04C505.249 242.487 505.872 242.21 506.356 242.348C522.196 246.083 538.452 247.674 554.776 247.052C556.159 246.914 556.159 248.989 554.845 249.058Z" fill="#161616"/>
<path d="M551.109 271.539C533.263 270.985 515.624 268.357 498.47 263.653C497.155 263.307 497.709 261.301 499.023 261.647C516.039 266.351 533.47 268.979 551.109 269.464C552.492 269.533 552.492 271.608 551.109 271.539Z" fill="#161616"/>
<path d="M307.213 754.699C307.213 762.516 307.213 770.263 307.213 778.079C362.55 800.006 373.825 807.823 372.995 810.659C372.787 811.35 371.335 813.426 342.283 810.036C313.507 806.647 290.197 801.736 274.011 797.724C276.847 781.745 279.752 765.767 282.588 749.788C290.819 751.448 299.051 753.108 307.213 754.699Z" fill="#161616"/>
<path d="M282.38 423.854C283.971 426.828 284.524 429.249 284.663 429.803C294.554 471.859 307.489 496.691 315.928 545.457C332.045 639.391 318.141 746.122 316.827 756.152C312.4 758.089 303.892 760.994 293.032 760.579C283.487 760.164 276.085 757.328 271.866 755.322C273.457 724.679 271.866 686.843 261.283 645.133C248.348 594.015 231.954 577.068 217.221 517.304C206.292 473.035 193.633 421.502 215.491 406.215C232.231 394.318 271.451 403.033 282.38 423.854Z" fill="#4F4F4F"/>
<path opacity="0.2" d="M244.129 445.92C255.196 496.415 265.502 550.23 274.218 607.158C282.449 660.696 288.606 711.952 293.171 760.648C286.185 759.196 279.268 757.743 272.281 756.291C273.18 734.778 272.212 716.448 270.829 702.406C269.168 684.975 264.949 644.372 248.002 603.837C245.789 598.65 242.953 592.355 238.318 580.527C230.502 560.951 224.83 544.212 222.27 536.326C210.235 498.697 204.217 455.05 202.349 440.663C216.322 442.323 230.225 444.121 244.129 445.92Z" fill="#6D6C6C"/>
<path opacity="0.19" d="M221.302 533.836C248.417 569.183 261.075 601.209 267.439 622.721C273.249 642.297 275.808 659.59 279.129 682.001C283.832 713.82 285.631 740.658 286.392 759.749C281.826 758.643 277.33 757.467 272.765 756.36C273.526 729.591 271.658 706.695 269.376 688.849C266.609 667.683 263.427 643.127 252.359 613.591C248.348 602.869 246.411 599.826 237.28 576.653C230.225 558.531 224.829 543.659 221.302 533.836Z" fill="#6D6C6C"/>
<path d="M157.803 746.745C153.93 756.359 149.987 765.974 146.113 775.658C178.624 796.34 193.98 808.376 192.251 811.904C190.106 816.262 162.023 807.615 108 786.103C113.741 767.427 119.483 748.82 125.224 730.144C136.084 735.677 146.944 741.211 157.803 746.745Z" fill="#161616"/>
<path d="M184.504 424.684C167.557 440.178 168.11 461.898 165.966 497.867C165.966 497.867 160.709 586.337 143.07 657.445C138.643 675.222 130.619 702.821 115.747 735.885C118.238 739.067 125.016 746.814 136.914 750.895C149.088 755.045 159.464 752.832 163.337 751.794C184.504 715.687 199.514 684.906 209.198 663.601C254.09 565.239 257.687 513.43 257.687 486.384C257.687 458.578 257.202 425.237 236.52 414.101C220.957 405.731 198.13 412.233 184.504 424.684Z" fill="#4F4F4F"/>
<path opacity="0.15" d="M232.509 435.267C224.831 464.803 216.53 494.824 207.676 525.259C184.573 604.252 159.464 678.888 133.11 748.889C130.55 747.575 127.438 745.777 124.256 743.356C121.005 740.865 118.446 738.375 116.509 736.162C120.106 727.792 125.086 715.687 130.343 700.815C138.298 678.058 151.233 636.209 157.942 580.458C164.375 526.919 167.626 500.15 167.35 483.272C167.142 469.369 165.897 441.078 183.881 425.86C187.617 422.747 191.283 420.88 193.842 419.773C206.777 424.961 219.643 430.149 232.509 435.267Z" fill="#6D6C6C"/>
<path opacity="0.22" d="M166.518 501.256C169.7 533.421 170.738 576.515 162.99 626.318C155.174 676.398 140.994 717.278 128.197 747.021C124.255 743.77 120.312 740.519 116.369 737.199C121.073 726.063 127.229 710.568 133.385 691.615C145.213 655.162 150.332 626.733 154.759 601.209C159.255 575.062 163.959 541.237 166.518 501.256Z" fill="#6D6C6C"/>
<path d="M490.378 172.001C493.145 173.384 496.949 175.805 499.924 179.956C501.515 182.1 503.451 184.936 503.728 188.948C503.797 190.539 504.005 193.997 501.791 196.28C501.169 196.972 499.509 198.286 491.346 198.009C484.083 197.733 480.417 197.594 478.55 195.658C474.953 191.922 476.267 184.867 478.55 180.647C482.147 173.938 489.202 172.278 490.378 172.001Z" fill="white" stroke="#161616" stroke-width="2" stroke-miterlimit="10"/>
<path d="M448.598 189.363C438.845 200.5 423.213 207.14 394.507 218.968C358.33 233.909 340.207 241.38 318.764 244.008C295.592 246.844 283.21 243.87 278.922 251.41C273.319 261.163 286.461 279.424 300.019 294.711C310.118 292.497 320.563 289.731 331.353 286.134C390.495 266.558 433.242 232.111 461.326 203.474C464.854 204.235 470.871 204.996 477.719 202.921C483.599 201.191 491.899 196.764 491.415 193.237C490.793 188.948 475.783 188.187 474.883 188.118C479.449 186.25 486.02 183.069 493.145 177.881C495.22 176.359 507.117 167.574 505.665 164.807C504.419 162.386 493.629 165.707 483.461 168.819C474.192 171.655 467.759 173.661 460.703 178.503C453.925 183.069 449.982 187.772 448.598 189.363Z" fill="white" stroke="#161616" stroke-width="2" stroke-miterlimit="10"/>
<path d="M496.465 172.762C494.805 174.629 494.459 177.12 493.007 179.056C491.761 180.786 489.963 182.031 488.095 183.068C482.493 186.181 476.544 188.74 470.803 191.576C469.834 192.061 468.589 190.746 469.558 189.916C472.532 187.357 475.714 185.074 479.034 182.999C480.141 182.307 481.247 184.106 480.072 184.798C476.89 186.804 473.846 188.948 471.01 191.369C470.595 190.816 470.18 190.262 469.765 189.709C475.23 187.08 480.694 184.521 486.089 181.685C488.649 180.371 490.931 178.849 492.246 176.22C493.145 174.422 493.629 172.693 495.012 171.171C495.912 170.341 497.364 171.793 496.465 172.762Z" fill="white"/>
<path d="M491.07 180.025C487.888 181.408 484.844 183.207 482.078 185.351C481.04 186.181 479.587 184.729 480.625 183.899C483.53 181.616 486.643 179.748 490.032 178.227C491.277 177.673 492.315 179.472 491.07 180.025Z" fill="white"/>
<path d="M499.231 171.517C496.603 175.736 493.144 179.195 489.063 181.962C487.956 182.722 486.919 180.924 488.025 180.163C491.83 177.604 495.012 174.353 497.433 170.41C498.124 169.372 499.923 170.41 499.231 171.517Z" fill="white"/>
<path d="M496.12 177.189C494.736 179.057 493.215 180.786 491.485 182.308C490.24 183.414 484.776 187.357 487.612 189.363C488.165 189.709 487.612 190.608 487.058 190.262C485.121 188.948 485.882 186.596 487.058 185.005C487.957 183.829 489.203 182.93 490.378 181.893C492.177 180.302 493.768 178.572 495.22 176.705C495.635 176.082 496.535 176.636 496.12 177.189Z" fill="#161616"/>
<path d="M497.572 184.383C495.497 187.219 491.554 191.231 487.68 190.055C487.058 189.847 487.335 188.879 487.957 189.086C491.277 190.124 494.943 186.32 496.673 183.899C497.088 183.345 497.987 183.829 497.572 184.383Z" fill="#161616"/>
<path d="M500.615 189.225C498.332 192.338 495.012 194.136 491.138 194.344C490.447 194.413 490.447 193.375 491.138 193.306C494.597 193.099 497.64 191.438 499.716 188.672C500.131 188.118 501.03 188.672 500.615 189.225Z" fill="#161616"/>
<path d="M502.828 195.45C499.577 198.84 494.182 198.909 490.931 195.45C490.447 194.966 491.208 194.205 491.692 194.689C494.528 197.733 499.231 197.664 502.067 194.689C502.552 194.205 503.313 194.966 502.828 195.45Z" fill="#161616"/>
<path d="M502.137 171.379C494.459 176.428 488.925 184.936 479.31 186.596C478.688 186.735 478.342 185.697 479.033 185.628C488.51 184.037 494.044 175.529 501.583 170.549C502.206 170.064 502.69 170.964 502.137 171.379Z" fill="#161616"/>
<path opacity="0.2" d="M502.967 193.998C505.457 190.608 503.382 183.346 497.364 176.498C490.586 180.44 483.876 184.452 477.097 188.395C478.342 188.395 489.271 188.533 490.032 191.923C490.171 192.476 490.032 193.306 488.995 194.482C485.536 196.142 479.726 198.356 472.255 198.563C468.382 198.632 464.992 198.148 462.364 197.526C448.253 211.775 423.421 233.287 386.898 248.92C354.803 262.616 326.028 266.558 307.005 267.665C307.628 275.827 308.251 283.92 308.873 292.083C340.208 283.782 382.679 268.011 424.873 236.331C439.261 225.54 451.573 214.403 462.087 203.682C471.771 205.273 477.789 203.613 481.593 201.676C484.845 200.016 486.92 197.941 491.208 197.595C494.044 197.387 496.465 198.079 499.578 196.557C499.924 196.419 501.93 195.381 502.967 193.998Z" fill="#6D6C6C"/>
<path opacity="0.14" d="M413.874 242.833C404.19 248.02 392.984 253.277 380.188 257.773C352.312 267.665 327.064 270.778 307.765 271.469C308.042 278.525 308.25 285.649 308.526 292.705C328.586 288.001 353.764 279.77 380.464 264.829C393.261 257.704 404.328 250.165 413.874 242.833Z" fill="#6D6C6C"/>
<path d="M304.515 262.546C308.458 271.469 308.665 278.871 309.011 292.151C309.288 302.181 308.596 312.972 303.201 341.332C296.629 375.641 293.517 381.175 292.479 399.367C291.649 413.616 292.756 425.306 293.793 433.053C285.078 437.826 270.483 444.328 251.392 445.781C217.636 448.34 192.665 433.468 184.088 427.796C183.05 406.076 182.013 384.287 180.906 362.568C184.711 344.03 189.207 329.504 192.458 319.958C202.695 289.869 212.241 275.62 206.154 260.54C202.764 252.171 196.055 247.052 191.42 244.216C194.671 241.726 228.773 216.478 265.987 229.552C269.86 230.866 294.347 239.512 304.515 262.546Z" fill="white" stroke="#161616" stroke-width="2" stroke-miterlimit="10"/>
<path opacity="0.19" d="M266.125 229.483C255.749 246.084 249.939 260.748 246.619 270.985C246.619 270.985 230.364 320.373 242.261 386.639C244.82 400.75 249.386 420.81 258.378 443.775C254.919 444.536 250.769 445.158 246.065 445.366C246.065 445.366 238.802 445.712 230.64 444.674C220.68 443.36 203.594 438.034 183.465 427.796C183.12 404.624 182.774 381.521 182.428 358.348C187.547 338.773 192.734 323.071 196.608 312.073C205.946 285.857 212.517 273.545 207.122 260.54C203.594 252.032 196.4 246.775 190.798 243.732C198.13 238.89 211.687 231.35 230.225 228.445C245.512 226.093 258.101 227.753 266.125 229.483Z" fill="#6D6C6C"/>
<path opacity="0.11" d="M256.648 227.892C245.512 241.588 232.508 261.578 224.484 287.933C201.727 363.191 239.148 429.18 247.795 443.637C240.532 443.568 232.024 442.945 222.755 441.147C206.223 437.965 193.011 432.293 183.535 427.243C183.189 405.662 182.843 384.081 182.497 362.568C188.377 342.578 193.91 323.625 201.45 297.893C206.569 280.255 210.58 265.798 203.041 254.246C199.375 248.643 194.256 245.531 190.383 243.732C212.448 238.406 234.583 233.149 256.648 227.892Z" fill="#6D6C6C"/>
<path d="M261.767 369.208C261.974 354.406 262.113 339.672 262.32 324.869C226.836 323.071 191.351 321.273 155.797 319.474C154.552 333.17 153.307 346.866 151.992 360.562C188.584 363.467 225.175 366.303 261.767 369.208Z" fill="white" stroke="#161616" stroke-width="2" stroke-miterlimit="10"/>
<path d="M272.559 364.366C272.559 358.971 272.559 353.576 272.559 348.18C226.975 344.791 181.391 341.332 135.807 337.943C135.461 344.583 135.116 351.293 134.701 357.933C180.63 360.008 226.629 362.222 272.559 364.366Z" fill="white" stroke="#161616" stroke-width="2" stroke-miterlimit="10"/>
<path d="M268.754 340.018C268.201 347.973 267.647 355.858 267.163 363.813C224.969 360.423 182.843 356.965 140.649 353.575C140.303 346.382 139.957 339.188 139.542 331.925C182.636 334.622 225.729 337.32 268.754 340.018Z" fill="white" stroke="#161616" stroke-width="2" stroke-miterlimit="10"/>
<path d="M279.061 357.864C277.815 389.406 276.57 420.948 275.256 452.49C228.22 447.233 181.183 442.045 134.147 436.788C132.694 405.8 131.242 374.811 129.789 343.822C179.592 348.526 229.326 353.16 279.061 357.864Z" fill="white" stroke="#161616" stroke-width="2" stroke-miterlimit="10"/>
<path d="M271.036 370.177C249.663 367.341 228.289 365.335 206.776 364.089C205.808 364.02 205.808 362.499 206.776 362.499C228.289 363.744 249.732 365.75 271.036 368.586C272.005 368.724 272.005 370.315 271.036 370.177Z" fill="#161616"/>
<path d="M247.172 374.396C230.779 372.32 214.385 370.176 197.922 368.101C196.954 367.963 196.954 366.441 197.922 366.51C214.316 368.585 230.709 370.73 247.172 372.805C248.141 373.012 248.141 374.534 247.172 374.396Z" fill="#161616"/>
<path d="M168.386 418.666C168.663 423.024 168.663 427.45 168.248 431.808C168.179 432.777 166.588 432.777 166.657 431.808C167.072 427.45 167.141 423.024 166.795 418.666C166.726 417.697 168.317 417.697 168.386 418.666Z" fill="#161616"/>
<path d="M167.695 418.804C159.118 419.011 150.61 418.527 142.102 417.42C142.378 417.144 142.655 416.867 142.863 416.66C143.001 420.672 142.863 424.614 142.586 428.557C142.517 429.525 140.926 429.525 140.995 428.557C141.341 424.614 141.41 420.602 141.272 416.66C141.272 416.245 141.618 415.83 142.033 415.899C150.541 417.005 159.049 417.42 167.626 417.282C168.733 417.213 168.733 418.735 167.695 418.804Z" fill="#161616"/>
<path d="M167.073 433.053C158.564 433.191 150.195 432.292 141.894 430.424C140.926 430.217 141.341 428.695 142.309 428.903C150.472 430.701 158.703 431.6 167.073 431.462C168.041 431.462 168.041 432.984 167.073 433.053Z" fill="#161616"/>
<path d="M163.822 423.646C158.565 423.991 153.377 423.715 148.12 422.885C147.151 422.746 147.566 421.225 148.535 421.363C153.584 422.193 158.703 422.4 163.822 422.055C164.79 421.985 164.79 423.576 163.822 423.646Z" fill="#161616"/>
<path d="M160.5 428.004C155.036 427.865 149.779 426.828 144.591 424.96C143.692 424.614 144.038 423.093 145.006 423.438C149.987 425.306 155.174 426.274 160.5 426.482C161.469 426.413 161.538 428.004 160.5 428.004Z" fill="#161616"/>
<path opacity="0.2" d="M256.718 448.893C255.473 419.703 254.228 390.513 253.052 361.253C212.656 358.002 172.191 354.82 131.795 351.569C132.694 379.238 133.662 406.906 134.561 434.575C175.303 439.348 215.976 444.12 256.718 448.893Z" fill="#6D6C6C"/>
<path opacity="0.2" d="M147.013 332.686C146.805 340.709 147.22 350.255 149.295 360.838C154.414 386.847 166.726 405.592 175.096 416.175C169.424 423.715 163.752 431.254 158.011 438.794C175.373 440.8 192.735 442.806 210.097 444.812C207.33 413.132 204.563 381.451 201.796 349.84C202.695 345.69 203.664 341.539 204.563 337.389C185.403 335.729 166.173 334.207 147.013 332.686Z" fill="#6D6C6C"/>
<path d="M195.155 242.349C180.698 240.412 163.475 273.614 156.627 297.478C148.741 324.939 152.2 348.665 155.036 361.185C160.569 385.74 172.052 403.033 179.246 412.371C178.139 416.037 175.58 425.998 179.799 436.927C186.024 452.906 202.902 460.584 204.216 459.131C204.631 458.647 203.801 456.641 197.23 449.101C198.614 450.554 208.574 460.445 219.78 458.093C221.717 457.678 224.138 457.194 225.521 455.257C228.772 450.554 223.377 439.901 211.894 428.073C224.414 431.186 227.735 430.356 228.357 428.972C229.948 425.652 217.151 416.245 212.517 412.786C205.669 407.737 199.513 404.278 195.293 402.134C183.465 377.578 184.088 358.418 185.125 349.426C186.647 336.145 191.627 321.688 192.596 318.921C195.362 310.966 196.677 309.168 202.21 294.849C211.133 271.885 211.134 267.942 210.788 264.898C209.543 255.768 203.386 243.455 195.155 242.349Z" fill="white" stroke="#161616" stroke-width="2" stroke-miterlimit="10"/>
<path d="M225.245 453.321C217.567 448.963 210.857 443.36 205.254 436.582C204.424 435.544 205.877 434.091 206.707 435.129C212.172 441.769 218.743 447.303 226.283 451.592C227.458 452.145 226.421 453.944 225.245 453.321Z" fill="#161616"/>
<path d="M218.466 457.956C210.857 454.013 204.355 448.548 199.098 441.77C198.268 440.732 200.066 439.694 200.896 440.732C205.876 447.234 212.24 452.422 219.503 456.157C220.679 456.78 219.642 458.578 218.466 457.956Z" fill="#161616"/>
<path opacity="0.17" d="M200.966 245.669C214.731 257.636 158.564 310.137 168.179 369.762C174.75 410.642 202.003 437.342 202.003 437.342C209.612 444.951 223.93 454.289 222.201 457.54C220.956 459.892 212.31 457.748 209.197 456.78C203.317 454.981 199.236 451.938 196.954 449.932C200.412 453.805 204.355 458.578 203.525 459.546C202.349 460.792 192.527 455.673 186.37 448.479C175.718 436.028 177.24 418.735 178.278 411.68C175.787 408.429 172.536 403.864 169.216 398.053C166.173 392.865 157.388 376.679 153.583 354.683C146.874 315.74 160.639 285.028 166.173 272.992C171.153 262.27 179.592 244.493 192.388 243.732C194.049 243.525 198.268 243.317 200.966 245.669Z" fill="#6D6C6C"/>
<path opacity="0.22" d="M154.345 353.576C158.081 364.436 162.507 375.849 167.764 387.816C171.5 396.324 175.304 404.279 179.178 411.818C181.115 418.044 184.781 427.382 192.044 436.997C199.652 447.096 208.022 453.252 213.625 456.78C212.034 456.849 210.097 456.71 207.953 456.157C202.558 454.912 198.961 451.938 197.162 450.139C199.237 452.768 201.382 455.327 203.457 457.955C201.797 457.679 199.168 457.195 196.263 455.88C181.045 449.032 177.864 430.425 177.656 429.18C177.103 425.791 176.757 419.98 178.832 412.787C173.852 406.907 167.557 398.122 162.508 386.294C156.905 373.29 155.037 361.6 154.345 353.576Z" fill="#6D6C6C"/>
<path d="M320.424 196.834C331.56 209.561 323.882 227.338 322.845 229.759C318.971 238.752 308.941 251.548 296.214 250.511C286.945 249.681 281.065 241.864 279.613 239.789C269.375 225.056 272.765 196.903 290.057 189.64C299.603 185.628 312.746 187.98 320.424 196.834Z" fill="#262626"/>
<path d="M292.34 208.178C291.856 213.643 286.114 214.818 282.241 223.811C279.474 230.313 279.474 236.677 279.958 241.242C275.462 241.657 267.161 241.864 257.754 238.268C250.353 235.431 245.165 231.35 242.052 228.514C243.505 225.263 245.649 220.491 248.209 214.818C259.276 190.678 261.074 188.603 263.772 187.565C274.563 183.484 293.239 198.01 292.34 208.178Z" fill="white" stroke="#161616" stroke-width="2" stroke-miterlimit="10"/>
<path d="M332.183 136.724C334.535 140.044 335.987 144.125 336.195 161.626C336.333 176.567 335.503 190.193 334.12 202.298C331.007 200.5 327.894 198.701 324.782 196.903C323.398 200.292 321.047 204.927 317.035 209.423C309.08 218.346 299.396 221.39 295.107 222.496C290.611 221.39 279.406 217.931 270.897 207.348C265.295 200.292 263.496 193.306 263.081 191.715C260.522 181.27 263.012 172.624 264.326 169.027C262.666 168.266 260.107 166.814 258.17 164.185C254.089 158.651 252.982 148.76 258.032 145.44C261.767 142.95 268.407 144.402 273.388 149.521C274.494 146.961 276.224 143.434 278.99 139.768C279.682 138.868 284.87 132.09 291.234 128.562C303.477 121.506 323.744 124.827 332.183 136.724Z" fill="white" stroke="#161616" stroke-width="2" stroke-miterlimit="10"/>
<path d="M337.233 158.444C339.999 157.96 345.118 156.507 347.539 152.288C351.689 145.163 345.602 134.303 344.081 131.606C342.836 129.323 339.515 123.858 325.404 113.967C314.683 106.427 309.288 102.692 303.477 100.894C282.864 94.7373 263.98 105.39 260.453 107.396C253.051 111.615 248.348 116.18 244.613 119.777C238.871 125.311 232.438 131.675 225.245 139.007C206.776 162.94 200.274 184.798 197.645 197.872C194.671 212.674 191.627 227.753 200.481 236.607C209.335 245.461 225.521 243.663 235.413 239.443C249.178 233.564 255.057 221.113 259.623 211.498C267.37 195.035 267.854 179.264 267.093 169.027C260.176 167.021 256.648 160.519 258.239 155.608C259.484 151.734 264.119 147.861 268.892 149.244C272.558 150.282 275.186 154.086 274.979 158.513C278.299 158.444 287.153 157.683 295.592 151.319C301.748 146.685 304.861 141.151 306.313 138.108C310.118 138.592 317.726 139.975 325.404 145.509C331.837 149.936 335.434 155.262 337.233 158.444Z" fill="#262626"/>
<path opacity="0.24" d="M291.441 171.656C283.141 181.685 280.512 192.269 280.512 192.269C277.814 204.166 281.688 214.265 283.417 218.346C279.059 215.026 274.632 211.706 270.275 208.385C267.231 218.484 264.257 228.514 261.213 238.613C258.931 238.406 254.227 237.576 249.523 234.256C245.926 231.696 243.782 228.722 242.606 226.854C248.209 221.666 258.931 210.184 263.842 192.13C266.194 183.415 266.539 175.668 266.263 169.857C259.968 167.298 256.717 161.142 258.031 156.023C259 152.288 262.804 147.792 267.715 148.483C271.796 149.106 275.186 153.118 275.117 158.029C278.229 158.029 285.562 157.683 293.239 153.049C301.194 148.276 304.999 141.635 306.451 138.799C306.105 152.08 302.024 159.758 298.358 164.323C295.937 167.436 294.83 167.575 291.441 171.656Z" fill="#6D6C6C"/>
<path d="M323.606 168.751C324.367 171.517 324.297 174.353 323.26 177.051C322.914 178.02 321.6 178.089 321.254 177.051C320.424 174.561 320.424 171.932 321.185 169.442C321.6 168.197 323.606 168.681 323.191 169.996C322.499 172.209 322.568 174.353 323.26 176.567C322.568 176.567 321.946 176.567 321.254 176.567C322.153 174.215 322.291 171.794 321.6 169.373C321.254 167.99 323.191 167.436 323.606 168.751Z" fill="#161616"/>
<path d="M326.096 164.462C324.297 163.355 322.084 163.563 320.562 165.015C319.594 165.914 318.141 164.462 319.109 163.563C321.254 161.488 324.574 161.072 327.133 162.663C328.24 163.355 327.202 165.154 326.096 164.462Z" fill="#161616"/>
<path d="M318.626 182.032C317.311 182.032 317.311 179.957 318.626 179.957C320.009 179.957 320.009 182.032 318.626 182.032Z" fill="#161616"/>
<path d="M314.06 176.013C314.06 176.082 314.06 176.151 314.06 176.221C314.06 176.774 313.575 177.258 313.022 177.258C312.469 177.258 311.984 176.774 311.984 176.221C311.984 176.151 311.984 176.082 311.984 176.013C311.984 175.46 312.469 174.976 313.022 174.976C313.575 174.976 314.06 175.391 314.06 176.013Z" fill="#161616"/>
<path d="M313.853 181.201C312.539 181.201 312.539 179.126 313.853 179.126C315.167 179.126 315.167 181.201 313.853 181.201Z" fill="#161616"/>
<path d="M342.351 171.932C343.181 174.699 343.112 177.535 342.144 180.233C341.798 181.201 340.484 181.201 340.138 180.233C339.308 177.743 339.238 175.114 339.93 172.624C340.276 171.31 342.282 171.863 341.936 173.177C341.314 175.391 341.383 177.535 342.144 179.679C341.452 179.679 340.829 179.679 340.138 179.679C340.968 177.327 341.106 174.906 340.345 172.486C339.999 171.171 342.005 170.618 342.351 171.932Z" fill="#161616"/>
<path d="M343.527 166.744C342.075 165.983 340.069 166.329 339.1 167.713C338.339 168.75 336.541 167.713 337.302 166.675C339.031 164.392 342.005 163.632 344.565 164.946C345.741 165.568 344.703 167.367 343.527 166.744Z" fill="#161616"/>
<path d="M320.216 204.374C314.89 203.405 310.256 200.569 306.797 196.35C306.175 195.589 307.281 194.482 307.904 195.243C311.155 199.255 315.513 201.883 320.631 202.852C321.6 203.059 321.185 204.581 320.216 204.374Z" fill="#161616"/>
<path d="M309.426 195.381C308.181 195.796 307.144 196.419 306.244 197.318C305.553 198.01 304.446 196.903 305.138 196.211C306.245 195.105 307.559 194.344 309.011 193.86C309.98 193.583 310.395 195.105 309.426 195.381Z" fill="#161616"/>
<path opacity="0.45" d="M266.332 104.906C257.547 117.08 246.272 134.304 235.551 156.3C224.207 179.541 215.906 197.042 222.339 203.959C230.847 213.159 260.245 198.563 264.949 196.143C263.98 202.437 261.559 212.467 254.435 222.497C250.838 227.546 244.543 236.469 232.922 240.62C225.936 243.11 219.711 242.971 217.29 242.764C214.039 242.556 210.303 242.28 206.222 240.066C206.222 240.066 200.896 237.23 197.299 231.42C191.835 222.566 194.74 210.599 198.614 195.589C203.248 177.605 209.473 165.638 215.56 153.81C217.082 150.905 218.881 147.515 221.786 143.572C224.691 139.561 226.835 137.416 235.828 128.77C249.178 115.835 251.253 113.967 255.265 111.27C259.692 108.226 263.634 106.22 266.332 104.906Z" fill="#1C1C1C"/>
<path opacity="0.43" d="M283.002 222.565C282.449 224.156 281.204 228.652 283.002 233.633C285.7 241.034 293.17 243.524 294.346 243.87C302.854 246.637 313.576 242.279 320.77 232.803C319.801 235.293 317.657 239.72 313.23 243.593C311.016 245.53 304.999 250.718 296.49 250.096C295.038 249.957 285.7 249.266 281.411 241.172C278.298 235.431 278.99 228.237 283.002 222.565Z" fill="#1C1C1C"/>
</svg>
