<svg width="874" height="597" viewBox="0 0 874 597" fill="none" xmlns="http://www.w3.org/2000/svg">
<rect width="822" height="597" rx="38" fill="white"/>
<path d="M186.4 98V71.9H188.9V83.8H206.6V71.9H209.1V98H206.6V86H188.9V98H186.4ZM230.696 98.2C228.063 98.2 225.729 97.6333 223.696 96.5C221.696 95.3667 220.113 93.8 218.946 91.8C217.813 89.8 217.246 87.5167 217.246 84.95C217.246 82.35 217.779 80.0667 218.846 78.1C219.946 76.1 221.446 74.5333 223.346 73.4C225.246 72.2667 227.379 71.7 229.746 71.7C232.113 71.7 234.229 72.25 236.096 73.35C237.996 74.45 239.479 76 240.546 78C241.646 79.9667 242.196 82.25 242.196 84.85C242.196 84.95 242.179 85.0667 242.146 85.2C242.146 85.3 242.146 85.4167 242.146 85.55H219.096V83.6H240.796L239.796 84.55C239.829 82.5167 239.396 80.7 238.496 79.1C237.629 77.4667 236.446 76.2 234.946 75.3C233.446 74.3667 231.713 73.9 229.746 73.9C227.813 73.9 226.079 74.3667 224.546 75.3C223.046 76.2 221.863 77.4667 220.996 79.1C220.129 80.7 219.696 82.5333 219.696 84.6V85.05C219.696 87.1833 220.163 89.0833 221.096 90.75C222.063 92.3833 223.379 93.6667 225.046 94.6C226.713 95.5 228.613 95.95 230.746 95.95C232.413 95.95 233.963 95.65 235.396 95.05C236.863 94.45 238.096 93.5333 239.096 92.3L240.546 93.95C239.413 95.35 237.979 96.4167 236.246 97.15C234.546 97.85 232.696 98.2 230.696 98.2ZM253.894 98V73.4L254.594 74.15H243.694V71.9H266.594V74.15H255.694L256.394 73.4V98H253.894ZM280.389 98L291.239 83.9L291.189 85.1L280.939 71.9H283.789L292.739 83.45H291.689L300.589 71.9H303.389L293.039 85.25L293.089 83.9L304.089 98H301.139L291.689 85.7L292.639 85.8L283.239 98H280.389ZM323.573 98.2C321.273 98.2 319.19 97.6667 317.323 96.6C315.49 95.5333 314.023 94.0167 312.923 92.05C311.857 90.05 311.323 87.6833 311.323 84.95C311.323 82.2167 311.857 79.8667 312.923 77.9C314.023 75.9 315.49 74.3667 317.323 73.3C319.19 72.2333 321.273 71.7 323.573 71.7C326.04 71.7 328.24 72.2667 330.173 73.4C332.14 74.5 333.673 76.05 334.773 78.05C335.907 80.05 336.473 82.35 336.473 84.95C336.473 87.55 335.907 89.85 334.773 91.85C333.673 93.85 332.14 95.4167 330.173 96.55C328.24 97.65 326.04 98.2 323.573 98.2ZM310.473 107.7V71.9H312.873V80.45L312.473 85L312.973 89.55V107.7H310.473ZM323.423 95.95C325.423 95.95 327.223 95.5 328.823 94.6C330.423 93.6667 331.673 92.3667 332.573 90.7C333.507 89.0333 333.973 87.1167 333.973 84.95C333.973 82.75 333.507 80.8333 332.573 79.2C331.673 77.5333 330.423 76.25 328.823 75.35C327.223 74.4167 325.423 73.95 323.423 73.95C321.423 73.95 319.623 74.4167 318.023 75.35C316.457 76.25 315.207 77.5333 314.273 79.2C313.373 80.8333 312.923 82.75 312.923 84.95C312.923 87.1167 313.373 89.0333 314.273 90.7C315.207 92.3667 316.457 93.6667 318.023 94.6C319.623 95.5 321.423 95.95 323.423 95.95ZM360.805 98V92.05L360.705 91.15V81.35C360.705 78.9167 360.039 77.0667 358.705 75.8C357.405 74.5333 355.489 73.9 352.955 73.9C351.155 73.9 349.472 74.2167 347.905 74.85C346.372 75.45 345.055 76.2333 343.955 77.2L342.705 75.4C344.005 74.2333 345.572 73.3333 347.405 72.7C349.239 72.0333 351.155 71.7 353.155 71.7C356.389 71.7 358.872 72.5167 360.605 74.15C362.339 75.7833 363.205 78.2167 363.205 81.45V98H360.805ZM351.405 98.2C349.472 98.2 347.789 97.9 346.355 97.3C344.955 96.6667 343.872 95.7833 343.105 94.65C342.372 93.5167 342.005 92.2167 342.005 90.75C342.005 89.4167 342.305 88.2167 342.905 87.15C343.539 86.05 344.572 85.1667 346.005 84.5C347.439 83.8 349.355 83.45 351.755 83.45H361.355V85.4H351.805C349.105 85.4 347.205 85.9 346.105 86.9C345.039 87.9 344.505 89.15 344.505 90.65C344.505 92.3167 345.139 93.65 346.405 94.65C347.672 95.65 349.455 96.15 351.755 96.15C353.955 96.15 355.805 95.65 357.305 94.65C358.839 93.65 359.972 92.2 360.705 90.3L361.405 92C360.705 93.9 359.505 95.4167 357.805 96.55C356.139 97.65 354.005 98.2 351.405 98.2ZM373.363 98V71.9H375.863V83.8H393.563V71.9H396.063V98H393.563V86H375.863V98H373.363ZM417.659 98.2C415.026 98.2 412.692 97.6333 410.659 96.5C408.659 95.3667 407.076 93.8 405.909 91.8C404.776 89.8 404.209 87.5167 404.209 84.95C404.209 82.35 404.742 80.0667 405.809 78.1C406.909 76.1 408.409 74.5333 410.309 73.4C412.209 72.2667 414.342 71.7 416.709 71.7C419.076 71.7 421.192 72.25 423.059 73.35C424.959 74.45 426.442 76 427.509 78C428.609 79.9667 429.159 82.25 429.159 84.85C429.159 84.95 429.142 85.0667 429.109 85.2C429.109 85.3 429.109 85.4167 429.109 85.55H406.059V83.6H427.759L426.759 84.55C426.792 82.5167 426.359 80.7 425.459 79.1C424.592 77.4667 423.409 76.2 421.909 75.3C420.409 74.3667 418.676 73.9 416.709 73.9C414.776 73.9 413.042 74.3667 411.509 75.3C410.009 76.2 408.826 77.4667 407.959 79.1C407.092 80.7 406.659 82.5333 406.659 84.6V85.05C406.659 87.1833 407.126 89.0833 408.059 90.75C409.026 92.3833 410.342 93.6667 412.009 94.6C413.676 95.5 415.576 95.95 417.709 95.95C419.376 95.95 420.926 95.65 422.359 95.05C423.826 94.45 425.059 93.5333 426.059 92.3L427.509 93.95C426.376 95.35 424.942 96.4167 423.209 97.15C421.509 97.85 419.659 98.2 417.659 98.2ZM437.328 98V71.9H439.828V83.8H457.528V71.9H460.028V98H457.528V86H439.828V98H437.328ZM470.824 98V71.9H473.324V94.15L491.924 71.9H494.124V98H491.624V75.75L473.024 98H470.824ZM521.856 98V88.4L522.406 89H513.156C509.889 89 507.339 88.3 505.506 86.9C503.706 85.4667 502.806 83.3667 502.806 80.6C502.806 77.6667 503.789 75.4833 505.756 74.05C507.723 72.6167 510.323 71.9 513.556 71.9H524.156V98H521.856ZM502.656 98L509.906 87.95H512.556L505.406 98H502.656ZM521.856 87.7V73.35L522.406 74.1H513.706C511.039 74.1 508.973 74.6167 507.506 75.65C506.039 76.6833 505.306 78.3667 505.306 80.7C505.306 84.9667 508.006 87.1 513.406 87.1H522.406L521.856 87.7ZM547.777 98V71.9H550.277V83.8H567.977V71.9H570.477V98H567.977V86H550.277V98H547.777ZM597.573 98V92.05L597.473 91.15V81.35C597.473 78.9167 596.806 77.0667 595.473 75.8C594.173 74.5333 592.256 73.9 589.723 73.9C587.923 73.9 586.24 74.2167 584.673 74.85C583.14 75.45 581.823 76.2333 580.723 77.2L579.473 75.4C580.773 74.2333 582.34 73.3333 584.173 72.7C586.006 72.0333 587.923 71.7 589.923 71.7C593.156 71.7 595.64 72.5167 597.373 74.15C599.106 75.7833 599.973 78.2167 599.973 81.45V98H597.573ZM588.173 98.2C586.24 98.2 584.556 97.9 583.123 97.3C581.723 96.6667 580.64 95.7833 579.873 94.65C579.14 93.5167 578.773 92.2167 578.773 90.75C578.773 89.4167 579.073 88.2167 579.673 87.15C580.306 86.05 581.34 85.1667 582.773 84.5C584.206 83.8 586.123 83.45 588.523 83.45H598.123V85.4H588.573C585.873 85.4 583.973 85.9 582.873 86.9C581.806 87.9 581.273 89.15 581.273 90.65C581.273 92.3167 581.906 93.65 583.173 94.65C584.44 95.65 586.223 96.15 588.523 96.15C590.723 96.15 592.573 95.65 594.073 94.65C595.606 93.65 596.74 92.2 597.473 90.3L598.173 92C597.473 93.9 596.273 95.4167 594.573 96.55C592.906 97.65 590.773 98.2 588.173 98.2ZM186.4 159V132.9H188.9V155.15L207.5 132.9H209.7V159H207.2V136.75L188.6 159H186.4ZM220.482 159V132.9H222.982V144.8H240.682V132.9H243.182V159H240.682V147H222.982V159H220.482ZM264.378 159.2C261.878 159.2 259.645 158.633 257.678 157.5C255.745 156.367 254.195 154.8 253.028 152.8C251.895 150.8 251.328 148.517 251.328 145.95C251.328 143.35 251.895 141.067 253.028 139.1C254.195 137.1 255.745 135.533 257.678 134.4C259.645 133.267 261.878 132.7 264.378 132.7C266.878 132.7 269.111 133.267 271.078 134.4C273.045 135.533 274.595 137.1 275.728 139.1C276.861 141.067 277.428 143.35 277.428 145.95C277.428 148.517 276.861 150.8 275.728 152.8C274.595 154.8 273.045 156.367 271.078 157.5C269.111 158.633 266.878 159.2 264.378 159.2ZM264.378 156.95C266.378 156.95 268.178 156.5 269.778 155.6C271.378 154.667 272.628 153.367 273.528 151.7C274.428 150.033 274.878 148.117 274.878 145.95C274.878 143.75 274.428 141.833 273.528 140.2C272.628 138.533 271.378 137.25 269.778 136.35C268.178 135.417 266.378 134.95 264.378 134.95C262.378 134.95 260.578 135.417 258.978 136.35C257.411 137.25 256.161 138.533 255.228 140.2C254.328 141.833 253.878 143.75 253.878 145.95C253.878 148.117 254.328 150.033 255.228 151.7C256.161 153.367 257.411 154.667 258.978 155.6C260.578 156.5 262.378 156.95 264.378 156.95ZM296.12 159.2C293.587 159.2 291.32 158.633 289.32 157.5C287.353 156.367 285.787 154.8 284.62 152.8C283.487 150.8 282.92 148.517 282.92 145.95C282.92 143.35 283.487 141.05 284.62 139.05C285.787 137.05 287.353 135.5 289.32 134.4C291.32 133.267 293.587 132.7 296.12 132.7C298.22 132.7 300.12 133.1 301.82 133.9C303.553 134.7 304.953 135.9 306.02 137.5L304.17 138.85C303.237 137.517 302.07 136.533 300.67 135.9C299.27 135.267 297.753 134.95 296.12 134.95C294.087 134.95 292.253 135.417 290.62 136.35C289.02 137.25 287.753 138.533 286.82 140.2C285.92 141.833 285.47 143.75 285.47 145.95C285.47 148.15 285.92 150.083 286.82 151.75C287.753 153.383 289.02 154.667 290.62 155.6C292.253 156.5 294.087 156.95 296.12 156.95C297.753 156.95 299.27 156.633 300.67 156C302.07 155.367 303.237 154.383 304.17 153.05L306.02 154.4C304.953 156 303.553 157.2 301.82 158C300.12 158.8 298.22 159.2 296.12 159.2ZM317.566 159V134.4L318.266 135.15H307.366V132.9H330.266V135.15H319.366L320.066 134.4V159H317.566ZM348.769 159.2C346.469 159.2 344.385 158.667 342.519 157.6C340.685 156.533 339.219 155.017 338.119 153.05C337.052 151.05 336.519 148.683 336.519 145.95C336.519 143.217 337.052 140.867 338.119 138.9C339.219 136.9 340.685 135.367 342.519 134.3C344.385 133.233 346.469 132.7 348.769 132.7C351.235 132.7 353.435 133.267 355.369 134.4C357.335 135.5 358.869 137.05 359.969 139.05C361.102 141.05 361.669 143.35 361.669 145.95C361.669 148.55 361.102 150.85 359.969 152.85C358.869 154.85 357.335 156.417 355.369 157.55C353.435 158.65 351.235 159.2 348.769 159.2ZM335.669 168.7V132.9H338.069V141.45L337.669 146L338.169 150.55V168.7H335.669ZM348.619 156.95C350.619 156.95 352.419 156.5 354.019 155.6C355.619 154.667 356.869 153.367 357.769 151.7C358.702 150.033 359.169 148.117 359.169 145.95C359.169 143.75 358.702 141.833 357.769 140.2C356.869 138.533 355.619 137.25 354.019 136.35C352.419 135.417 350.619 134.95 348.619 134.95C346.619 134.95 344.819 135.417 343.219 136.35C341.652 137.25 340.402 138.533 339.469 140.2C338.569 141.833 338.119 143.75 338.119 145.95C338.119 148.117 338.569 150.033 339.469 151.7C340.402 153.367 341.652 154.667 343.219 155.6C344.819 156.5 346.619 156.95 348.619 156.95ZM386.001 159V153.05L385.901 152.15V142.35C385.901 139.917 385.234 138.067 383.901 136.8C382.601 135.533 380.684 134.9 378.151 134.9C376.351 134.9 374.667 135.217 373.101 135.85C371.567 136.45 370.251 137.233 369.151 138.2L367.901 136.4C369.201 135.233 370.767 134.333 372.601 133.7C374.434 133.033 376.351 132.7 378.351 132.7C381.584 132.7 384.067 133.517 385.801 135.15C387.534 136.783 388.401 139.217 388.401 142.45V159H386.001ZM376.601 159.2C374.667 159.2 372.984 158.9 371.551 158.3C370.151 157.667 369.067 156.783 368.301 155.65C367.567 154.517 367.201 153.217 367.201 151.75C367.201 150.417 367.501 149.217 368.101 148.15C368.734 147.05 369.767 146.167 371.201 145.5C372.634 144.8 374.551 144.45 376.951 144.45H386.551V146.4H377.001C374.301 146.4 372.401 146.9 371.301 147.9C370.234 148.9 369.701 150.15 369.701 151.65C369.701 153.317 370.334 154.65 371.601 155.65C372.867 156.65 374.651 157.15 376.951 157.15C379.151 157.15 381.001 156.65 382.501 155.65C384.034 154.65 385.167 153.2 385.901 151.3L386.601 153C385.901 154.9 384.701 156.417 383.001 157.55C381.334 158.65 379.201 159.2 376.601 159.2ZM398.558 159V132.9H401.058V144.8H418.758V132.9H421.258V159H418.758V147H401.058V159H398.558ZM432.054 159V132.9H434.554V144.8H452.254V132.9H454.754V159H452.254V147H434.554V159H432.054ZM490.6 159V132.9H493.1V159H490.6ZM475.85 142.4C479.117 142.433 481.584 143.15 483.25 144.55C484.95 145.917 485.8 147.933 485.8 150.6C485.8 153.367 484.9 155.483 483.1 156.95C481.3 158.417 478.7 159.133 475.3 159.1L465.55 159V132.9H468.05V142.3L475.85 142.4ZM475.2 157.1C477.867 157.133 479.884 156.6 481.25 155.5C482.617 154.4 483.3 152.767 483.3 150.6C483.3 148.5 482.617 146.933 481.25 145.9C479.917 144.867 477.9 144.333 475.2 144.3L468.05 144.25V157L475.2 157.1ZM499.432 159L510.282 144.9L510.232 146.1L499.982 132.9H502.832L511.782 144.45H510.732L519.632 132.9H522.432L512.082 146.25L512.132 144.9L523.132 159H520.182L510.732 146.7L511.682 146.8L502.282 159H499.432ZM552.858 159.2C550.325 159.2 548.058 158.633 546.058 157.5C544.092 156.367 542.525 154.8 541.358 152.8C540.225 150.8 539.658 148.517 539.658 145.95C539.658 143.35 540.225 141.05 541.358 139.05C542.525 137.05 544.092 135.5 546.058 134.4C548.058 133.267 550.325 132.7 552.858 132.7C554.958 132.7 556.858 133.1 558.558 133.9C560.292 134.7 561.692 135.9 562.758 137.5L560.908 138.85C559.975 137.517 558.808 136.533 557.408 135.9C556.008 135.267 554.492 134.95 552.858 134.95C550.825 134.95 548.992 135.417 547.358 136.35C545.758 137.25 544.492 138.533 543.558 140.2C542.658 141.833 542.208 143.75 542.208 145.95C542.208 148.15 542.658 150.083 543.558 151.75C544.492 153.383 545.758 154.667 547.358 155.6C548.992 156.5 550.825 156.95 552.858 156.95C554.492 156.95 556.008 156.633 557.408 156C558.808 155.367 559.975 154.383 560.908 153.05L562.758 154.4C561.692 156 560.292 157.2 558.558 158C556.858 158.8 554.958 159.2 552.858 159.2ZM580.501 159.2C577.867 159.2 575.534 158.633 573.501 157.5C571.501 156.367 569.917 154.8 568.751 152.8C567.617 150.8 567.051 148.517 567.051 145.95C567.051 143.35 567.584 141.067 568.651 139.1C569.751 137.1 571.251 135.533 573.151 134.4C575.051 133.267 577.184 132.7 579.551 132.7C581.917 132.7 584.034 133.25 585.901 134.35C587.801 135.45 589.284 137 590.351 139C591.451 140.967 592.001 143.25 592.001 145.85C592.001 145.95 591.984 146.067 591.951 146.2C591.951 146.3 591.951 146.417 591.951 146.55H568.901V144.6H590.601L589.601 145.55C589.634 143.517 589.201 141.7 588.301 140.1C587.434 138.467 586.251 137.2 584.751 136.3C583.251 135.367 581.517 134.9 579.551 134.9C577.617 134.9 575.884 135.367 574.351 136.3C572.851 137.2 571.667 138.467 570.801 140.1C569.934 141.7 569.501 143.533 569.501 145.6V146.05C569.501 148.183 569.967 150.083 570.901 151.75C571.867 153.383 573.184 154.667 574.851 155.6C576.517 156.5 578.417 156.95 580.551 156.95C582.217 156.95 583.767 156.65 585.201 156.05C586.667 155.45 587.901 154.533 588.901 153.3L590.351 154.95C589.217 156.35 587.784 157.417 586.051 158.15C584.351 158.85 582.501 159.2 580.501 159.2ZM613.32 159.2C611.02 159.2 608.936 158.667 607.07 157.6C605.236 156.533 603.77 155.017 602.67 153.05C601.603 151.05 601.07 148.683 601.07 145.95C601.07 143.217 601.603 140.867 602.67 138.9C603.77 136.9 605.236 135.367 607.07 134.3C608.936 133.233 611.02 132.7 613.32 132.7C615.786 132.7 617.986 133.267 619.92 134.4C621.886 135.5 623.42 137.05 624.52 139.05C625.653 141.05 626.22 143.35 626.22 145.95C626.22 148.55 625.653 150.85 624.52 152.85C623.42 154.85 621.886 156.417 619.92 157.55C617.986 158.65 615.786 159.2 613.32 159.2ZM600.22 168.7V132.9H602.62V141.45L602.22 146L602.72 150.55V168.7H600.22ZM613.17 156.95C615.17 156.95 616.97 156.5 618.57 155.6C620.17 154.667 621.42 153.367 622.32 151.7C623.253 150.033 623.72 148.117 623.72 145.95C623.72 143.75 623.253 141.833 622.32 140.2C621.42 138.533 620.17 137.25 618.57 136.35C616.97 135.417 615.17 134.95 613.17 134.95C611.17 134.95 609.37 135.417 607.77 136.35C606.203 137.25 604.953 138.533 604.02 140.2C603.12 141.833 602.67 143.75 602.67 145.95C602.67 148.117 603.12 150.033 604.02 151.7C604.953 153.367 606.203 154.667 607.77 155.6C609.37 156.5 611.17 156.95 613.17 156.95ZM634.349 159V132.9H645.349C648.216 132.9 650.483 133.467 652.149 134.6C653.816 135.733 654.649 137.383 654.649 139.55C654.649 141.683 653.833 143.3 652.199 144.4C650.599 145.5 648.516 146.05 645.949 146.05L646.649 145.3C649.716 145.3 651.966 145.867 653.399 147C654.833 148.133 655.549 149.8 655.549 152C655.549 154.233 654.733 155.967 653.099 157.2C651.499 158.4 649.016 159 645.649 159H634.349ZM636.799 156.95H645.599C648.033 156.95 649.883 156.55 651.149 155.75C652.416 154.95 653.049 153.667 653.049 151.9C653.049 150.1 652.483 148.8 651.349 148C650.249 147.167 648.466 146.75 645.999 146.75H636.799V156.95ZM636.799 144.8H645.199C647.399 144.8 649.099 144.383 650.299 143.55C651.533 142.717 652.149 141.483 652.149 139.85C652.149 138.217 651.533 137 650.299 136.2C649.099 135.367 647.399 134.95 645.199 134.95H636.799V144.8ZM675.227 159.2C672.594 159.2 670.261 158.633 668.227 157.5C666.227 156.367 664.644 154.8 663.477 152.8C662.344 150.8 661.777 148.517 661.777 145.95C661.777 143.35 662.311 141.067 663.377 139.1C664.477 137.1 665.977 135.533 667.877 134.4C669.777 133.267 671.911 132.7 674.277 132.7C676.644 132.7 678.761 133.25 680.627 134.35C682.527 135.45 684.011 137 685.077 139C686.177 140.967 686.727 143.25 686.727 145.85C686.727 145.95 686.711 146.067 686.677 146.2C686.677 146.3 686.677 146.417 686.677 146.55H663.627V144.6H685.327L684.327 145.55C684.361 143.517 683.927 141.7 683.027 140.1C682.161 138.467 680.977 137.2 679.477 136.3C677.977 135.367 676.244 134.9 674.277 134.9C672.344 134.9 670.611 135.367 669.077 136.3C667.577 137.2 666.394 138.467 665.527 140.1C664.661 141.7 664.227 143.533 664.227 145.6V146.05C664.227 148.183 664.694 150.083 665.627 151.75C666.594 153.383 667.911 154.667 669.577 155.6C671.244 156.5 673.144 156.95 675.277 156.95C676.944 156.95 678.494 156.65 679.927 156.05C681.394 155.45 682.627 154.533 683.627 153.3L685.077 154.95C683.944 156.35 682.511 157.417 680.777 158.15C679.077 158.85 677.227 159.2 675.227 159.2ZM708.046 159.2C705.746 159.2 703.663 158.667 701.796 157.6C699.963 156.533 698.496 155.017 697.396 153.05C696.329 151.05 695.796 148.683 695.796 145.95C695.796 143.217 696.329 140.867 697.396 138.9C698.496 136.9 699.963 135.367 701.796 134.3C703.663 133.233 705.746 132.7 708.046 132.7C710.513 132.7 712.713 133.267 714.646 134.4C716.613 135.5 718.146 137.05 719.246 139.05C720.379 141.05 720.946 143.35 720.946 145.95C720.946 148.55 720.379 150.85 719.246 152.85C718.146 154.85 716.613 156.417 714.646 157.55C712.713 158.65 710.513 159.2 708.046 159.2ZM694.946 168.7V132.9H697.346V141.45L696.946 146L697.446 150.55V168.7H694.946ZM707.896 156.95C709.896 156.95 711.696 156.5 713.296 155.6C714.896 154.667 716.146 153.367 717.046 151.7C717.979 150.033 718.446 148.117 718.446 145.95C718.446 143.75 717.979 141.833 717.046 140.2C716.146 138.533 714.896 137.25 713.296 136.35C711.696 135.417 709.896 134.95 707.896 134.95C705.896 134.95 704.096 135.417 702.496 136.35C700.929 137.25 699.679 138.533 698.746 140.2C697.846 141.833 697.396 143.75 697.396 145.95C697.396 148.117 697.846 150.033 698.746 151.7C699.679 153.367 700.929 154.667 702.496 155.6C704.096 156.5 705.896 156.95 707.896 156.95ZM745.278 159V153.05L745.178 152.15V142.35C745.178 139.917 744.511 138.067 743.178 136.8C741.878 135.533 739.961 134.9 737.428 134.9C735.628 134.9 733.945 135.217 732.378 135.85C730.845 136.45 729.528 137.233 728.428 138.2L727.178 136.4C728.478 135.233 730.045 134.333 731.878 133.7C733.711 133.033 735.628 132.7 737.628 132.7C740.861 132.7 743.345 133.517 745.078 135.15C746.811 136.783 747.678 139.217 747.678 142.45V159H745.278ZM735.878 159.2C733.945 159.2 732.261 158.9 730.828 158.3C729.428 157.667 728.345 156.783 727.578 155.65C726.845 154.517 726.478 153.217 726.478 151.75C726.478 150.417 726.778 149.217 727.378 148.15C728.011 147.05 729.045 146.167 730.478 145.5C731.911 144.8 733.828 144.45 736.228 144.45H745.828V146.4H736.278C733.578 146.4 731.678 146.9 730.578 147.9C729.511 148.9 728.978 150.15 728.978 151.65C728.978 153.317 729.611 154.65 730.878 155.65C732.145 156.65 733.928 157.15 736.228 157.15C738.428 157.15 740.278 156.65 741.778 155.65C743.311 154.65 744.445 153.2 745.178 151.3L745.878 153C745.178 154.9 743.978 156.417 742.278 157.55C740.611 158.65 738.478 159.2 735.878 159.2ZM753.436 159L764.286 144.9L764.236 146.1L753.986 132.9H756.836L765.786 144.45H764.736L773.636 132.9H776.436L766.086 146.25L766.136 144.9L777.136 159H774.186L764.736 146.7L765.686 146.8L756.286 159H753.436Z" fill="black"/>
<path d="M105.935 86.5835C105.106 86.5835 104.435 87.2551 104.435 88.0835C104.435 88.9119 105.106 89.5835 105.935 89.5835V86.5835ZM105.935 150.75C105.106 150.75 104.435 151.422 104.435 152.25C104.435 153.079 105.106 153.75 105.935 153.75V150.75ZM140.832 97.2502H139.332V143.083H140.832H142.332V97.2502H140.832ZM105.935 88.0835V89.5835H131.665V88.0835V86.5835H105.935V88.0835ZM140.832 143.083H139.332C139.332 147.318 135.9 150.75 131.665 150.75V152.25V153.75C137.556 153.75 142.332 148.975 142.332 143.083H140.832ZM140.832 97.2502H142.332C142.332 91.3591 137.556 86.5835 131.665 86.5835V88.0835V89.5835C135.9 89.5835 139.332 93.016 139.332 97.2502H140.832ZM131.665 152.25V150.75H105.935V152.25V153.75H131.665V152.25Z" fill="#FA8A8A"/>
<path d="M94.9387 75.698L93.5342 76.2247V76.2247L94.9387 75.698ZM105.936 89.5833C106.764 89.5833 107.436 88.9118 107.436 88.0833C107.436 87.2549 106.764 86.5833 105.936 86.5833V89.5833ZM97.3527 82.1353L98.7572 81.6086V81.6086L97.3527 82.1353ZM105.936 153.75C106.764 153.75 107.436 153.078 107.436 152.25C107.436 151.422 106.764 150.75 105.936 150.75V153.75ZM49.1665 143.083H50.6665V78.9167H49.1665H47.6665V143.083H49.1665ZM58.3332 69.75V71.25H86.3557V69.75V68.25H58.3332V69.75ZM94.9387 75.698L93.5342 76.2247L95.9482 82.662L97.3527 82.1353L98.7572 81.6086L96.3432 75.1713L94.9387 75.698ZM86.3557 69.75V71.25C89.5515 71.25 92.4121 73.2324 93.5342 76.2247L94.9387 75.698L96.3432 75.1714C94.782 71.0081 90.802 68.25 86.3557 68.25V69.75ZM105.936 88.0833V86.5833C102.74 86.5833 99.8793 84.6009 98.7572 81.6086L97.3527 82.1353L95.9482 82.662C97.5094 86.8252 101.489 89.5833 105.936 89.5833V88.0833ZM58.3332 152.25V150.75C54.099 150.75 50.6665 147.318 50.6665 143.083H49.1665H47.6665C47.6665 148.974 52.4421 153.75 58.3332 153.75V152.25ZM49.1665 78.9167H50.6665C50.6665 74.6825 54.099 71.25 58.3332 71.25V69.75V68.25C52.4421 68.25 47.6665 73.0256 47.6665 78.9167H49.1665ZM105.936 152.25V150.75H58.3332V152.25V153.75H105.936V152.25Z" fill="#1A0C21"/>
<path d="M103.042 110.958V121.208C103.042 123.265 103.951 125.11 105.389 126.363C107.382 128.099 110.275 126.583 110.975 124.035C111.371 122.591 111.583 121.07 111.583 119.5C111.583 110.065 103.935 102.417 94.4998 102.417C85.065 102.417 77.4165 110.065 77.4165 119.5C77.4165 128.935 85.065 136.583 94.4998 136.583C97.6115 136.583 100.529 135.751 103.042 134.298M103.042 119.5C103.042 124.217 99.2173 128.042 94.4998 128.042C89.7824 128.042 85.9582 124.217 85.9582 119.5C85.9582 114.782 89.7824 110.958 94.4998 110.958C99.2173 110.958 103.042 114.782 103.042 119.5Z" stroke="#1A0C21" stroke-width="3" stroke-linecap="round" stroke-linejoin="round"/>
<path d="M186.1 279.9C184.9 279.9 183.767 279.7 182.7 279.3C181.667 278.9 180.783 278.317 180.05 277.55L181.3 275.65C181.967 276.35 182.683 276.867 183.45 277.2C184.25 277.533 185.15 277.7 186.15 277.7C187.35 277.7 188.4 277.367 189.3 276.7C190.233 276.033 191.1 274.817 191.9 273.05L193.7 269.05L194.05 268.6L205.1 243.9H207.65L194.25 273.55C193.55 275.15 192.783 276.4 191.95 277.3C191.15 278.233 190.267 278.9 189.3 279.3C188.333 279.7 187.267 279.9 186.1 279.9ZM193.65 270.65L181.55 243.9H184.2L195.2 268.45L193.65 270.65ZM226.537 270V243.9H229.037V255.8H246.737V243.9H249.237V270H246.737V258H229.037V270H226.537ZM276.333 270V264.05L276.233 263.15V253.35C276.233 250.917 275.566 249.067 274.233 247.8C272.933 246.533 271.016 245.9 268.483 245.9C266.683 245.9 264.999 246.217 263.433 246.85C261.899 247.45 260.583 248.233 259.483 249.2L258.233 247.4C259.533 246.233 261.099 245.333 262.933 244.7C264.766 244.033 266.683 243.7 268.683 243.7C271.916 243.7 274.399 244.517 276.133 246.15C277.866 247.783 278.733 250.217 278.733 253.45V270H276.333ZM266.933 270.2C264.999 270.2 263.316 269.9 261.883 269.3C260.483 268.667 259.399 267.783 258.633 266.65C257.899 265.517 257.533 264.217 257.533 262.75C257.533 261.417 257.833 260.217 258.433 259.15C259.066 258.05 260.099 257.167 261.533 256.5C262.966 255.8 264.883 255.45 267.283 255.45H276.883V257.4H267.333C264.633 257.4 262.733 257.9 261.633 258.9C260.566 259.9 260.033 261.15 260.033 262.65C260.033 264.317 260.666 265.65 261.933 266.65C263.199 267.65 264.983 268.15 267.283 268.15C269.483 268.15 271.333 267.65 272.833 266.65C274.366 265.65 275.499 264.2 276.233 262.3L276.933 264C276.233 265.9 275.033 267.417 273.333 268.55C271.666 269.65 269.533 270.2 266.933 270.2ZM299.44 270.2C296.907 270.2 294.64 269.633 292.64 268.5C290.674 267.367 289.107 265.8 287.94 263.8C286.807 261.8 286.24 259.517 286.24 256.95C286.24 254.35 286.807 252.05 287.94 250.05C289.107 248.05 290.674 246.5 292.64 245.4C294.64 244.267 296.907 243.7 299.44 243.7C301.54 243.7 303.44 244.1 305.14 244.9C306.874 245.7 308.274 246.9 309.34 248.5L307.49 249.85C306.557 248.517 305.39 247.533 303.99 246.9C302.59 246.267 301.074 245.95 299.44 245.95C297.407 245.95 295.574 246.417 293.94 247.35C292.34 248.25 291.074 249.533 290.14 251.2C289.24 252.833 288.79 254.75 288.79 256.95C288.79 259.15 289.24 261.083 290.14 262.75C291.074 264.383 292.34 265.667 293.94 266.6C295.574 267.5 297.407 267.95 299.44 267.95C301.074 267.95 302.59 267.633 303.99 267C305.39 266.367 306.557 265.383 307.49 264.05L309.34 265.4C308.274 267 306.874 268.2 305.14 269C303.44 269.8 301.54 270.2 299.44 270.2ZM329.564 270V243.9H332.064V255.8H349.764V243.9H352.264V270H349.764V258H332.064V270H329.564ZM373.86 270.2C371.227 270.2 368.893 269.633 366.86 268.5C364.86 267.367 363.277 265.8 362.11 263.8C360.977 261.8 360.41 259.517 360.41 256.95C360.41 254.35 360.943 252.067 362.01 250.1C363.11 248.1 364.61 246.533 366.51 245.4C368.41 244.267 370.543 243.7 372.91 243.7C375.277 243.7 377.393 244.25 379.26 245.35C381.16 246.45 382.643 248 383.71 250C384.81 251.967 385.36 254.25 385.36 256.85C385.36 256.95 385.343 257.067 385.31 257.2C385.31 257.3 385.31 257.417 385.31 257.55H362.26V255.6H383.96L382.96 256.55C382.993 254.517 382.56 252.7 381.66 251.1C380.793 249.467 379.61 248.2 378.11 247.3C376.61 246.367 374.877 245.9 372.91 245.9C370.977 245.9 369.243 246.367 367.71 247.3C366.21 248.2 365.027 249.467 364.16 251.1C363.293 252.7 362.86 254.533 362.86 256.6V257.05C362.86 259.183 363.327 261.083 364.26 262.75C365.227 264.383 366.543 265.667 368.21 266.6C369.877 267.5 371.777 267.95 373.91 267.95C375.577 267.95 377.127 267.65 378.56 267.05C380.027 266.45 381.26 265.533 382.26 264.3L383.71 265.95C382.577 267.35 381.143 268.417 379.41 269.15C377.71 269.85 375.86 270.2 373.86 270.2ZM397.058 270V245.4L397.758 246.15H386.858V243.9H409.758V246.15H398.858L399.558 245.4V270H397.058ZM445.803 268.8V246.15H432.203L431.903 252.65C431.836 254.483 431.719 256.317 431.553 258.15C431.386 259.95 431.119 261.617 430.753 263.15C430.386 264.65 429.869 265.867 429.203 266.8C428.569 267.733 427.736 268.25 426.703 268.35L424.203 267.8C425.269 267.867 426.136 267.483 426.803 266.65C427.469 265.783 427.986 264.617 428.353 263.15C428.719 261.683 428.986 260.033 429.153 258.2C429.353 256.333 429.503 254.433 429.603 252.5L429.953 243.9H448.303V268.8H445.803ZM423.053 276.5V267.8H452.503V276.5H450.153V270H425.453V276.5H423.053ZM470.286 270.2C467.786 270.2 465.553 269.633 463.586 268.5C461.653 267.367 460.103 265.8 458.936 263.8C457.803 261.8 457.236 259.517 457.236 256.95C457.236 254.35 457.803 252.067 458.936 250.1C460.103 248.1 461.653 246.533 463.586 245.4C465.553 244.267 467.786 243.7 470.286 243.7C472.786 243.7 475.02 244.267 476.986 245.4C478.953 246.533 480.503 248.1 481.636 250.1C482.77 252.067 483.336 254.35 483.336 256.95C483.336 259.517 482.77 261.8 481.636 263.8C480.503 265.8 478.953 267.367 476.986 268.5C475.02 269.633 472.786 270.2 470.286 270.2ZM470.286 267.95C472.286 267.95 474.086 267.5 475.686 266.6C477.286 265.667 478.536 264.367 479.436 262.7C480.336 261.033 480.786 259.117 480.786 256.95C480.786 254.75 480.336 252.833 479.436 251.2C478.536 249.533 477.286 248.25 475.686 247.35C474.086 246.417 472.286 245.95 470.286 245.95C468.286 245.95 466.486 246.417 464.886 247.35C463.32 248.25 462.07 249.533 461.136 251.2C460.236 252.833 459.786 254.75 459.786 256.95C459.786 259.117 460.236 261.033 461.136 262.7C462.07 264.367 463.32 265.667 464.886 266.6C466.486 267.5 468.286 267.95 470.286 267.95ZM502.028 270.2C499.495 270.2 497.228 269.633 495.228 268.5C493.261 267.367 491.695 265.8 490.528 263.8C489.395 261.8 488.828 259.517 488.828 256.95C488.828 254.35 489.395 252.05 490.528 250.05C491.695 248.05 493.261 246.5 495.228 245.4C497.228 244.267 499.495 243.7 502.028 243.7C504.128 243.7 506.028 244.1 507.728 244.9C509.461 245.7 510.861 246.9 511.928 248.5L510.078 249.85C509.145 248.517 507.978 247.533 506.578 246.9C505.178 246.267 503.661 245.95 502.028 245.95C499.995 245.95 498.161 246.417 496.528 247.35C494.928 248.25 493.661 249.533 492.728 251.2C491.828 252.833 491.378 254.75 491.378 256.95C491.378 259.15 491.828 261.083 492.728 262.75C493.661 264.383 494.928 265.667 496.528 266.6C498.161 267.5 499.995 267.95 502.028 267.95C503.661 267.95 505.178 267.633 506.578 267C507.978 266.367 509.145 265.383 510.078 264.05L511.928 265.4C510.861 267 509.461 268.2 507.728 269C506.028 269.8 504.128 270.2 502.028 270.2ZM523.474 270V245.4L524.174 246.15H513.274V243.9H536.174V246.15H525.274L525.974 245.4V270H523.474ZM541.227 279.9C540.027 279.9 538.894 279.7 537.827 279.3C536.794 278.9 535.91 278.317 535.177 277.55L536.427 275.65C537.094 276.35 537.81 276.867 538.577 277.2C539.377 277.533 540.277 277.7 541.277 277.7C542.477 277.7 543.527 277.367 544.427 276.7C545.36 276.033 546.227 274.817 547.027 273.05L548.827 269.05L549.177 268.6L560.227 243.9H562.777L549.377 273.55C548.677 275.15 547.91 276.4 547.077 277.3C546.277 278.233 545.394 278.9 544.427 279.3C543.46 279.7 542.394 279.9 541.227 279.9ZM548.777 270.65L536.677 243.9H539.327L550.327 268.45L548.777 270.65ZM568.822 270V243.9H591.622V270H589.122V245.4L589.822 246.15H570.622L571.322 245.4V270H568.822ZM618.716 270V264.05L618.616 263.15V253.35C618.616 250.917 617.949 249.067 616.616 247.8C615.316 246.533 613.399 245.9 610.866 245.9C609.066 245.9 607.382 246.217 605.816 246.85C604.282 247.45 602.966 248.233 601.866 249.2L600.616 247.4C601.916 246.233 603.482 245.333 605.316 244.7C607.149 244.033 609.066 243.7 611.066 243.7C614.299 243.7 616.782 244.517 618.516 246.15C620.249 247.783 621.116 250.217 621.116 253.45V270H618.716ZM609.316 270.2C607.382 270.2 605.699 269.9 604.266 269.3C602.866 268.667 601.782 267.783 601.016 266.65C600.282 265.517 599.916 264.217 599.916 262.75C599.916 261.417 600.216 260.217 600.816 259.15C601.449 258.05 602.482 257.167 603.916 256.5C605.349 255.8 607.266 255.45 609.666 255.45H619.266V257.4H609.716C607.016 257.4 605.116 257.9 604.016 258.9C602.949 259.9 602.416 261.15 602.416 262.65C602.416 264.317 603.049 265.65 604.316 266.65C605.582 267.65 607.366 268.15 609.666 268.15C611.866 268.15 613.716 267.65 615.216 266.65C616.749 265.65 617.882 264.2 618.616 262.3L619.316 264C618.616 265.9 617.416 267.417 615.716 268.55C614.049 269.65 611.916 270.2 609.316 270.2ZM663.365 270L652.165 256.95L654.265 255.75L666.365 270H663.365ZM644.115 270V243.9H646.615V270H644.115ZM645.815 257.9V255.75H654.015V257.9H645.815ZM654.415 257.2L652.115 256.8L662.815 243.9H665.565L654.415 257.2ZM186.4 331V304.9H197.4C200.267 304.9 202.533 305.467 204.2 306.6C205.867 307.733 206.7 309.383 206.7 311.55C206.7 313.683 205.883 315.3 204.25 316.4C202.65 317.5 200.567 318.05 198 318.05L198.7 317.3C201.767 317.3 204.017 317.867 205.45 319C206.883 320.133 207.6 321.8 207.6 324C207.6 326.233 206.783 327.967 205.15 329.2C203.55 330.4 201.067 331 197.7 331H186.4ZM188.85 328.95H197.65C200.083 328.95 201.933 328.55 203.2 327.75C204.467 326.95 205.1 325.667 205.1 323.9C205.1 322.1 204.533 320.8 203.4 320C202.3 319.167 200.517 318.75 198.05 318.75H188.85V328.95ZM188.85 316.8H197.25C199.45 316.8 201.15 316.383 202.35 315.55C203.583 314.717 204.2 313.483 204.2 311.85C204.2 310.217 203.583 309 202.35 308.2C201.15 307.367 199.45 306.95 197.25 306.95H188.85V316.8ZM232.778 331V325.05L232.678 324.15V314.35C232.678 311.917 232.011 310.067 230.678 308.8C229.378 307.533 227.461 306.9 224.928 306.9C223.128 306.9 221.445 307.217 219.878 307.85C218.345 308.45 217.028 309.233 215.928 310.2L214.678 308.4C215.978 307.233 217.545 306.333 219.378 305.7C221.211 305.033 223.128 304.7 225.128 304.7C228.361 304.7 230.845 305.517 232.578 307.15C234.311 308.783 235.178 311.217 235.178 314.45V331H232.778ZM223.378 331.2C221.445 331.2 219.761 330.9 218.328 330.3C216.928 329.667 215.845 328.783 215.078 327.65C214.345 326.517 213.978 325.217 213.978 323.75C213.978 322.417 214.278 321.217 214.878 320.15C215.511 319.05 216.545 318.167 217.978 317.5C219.411 316.8 221.328 316.45 223.728 316.45H233.328V318.4H223.778C221.078 318.4 219.178 318.9 218.078 319.9C217.011 320.9 216.478 322.15 216.478 323.65C216.478 325.317 217.111 326.65 218.378 327.65C219.645 328.65 221.428 329.15 223.728 329.15C225.928 329.15 227.778 328.65 229.278 327.65C230.811 326.65 231.945 325.2 232.678 323.3L233.378 325C232.678 326.9 231.478 328.417 229.778 329.55C228.111 330.65 225.978 331.2 223.378 331.2ZM262.286 328.8L261.686 329.55V304.9H264.186V329.55L263.436 328.8H278.636L277.936 329.55V304.9H280.436V331H245.336V304.9H247.836V329.55L247.136 328.8H262.286ZM291.234 331V304.9H293.734V327.15L312.334 304.9H314.534V331H312.034V308.75L293.434 331H291.234ZM325.316 331V304.9H327.766L340.116 325.55H339.016L351.416 304.9H353.716V331H351.416V307.9L351.916 308.1L340.066 327.65H338.916L327.016 307.95L327.616 307.85V331H325.316ZM395.217 329.8V307.15H381.617L381.317 313.65C381.25 315.483 381.133 317.317 380.967 319.15C380.8 320.95 380.533 322.617 380.167 324.15C379.8 325.65 379.283 326.867 378.617 327.8C377.983 328.733 377.15 329.25 376.117 329.35L373.617 328.8C374.683 328.867 375.55 328.483 376.217 327.65C376.883 326.783 377.4 325.617 377.767 324.15C378.133 322.683 378.4 321.033 378.567 319.2C378.767 317.333 378.917 315.433 379.017 313.5L379.367 304.9H397.717V329.8H395.217ZM372.467 337.5V328.8H401.917V337.5H399.567V331H374.867V337.5H372.467ZM425.6 331V325.05L425.5 324.15V314.35C425.5 311.917 424.834 310.067 423.5 308.8C422.2 307.533 420.284 306.9 417.75 306.9C415.95 306.9 414.267 307.217 412.7 307.85C411.167 308.45 409.85 309.233 408.75 310.2L407.5 308.4C408.8 307.233 410.367 306.333 412.2 305.7C414.034 305.033 415.95 304.7 417.95 304.7C421.184 304.7 423.667 305.517 425.4 307.15C427.134 308.783 428 311.217 428 314.45V331H425.6ZM416.2 331.2C414.267 331.2 412.584 330.9 411.15 330.3C409.75 329.667 408.667 328.783 407.9 327.65C407.167 326.517 406.8 325.217 406.8 323.75C406.8 322.417 407.1 321.217 407.7 320.15C408.334 319.05 409.367 318.167 410.8 317.5C412.234 316.8 414.15 316.45 416.55 316.45H426.15V318.4H416.6C413.9 318.4 412 318.9 410.9 319.9C409.834 320.9 409.3 322.15 409.3 323.65C409.3 325.317 409.934 326.65 411.2 327.65C412.467 328.65 414.25 329.15 416.55 329.15C418.75 329.15 420.6 328.65 422.1 327.65C423.634 326.65 424.767 325.2 425.5 323.3L426.2 325C425.5 326.9 424.3 328.417 422.6 329.55C420.934 330.65 418.8 331.2 416.2 331.2ZM438.158 331V304.9H440.658V316.8H458.358V304.9H460.858V331H458.358V319H440.658V331H438.158ZM471.654 331V304.9H474.154V316.8H491.854V304.9H494.354V331H491.854V319H474.154V331H471.654ZM530.2 331V304.9H532.7V331H530.2ZM515.45 314.4C518.717 314.433 521.183 315.15 522.85 316.55C524.55 317.917 525.4 319.933 525.4 322.6C525.4 325.367 524.5 327.483 522.7 328.95C520.9 330.417 518.3 331.133 514.9 331.1L505.15 331V304.9H507.65V314.3L515.45 314.4ZM514.8 329.1C517.467 329.133 519.483 328.6 520.85 327.5C522.217 326.4 522.9 324.767 522.9 322.6C522.9 320.5 522.217 318.933 520.85 317.9C519.517 316.867 517.5 316.333 514.8 316.3L507.65 316.25V329L514.8 329.1ZM543.431 331V304.9H545.881L558.231 325.55H557.131L569.531 304.9H571.831V331H569.531V307.9L570.031 308.1L558.181 327.65H557.031L545.131 307.95L545.731 307.85V331H543.431Z" fill="black"/>
<path d="M83.5415 285.292L89.7915 292.167L106.458 273.833" stroke="#83B5FA" stroke-width="3" stroke-linecap="round" stroke-linejoin="round"/>
<path d="M58.3776 303.199L53.8988 255.632C53.8117 254.707 54.3575 253.847 55.2334 253.535C60.6927 251.591 79.9864 244.339 92.2602 234.849C93.8643 233.608 96.1357 233.608 97.7398 234.849C110.014 244.339 129.307 251.591 134.767 253.535C135.643 253.847 136.188 254.707 136.101 255.632L131.622 303.199C131.288 306.756 129.386 309.978 126.434 311.99L97.8162 331.497C96.1173 332.655 93.8827 332.655 92.1838 331.497L63.5659 311.99C60.6143 309.978 58.7125 306.756 58.3776 303.199Z" stroke="#1A0C21" stroke-width="3" stroke-linecap="round" stroke-linejoin="round"/>
<path d="M186.4 442V415.9H197.4C200.267 415.9 202.533 416.467 204.2 417.6C205.867 418.733 206.7 420.383 206.7 422.55C206.7 424.683 205.883 426.3 204.25 427.4C202.65 428.5 200.567 429.05 198 429.05L198.7 428.3C201.767 428.3 204.017 428.867 205.45 430C206.883 431.133 207.6 432.8 207.6 435C207.6 437.233 206.783 438.967 205.15 440.2C203.55 441.4 201.067 442 197.7 442H186.4ZM188.85 439.95H197.65C200.083 439.95 201.933 439.55 203.2 438.75C204.467 437.95 205.1 436.667 205.1 434.9C205.1 433.1 204.533 431.8 203.4 431C202.3 430.167 200.517 429.75 198.05 429.75H188.85V439.95ZM188.85 427.8H197.25C199.45 427.8 201.15 427.383 202.35 426.55C203.583 425.717 204.2 424.483 204.2 422.85C204.2 421.217 203.583 420 202.35 419.2C201.15 418.367 199.45 417.95 197.25 417.95H188.85V427.8ZM227.028 442.2C224.495 442.2 222.228 441.633 220.228 440.5C218.261 439.367 216.695 437.8 215.528 435.8C214.395 433.8 213.828 431.517 213.828 428.95C213.828 426.35 214.395 424.05 215.528 422.05C216.695 420.05 218.261 418.5 220.228 417.4C222.228 416.267 224.495 415.7 227.028 415.7C229.128 415.7 231.028 416.1 232.728 416.9C234.461 417.7 235.861 418.9 236.928 420.5L235.078 421.85C234.145 420.517 232.978 419.533 231.578 418.9C230.178 418.267 228.661 417.95 227.028 417.95C224.995 417.95 223.161 418.417 221.528 419.35C219.928 420.25 218.661 421.533 217.728 423.2C216.828 424.833 216.378 426.75 216.378 428.95C216.378 431.15 216.828 433.083 217.728 434.75C218.661 436.383 219.928 437.667 221.528 438.6C223.161 439.5 224.995 439.95 227.028 439.95C228.661 439.95 230.178 439.633 231.578 439C232.978 438.367 234.145 437.383 235.078 436.05L236.928 437.4C235.861 439 234.461 440.2 232.728 441C231.028 441.8 229.128 442.2 227.028 442.2ZM254.671 442.2C252.037 442.2 249.704 441.633 247.671 440.5C245.671 439.367 244.087 437.8 242.921 435.8C241.787 433.8 241.221 431.517 241.221 428.95C241.221 426.35 241.754 424.067 242.821 422.1C243.921 420.1 245.421 418.533 247.321 417.4C249.221 416.267 251.354 415.7 253.721 415.7C256.087 415.7 258.204 416.25 260.071 417.35C261.971 418.45 263.454 420 264.521 422C265.621 423.967 266.171 426.25 266.171 428.85C266.171 428.95 266.154 429.067 266.121 429.2C266.121 429.3 266.121 429.417 266.121 429.55H243.071V427.6H264.771L263.771 428.55C263.804 426.517 263.371 424.7 262.471 423.1C261.604 421.467 260.421 420.2 258.921 419.3C257.421 418.367 255.687 417.9 253.721 417.9C251.787 417.9 250.054 418.367 248.521 419.3C247.021 420.2 245.837 421.467 244.971 423.1C244.104 424.7 243.671 426.533 243.671 428.6V429.05C243.671 431.183 244.137 433.083 245.071 434.75C246.037 436.383 247.354 437.667 249.021 438.6C250.687 439.5 252.587 439.95 254.721 439.95C256.387 439.95 257.937 439.65 259.371 439.05C260.837 438.45 262.071 437.533 263.071 436.3L264.521 437.95C263.387 439.35 261.954 440.417 260.221 441.15C258.521 441.85 256.671 442.2 254.671 442.2ZM282.781 442L293.631 427.9L293.581 429.1L283.331 415.9H286.181L295.131 427.45H294.081L302.981 415.9H305.781L295.431 429.25L295.481 427.9L306.481 442H303.531L294.081 429.7L295.031 429.8L285.631 442H282.781ZM325.966 442.2C323.666 442.2 321.583 441.667 319.716 440.6C317.883 439.533 316.416 438.017 315.316 436.05C314.249 434.05 313.716 431.683 313.716 428.95C313.716 426.217 314.249 423.867 315.316 421.9C316.416 419.9 317.883 418.367 319.716 417.3C321.583 416.233 323.666 415.7 325.966 415.7C328.433 415.7 330.633 416.267 332.566 417.4C334.533 418.5 336.066 420.05 337.166 422.05C338.299 424.05 338.866 426.35 338.866 428.95C338.866 431.55 338.299 433.85 337.166 435.85C336.066 437.85 334.533 439.417 332.566 440.55C330.633 441.65 328.433 442.2 325.966 442.2ZM312.866 451.7V415.9H315.266V424.45L314.866 429L315.366 433.55V451.7H312.866ZM325.816 439.95C327.816 439.95 329.616 439.5 331.216 438.6C332.816 437.667 334.066 436.367 334.966 434.7C335.899 433.033 336.366 431.117 336.366 428.95C336.366 426.75 335.899 424.833 334.966 423.2C334.066 421.533 332.816 420.25 331.216 419.35C329.616 418.417 327.816 417.95 325.816 417.95C323.816 417.95 322.016 418.417 320.416 419.35C318.849 420.25 317.599 421.533 316.666 423.2C315.766 424.833 315.316 426.75 315.316 428.95C315.316 431.117 315.766 433.033 316.666 434.7C317.599 436.367 318.849 437.667 320.416 438.6C322.016 439.5 323.816 439.95 325.816 439.95ZM363.198 442V436.05L363.098 435.15V425.35C363.098 422.917 362.431 421.067 361.098 419.8C359.798 418.533 357.881 417.9 355.348 417.9C353.548 417.9 351.865 418.217 350.298 418.85C348.765 419.45 347.448 420.233 346.348 421.2L345.098 419.4C346.398 418.233 347.965 417.333 349.798 416.7C351.631 416.033 353.548 415.7 355.548 415.7C358.781 415.7 361.265 416.517 362.998 418.15C364.731 419.783 365.598 422.217 365.598 425.45V442H363.198ZM353.798 442.2C351.865 442.2 350.181 441.9 348.748 441.3C347.348 440.667 346.265 439.783 345.498 438.65C344.765 437.517 344.398 436.217 344.398 434.75C344.398 433.417 344.698 432.217 345.298 431.15C345.931 430.05 346.965 429.167 348.398 428.5C349.831 427.8 351.748 427.45 354.148 427.45H363.748V429.4H354.198C351.498 429.4 349.598 429.9 348.498 430.9C347.431 431.9 346.898 433.15 346.898 434.65C346.898 436.317 347.531 437.65 348.798 438.65C350.065 439.65 351.848 440.15 354.148 440.15C356.348 440.15 358.198 439.65 359.698 438.65C361.231 437.65 362.365 436.2 363.098 434.3L363.798 436C363.098 437.9 361.898 439.417 360.198 440.55C358.531 441.65 356.398 442.2 353.798 442.2ZM375.755 442V415.9H378.255V427.8H395.955V415.9H398.455V442H395.955V430H378.255V442H375.755ZM409.252 442V415.9H411.752V438.15L430.352 415.9H432.552V442H430.052V419.75L411.452 442H409.252ZM448.084 442V417.4L448.784 418.15H437.884V415.9H460.784V418.15H449.884L450.584 417.4V442H448.084ZM475.466 442.2C472.932 442.2 470.666 441.633 468.666 440.5C466.699 439.367 465.132 437.8 463.966 435.8C462.832 433.8 462.266 431.517 462.266 428.95C462.266 426.35 462.832 424.05 463.966 422.05C465.132 420.05 466.699 418.5 468.666 417.4C470.666 416.267 472.932 415.7 475.466 415.7C477.566 415.7 479.466 416.1 481.166 416.9C482.899 417.7 484.299 418.9 485.366 420.5L483.516 421.85C482.582 420.517 481.416 419.533 480.016 418.9C478.616 418.267 477.099 417.95 475.466 417.95C473.432 417.95 471.599 418.417 469.966 419.35C468.366 420.25 467.099 421.533 466.166 423.2C465.266 424.833 464.816 426.75 464.816 428.95C464.816 431.15 465.266 433.083 466.166 434.75C467.099 436.383 468.366 437.667 469.966 438.6C471.599 439.5 473.432 439.95 475.466 439.95C477.099 439.95 478.616 439.633 480.016 439C481.416 438.367 482.582 437.383 483.516 436.05L485.366 437.4C484.299 439 482.899 440.2 481.166 441C479.466 441.8 477.566 442.2 475.466 442.2ZM508.77 442V432.4L509.32 433H500.07C496.803 433 494.253 432.3 492.42 430.9C490.62 429.467 489.72 427.367 489.72 424.6C489.72 421.667 490.703 419.483 492.67 418.05C494.637 416.617 497.237 415.9 500.47 415.9H511.07V442H508.77ZM489.57 442L496.82 431.95H499.47L492.32 442H489.57ZM508.77 431.7V417.35L509.32 418.1H500.62C497.953 418.1 495.887 418.617 494.42 419.65C492.953 420.683 492.22 422.367 492.22 424.7C492.22 428.967 494.92 431.1 500.32 431.1H509.32L508.77 431.7ZM534.691 442V415.9H537.191V427.8H554.891V415.9H557.391V442H554.891V430H537.191V442H534.691ZM584.487 442V436.05L584.387 435.15V425.35C584.387 422.917 583.72 421.067 582.387 419.8C581.087 418.533 579.17 417.9 576.637 417.9C574.837 417.9 573.154 418.217 571.587 418.85C570.054 419.45 568.737 420.233 567.637 421.2L566.387 419.4C567.687 418.233 569.254 417.333 571.087 416.7C572.92 416.033 574.837 415.7 576.837 415.7C580.07 415.7 582.554 416.517 584.287 418.15C586.02 419.783 586.887 422.217 586.887 425.45V442H584.487ZM575.087 442.2C573.154 442.2 571.47 441.9 570.037 441.3C568.637 440.667 567.554 439.783 566.787 438.65C566.054 437.517 565.687 436.217 565.687 434.75C565.687 433.417 565.987 432.217 566.587 431.15C567.22 430.05 568.254 429.167 569.687 428.5C571.12 427.8 573.037 427.45 575.437 427.45H585.037V429.4H575.487C572.787 429.4 570.887 429.9 569.787 430.9C568.72 431.9 568.187 433.15 568.187 434.65C568.187 436.317 568.82 437.65 570.087 438.65C571.354 439.65 573.137 440.15 575.437 440.15C577.637 440.15 579.487 439.65 580.987 438.65C582.52 437.65 583.654 436.2 584.387 434.3L585.087 436C584.387 437.9 583.187 439.417 581.487 440.55C579.82 441.65 577.687 442.2 575.087 442.2ZM186.4 503V476.9H197.4C200.267 476.9 202.533 477.467 204.2 478.6C205.867 479.733 206.7 481.383 206.7 483.55C206.7 485.683 205.883 487.3 204.25 488.4C202.65 489.5 200.567 490.05 198 490.05L198.7 489.3C201.767 489.3 204.017 489.867 205.45 491C206.883 492.133 207.6 493.8 207.6 496C207.6 498.233 206.783 499.967 205.15 501.2C203.55 502.4 201.067 503 197.7 503H186.4ZM188.85 500.95H197.65C200.083 500.95 201.933 500.55 203.2 499.75C204.467 498.95 205.1 497.667 205.1 495.9C205.1 494.1 204.533 492.8 203.4 492C202.3 491.167 200.517 490.75 198.05 490.75H188.85V500.95ZM188.85 488.8H197.25C199.45 488.8 201.15 488.383 202.35 487.55C203.583 486.717 204.2 485.483 204.2 483.85C204.2 482.217 203.583 481 202.35 480.2C201.15 479.367 199.45 478.95 197.25 478.95H188.85V488.8ZM232.778 503V497.05L232.678 496.15V486.35C232.678 483.917 232.011 482.067 230.678 480.8C229.378 479.533 227.461 478.9 224.928 478.9C223.128 478.9 221.445 479.217 219.878 479.85C218.345 480.45 217.028 481.233 215.928 482.2L214.678 480.4C215.978 479.233 217.545 478.333 219.378 477.7C221.211 477.033 223.128 476.7 225.128 476.7C228.361 476.7 230.845 477.517 232.578 479.15C234.311 480.783 235.178 483.217 235.178 486.45V503H232.778ZM223.378 503.2C221.445 503.2 219.761 502.9 218.328 502.3C216.928 501.667 215.845 500.783 215.078 499.65C214.345 498.517 213.978 497.217 213.978 495.75C213.978 494.417 214.278 493.217 214.878 492.15C215.511 491.05 216.545 490.167 217.978 489.5C219.411 488.8 221.328 488.45 223.728 488.45H233.328V490.4H223.778C221.078 490.4 219.178 490.9 218.078 491.9C217.011 492.9 216.478 494.15 216.478 495.65C216.478 497.317 217.111 498.65 218.378 499.65C219.645 500.65 221.428 501.15 223.728 501.15C225.928 501.15 227.778 500.65 229.278 499.65C230.811 498.65 231.945 497.2 232.678 495.3L233.378 497C232.678 498.9 231.478 500.417 229.778 501.55C228.111 502.65 225.978 503.2 223.378 503.2ZM262.286 500.8L261.686 501.55V476.9H264.186V501.55L263.436 500.8H278.636L277.936 501.55V476.9H280.436V503H245.336V476.9H247.836V501.55L247.136 500.8H262.286ZM302.034 503.2C299.401 503.2 297.067 502.633 295.034 501.5C293.034 500.367 291.451 498.8 290.284 496.8C289.151 494.8 288.584 492.517 288.584 489.95C288.584 487.35 289.117 485.067 290.184 483.1C291.284 481.1 292.784 479.533 294.684 478.4C296.584 477.267 298.717 476.7 301.084 476.7C303.451 476.7 305.567 477.25 307.434 478.35C309.334 479.45 310.817 481 311.884 483C312.984 484.967 313.534 487.25 313.534 489.85C313.534 489.95 313.517 490.067 313.484 490.2C313.484 490.3 313.484 490.417 313.484 490.55H290.434V488.6H312.134L311.134 489.55C311.167 487.517 310.734 485.7 309.834 484.1C308.967 482.467 307.784 481.2 306.284 480.3C304.784 479.367 303.051 478.9 301.084 478.9C299.151 478.9 297.417 479.367 295.884 480.3C294.384 481.2 293.201 482.467 292.334 484.1C291.467 485.7 291.034 487.533 291.034 489.6V490.05C291.034 492.183 291.501 494.083 292.434 495.75C293.401 497.383 294.717 498.667 296.384 499.6C298.051 500.5 299.951 500.95 302.084 500.95C303.751 500.95 305.301 500.65 306.734 500.05C308.201 499.45 309.434 498.533 310.434 497.3L311.884 498.95C310.751 500.35 309.317 501.417 307.584 502.15C305.884 502.85 304.034 503.2 302.034 503.2ZM321.703 503V476.9H324.153L336.503 497.55H335.403L347.803 476.9H350.103V503H347.803V479.9L348.303 480.1L336.453 499.65H335.303L323.403 479.95L324.003 479.85V503H321.703ZM396.104 503V491.25L396.904 492H384.954C382.254 492 379.92 491.533 377.954 490.6C376.02 489.667 374.537 488.317 373.504 486.55C372.504 484.783 372.004 482.667 372.004 480.2C372.004 477.567 372.554 475.35 373.654 473.55C374.787 471.717 376.354 470.333 378.354 469.4C380.387 468.467 382.754 468 385.454 468H398.654V503H396.104ZM372.004 503L380.554 490.75H383.254L374.754 503H372.004ZM396.104 490.6V469.5L396.904 470.3H385.654C382.154 470.3 379.437 471.133 377.504 472.8C375.57 474.467 374.604 476.917 374.604 480.15C374.604 483.217 375.487 485.6 377.254 487.3C379.054 488.967 381.704 489.8 385.204 489.8H396.904L396.104 490.6ZM410.375 503V476.9H412.875V488.8H430.575V476.9H433.075V503H430.575V491H412.875V503H410.375ZM461.721 501.8V479.15H448.121L447.821 485.65C447.754 487.483 447.637 489.317 447.471 491.15C447.304 492.95 447.037 494.617 446.671 496.15C446.304 497.65 445.787 498.867 445.121 499.8C444.487 500.733 443.654 501.25 442.621 501.35L440.121 500.8C441.187 500.867 442.054 500.483 442.721 499.65C443.387 498.783 443.904 497.617 444.271 496.15C444.637 494.683 444.904 493.033 445.071 491.2C445.271 489.333 445.421 487.433 445.521 485.5L445.871 476.9H464.221V501.8H461.721ZM438.971 509.5V500.8H468.421V509.5H466.071V503H441.371V509.5H438.971ZM486.604 503.2C483.971 503.2 481.638 502.633 479.604 501.5C477.604 500.367 476.021 498.8 474.854 496.8C473.721 494.8 473.154 492.517 473.154 489.95C473.154 487.35 473.688 485.067 474.754 483.1C475.854 481.1 477.354 479.533 479.254 478.4C481.154 477.267 483.288 476.7 485.654 476.7C488.021 476.7 490.138 477.25 492.004 478.35C493.904 479.45 495.388 481 496.454 483C497.554 484.967 498.104 487.25 498.104 489.85C498.104 489.95 498.088 490.067 498.054 490.2C498.054 490.3 498.054 490.417 498.054 490.55H475.004V488.6H496.704L495.704 489.55C495.738 487.517 495.304 485.7 494.404 484.1C493.538 482.467 492.354 481.2 490.854 480.3C489.354 479.367 487.621 478.9 485.654 478.9C483.721 478.9 481.988 479.367 480.454 480.3C478.954 481.2 477.771 482.467 476.904 484.1C476.038 485.7 475.604 487.533 475.604 489.6V490.05C475.604 492.183 476.071 494.083 477.004 495.75C477.971 497.383 479.288 498.667 480.954 499.6C482.621 500.5 484.521 500.95 486.654 500.95C488.321 500.95 489.871 500.65 491.304 500.05C492.771 499.45 494.004 498.533 495.004 497.3L496.454 498.95C495.321 500.35 493.888 501.417 492.154 502.15C490.454 502.85 488.604 503.2 486.604 503.2ZM525.523 503L514.323 489.95L516.423 488.75L528.523 503H525.523ZM506.273 503V476.9H508.773V503H506.273ZM507.973 490.9V488.75H516.173V490.9H507.973ZM516.573 490.2L514.273 489.8L524.973 476.9H527.723L516.573 490.2ZM544.313 503.2C541.78 503.2 539.513 502.633 537.513 501.5C535.547 500.367 533.98 498.8 532.813 496.8C531.68 494.8 531.113 492.517 531.113 489.95C531.113 487.35 531.68 485.05 532.813 483.05C533.98 481.05 535.547 479.5 537.513 478.4C539.513 477.267 541.78 476.7 544.313 476.7C546.413 476.7 548.313 477.1 550.013 477.9C551.747 478.7 553.147 479.9 554.213 481.5L552.363 482.85C551.43 481.517 550.263 480.533 548.863 479.9C547.463 479.267 545.947 478.95 544.313 478.95C542.28 478.95 540.447 479.417 538.813 480.35C537.213 481.25 535.947 482.533 535.013 484.2C534.113 485.833 533.663 487.75 533.663 489.95C533.663 492.15 534.113 494.083 535.013 495.75C535.947 497.383 537.213 498.667 538.813 499.6C540.447 500.5 542.28 500.95 544.313 500.95C545.947 500.95 547.463 500.633 548.863 500C550.263 499.367 551.43 498.383 552.363 497.05L554.213 498.4C553.147 500 551.747 501.2 550.013 502C548.313 502.8 546.413 503.2 544.313 503.2ZM598.537 501.75V470.3H580.637L580.337 479.7C580.237 482.467 580.07 485.117 579.837 487.65C579.604 490.183 579.254 492.467 578.787 494.5C578.32 496.5 577.67 498.117 576.837 499.35C576.037 500.583 575.02 501.25 573.787 501.35L570.837 500.7C572.237 500.8 573.37 500.317 574.237 499.25C575.137 498.183 575.837 496.667 576.337 494.7C576.87 492.733 577.254 490.45 577.487 487.85C577.72 485.25 577.887 482.467 577.987 479.5L578.337 468H601.087V501.75H598.537ZM569.537 511L569.587 500.7H606.487V511H604.037V503H572.037L571.987 511H569.537ZM613.744 503V476.9H616.244V499.15L634.844 476.9H637.044V503H634.544V480.75L615.944 503H613.744ZM658.376 503.2C655.842 503.2 653.576 502.633 651.576 501.5C649.609 500.367 648.042 498.8 646.876 496.8C645.742 494.8 645.176 492.517 645.176 489.95C645.176 487.35 645.742 485.05 646.876 483.05C648.042 481.05 649.609 479.5 651.576 478.4C653.576 477.267 655.842 476.7 658.376 476.7C660.476 476.7 662.376 477.1 664.076 477.9C665.809 478.7 667.209 479.9 668.276 481.5L666.426 482.85C665.492 481.517 664.326 480.533 662.926 479.9C661.526 479.267 660.009 478.95 658.376 478.95C656.342 478.95 654.509 479.417 652.876 480.35C651.276 481.25 650.009 482.533 649.076 484.2C648.176 485.833 647.726 487.75 647.726 489.95C647.726 492.15 648.176 494.083 649.076 495.75C650.009 497.383 651.276 498.667 652.876 499.6C654.509 500.5 656.342 500.95 658.376 500.95C660.009 500.95 661.526 500.633 662.926 500C664.326 499.367 665.492 498.383 666.426 497.05L668.276 498.4C667.209 500 665.809 501.2 664.076 502C662.376 502.8 660.476 503.2 658.376 503.2ZM694.908 503L683.708 489.95L685.808 488.75L697.908 503H694.908ZM675.658 503V476.9H678.158V503H675.658ZM677.358 490.9V488.75H685.558V490.9H677.358ZM685.958 490.2L683.658 489.8L694.358 476.9H697.108L685.958 490.2ZM713.948 503.2C711.315 503.2 708.981 502.633 706.948 501.5C704.948 500.367 703.365 498.8 702.198 496.8C701.065 494.8 700.498 492.517 700.498 489.95C700.498 487.35 701.031 485.067 702.098 483.1C703.198 481.1 704.698 479.533 706.598 478.4C708.498 477.267 710.631 476.7 712.998 476.7C715.365 476.7 717.481 477.25 719.348 478.35C721.248 479.45 722.731 481 723.798 483C724.898 484.967 725.448 487.25 725.448 489.85C725.448 489.95 725.431 490.067 725.398 490.2C725.398 490.3 725.398 490.417 725.398 490.55H702.348V488.6H724.048L723.048 489.55C723.081 487.517 722.648 485.7 721.748 484.1C720.881 482.467 719.698 481.2 718.198 480.3C716.698 479.367 714.965 478.9 712.998 478.9C711.065 478.9 709.331 479.367 707.798 480.3C706.298 481.2 705.115 482.467 704.248 484.1C703.381 485.7 702.948 487.533 702.948 489.6V490.05C702.948 492.183 703.415 494.083 704.348 495.75C705.315 497.383 706.631 498.667 708.298 499.6C709.965 500.5 711.865 500.95 713.998 500.95C715.665 500.95 717.215 500.65 718.648 500.05C720.115 499.45 721.348 498.533 722.348 497.3L723.798 498.95C722.665 500.35 721.231 501.417 719.498 502.15C717.798 502.85 715.948 503.2 713.948 503.2Z" fill="black"/>
<path d="M76.8746 451.665C76.7372 450.504 76.6665 449.323 76.6665 448.125C76.6665 431.672 90.0047 418.333 106.458 418.333C122.912 418.333 136.25 431.672 136.25 448.125V459.583C136.25 477.303 121.886 491.667 104.167 491.667H72.0832H69.7915C58.4006 491.667 49.1665 482.433 49.1665 471.042C49.1665 459.651 58.4006 450.417 69.7915 450.417C72.2801 450.417 74.6657 450.858 76.8746 451.665ZM76.8746 451.665C79.8608 452.777 86.7498 456.833 90.4165 464.167" stroke="#83B5FA" stroke-width="3" stroke-linecap="round" stroke-linejoin="round"/>
</svg>
