<svg width="742" height="122" viewBox="0 0 742 122" fill="none" xmlns="http://www.w3.org/2000/svg">
<path d="M17.7 74.5V65.5H46.7V74.5H17.7ZM25 42.8C30.7333 42.8 35.8 44 40.2 46.4C44.6 48.7333 48.0667 51.9667 50.6 56.1C53.1333 60.1667 54.4 64.9 54.4 70.3C54.4 75.6333 53.1333 80.4 50.6 84.6C48.0667 88.7333 44.6 92 40.2 94.4C35.8 96.7333 30.7333 97.9 25 97.9C20.2 97.9 15.8 97.1 11.8 95.5C7.8 93.9 4.46667 91.6 1.8 88.6L9 81.6C11.1333 83.6667 13.4667 85.2333 16 86.3C18.6 87.3667 21.4333 87.9 24.5 87.9C28.1 87.9 31.2667 87.1667 34 85.7C36.7333 84.1667 38.9 82.0667 40.5 79.4C42.1 76.7333 42.9 73.7 42.9 70.3C42.9 66.8333 42.1 63.8 40.5 61.2C38.9 58.5333 36.7333 56.4667 34 55C31.2667 53.4667 28.1 52.7 24.5 52.7C21.4333 52.7 18.6 53.2333 16 54.3C13.4667 55.3667 11.1333 56.9667 9 59.1L1.8 52.1C4.46667 49.1 7.8 46.8 11.8 45.2C15.8 43.6 20.2 42.8 25 42.8ZM75.6523 97V51.2L78.5523 54.2H56.8523V43.6H106.852V54.2H85.2523L88.1523 51.2V97H75.6523ZM137.376 97.7C131.909 97.7 127.042 96.5333 122.776 94.2C118.509 91.8 115.142 88.5333 112.676 84.4C110.209 80.2667 108.976 75.5667 108.976 70.3C108.976 64.9667 110.209 60.2667 112.676 56.2C115.142 52.0667 118.509 48.8333 122.776 46.5C127.042 44.1667 131.909 43 137.376 43C142.909 43 147.809 44.1667 152.076 46.5C156.409 48.8333 159.776 52.0333 162.176 56.1C164.642 60.1667 165.876 64.9 165.876 70.3C165.876 75.5667 164.642 80.2667 162.176 84.4C159.776 88.5333 156.409 91.8 152.076 94.2C147.809 96.5333 142.909 97.7 137.376 97.7ZM137.376 87C140.442 87 143.176 86.3333 145.576 85C147.976 83.6667 149.842 81.7333 151.176 79.2C152.576 76.6667 153.276 73.7 153.276 70.3C153.276 66.8333 152.576 63.8667 151.176 61.4C149.842 58.8667 147.976 56.9333 145.576 55.6C143.176 54.2667 140.476 53.6 137.476 53.6C134.409 53.6 131.676 54.2667 129.276 55.6C126.942 56.9333 125.076 58.8667 123.676 61.4C122.276 63.8667 121.576 66.8333 121.576 70.3C121.576 73.7 122.276 76.6667 123.676 79.2C125.076 81.7333 126.942 83.6667 129.276 85C131.676 86.3333 134.376 87 137.376 87Z" fill="#DD4F62"/>
<path d="M206.9 98C202.5 98 198.567 97.3333 195.1 96C191.633 94.6667 188.633 92.6333 186.1 89.9C183.633 87.1 181.733 83.5667 180.4 79.3C179.067 75.0333 178.4 69.9667 178.4 64.1C178.4 59.8333 178.767 55.9333 179.5 52.4C180.233 48.8667 181.333 45.7 182.8 42.9C184.267 40.0333 186.1 37.5 188.3 35.3C190.567 33.1 193.2 31.2667 196.2 29.8C199.2 28.3333 202.6 27.2 206.4 26.4L231.2 21.1L233 32.3L210.5 36.9C209.233 37.1667 207.7 37.5667 205.9 38.1C204.167 38.5667 202.367 39.3 200.5 40.3C198.7 41.2333 197 42.6 195.4 44.4C193.867 46.1333 192.6 48.4 191.6 51.2C190.667 53.9333 190.2 57.3667 190.2 61.5C190.2 62.7667 190.233 63.7333 190.3 64.4C190.433 65 190.533 65.6667 190.6 66.4C190.733 67.0667 190.8 68.0667 190.8 69.4L186.1 64.5C187.433 61.1 189.267 58.2 191.6 55.8C194 53.3333 196.767 51.4667 199.9 50.2C203.1 48.8667 206.567 48.2 210.3 48.2C215.3 48.2 219.733 49.2333 223.6 51.3C227.467 53.3667 230.5 56.2667 232.7 60C234.9 63.7333 236 67.9667 236 72.7C236 77.6333 234.8 82 232.4 85.8C230 89.6 226.6 92.6 222.2 94.8C217.867 96.9333 212.767 98 206.9 98ZM207.9 87.9C210.9 87.9 213.533 87.2667 215.8 86C218.133 84.6667 219.933 82.8667 221.2 80.6C222.533 78.3333 223.2 75.8 223.2 73C223.2 70.2 222.533 67.7667 221.2 65.7C219.933 63.5667 218.133 61.8667 215.8 60.6C213.533 59.3333 210.833 58.7 207.7 58.7C204.7 58.7 202 59.3 199.6 60.5C197.267 61.7 195.433 63.3667 194.1 65.5C192.833 67.5667 192.2 69.9667 192.2 72.7C192.2 75.5 192.867 78.0667 194.2 80.4C195.533 82.7333 197.367 84.5667 199.7 85.9C202.1 87.2333 204.833 87.9 207.9 87.9ZM272.999 97.7C267.066 97.7 261.866 96.5333 257.399 94.2C252.999 91.8 249.566 88.5333 247.099 84.4C244.699 80.2667 243.499 75.5667 243.499 70.3C243.499 64.9667 244.666 60.2667 246.999 56.2C249.399 52.0667 252.666 48.8333 256.799 46.5C260.999 44.1667 265.766 43 271.099 43C276.299 43 280.933 44.1333 284.999 46.4C289.066 48.6667 292.266 51.8667 294.599 56C296.933 60.1333 298.099 65 298.099 70.6C298.099 71.1333 298.066 71.7333 297.999 72.4C297.999 73.0667 297.966 73.7 297.899 74.3H253.399V66H291.299L286.399 68.6C286.466 65.5333 285.833 62.8333 284.499 60.5C283.166 58.1667 281.333 56.3333 278.999 55C276.733 53.6667 274.099 53 271.099 53C268.033 53 265.333 53.6667 262.999 55C260.733 56.3333 258.933 58.2 257.599 60.6C256.333 62.9333 255.699 65.7 255.699 68.9V70.9C255.699 74.1 256.433 76.9333 257.899 79.4C259.366 81.8667 261.433 83.7667 264.099 85.1C266.766 86.4333 269.833 87.1 273.299 87.1C276.299 87.1 278.999 86.6333 281.399 85.7C283.799 84.7667 285.933 83.3 287.799 81.3L294.499 89C292.099 91.8 289.066 93.9667 285.399 95.5C281.799 96.9667 277.666 97.7 272.999 97.7ZM327.792 97.9C323.726 97.9 319.692 97.4333 315.692 96.5C311.759 95.5 308.192 94.1 304.992 92.3L308.492 83C311.092 84.4667 314.026 85.6 317.292 86.4C320.559 87.2 323.826 87.6 327.092 87.6C329.892 87.6 332.292 87.3333 334.292 86.8C336.292 86.2 337.826 85.3333 338.892 84.2C340.026 83.0667 340.592 81.7667 340.592 80.3C340.592 78.1667 339.659 76.5667 337.792 75.5C335.992 74.3667 333.392 73.8 329.992 73.8H319.692V65.4H328.992C331.126 65.4 332.926 65.1667 334.392 64.7C335.926 64.2333 337.092 63.5333 337.892 62.6C338.692 61.6667 339.092 60.5667 339.092 59.3C339.092 58.0333 338.592 56.9333 337.592 56C336.659 55 335.292 54.2667 333.492 53.8C331.692 53.2667 329.526 53 326.992 53C324.326 53 321.559 53.3333 318.692 54C315.892 54.6667 313.026 55.6333 310.092 56.9L306.892 47.7C310.292 46.1667 313.592 45 316.792 44.2C320.059 43.3333 323.292 42.8667 326.492 42.8C331.359 42.6 335.692 43.1 339.492 44.3C343.292 45.5 346.292 47.2333 348.492 49.5C350.692 51.7667 351.792 54.4333 351.792 57.5C351.792 60.0333 350.992 62.3333 349.392 64.4C347.859 66.4 345.726 67.9667 342.992 69.1C340.326 70.2333 337.259 70.8 333.792 70.8L334.192 68.1C340.126 68.1 344.792 69.3 348.192 71.7C351.592 74.0333 353.292 77.2333 353.292 81.3C353.292 84.5667 352.192 87.4667 349.992 90C347.792 92.4667 344.759 94.4 340.892 95.8C337.092 97.2 332.726 97.9 327.792 97.9ZM389.966 97.7C384.499 97.7 379.632 96.5333 375.366 94.2C371.099 91.8 367.732 88.5333 365.266 84.4C362.799 80.2667 361.566 75.5667 361.566 70.3C361.566 64.9667 362.799 60.2667 365.266 56.2C367.732 52.0667 371.099 48.8333 375.366 46.5C379.632 44.1667 384.499 43 389.966 43C395.499 43 400.399 44.1667 404.666 46.5C408.999 48.8333 412.366 52.0333 414.766 56.1C417.232 60.1667 418.466 64.9 418.466 70.3C418.466 75.5667 417.232 80.2667 414.766 84.4C412.366 88.5333 408.999 91.8 404.666 94.2C400.399 96.5333 395.499 97.7 389.966 97.7ZM389.966 87C393.032 87 395.766 86.3333 398.166 85C400.566 83.6667 402.432 81.7333 403.766 79.2C405.166 76.6667 405.866 73.7 405.866 70.3C405.866 66.8333 405.166 63.8667 403.766 61.4C402.432 58.8667 400.566 56.9333 398.166 55.6C395.766 54.2667 393.066 53.6 390.066 53.6C386.999 53.6 384.266 54.2667 381.866 55.6C379.532 56.9333 377.666 58.8667 376.266 61.4C374.866 63.8667 374.166 66.8333 374.166 70.3C374.166 73.7 374.866 76.6667 376.266 79.2C377.666 81.7333 379.532 83.6667 381.866 85C384.266 86.3333 386.966 87 389.966 87ZM430.814 97V43.6H482.014V97H469.614V51.3L472.514 54.2H440.414L443.314 51.3V97H430.814ZM531.28 97V86.2L530.58 83.9V65C530.58 61.3333 529.48 58.5 527.28 56.5C525.08 54.4333 521.747 53.4 517.28 53.4C514.28 53.4 511.314 53.8667 508.38 54.8C505.514 55.7333 503.08 57.0333 501.08 58.7L496.18 49.6C499.047 47.4 502.447 45.7667 506.38 44.7C510.38 43.5667 514.514 43 518.78 43C526.514 43 532.48 44.8667 536.68 48.6C540.947 52.2667 543.08 57.9667 543.08 65.7V97H531.28ZM514.48 97.7C510.48 97.7 506.98 97.0333 503.98 95.7C500.98 94.3 498.647 92.4 496.98 90C495.38 87.5333 494.58 84.7667 494.58 81.7C494.58 78.7 495.28 76 496.68 73.6C498.147 71.2 500.514 69.3 503.78 67.9C507.047 66.5 511.38 65.8 516.78 65.8H532.28V74.1H517.68C513.414 74.1 510.547 74.8 509.08 76.2C507.614 77.5333 506.88 79.2 506.88 81.2C506.88 83.4667 507.78 85.2667 509.58 86.6C511.38 87.9333 513.88 88.6 517.08 88.6C520.147 88.6 522.88 87.9 525.28 86.5C527.747 85.1 529.514 83.0333 530.58 80.3L532.68 87.8C531.48 90.9333 529.314 93.3667 526.18 95.1C523.114 96.8333 519.214 97.7 514.48 97.7ZM582.848 97.7C577.248 97.7 572.248 96.5333 567.848 94.2C563.515 91.8 560.115 88.5333 557.648 84.4C555.182 80.2667 553.948 75.5667 553.948 70.3C553.948 64.9667 555.182 60.2667 557.648 56.2C560.115 52.0667 563.515 48.8333 567.848 46.5C572.248 44.1667 577.248 43 582.848 43C588.048 43 592.615 44.0667 596.548 46.2C600.548 48.2667 603.582 51.3333 605.648 55.4L596.048 61C594.448 58.4667 592.482 56.6 590.148 55.4C587.882 54.2 585.415 53.6 582.748 53.6C579.682 53.6 576.915 54.2667 574.448 55.6C571.982 56.9333 570.048 58.8667 568.648 61.4C567.248 63.8667 566.548 66.8333 566.548 70.3C566.548 73.7667 567.248 76.7667 568.648 79.3C570.048 81.7667 571.982 83.6667 574.448 85C576.915 86.3333 579.682 87 582.748 87C585.415 87 587.882 86.4 590.148 85.2C592.482 84 594.448 82.1333 596.048 79.6L605.648 85.2C603.582 89.2 600.548 92.3 596.548 94.5C592.615 96.6333 588.048 97.7 582.848 97.7ZM616.654 97V43.6H629.154V65.3H656.054V43.6H668.554V97H656.054V75.9H629.154V97H616.654ZM709.106 97.7C703.64 97.7 698.773 96.5333 694.506 94.2C690.24 91.8 686.873 88.5333 684.406 84.4C681.94 80.2667 680.706 75.5667 680.706 70.3C680.706 64.9667 681.94 60.2667 684.406 56.2C686.873 52.0667 690.24 48.8333 694.506 46.5C698.773 44.1667 703.64 43 709.106 43C714.64 43 719.54 44.1667 723.806 46.5C728.14 48.8333 731.506 52.0333 733.906 56.1C736.373 60.1667 737.606 64.9 737.606 70.3C737.606 75.5667 736.373 80.2667 733.906 84.4C731.506 88.5333 728.14 91.8 723.806 94.2C719.54 96.5333 714.64 97.7 709.106 97.7ZM709.106 87C712.173 87 714.906 86.3333 717.306 85C719.706 83.6667 721.573 81.7333 722.906 79.2C724.306 76.6667 725.006 73.7 725.006 70.3C725.006 66.8333 724.306 63.8667 722.906 61.4C721.573 58.8667 719.706 56.9333 717.306 55.6C714.906 54.2667 712.206 53.6 709.206 53.6C706.14 53.6 703.406 54.2667 701.006 55.6C698.673 56.9333 696.806 58.8667 695.406 61.4C694.006 63.8667 693.306 66.8333 693.306 70.3C693.306 73.7 694.006 76.6667 695.406 79.2C696.806 81.7333 698.673 83.6667 701.006 85C703.406 86.3333 706.106 87 709.106 87Z" fill="#355ACF"/>
</svg>
