<svg width="566" height="122" viewBox="0 0 566 122" fill="none" xmlns="http://www.w3.org/2000/svg">
<path d="M17.7 74.5V65.5H46.7V74.5H17.7ZM25 42.8C30.7333 42.8 35.8 44 40.2 46.4C44.6 48.7333 48.0667 51.9667 50.6 56.1C53.1333 60.1667 54.4 64.9 54.4 70.3C54.4 75.6333 53.1333 80.4 50.6 84.6C48.0667 88.7333 44.6 92 40.2 94.4C35.8 96.7333 30.7333 97.9 25 97.9C20.2 97.9 15.8 97.1 11.8 95.5C7.8 93.9 4.46667 91.6 1.8 88.6L9 81.6C11.1333 83.6667 13.4667 85.2333 16 86.3C18.6 87.3667 21.4333 87.9 24.5 87.9C28.1 87.9 31.2667 87.1667 34 85.7C36.7333 84.1667 38.9 82.0667 40.5 79.4C42.1 76.7333 42.9 73.7 42.9 70.3C42.9 66.8333 42.1 63.8 40.5 61.2C38.9 58.5333 36.7333 56.4667 34 55C31.2667 53.4667 28.1 52.7 24.5 52.7C21.4333 52.7 18.6 53.2333 16 54.3C13.4667 55.3667 11.1333 56.9667 9 59.1L1.8 52.1C4.46667 49.1 7.8 46.8 11.8 45.2C15.8 43.6 20.2 42.8 25 42.8ZM75.6523 97V51.2L78.5523 54.2H56.8523V43.6H106.852V54.2H85.2523L88.1523 51.2V97H75.6523ZM137.376 97.7C131.909 97.7 127.042 96.5333 122.776 94.2C118.509 91.8 115.142 88.5333 112.676 84.4C110.209 80.2667 108.976 75.5667 108.976 70.3C108.976 64.9667 110.209 60.2667 112.676 56.2C115.142 52.0667 118.509 48.8333 122.776 46.5C127.042 44.1667 131.909 43 137.376 43C142.909 43 147.809 44.1667 152.076 46.5C156.409 48.8333 159.776 52.0333 162.176 56.1C164.642 60.1667 165.876 64.9 165.876 70.3C165.876 75.5667 164.642 80.2667 162.176 84.4C159.776 88.5333 156.409 91.8 152.076 94.2C147.809 96.5333 142.909 97.7 137.376 97.7ZM137.376 87C140.442 87 143.176 86.3333 145.576 85C147.976 83.6667 149.842 81.7333 151.176 79.2C152.576 76.6667 153.276 73.7 153.276 70.3C153.276 66.8333 152.576 63.8667 151.176 61.4C149.842 58.8667 147.976 56.9333 145.576 55.6C143.176 54.2667 140.476 53.6 137.476 53.6C134.409 53.6 131.676 54.2667 129.276 55.6C126.942 56.9333 125.076 58.8667 123.676 61.4C122.276 63.8667 121.576 66.8333 121.576 70.3C121.576 73.7 122.276 76.6667 123.676 79.2C125.076 81.7333 126.942 83.6667 129.276 85C131.676 86.3333 134.376 87 137.376 87Z" fill="#DD4F62"/>
<path d="M206.9 98C202.5 98 198.567 97.3333 195.1 96C191.633 94.6667 188.633 92.6333 186.1 89.9C183.633 87.1 181.733 83.5667 180.4 79.3C179.067 75.0333 178.4 69.9667 178.4 64.1C178.4 59.8333 178.767 55.9333 179.5 52.4C180.233 48.8667 181.333 45.7 182.8 42.9C184.267 40.0333 186.1 37.5 188.3 35.3C190.567 33.1 193.2 31.2667 196.2 29.8C199.2 28.3333 202.6 27.2 206.4 26.4L231.2 21.1L233 32.3L210.5 36.9C209.233 37.1667 207.7 37.5667 205.9 38.1C204.167 38.5667 202.367 39.3 200.5 40.3C198.7 41.2333 197 42.6 195.4 44.4C193.867 46.1333 192.6 48.4 191.6 51.2C190.667 53.9333 190.2 57.3667 190.2 61.5C190.2 62.7667 190.233 63.7333 190.3 64.4C190.433 65 190.533 65.6667 190.6 66.4C190.733 67.0667 190.8 68.0667 190.8 69.4L186.1 64.5C187.433 61.1 189.267 58.2 191.6 55.8C194 53.3333 196.767 51.4667 199.9 50.2C203.1 48.8667 206.567 48.2 210.3 48.2C215.3 48.2 219.733 49.2333 223.6 51.3C227.467 53.3667 230.5 56.2667 232.7 60C234.9 63.7333 236 67.9667 236 72.7C236 77.6333 234.8 82 232.4 85.8C230 89.6 226.6 92.6 222.2 94.8C217.867 96.9333 212.767 98 206.9 98ZM207.9 87.9C210.9 87.9 213.533 87.2667 215.8 86C218.133 84.6667 219.933 82.8667 221.2 80.6C222.533 78.3333 223.2 75.8 223.2 73C223.2 70.2 222.533 67.7667 221.2 65.7C219.933 63.5667 218.133 61.8667 215.8 60.6C213.533 59.3333 210.833 58.7 207.7 58.7C204.7 58.7 202 59.3 199.6 60.5C197.267 61.7 195.433 63.3667 194.1 65.5C192.833 67.5667 192.2 69.9667 192.2 72.7C192.2 75.5 192.867 78.0667 194.2 80.4C195.533 82.7333 197.367 84.5667 199.7 85.9C202.1 87.2333 204.833 87.9 207.9 87.9ZM301.999 97V43.6H314.499V97H301.999ZM274.099 61.2C280.966 61.2 286.166 62.7333 289.699 65.8C293.299 68.8667 295.099 73.2 295.099 78.8C295.099 84.6 293.099 89.1333 289.099 92.4C285.166 95.6 279.566 97.1667 272.299 97.1L248.099 97V43.6H260.599V61.1L274.099 61.2ZM271.199 87.9C274.866 87.9667 277.666 87.2 279.599 85.6C281.533 84 282.499 81.6667 282.499 78.6C282.499 75.5333 281.533 73.3333 279.599 72C277.733 70.6 274.933 69.8667 271.199 69.8L260.599 69.7V87.8L271.199 87.9ZM355.602 97.7C350.002 97.7 345.002 96.5333 340.602 94.2C336.269 91.8 332.869 88.5333 330.402 84.4C327.936 80.2667 326.702 75.5667 326.702 70.3C326.702 64.9667 327.936 60.2667 330.402 56.2C332.869 52.0667 336.269 48.8333 340.602 46.5C345.002 44.1667 350.002 43 355.602 43C360.802 43 365.369 44.0667 369.302 46.2C373.302 48.2667 376.336 51.3333 378.402 55.4L368.802 61C367.202 58.4667 365.236 56.6 362.902 55.4C360.636 54.2 358.169 53.6 355.502 53.6C352.436 53.6 349.669 54.2667 347.202 55.6C344.736 56.9333 342.802 58.8667 341.402 61.4C340.002 63.8667 339.302 66.8333 339.302 70.3C339.302 73.7667 340.002 76.7667 341.402 79.3C342.802 81.7667 344.736 83.6667 347.202 85C349.669 86.3333 352.436 87 355.502 87C358.169 87 360.636 86.4 362.902 85.2C365.236 84 367.202 82.1333 368.802 79.6L378.402 85.2C376.336 89.2 373.302 92.3 369.302 94.5C365.369 96.6333 360.802 97.7 355.602 97.7ZM400.117 97V51.2L403.017 54.2H381.317V43.6H431.317V54.2H409.717L412.617 51.2V97H400.117ZM469.984 97.7C465.651 97.7 461.684 96.7 458.084 94.7C454.551 92.7 451.718 89.7 449.584 85.7C447.518 81.6333 446.484 76.5 446.484 70.3C446.484 64.0333 447.484 58.9 449.484 54.9C451.551 50.9 454.351 47.9333 457.884 46C461.418 44 465.451 43 469.984 43C475.251 43 479.884 44.1333 483.884 46.4C487.951 48.6667 491.151 51.8333 493.484 55.9C495.884 59.9667 497.084 64.7667 497.084 70.3C497.084 75.8333 495.884 80.6667 493.484 84.8C491.151 88.8667 487.951 92.0333 483.884 94.3C479.884 96.5667 475.251 97.7 469.984 97.7ZM440.384 116.4V43.6H452.284V56.2L451.884 70.4L452.884 84.6V116.4H440.384ZM468.584 87C471.584 87 474.251 86.3333 476.584 85C478.984 83.6667 480.884 81.7333 482.284 79.2C483.684 76.6667 484.384 73.7 484.384 70.3C484.384 66.8333 483.684 63.8667 482.284 61.4C480.884 58.8667 478.984 56.9333 476.584 55.6C474.251 54.2667 471.584 53.6 468.584 53.6C465.584 53.6 462.884 54.2667 460.484 55.6C458.084 56.9333 456.184 58.8667 454.784 61.4C453.384 63.8667 452.684 66.8333 452.684 70.3C452.684 73.7 453.384 76.6667 454.784 79.2C456.184 81.7333 458.084 83.6667 460.484 85C462.884 86.3333 465.584 87 468.584 87ZM533.325 97.7C527.858 97.7 522.992 96.5333 518.725 94.2C514.458 91.8 511.092 88.5333 508.625 84.4C506.158 80.2667 504.925 75.5667 504.925 70.3C504.925 64.9667 506.158 60.2667 508.625 56.2C511.092 52.0667 514.458 48.8333 518.725 46.5C522.992 44.1667 527.858 43 533.325 43C538.858 43 543.758 44.1667 548.025 46.5C552.358 48.8333 555.725 52.0333 558.125 56.1C560.592 60.1667 561.825 64.9 561.825 70.3C561.825 75.5667 560.592 80.2667 558.125 84.4C555.725 88.5333 552.358 91.8 548.025 94.2C543.758 96.5333 538.858 97.7 533.325 97.7ZM533.325 87C536.392 87 539.125 86.3333 541.525 85C543.925 83.6667 545.792 81.7333 547.125 79.2C548.525 76.6667 549.225 73.7 549.225 70.3C549.225 66.8333 548.525 63.8667 547.125 61.4C545.792 58.8667 543.925 56.9333 541.525 55.6C539.125 54.2667 536.425 53.6 533.425 53.6C530.358 53.6 527.625 54.2667 525.225 55.6C522.892 56.9333 521.025 58.8667 519.625 61.4C518.225 63.8667 517.525 66.8333 517.525 70.3C517.525 73.7 518.225 76.6667 519.625 79.2C521.025 81.7333 522.892 83.6667 525.225 85C527.625 86.3333 530.325 87 533.325 87Z" fill="#355ACF"/>
</svg>
