<svg width="676" height="122" viewBox="0 0 676 122" fill="none" xmlns="http://www.w3.org/2000/svg">
<path d="M17.7 74.5V65.5H46.7V74.5H17.7ZM25 42.8C30.7333 42.8 35.8 44 40.2 46.4C44.6 48.7333 48.0667 51.9667 50.6 56.1C53.1333 60.1667 54.4 64.9 54.4 70.3C54.4 75.6333 53.1333 80.4 50.6 84.6C48.0667 88.7333 44.6 92 40.2 94.4C35.8 96.7333 30.7333 97.9 25 97.9C20.2 97.9 15.8 97.1 11.8 95.5C7.8 93.9 4.46667 91.6 1.8 88.6L9 81.6C11.1333 83.6667 13.4667 85.2333 16 86.3C18.6 87.3667 21.4333 87.9 24.5 87.9C28.1 87.9 31.2667 87.1667 34 85.7C36.7333 84.1667 38.9 82.0667 40.5 79.4C42.1 76.7333 42.9 73.7 42.9 70.3C42.9 66.8333 42.1 63.8 40.5 61.2C38.9 58.5333 36.7333 56.4667 34 55C31.2667 53.4667 28.1 52.7 24.5 52.7C21.4333 52.7 18.6 53.2333 16 54.3C13.4667 55.3667 11.1333 56.9667 9 59.1L1.8 52.1C4.46667 49.1 7.8 46.8 11.8 45.2C15.8 43.6 20.2 42.8 25 42.8ZM75.6523 97V51.2L78.5523 54.2H56.8523V43.6H106.852V54.2H85.2523L88.1523 51.2V97H75.6523ZM137.376 97.7C131.909 97.7 127.042 96.5333 122.776 94.2C118.509 91.8 115.142 88.5333 112.676 84.4C110.209 80.2667 108.976 75.5667 108.976 70.3C108.976 64.9667 110.209 60.2667 112.676 56.2C115.142 52.0667 118.509 48.8333 122.776 46.5C127.042 44.1667 131.909 43 137.376 43C142.909 43 147.809 44.1667 152.076 46.5C156.409 48.8333 159.776 52.0333 162.176 56.1C164.642 60.1667 165.876 64.9 165.876 70.3C165.876 75.5667 164.642 80.2667 162.176 84.4C159.776 88.5333 156.409 91.8 152.076 94.2C147.809 96.5333 142.909 97.7 137.376 97.7ZM137.376 87C140.442 87 143.176 86.3333 145.576 85C147.976 83.6667 149.842 81.7333 151.176 79.2C152.576 76.6667 153.276 73.7 153.276 70.3C153.276 66.8333 152.576 63.8667 151.176 61.4C149.842 58.8667 147.976 56.9333 145.576 55.6C143.176 54.2667 140.476 53.6 137.476 53.6C134.409 53.6 131.676 54.2667 129.276 55.6C126.942 56.9333 125.076 58.8667 123.676 61.4C122.276 63.8667 121.576 66.8333 121.576 70.3C121.576 73.7 122.276 76.6667 123.676 79.2C125.076 81.7333 126.942 83.6667 129.276 85C131.676 86.3333 134.376 87 137.376 87Z" fill="#DD4F62"/>
<path d="M218 91.2V54.2H197.5L197.2 62.8C197.067 65.8667 196.867 68.8333 196.6 71.7C196.333 74.5 195.9 77.1 195.3 79.5C194.7 81.8333 193.833 83.7667 192.7 85.3C191.567 86.8333 190.067 87.8333 188.2 88.3L175.8 86.4C177.8 86.4 179.4 85.7667 180.6 84.5C181.867 83.1667 182.833 81.3667 183.5 79.1C184.233 76.7667 184.767 74.1333 185.1 71.2C185.433 68.2 185.667 65.1 185.8 61.9L186.5 43.6H230.5V91.2H218ZM173.9 108.9V86.4H238.4V108.9H226.7V97H185.5V108.9H173.9ZM273.364 97.7C267.897 97.7 263.031 96.5333 258.764 94.2C254.497 91.8 251.131 88.5333 248.664 84.4C246.197 80.2667 244.964 75.5667 244.964 70.3C244.964 64.9667 246.197 60.2667 248.664 56.2C251.131 52.0667 254.497 48.8333 258.764 46.5C263.031 44.1667 267.897 43 273.364 43C278.897 43 283.797 44.1667 288.064 46.5C292.397 48.8333 295.764 52.0333 298.164 56.1C300.631 60.1667 301.864 64.9 301.864 70.3C301.864 75.5667 300.631 80.2667 298.164 84.4C295.764 88.5333 292.397 91.8 288.064 94.2C283.797 96.5333 278.897 97.7 273.364 97.7ZM273.364 87C276.431 87 279.164 86.3333 281.564 85C283.964 83.6667 285.831 81.7333 287.164 79.2C288.564 76.6667 289.264 73.7 289.264 70.3C289.264 66.8333 288.564 63.8667 287.164 61.4C285.831 58.8667 283.964 56.9333 281.564 55.6C279.164 54.2667 276.464 53.6 273.464 53.6C270.397 53.6 267.664 54.2667 265.264 55.6C262.931 56.9333 261.064 58.8667 259.664 61.4C258.264 63.8667 257.564 66.8333 257.564 70.3C257.564 73.7 258.264 76.6667 259.664 79.2C261.064 81.7333 262.931 83.6667 265.264 85C267.664 86.3333 270.364 87 273.364 87ZM338.513 97.7C332.913 97.7 327.913 96.5333 323.513 94.2C319.179 91.8 315.779 88.5333 313.313 84.4C310.846 80.2667 309.613 75.5667 309.613 70.3C309.613 64.9667 310.846 60.2667 313.313 56.2C315.779 52.0667 319.179 48.8333 323.513 46.5C327.913 44.1667 332.913 43 338.513 43C343.713 43 348.279 44.0667 352.213 46.2C356.213 48.2667 359.246 51.3333 361.313 55.4L351.713 61C350.113 58.4667 348.146 56.6 345.813 55.4C343.546 54.2 341.079 53.6 338.413 53.6C335.346 53.6 332.579 54.2667 330.113 55.6C327.646 56.9333 325.713 58.8667 324.313 61.4C322.913 63.8667 322.213 66.8333 322.213 70.3C322.213 73.7667 322.913 76.7667 324.313 79.3C325.713 81.7667 327.646 83.6667 330.113 85C332.579 86.3333 335.346 87 338.413 87C341.079 87 343.546 86.4 345.813 85.2C348.146 84 350.113 82.1333 351.713 79.6L361.313 85.2C359.246 89.2 356.213 92.3 352.213 94.5C348.279 96.6333 343.713 97.7 338.513 97.7ZM383.027 97V51.2L385.927 54.2H364.227V43.6H414.227V54.2H392.627L395.527 51.2V97H383.027ZM428.192 117.1C425.592 117.1 422.992 116.667 420.392 115.8C417.792 114.933 415.626 113.733 413.892 112.2L418.892 103C420.159 104.133 421.592 105.033 423.192 105.7C424.792 106.367 426.426 106.7 428.092 106.7C430.359 106.7 432.192 106.133 433.592 105C434.992 103.867 436.292 101.967 437.492 99.3L440.592 92.3L441.592 90.8L461.792 43.6H473.792L448.792 101.3C447.126 105.3 445.259 108.467 443.192 110.8C441.192 113.133 438.926 114.767 436.392 115.7C433.926 116.633 431.192 117.1 428.192 117.1ZM439.192 98.9L415.092 43.6H428.092L447.692 89.7L439.192 98.9ZM482.474 97V43.6H533.674V97H521.274V51.3L524.174 54.2H492.074L494.974 51.3V97H482.474ZM550.541 97V43.6H563.041V65.3H589.941V43.6H602.441V97H589.941V75.9H563.041V97H550.541ZM642.993 97.7C637.526 97.7 632.66 96.5333 628.393 94.2C624.126 91.8 620.76 88.5333 618.293 84.4C615.826 80.2667 614.593 75.5667 614.593 70.3C614.593 64.9667 615.826 60.2667 618.293 56.2C620.76 52.0667 624.126 48.8333 628.393 46.5C632.66 44.1667 637.526 43 642.993 43C648.526 43 653.426 44.1667 657.693 46.5C662.026 48.8333 665.393 52.0333 667.793 56.1C670.26 60.1667 671.493 64.9 671.493 70.3C671.493 75.5667 670.26 80.2667 667.793 84.4C665.393 88.5333 662.026 91.8 657.693 94.2C653.426 96.5333 648.526 97.7 642.993 97.7ZM642.993 87C646.06 87 648.793 86.3333 651.193 85C653.593 83.6667 655.46 81.7333 656.793 79.2C658.193 76.6667 658.893 73.7 658.893 70.3C658.893 66.8333 658.193 63.8667 656.793 61.4C655.46 58.8667 653.593 56.9333 651.193 55.6C648.793 54.2667 646.093 53.6 643.093 53.6C640.026 53.6 637.293 54.2667 634.893 55.6C632.56 56.9333 630.693 58.8667 629.293 61.4C627.893 63.8667 627.193 66.8333 627.193 70.3C627.193 73.7 627.893 76.6667 629.293 79.2C630.693 81.7333 632.56 83.6667 634.893 85C637.293 86.3333 639.993 87 642.993 87Z" fill="#355ACF"/>
</svg>
