<svg width="547" height="122" viewBox="0 0 547 122" fill="none" xmlns="http://www.w3.org/2000/svg">
<path d="M17.7 74.5V65.5H46.7V74.5H17.7ZM25 42.8C30.7333 42.8 35.8 44 40.2 46.4C44.6 48.7333 48.0667 51.9667 50.6 56.1C53.1333 60.1667 54.4 64.9 54.4 70.3C54.4 75.6333 53.1333 80.4 50.6 84.6C48.0667 88.7333 44.6 92 40.2 94.4C35.8 96.7333 30.7333 97.9 25 97.9C20.2 97.9 15.8 97.1 11.8 95.5C7.8 93.9 4.46667 91.6 1.8 88.6L9 81.6C11.1333 83.6667 13.4667 85.2333 16 86.3C18.6 87.3667 21.4333 87.9 24.5 87.9C28.1 87.9 31.2667 87.1667 34 85.7C36.7333 84.1667 38.9 82.0667 40.5 79.4C42.1 76.7333 42.9 73.7 42.9 70.3C42.9 66.8333 42.1 63.8 40.5 61.2C38.9 58.5333 36.7333 56.4667 34 55C31.2667 53.4667 28.1 52.7 24.5 52.7C21.4333 52.7 18.6 53.2333 16 54.3C13.4667 55.3667 11.1333 56.9667 9 59.1L1.8 52.1C4.46667 49.1 7.8 46.8 11.8 45.2C15.8 43.6 20.2 42.8 25 42.8ZM75.6523 97V51.2L78.5523 54.2H56.8523V43.6H106.852V54.2H85.2523L88.1523 51.2V97H75.6523ZM137.376 97.7C131.909 97.7 127.042 96.5333 122.776 94.2C118.509 91.8 115.142 88.5333 112.676 84.4C110.209 80.2667 108.976 75.5667 108.976 70.3C108.976 64.9667 110.209 60.2667 112.676 56.2C115.142 52.0667 118.509 48.8333 122.776 46.5C127.042 44.1667 131.909 43 137.376 43C142.909 43 147.809 44.1667 152.076 46.5C156.409 48.8333 159.776 52.0333 162.176 56.1C164.642 60.1667 165.876 64.9 165.876 70.3C165.876 75.5667 164.642 80.2667 162.176 84.4C159.776 88.5333 156.409 91.8 152.076 94.2C147.809 96.5333 142.909 97.7 137.376 97.7ZM137.376 87C140.442 87 143.176 86.3333 145.576 85C147.976 83.6667 149.842 81.7333 151.176 79.2C152.576 76.6667 153.276 73.7 153.276 70.3C153.276 66.8333 152.576 63.8667 151.176 61.4C149.842 58.8667 147.976 56.9333 145.576 55.6C143.176 54.2667 140.476 53.6 137.476 53.6C134.409 53.6 131.676 54.2667 129.276 55.6C126.942 56.9333 125.076 58.8667 123.676 61.4C122.276 63.8667 121.576 66.8333 121.576 70.3C121.576 73.7 122.276 76.6667 123.676 79.2C125.076 81.7333 126.942 83.6667 129.276 85C131.676 86.3333 134.376 87 137.376 87Z" fill="#DD4F62"/>
<path d="M181.4 97V43.6H232.6V97H220.2V51.3L223.1 54.2H191L193.9 51.3V97H181.4ZM279.066 97.7C274.733 97.7 270.766 96.7 267.166 94.7C263.633 92.7 260.8 89.7 258.666 85.7C256.6 81.6333 255.566 76.5 255.566 70.3C255.566 64.0333 256.566 58.9 258.566 54.9C260.633 50.9 263.433 47.9333 266.966 46C270.5 44 274.533 43 279.066 43C284.333 43 288.966 44.1333 292.966 46.4C297.033 48.6667 300.233 51.8333 302.566 55.9C304.966 59.9667 306.166 64.7667 306.166 70.3C306.166 75.8333 304.966 80.6667 302.566 84.8C300.233 88.8667 297.033 92.0333 292.966 94.3C288.966 96.5667 284.333 97.7 279.066 97.7ZM249.466 116.4V43.6H261.366V56.2L260.966 70.4L261.966 84.6V116.4H249.466ZM277.666 87C280.666 87 283.333 86.3333 285.666 85C288.066 83.6667 289.966 81.7333 291.366 79.2C292.766 76.6667 293.466 73.7 293.466 70.3C293.466 66.8333 292.766 63.8667 291.366 61.4C289.966 58.8667 288.066 56.9333 285.666 55.6C283.333 54.2667 280.666 53.6 277.666 53.6C274.666 53.6 271.966 54.2667 269.566 55.6C267.166 56.9333 265.266 58.8667 263.866 61.4C262.466 63.8667 261.766 66.8333 261.766 70.3C261.766 73.7 262.466 76.6667 263.866 79.2C265.266 81.7333 267.166 83.6667 269.566 85C271.966 86.3333 274.666 87 277.666 87ZM342.407 97.7C336.94 97.7 332.074 96.5333 327.807 94.2C323.54 91.8 320.174 88.5333 317.707 84.4C315.24 80.2667 314.007 75.5667 314.007 70.3C314.007 64.9667 315.24 60.2667 317.707 56.2C320.174 52.0667 323.54 48.8333 327.807 46.5C332.074 44.1667 336.94 43 342.407 43C347.94 43 352.84 44.1667 357.107 46.5C361.44 48.8333 364.807 52.0333 367.207 56.1C369.674 60.1667 370.907 64.9 370.907 70.3C370.907 75.5667 369.674 80.2667 367.207 84.4C364.807 88.5333 361.44 91.8 357.107 94.2C352.84 96.5333 347.94 97.7 342.407 97.7ZM342.407 87C345.474 87 348.207 86.3333 350.607 85C353.007 83.6667 354.874 81.7333 356.207 79.2C357.607 76.6667 358.307 73.7 358.307 70.3C358.307 66.8333 357.607 63.8667 356.207 61.4C354.874 58.8667 353.007 56.9333 350.607 55.6C348.207 54.2667 345.507 53.6 342.507 53.6C339.44 53.6 336.707 54.2667 334.307 55.6C331.974 56.9333 330.107 58.8667 328.707 61.4C327.307 63.8667 326.607 66.8333 326.607 70.3C326.607 73.7 327.307 76.6667 328.707 79.2C330.107 81.7333 331.974 83.6667 334.307 85C336.707 86.3333 339.407 87 342.407 87ZM407.555 97.7C401.955 97.7 396.955 96.5333 392.555 94.2C388.222 91.8 384.822 88.5333 382.355 84.4C379.889 80.2667 378.655 75.5667 378.655 70.3C378.655 64.9667 379.889 60.2667 382.355 56.2C384.822 52.0667 388.222 48.8333 392.555 46.5C396.955 44.1667 401.955 43 407.555 43C412.755 43 417.322 44.0667 421.255 46.2C425.255 48.2667 428.289 51.3333 430.355 55.4L420.755 61C419.155 58.4667 417.189 56.6 414.855 55.4C412.589 54.2 410.122 53.6 407.455 53.6C404.389 53.6 401.622 54.2667 399.155 55.6C396.689 56.9333 394.755 58.8667 393.355 61.4C391.955 63.8667 391.255 66.8333 391.255 70.3C391.255 73.7667 391.955 76.7667 393.355 79.3C394.755 81.7667 396.689 83.6667 399.155 85C401.622 86.3333 404.389 87 407.455 87C410.122 87 412.589 86.4 414.855 85.2C417.189 84 419.155 82.1333 420.755 79.6L430.355 85.2C428.289 89.2 425.255 92.3 421.255 94.5C417.322 96.6333 412.755 97.7 407.555 97.7ZM452.07 97V51.2L454.97 54.2H433.27V43.6H483.27V54.2H461.67L464.57 51.2V97H452.07ZM513.794 97.7C508.327 97.7 503.46 96.5333 499.194 94.2C494.927 91.8 491.56 88.5333 489.094 84.4C486.627 80.2667 485.394 75.5667 485.394 70.3C485.394 64.9667 486.627 60.2667 489.094 56.2C491.56 52.0667 494.927 48.8333 499.194 46.5C503.46 44.1667 508.327 43 513.794 43C519.327 43 524.227 44.1667 528.494 46.5C532.827 48.8333 536.194 52.0333 538.594 56.1C541.06 60.1667 542.294 64.9 542.294 70.3C542.294 75.5667 541.06 80.2667 538.594 84.4C536.194 88.5333 532.827 91.8 528.494 94.2C524.227 96.5333 519.327 97.7 513.794 97.7ZM513.794 87C516.86 87 519.594 86.3333 521.994 85C524.394 83.6667 526.26 81.7333 527.594 79.2C528.994 76.6667 529.694 73.7 529.694 70.3C529.694 66.8333 528.994 63.8667 527.594 61.4C526.26 58.8667 524.394 56.9333 521.994 55.6C519.594 54.2667 516.894 53.6 513.894 53.6C510.827 53.6 508.094 54.2667 505.694 55.6C503.36 56.9333 501.494 58.8667 500.094 61.4C498.694 63.8667 497.994 66.8333 497.994 70.3C497.994 73.7 498.694 76.6667 500.094 79.2C501.494 81.7333 503.36 83.6667 505.694 85C508.094 86.3333 510.794 87 513.794 87Z" fill="#355ACF"/>
</svg>
