<svg width="413" height="122" viewBox="0 0 413 122" fill="none" xmlns="http://www.w3.org/2000/svg">
<path d="M17.7 74.5V65.5H46.7V74.5H17.7ZM25 42.8C30.7333 42.8 35.8 44 40.2 46.4C44.6 48.7333 48.0667 51.9667 50.6 56.1C53.1333 60.1667 54.4 64.9 54.4 70.3C54.4 75.6333 53.1333 80.4 50.6 84.6C48.0667 88.7333 44.6 92 40.2 94.4C35.8 96.7333 30.7333 97.9 25 97.9C20.2 97.9 15.8 97.1 11.8 95.5C7.8 93.9 4.46667 91.6 1.8 88.6L9 81.6C11.1333 83.6667 13.4667 85.2333 16 86.3C18.6 87.3667 21.4333 87.9 24.5 87.9C28.1 87.9 31.2667 87.1667 34 85.7C36.7333 84.1667 38.9 82.0667 40.5 79.4C42.1 76.7333 42.9 73.7 42.9 70.3C42.9 66.8333 42.1 63.8 40.5 61.2C38.9 58.5333 36.7333 56.4667 34 55C31.2667 53.4667 28.1 52.7 24.5 52.7C21.4333 52.7 18.6 53.2333 16 54.3C13.4667 55.3667 11.1333 56.9667 9 59.1L1.8 52.1C4.46667 49.1 7.8 46.8 11.8 45.2C15.8 43.6 20.2 42.8 25 42.8ZM75.6523 97V51.2L78.5523 54.2H56.8523V43.6H106.852V54.2H85.2523L88.1523 51.2V97H75.6523ZM137.376 97.7C131.909 97.7 127.042 96.5333 122.776 94.2C118.509 91.8 115.142 88.5333 112.676 84.4C110.209 80.2667 108.976 75.5667 108.976 70.3C108.976 64.9667 110.209 60.2667 112.676 56.2C115.142 52.0667 118.509 48.8333 122.776 46.5C127.042 44.1667 131.909 43 137.376 43C142.909 43 147.809 44.1667 152.076 46.5C156.409 48.8333 159.776 52.0333 162.176 56.1C164.642 60.1667 165.876 64.9 165.876 70.3C165.876 75.5667 164.642 80.2667 162.176 84.4C159.776 88.5333 156.409 91.8 152.076 94.2C147.809 96.5333 142.909 97.7 137.376 97.7ZM137.376 87C140.442 87 143.176 86.3333 145.576 85C147.976 83.6667 149.842 81.7333 151.176 79.2C152.576 76.6667 153.276 73.7 153.276 70.3C153.276 66.8333 152.576 63.8667 151.176 61.4C149.842 58.8667 147.976 56.9333 145.576 55.6C143.176 54.2667 140.476 53.6 137.476 53.6C134.409 53.6 131.676 54.2667 129.276 55.6C126.942 56.9333 125.076 58.8667 123.676 61.4C122.276 63.8667 121.576 66.8333 121.576 70.3C121.576 73.7 122.276 76.6667 123.676 79.2C125.076 81.7333 126.942 83.6667 129.276 85C131.676 86.3333 134.376 87 137.376 87Z" fill="#DD4F62"/>
<path d="M206.9 98C202.5 98 198.567 97.3333 195.1 96C191.633 94.6667 188.633 92.6333 186.1 89.9C183.633 87.1 181.733 83.5667 180.4 79.3C179.067 75.0333 178.4 69.9667 178.4 64.1C178.4 59.8333 178.767 55.9333 179.5 52.4C180.233 48.8667 181.333 45.7 182.8 42.9C184.267 40.0333 186.1 37.5 188.3 35.3C190.567 33.1 193.2 31.2667 196.2 29.8C199.2 28.3333 202.6 27.2 206.4 26.4L231.2 21.1L233 32.3L210.5 36.9C209.233 37.1667 207.7 37.5667 205.9 38.1C204.167 38.5667 202.367 39.3 200.5 40.3C198.7 41.2333 197 42.6 195.4 44.4C193.867 46.1333 192.6 48.4 191.6 51.2C190.667 53.9333 190.2 57.3667 190.2 61.5C190.2 62.7667 190.233 63.7333 190.3 64.4C190.433 65 190.533 65.6667 190.6 66.4C190.733 67.0667 190.8 68.0667 190.8 69.4L186.1 64.5C187.433 61.1 189.267 58.2 191.6 55.8C194 53.3333 196.767 51.4667 199.9 50.2C203.1 48.8667 206.567 48.2 210.3 48.2C215.3 48.2 219.733 49.2333 223.6 51.3C227.467 53.3667 230.5 56.2667 232.7 60C234.9 63.7333 236 67.9667 236 72.7C236 77.6333 234.8 82 232.4 85.8C230 89.6 226.6 92.6 222.2 94.8C217.867 96.9333 212.767 98 206.9 98ZM207.9 87.9C210.9 87.9 213.533 87.2667 215.8 86C218.133 84.6667 219.933 82.8667 221.2 80.6C222.533 78.3333 223.2 75.8 223.2 73C223.2 70.2 222.533 67.7667 221.2 65.7C219.933 63.5667 218.133 61.8667 215.8 60.6C213.533 59.3333 210.833 58.7 207.7 58.7C204.7 58.7 202 59.3 199.6 60.5C197.267 61.7 195.433 63.3667 194.1 65.5C192.833 67.5667 192.2 69.9667 192.2 72.7C192.2 75.5 192.867 78.0667 194.2 80.4C195.533 82.7333 197.367 84.5667 199.7 85.9C202.1 87.2333 204.833 87.9 207.9 87.9ZM279.816 97V86.2L279.116 83.9V65C279.116 61.3333 278.016 58.5 275.816 56.5C273.616 54.4333 270.282 53.4 265.816 53.4C262.816 53.4 259.849 53.8667 256.916 54.8C254.049 55.7333 251.616 57.0333 249.616 58.7L244.716 49.6C247.582 47.4 250.982 45.7667 254.916 44.7C258.916 43.5667 263.049 43 267.316 43C275.049 43 281.016 44.8667 285.216 48.6C289.482 52.2667 291.616 57.9667 291.616 65.7V97H279.816ZM263.016 97.7C259.016 97.7 255.516 97.0333 252.516 95.7C249.516 94.3 247.182 92.4 245.516 90C243.916 87.5333 243.116 84.7667 243.116 81.7C243.116 78.7 243.816 76 245.216 73.6C246.682 71.2 249.049 69.3 252.316 67.9C255.582 66.5 259.916 65.8 265.316 65.8H280.816V74.1H266.216C261.949 74.1 259.082 74.8 257.616 76.2C256.149 77.5333 255.416 79.2 255.416 81.2C255.416 83.4667 256.316 85.2667 258.116 86.6C259.916 87.9333 262.416 88.6 265.616 88.6C268.682 88.6 271.416 87.9 273.816 86.5C276.282 85.1 278.049 83.0333 279.116 80.3L281.216 87.8C280.016 90.9333 277.849 93.3667 274.716 95.1C271.649 96.8333 267.749 97.7 263.016 97.7ZM323.3 97.9C319.233 97.9 315.2 97.4333 311.2 96.5C307.267 95.5 303.7 94.1 300.5 92.3L304 83C306.6 84.4667 309.533 85.6 312.8 86.4C316.067 87.2 319.333 87.6 322.6 87.6C325.4 87.6 327.8 87.3333 329.8 86.8C331.8 86.2 333.333 85.3333 334.4 84.2C335.533 83.0667 336.1 81.7667 336.1 80.3C336.1 78.1667 335.167 76.5667 333.3 75.5C331.5 74.3667 328.9 73.8 325.5 73.8H315.2V65.4H324.5C326.633 65.4 328.433 65.1667 329.9 64.7C331.433 64.2333 332.6 63.5333 333.4 62.6C334.2 61.6667 334.6 60.5667 334.6 59.3C334.6 58.0333 334.1 56.9333 333.1 56C332.167 55 330.8 54.2667 329 53.8C327.2 53.2667 325.033 53 322.5 53C319.833 53 317.067 53.3333 314.2 54C311.4 54.6667 308.533 55.6333 305.6 56.9L302.4 47.7C305.8 46.1667 309.1 45 312.3 44.2C315.567 43.3333 318.8 42.8667 322 42.8C326.867 42.6 331.2 43.1 335 44.3C338.8 45.5 341.8 47.2333 344 49.5C346.2 51.7667 347.3 54.4333 347.3 57.5C347.3 60.0333 346.5 62.3333 344.9 64.4C343.367 66.4 341.233 67.9667 338.5 69.1C335.833 70.2333 332.767 70.8 329.3 70.8L329.7 68.1C335.633 68.1 340.3 69.3 343.7 71.7C347.1 74.0333 348.8 77.2333 348.8 81.3C348.8 84.5667 347.7 87.4667 345.5 90C343.3 92.4667 340.267 94.4 336.4 95.8C332.6 97.2 328.233 97.9 323.3 97.9ZM394.073 97V86.2L393.373 83.9V65C393.373 61.3333 392.273 58.5 390.073 56.5C387.873 54.4333 384.54 53.4 380.073 53.4C377.073 53.4 374.107 53.8667 371.173 54.8C368.307 55.7333 365.873 57.0333 363.873 58.7L358.973 49.6C361.84 47.4 365.24 45.7667 369.173 44.7C373.173 43.5667 377.307 43 381.573 43C389.307 43 395.273 44.8667 399.473 48.6C403.74 52.2667 405.873 57.9667 405.873 65.7V97H394.073ZM377.273 97.7C373.273 97.7 369.773 97.0333 366.773 95.7C363.773 94.3 361.44 92.4 359.773 90C358.173 87.5333 357.373 84.7667 357.373 81.7C357.373 78.7 358.073 76 359.473 73.6C360.94 71.2 363.307 69.3 366.573 67.9C369.84 66.5 374.173 65.8 379.573 65.8H395.073V74.1H380.473C376.207 74.1 373.34 74.8 371.873 76.2C370.407 77.5333 369.673 79.2 369.673 81.2C369.673 83.4667 370.573 85.2667 372.373 86.6C374.173 87.9333 376.673 88.6 379.873 88.6C382.94 88.6 385.673 87.9 388.073 86.5C390.54 85.1 392.307 83.0333 393.373 80.3L395.473 87.8C394.273 90.9333 392.107 93.3667 388.973 95.1C385.907 96.8333 382.007 97.7 377.273 97.7Z" fill="#355ACF"/>
</svg>
